<?xml version="1.0" standalone="no"?><!DOCTYPE svg PUBLIC "-//W3C//DTD SVG 1.1//EN" "http://www.w3.org/Graphics/SVG/1.1/DTD/svg11.dtd"><svg viewBox="0 0 46.87 80" width="64" height="64" fill="#FFFFFF" aria-labelledby="title" data-reactid="159" version="1.1" xmlns="http://www.w3.org/2000/svg" xmlns:xlink="http://www.w3.org/1999/xlink" style="border-bottom-color:rgb(32, 64, 86);border-left-color:rgb(32, 64, 86);border-right-color:rgb(32, 64, 86);border-top-color:rgb(32, 64, 86);color:rgb(32, 64, 86);display:inline;height:64px;min-height:0px;min-width:0px;outline-color:rgb(32, 64, 86);width:64px;column-rule-color:rgb(32, 64, 86);perspective-origin:32px 32px;-webkit-text-emphasis-color:rgb(32, 64, 86);-webkit-text-fill-color:rgb(32, 64, 86);-webkit-text-stroke-color:rgb(32, 64, 86);transform-origin:32px 32px;fill:rgb(255, 255, 255);"><title data-reactid="160" style="border-bottom-color:rgb(32, 64, 86);border-left-color:rgb(32, 64, 86);border-right-color:rgb(32, 64, 86);border-top-color:rgb(32, 64, 86);color:rgb(32, 64, 86);display:inline;height:auto;min-height:0px;min-width:0px;outline-color:rgb(32, 64, 86);overflow-x:visible;overflow-y:visible;width:auto;column-rule-color:rgb(32, 64, 86);perspective-origin:50% 50%;-webkit-text-emphasis-color:rgb(32, 64, 86);-webkit-text-fill-color:rgb(32, 64, 86);-webkit-text-stroke-color:rgb(32, 64, 86);transform-origin:0px 0px;fill:rgb(255, 255, 255);">Deploy a Website Icon</title><path d="M20.09,13.39l-1.88,1.88v6.81L20.09,24H26.9l1.88-1.88V15.27L26.9,13.39ZM25,20.09H22V17H25Z" data-reactid="161" style="border-bottom-color:rgb(32, 64, 86);border-left-color:rgb(32, 64, 86);border-right-color:rgb(32, 64, 86);border-top-color:rgb(32, 64, 86);color:rgb(32, 64, 86);display:inline;height:auto;min-height:0px;min-width:0px;outline-color:rgb(32, 64, 86);overflow-x:visible;overflow-y:visible;width:auto;column-rule-color:rgb(32, 64, 86);perspective-origin:0px 0px;-webkit-text-emphasis-color:rgb(32, 64, 86);-webkit-text-fill-color:rgb(32, 64, 86);-webkit-text-stroke-color:rgb(32, 64, 86);transform-origin:0px 0px;fill:rgb(255, 255, 255);d:path('M 20.09 13.39 l -1.88 1.88 v 6.81 L 20.09 24 H 26.9 l 1.88 -1.88 V 15.27 L 26.9 13.39 Z M 25 20.09 H 22 V 17 H 25 Z');"/><path d="M45,49l1.88-1.88V38.3L46.4,37,37.47,26.9l1.88-13.74-.59-1.64L24.67,0H22.32L8.22,11.51l-.7,1.76L9.4,27,.47,37.12,0,38.41v8.69L1.88,49H15.39v7.87l-.7-.35h-7l-1.41.82L.82,63.44.47,64.85v6.58l.35,1.41,5.4,6.34L7.64,80H14.8L16,79.3l1.29-1.06,1.06.94,1.53.82h7l1.17-.7,1.29-1.06,1.06.94,1.41.82h7l1.41-.82,5.4-6.11.59-1.41V64.85l-.59-1.41-5.4-6L39,56.51H32l-.47.23V49H45ZM43.11,39v6.23H34.89l1.88-13.39ZM3.88,45.23V39l6.34-7.17L12.1,45.23Zm23.85,10H19.27V49h8.46ZM33,60.26h5.17l4.58,5.17v5.4l-.12.12-4.58,5.17H32.89L29.37,73.3,26,76.12l-.12.12H20.68l-3.52-2.82-3.41,2.82-.12.12H8.58L4.11,71.19V65.55L8.58,60.5h5.17l1.53,1.17L12.1,67l3.52,1.41,5.05-9.63h5.76l5.05,9.75L35,67,31.6,61.2l1.17-.94Zm-1.88-15H15.86L11.51,13.74l12-9.87,12,9.87Z" data-reactid="162" style="border-bottom-color:rgb(32, 64, 86);border-left-color:rgb(32, 64, 86);border-right-color:rgb(32, 64, 86);border-top-color:rgb(32, 64, 86);color:rgb(32, 64, 86);display:inline;height:auto;min-height:0px;min-width:0px;outline-color:rgb(32, 64, 86);overflow-x:visible;overflow-y:visible;width:auto;column-rule-color:rgb(32, 64, 86);perspective-origin:0px 0px;-webkit-text-emphasis-color:rgb(32, 64, 86);-webkit-text-fill-color:rgb(32, 64, 86);-webkit-text-stroke-color:rgb(32, 64, 86);transform-origin:0px 0px;fill:rgb(255, 255, 255);d:path('M 45 49 l 1.88 -1.88 V 38.3 L 46.4 37 L 37.47 26.9 l 1.88 -13.74 l -0.59 -1.64 L 24.67 0 H 22.32 L 8.22 11.51 l -0.7 1.76 L 9.4 27 L 0.47 37.12 L 0 38.41 v 8.69 L 1.88 49 H 15.39 v 7.87 l -0.7 -0.35 h -7 l -1.41 0.82 L 0.82 63.44 L 0.47 64.85 v 6.58 l 0.35 1.41 l 5.4 6.34 L 7.64 80 H 14.8 L 16 79.3 l 1.29 -1.06 l 1.06 0.94 l 1.53 0.82 h 7 l 1.17 -0.7 l 1.29 -1.06 l 1.06 0.94 l 1.41 0.82 h 7 l 1.41 -0.82 l 5.4 -6.11 l 0.59 -1.41 V 64.85 l -0.59 -1.41 l -5.4 -6 L 39 56.51 H 32 l -0.47 0.23 V 49 H 45 Z M 43.11 39 v 6.23 H 34.89 l 1.88 -13.39 Z M 3.88 45.23 V 39 l 6.34 -7.17 L 12.1 45.23 Z m 23.85 10 H 19.27 V 49 h 8.46 Z M 33 60.26 h 5.17 l 4.58 5.17 v 5.4 l -0.12 0.12 l -4.58 5.17 H 32.89 L 29.37 73.3 L 26 76.12 l -0.12 0.12 H 20.68 l -3.52 -2.82 l -3.41 2.82 l -0.12 0.12 H 8.58 L 4.11 71.19 V 65.55 L 8.58 60.5 h 5.17 l 1.53 1.17 L 12.1 67 l 3.52 1.41 l 5.05 -9.63 h 5.76 l 5.05 9.75 L 35 67 L 31.6 61.2 l 1.17 -0.94 Z m -1.88 -15 H 15.86 L 11.51 13.74 l 12 -9.87 l 12 9.87 Z');"/></svg>