<?xml version="1.0" standalone="no"?><!DOCTYPE svg PUBLIC "-//W3C//DTD SVG 1.1//EN" "http://www.w3.org/Graphics/SVG/1.1/DTD/svg11.dtd"><svg viewBox="0 0 80 80" width="64" height="64" fill="#FFFFFF" aria-labelledby="title" version="1.1" xmlns="http://www.w3.org/2000/svg" xmlns:xlink="http://www.w3.org/1999/xlink" style="border-bottom-color:rgb(32, 64, 86);border-left-color:rgb(32, 64, 86);border-right-color:rgb(32, 64, 86);border-top-color:rgb(32, 64, 86);color:rgb(32, 64, 86);display:inline;height:64px;min-height:0px;min-width:0px;outline-color:rgb(32, 64, 86);width:64px;column-rule-color:rgb(32, 64, 86);perspective-origin:32px 32px;-webkit-text-emphasis-color:rgb(32, 64, 86);-webkit-text-fill-color:rgb(32, 64, 86);-webkit-text-stroke-color:rgb(32, 64, 86);transform-origin:32px 32px;fill:rgb(255, 255, 255);"><title style="border-bottom-color:rgb(32, 64, 86);border-left-color:rgb(32, 64, 86);border-right-color:rgb(32, 64, 86);border-top-color:rgb(32, 64, 86);color:rgb(32, 64, 86);display:inline;height:auto;min-height:0px;min-width:0px;outline-color:rgb(32, 64, 86);overflow-x:visible;overflow-y:visible;width:auto;column-rule-color:rgb(32, 64, 86);perspective-origin:50% 50%;-webkit-text-emphasis-color:rgb(32, 64, 86);-webkit-text-fill-color:rgb(32, 64, 86);-webkit-text-stroke-color:rgb(32, 64, 86);transform-origin:0px 0px;fill:rgb(255, 255, 255);">Git Icon</title><path d="M40,0,0,40,40,80,80,40ZM6.17,40,29.55,16.63l5.4,5.4L32.38,24.6l6,6V50.37l-6,6,8.23,8.23,8.23-8.23-6-6V30.65l.39-.39,7.61,7.61-2.57,2.57,8.23,8.23,8.23-8.23-8.23-8.23-2.57,2.57-7.61-7.61,2.57-2.57-8.23-8.23L38,18.94l-5.4-5.4L40,6.17,73.83,40,40,73.83ZM42.66,56.42l-2.06,2.06-2.06-2.06,2.06-2.06ZM40.61,26.66,38.55,24.6l2.06-2.06,2.06,2.06ZM54.39,40.44l2.06-2.06,2.06,2.06-2.06,2.06Z" style="border-bottom-color:rgb(32, 64, 86);border-left-color:rgb(32, 64, 86);border-right-color:rgb(32, 64, 86);border-top-color:rgb(32, 64, 86);color:rgb(32, 64, 86);display:inline;height:auto;min-height:0px;min-width:0px;outline-color:rgb(32, 64, 86);overflow-x:visible;overflow-y:visible;width:auto;column-rule-color:rgb(32, 64, 86);perspective-origin:0px 0px;-webkit-text-emphasis-color:rgb(32, 64, 86);-webkit-text-fill-color:rgb(32, 64, 86);-webkit-text-stroke-color:rgb(32, 64, 86);transform-origin:0px 0px;fill:rgb(255, 255, 255);d:path('M 40 0 L 0 40 L 40 80 L 80 40 Z M 6.17 40 L 29.55 16.63 l 5.4 5.4 L 32.38 24.6 l 6 6 V 50.37 l -6 6 l 8.23 8.23 l 8.23 -8.23 l -6 -6 V 30.65 l 0.39 -0.39 l 7.61 7.61 l -2.57 2.57 l 8.23 8.23 l 8.23 -8.23 l -8.23 -8.23 l -2.57 2.57 l -7.61 -7.61 l 2.57 -2.57 l -8.23 -8.23 L 38 18.94 l -5.4 -5.4 L 40 6.17 L 73.83 40 L 40 73.83 Z M 42.66 56.42 l -2.06 2.06 l -2.06 -2.06 l 2.06 -2.06 Z M 40.61 26.66 L 38.55 24.6 l 2.06 -2.06 l 2.06 2.06 Z M 54.39 40.44 l 2.06 -2.06 l 2.06 2.06 l -2.06 2.06 Z');"/></svg>