<?xml version="1.0" standalone="no"?><!DOCTYPE svg PUBLIC "-//W3C//DTD SVG 1.1//EN" "http://www.w3.org/Graphics/SVG/1.1/DTD/svg11.dtd"><svg viewBox="0 0 80 80" width="64" height="64" fill="#FFFFFF" aria-labelledby="title" version="1.1" xmlns="http://www.w3.org/2000/svg" xmlns:xlink="http://www.w3.org/1999/xlink" style="border-bottom-color:rgb(32, 64, 86);border-left-color:rgb(32, 64, 86);border-right-color:rgb(32, 64, 86);border-top-color:rgb(32, 64, 86);color:rgb(32, 64, 86);display:inline;height:64px;min-height:0px;min-width:0px;outline-color:rgb(32, 64, 86);width:64px;column-rule-color:rgb(32, 64, 86);perspective-origin:32px 32px;-webkit-text-emphasis-color:rgb(32, 64, 86);-webkit-text-fill-color:rgb(32, 64, 86);-webkit-text-stroke-color:rgb(32, 64, 86);transform-origin:32px 32px;fill:rgb(255, 255, 255);"><title style="border-bottom-color:rgb(32, 64, 86);border-left-color:rgb(32, 64, 86);border-right-color:rgb(32, 64, 86);border-top-color:rgb(32, 64, 86);color:rgb(32, 64, 86);display:inline;height:auto;min-height:0px;min-width:0px;outline-color:rgb(32, 64, 86);overflow-x:visible;overflow-y:visible;width:auto;column-rule-color:rgb(32, 64, 86);perspective-origin:50% 50%;-webkit-text-emphasis-color:rgb(32, 64, 86);-webkit-text-fill-color:rgb(32, 64, 86);-webkit-text-stroke-color:rgb(32, 64, 86);transform-origin:0px 0px;fill:rgb(255, 255, 255);">Javascript Icon</title><path d="M0,0V80H80V0ZM75.2,75.2H4.8V4.8H75.2Z" style="border-bottom-color:rgb(32, 64, 86);border-left-color:rgb(32, 64, 86);border-right-color:rgb(32, 64, 86);border-top-color:rgb(32, 64, 86);color:rgb(32, 64, 86);display:inline;height:auto;min-height:0px;min-width:0px;outline-color:rgb(32, 64, 86);overflow-x:visible;overflow-y:visible;width:auto;column-rule-color:rgb(32, 64, 86);perspective-origin:0px 0px;-webkit-text-emphasis-color:rgb(32, 64, 86);-webkit-text-fill-color:rgb(32, 64, 86);-webkit-text-stroke-color:rgb(32, 64, 86);transform-origin:0px 0px;fill:rgb(255, 255, 255);d:path('M 0 0 V 80 H 80 V 0 Z M 75.2 75.2 H 4.8 V 4.8 H 75.2 Z');"/><path id="_Path_" data-name="&lt;Path&gt;" d="M62.34,63.7a6.26,6.26,0,0,1-1.95,1,9.19,9.19,0,0,1-9.83-3c-.2-.24-.39-.49-.57-.75l-3.86,2.24a11.78,11.78,0,0,0,3.62,3.63A13.9,13.9,0,0,0,56,68.9a16.17,16.17,0,0,0,6.86-.65A8.67,8.67,0,0,0,68,64.31,9.12,9.12,0,0,0,69,59.24a8.46,8.46,0,0,0-3.25-6.61,24.34,24.34,0,0,0-5.53-3.13L59.11,49c-1-.43-2-.88-3-1.38a9.48,9.48,0,0,1-2.14-1.48,4.69,4.69,0,0,1-1.25-4.42,4.44,4.44,0,0,1,3.18-3.3,6.5,6.5,0,0,1,3.41,0,6,6,0,0,1,3.48,2.48l3.58-2.3a8.92,8.92,0,0,0-4-3.36,12.64,12.64,0,0,0-7.86-.51A8.25,8.25,0,0,0,49,38.63a8.72,8.72,0,0,0-1.08,5.15,8.46,8.46,0,0,0,2.75,6,18.43,18.43,0,0,0,5.05,3.07l.94.42c1.35.6,2.75,1.22,4.11,1.88a8,8,0,0,1,2,1.45,4.66,4.66,0,0,1-.49,7.13Z" style="border-bottom-color:rgb(32, 64, 86);border-left-color:rgb(32, 64, 86);border-right-color:rgb(32, 64, 86);border-top-color:rgb(32, 64, 86);color:rgb(32, 64, 86);display:inline;height:auto;min-height:0px;min-width:0px;outline-color:rgb(32, 64, 86);overflow-x:visible;overflow-y:visible;width:auto;column-rule-color:rgb(32, 64, 86);perspective-origin:0px 0px;-webkit-text-emphasis-color:rgb(32, 64, 86);-webkit-text-fill-color:rgb(32, 64, 86);-webkit-text-stroke-color:rgb(32, 64, 86);transform-origin:0px 0px;fill:rgb(255, 255, 255);d:path('M 62.34 63.7 a 6.26 6.26 0 0 1 -1.95 1 a 9.19 9.19 0 0 1 -9.83 -3 c -0.2 -0.24 -0.39 -0.49 -0.57 -0.75 l -3.86 2.24 a 11.78 11.78 0 0 0 3.62 3.63 A 13.9 13.9 0 0 0 56 68.9 a 16.17 16.17 0 0 0 6.86 -0.65 A 8.67 8.67 0 0 0 68 64.31 A 9.12 9.12 0 0 0 69 59.24 a 8.46 8.46 0 0 0 -3.25 -6.61 a 24.34 24.34 0 0 0 -5.53 -3.13 L 59.11 49 c -1 -0.43 -2 -0.88 -3 -1.38 a 9.48 9.48 0 0 1 -2.14 -1.48 a 4.69 4.69 0 0 1 -1.25 -4.42 a 4.44 4.44 0 0 1 3.18 -3.3 a 6.5 6.5 0 0 1 3.41 0 a 6 6 0 0 1 3.48 2.48 l 3.58 -2.3 a 8.92 8.92 0 0 0 -4 -3.36 a 12.64 12.64 0 0 0 -7.86 -0.51 A 8.25 8.25 0 0 0 49 38.63 a 8.72 8.72 0 0 0 -1.08 5.15 a 8.46 8.46 0 0 0 2.75 6 a 18.43 18.43 0 0 0 5.05 3.07 l 0.94 0.42 c 1.35 0.6 2.75 1.22 4.11 1.88 a 8 8 0 0 1 2 1.45 a 4.66 4.66 0 0 1 -0.49 7.13 Z');"/><path id="_Path_2" data-name="&lt;Path&gt;" d="M24,68a12.84,12.84,0,0,0,9.26.33,7.43,7.43,0,0,0,5-5,13.89,13.89,0,0,0,.64-4.61V34.79h-4.8v4.16q0,9.84,0,19.68a14.68,14.68,0,0,1-.16,2.17,4.44,4.44,0,0,1-2.25,3.53,6,6,0,0,1-6.07-.25,6.74,6.74,0,0,1-2-2.2l-.14-.22L19.55,64A9.41,9.41,0,0,0,24,68Z" style="border-bottom-color:rgb(32, 64, 86);border-left-color:rgb(32, 64, 86);border-right-color:rgb(32, 64, 86);border-top-color:rgb(32, 64, 86);color:rgb(32, 64, 86);display:inline;height:auto;min-height:0px;min-width:0px;outline-color:rgb(32, 64, 86);overflow-x:visible;overflow-y:visible;width:auto;column-rule-color:rgb(32, 64, 86);perspective-origin:0px 0px;-webkit-text-emphasis-color:rgb(32, 64, 86);-webkit-text-fill-color:rgb(32, 64, 86);-webkit-text-stroke-color:rgb(32, 64, 86);transform-origin:0px 0px;fill:rgb(255, 255, 255);d:path('M 24 68 a 12.84 12.84 0 0 0 9.26 0.33 a 7.43 7.43 0 0 0 5 -5 a 13.89 13.89 0 0 0 0.64 -4.61 V 34.79 h -4.8 v 4.16 q 0 9.84 0 19.68 a 14.68 14.68 0 0 1 -0.16 2.17 a 4.44 4.44 0 0 1 -2.25 3.53 a 6 6 0 0 1 -6.07 -0.25 a 6.74 6.74 0 0 1 -2 -2.2 l -0.14 -0.22 L 19.55 64 A 9.41 9.41 0 0 0 24 68 Z');"/></svg>