<?xml version="1.0" standalone="no"?><!DOCTYPE svg PUBLIC "-//W3C//DTD SVG 1.1//EN" "http://www.w3.org/Graphics/SVG/1.1/DTD/svg11.dtd"><svg viewBox="0 0 80 80" width="96" height="96" fill="#FFFFFF" aria-labelledby="title" version="1.1" xmlns="http://www.w3.org/2000/svg" xmlns:xlink="http://www.w3.org/1999/xlink" style="height:96px;width:96px;align-self:center;perspective-origin:48px 48px;transform-origin:48px 48px;fill:rgb(255, 255, 255);"><title style="display:inline;height:auto;min-height:0px;min-width:0px;overflow-x:visible;overflow-y:visible;width:auto;perspective-origin:50% 50%;transform-origin:0px 0px;fill:rgb(255, 255, 255);">JQuery Icon</title><polygon points="65.91 80 37.06 80 0 42.94 0 14.1 9.66 4.44 13.47 8.24 5.39 16.33 5.39 40.71 39.29 74.61 63.67 74.61 71.76 66.53 75.56 70.34 65.91 80" style="display:inline;height:auto;min-height:0px;min-width:0px;overflow-x:visible;overflow-y:visible;width:auto;perspective-origin:0px 0px;transform-origin:0px 0px;fill:rgb(255, 255, 255);"/><polygon points="65.91 53.39 50.37 53.39 26.61 29.63 26.61 9.66 34.05 2.22 37.86 6.03 32 11.89 32 27.4 52.6 48 63.67 48 71.76 39.92 75.56 43.73 65.91 53.39" style="display:inline;height:auto;min-height:0px;min-width:0px;overflow-x:visible;overflow-y:visible;width:auto;perspective-origin:0px 0px;transform-origin:0px 0px;fill:rgb(255, 255, 255);"/><polygon points="74.78 26.77 63.67 26.77 53.23 16.33 53.23 5.22 58.45 0 62.26 3.81 58.61 7.46 58.61 14.1 65.91 21.39 72.55 21.39 76.19 17.74 80 21.55 74.78 26.77" style="display:inline;height:auto;min-height:0px;min-width:0px;overflow-x:visible;overflow-y:visible;width:auto;perspective-origin:0px 0px;transform-origin:0px 0px;fill:rgb(255, 255, 255);"/></svg>