<?xml version="1.0" standalone="no"?><!DOCTYPE svg PUBLIC "-//W3C//DTD SVG 1.1//EN" "http://www.w3.org/Graphics/SVG/1.1/DTD/svg11.dtd"><svg viewBox="0 0 92.37 80" width="64" height="64" fill="#FFFFFF" aria-labelledby="title" version="1.1" xmlns="http://www.w3.org/2000/svg" xmlns:xlink="http://www.w3.org/1999/xlink" style="border-bottom-color:rgb(32, 64, 86);border-left-color:rgb(32, 64, 86);border-right-color:rgb(32, 64, 86);border-top-color:rgb(32, 64, 86);color:rgb(32, 64, 86);display:inline;height:64px;min-height:0px;min-width:0px;outline-color:rgb(32, 64, 86);width:64px;column-rule-color:rgb(32, 64, 86);perspective-origin:32px 32px;-webkit-text-emphasis-color:rgb(32, 64, 86);-webkit-text-fill-color:rgb(32, 64, 86);-webkit-text-stroke-color:rgb(32, 64, 86);transform-origin:32px 32px;fill:rgb(255, 255, 255);"><title style="border-bottom-color:rgb(32, 64, 86);border-left-color:rgb(32, 64, 86);border-right-color:rgb(32, 64, 86);border-top-color:rgb(32, 64, 86);color:rgb(32, 64, 86);display:inline;height:auto;min-height:0px;min-width:0px;outline-color:rgb(32, 64, 86);overflow-x:visible;overflow-y:visible;width:auto;column-rule-color:rgb(32, 64, 86);perspective-origin:50% 50%;-webkit-text-emphasis-color:rgb(32, 64, 86);-webkit-text-fill-color:rgb(32, 64, 86);-webkit-text-stroke-color:rgb(32, 64, 86);transform-origin:0px 0px;fill:rgb(255, 255, 255);">ReactJS Icon</title><polygon points="43.53 34.59 40.6 39.67 43.53 44.75 49.4 44.75 52.33 39.67 49.4 34.59 43.53 34.59" style="border-bottom-color:rgb(32, 64, 86);border-left-color:rgb(32, 64, 86);border-right-color:rgb(32, 64, 86);border-top-color:rgb(32, 64, 86);color:rgb(32, 64, 86);display:inline;height:auto;min-height:0px;min-width:0px;outline-color:rgb(32, 64, 86);overflow-x:visible;overflow-y:visible;width:auto;column-rule-color:rgb(32, 64, 86);perspective-origin:0px 0px;-webkit-text-emphasis-color:rgb(32, 64, 86);-webkit-text-fill-color:rgb(32, 64, 86);-webkit-text-stroke-color:rgb(32, 64, 86);transform-origin:0px 0px;fill:rgb(255, 255, 255);"/><path d="M92.37,39.65,83.52,24.23H73.25l5.08-8.8L69.37,0H51.52L46.19,9.15,40.85,0H23.19L14.28,15.43l5.08,8.8H8.85L0,39.65,8.85,55.07H19.72l-5.48,9.51L23.19,80H41l5.33-9.15L51.52,80H69.37l8.91-15.43-5.43-9.51H83.52ZM54.45,5h12l6,10.43-5.08,8.8H55L49.17,14.13ZM52.51,50.05H40.05L34.19,40l6.23-10.77H52L58.32,40ZM61.21,45l2.93,5.07H58.28ZM49.61,55.07l-3.33,5.77-3.33-5.77Zm-15.33-5H28.43L31.36,45ZM31.35,35,28,29.23h6.67Zm12-10.77,2.93-5.08,2.93,5.08Zm14.52,5h6.67L61.2,35ZM20.05,15.43,26.07,5h12l5.33,9.15L37.59,24.23H25.13ZM11.79,50.09l-6-10.43,6-10.43h10.4L28.47,40,22.65,50.07H11.79ZM38.11,75h-12L20.05,64.57l5.48-9.51H37.16l6.23,10.77ZM72.51,64.6,66.49,75h-12l-5.33-9.15,6.23-10.81H67Zm-2.6-14.53L64.09,40l6.23-10.77H80.59l6,10.43-6,10.41H69.91Z" style="border-bottom-color:rgb(32, 64, 86);border-left-color:rgb(32, 64, 86);border-right-color:rgb(32, 64, 86);border-top-color:rgb(32, 64, 86);color:rgb(32, 64, 86);display:inline;height:auto;min-height:0px;min-width:0px;outline-color:rgb(32, 64, 86);overflow-x:visible;overflow-y:visible;width:auto;column-rule-color:rgb(32, 64, 86);perspective-origin:0px 0px;-webkit-text-emphasis-color:rgb(32, 64, 86);-webkit-text-fill-color:rgb(32, 64, 86);-webkit-text-stroke-color:rgb(32, 64, 86);transform-origin:0px 0px;fill:rgb(255, 255, 255);d:path('M 92.37 39.65 L 83.52 24.23 H 73.25 l 5.08 -8.8 L 69.37 0 H 51.52 L 46.19 9.15 L 40.85 0 H 23.19 L 14.28 15.43 l 5.08 8.8 H 8.85 L 0 39.65 L 8.85 55.07 H 19.72 l -5.48 9.51 L 23.19 80 H 41 l 5.33 -9.15 L 51.52 80 H 69.37 l 8.91 -15.43 l -5.43 -9.51 H 83.52 Z M 54.45 5 h 12 l 6 10.43 l -5.08 8.8 H 55 L 49.17 14.13 Z M 52.51 50.05 H 40.05 L 34.19 40 l 6.23 -10.77 H 52 L 58.32 40 Z M 61.21 45 l 2.93 5.07 H 58.28 Z M 49.61 55.07 l -3.33 5.77 l -3.33 -5.77 Z m -15.33 -5 H 28.43 L 31.36 45 Z M 31.35 35 L 28 29.23 h 6.67 Z m 12 -10.77 l 2.93 -5.08 l 2.93 5.08 Z m 14.52 5 h 6.67 L 61.2 35 Z M 20.05 15.43 L 26.07 5 h 12 l 5.33 9.15 L 37.59 24.23 H 25.13 Z M 11.79 50.09 l -6 -10.43 l 6 -10.43 h 10.4 L 28.47 40 L 22.65 50.07 H 11.79 Z M 38.11 75 h -12 L 20.05 64.57 l 5.48 -9.51 H 37.16 l 6.23 10.77 Z M 72.51 64.6 L 66.49 75 h -12 l -5.33 -9.15 l 6.23 -10.81 H 67 Z m -2.6 -14.53 L 64.09 40 l 6.23 -10.77 H 80.59 l 6 10.43 l -6 10.41 H 69.91 Z');"/></svg>