<?xml version="1.0" standalone="no"?><!DOCTYPE svg PUBLIC "-//W3C//DTD SVG 1.1//EN" "http://www.w3.org/Graphics/SVG/1.1/DTD/svg11.dtd"><svg viewBox="0 0 87.48 80" width="64" height="64" fill="#FFFFFF" aria-labelledby="title" version="1.1" xmlns="http://www.w3.org/2000/svg" xmlns:xlink="http://www.w3.org/1999/xlink" style="border-bottom-color:rgb(32, 64, 86);border-left-color:rgb(32, 64, 86);border-right-color:rgb(32, 64, 86);border-top-color:rgb(32, 64, 86);color:rgb(32, 64, 86);display:inline;height:64px;min-height:0px;min-width:0px;outline-color:rgb(32, 64, 86);width:64px;column-rule-color:rgb(32, 64, 86);perspective-origin:32px 32px;-webkit-text-emphasis-color:rgb(32, 64, 86);-webkit-text-fill-color:rgb(32, 64, 86);-webkit-text-stroke-color:rgb(32, 64, 86);transform-origin:32px 32px;fill:rgb(255, 255, 255);"><title style="border-bottom-color:rgb(32, 64, 86);border-left-color:rgb(32, 64, 86);border-right-color:rgb(32, 64, 86);border-top-color:rgb(32, 64, 86);color:rgb(32, 64, 86);display:inline;height:auto;min-height:0px;min-width:0px;outline-color:rgb(32, 64, 86);overflow-x:visible;overflow-y:visible;width:auto;column-rule-color:rgb(32, 64, 86);perspective-origin:50% 50%;-webkit-text-emphasis-color:rgb(32, 64, 86);-webkit-text-fill-color:rgb(32, 64, 86);-webkit-text-stroke-color:rgb(32, 64, 86);transform-origin:0px 0px;fill:rgb(255, 255, 255);">Sass</title><polygon points="87.48 25.25 87.48 21.13 70.77 30.77 72.55 33.87 82.12 28.34 82.12 39.93 61.25 51.98 61.25 58.16 87.48 43.02 87.48 41.49 87.47 41.49 87.47 25.25 87.48 25.25" style="border-bottom-color:rgb(32, 64, 86);border-left-color:rgb(32, 64, 86);border-right-color:rgb(32, 64, 86);border-top-color:rgb(32, 64, 86);color:rgb(32, 64, 86);display:inline;height:auto;min-height:0px;min-width:0px;outline-color:rgb(32, 64, 86);overflow-x:visible;overflow-y:visible;width:auto;column-rule-color:rgb(32, 64, 86);perspective-origin:0px 0px;-webkit-text-emphasis-color:rgb(32, 64, 86);-webkit-text-fill-color:rgb(32, 64, 86);-webkit-text-stroke-color:rgb(32, 64, 86);transform-origin:0px 0px;fill:rgb(255, 255, 255);"/><path d="M41.61,32.88l-1-1.66h0l-.47-.82-5.62,3.25h0L29.2,36.74h0V63.69l9.65-5.54v2.08l5.35-3.09V31.39ZM34.55,56.5V37.77l2.77-1.6,1.53,2.64V54Z" style="border-bottom-color:rgb(32, 64, 86);border-left-color:rgb(32, 64, 86);border-right-color:rgb(32, 64, 86);border-top-color:rgb(32, 64, 86);color:rgb(32, 64, 86);display:inline;height:auto;min-height:0px;min-width:0px;outline-color:rgb(32, 64, 86);overflow-x:visible;overflow-y:visible;width:auto;column-rule-color:rgb(32, 64, 86);perspective-origin:0px 0px;-webkit-text-emphasis-color:rgb(32, 64, 86);-webkit-text-fill-color:rgb(32, 64, 86);-webkit-text-stroke-color:rgb(32, 64, 86);transform-origin:0px 0px;fill:rgb(255, 255, 255);d:path('M 41.61 32.88 l -1 -1.66 h 0 l -0.47 -0.82 l -5.62 3.25 h 0 L 29.2 36.74 h 0 V 63.69 l 9.65 -5.54 v 2.08 l 5.35 -3.09 V 31.39 Z M 34.55 56.5 V 37.77 l 2.77 -1.6 l 1.53 2.64 V 54 Z');"/><path d="M52.55,8.8V0H32.48L0,18.76H0v6.37H0v6.18L19.31,42.47,1,53v6.17H1v8.49H1V80L25.15,66.08V43.22L27.25,42V37.88l-2.59,1.49L5.36,28.23V21.85L33.93,5.35H47.19v6.54l-18,10.39v6.18L52.56,15V8.79ZM19.8,65.05,6.4,72.79V54l13.4-7.73Z" style="border-bottom-color:rgb(32, 64, 86);border-left-color:rgb(32, 64, 86);border-right-color:rgb(32, 64, 86);border-top-color:rgb(32, 64, 86);color:rgb(32, 64, 86);display:inline;height:auto;min-height:0px;min-width:0px;outline-color:rgb(32, 64, 86);overflow-x:visible;overflow-y:visible;width:auto;column-rule-color:rgb(32, 64, 86);perspective-origin:0px 0px;-webkit-text-emphasis-color:rgb(32, 64, 86);-webkit-text-fill-color:rgb(32, 64, 86);-webkit-text-stroke-color:rgb(32, 64, 86);transform-origin:0px 0px;fill:rgb(255, 255, 255);d:path('M 52.55 8.8 V 0 H 32.48 L 0 18.76 H 0 v 6.37 H 0 v 6.18 L 19.31 42.47 L 1 53 v 6.17 H 1 v 8.49 H 1 V 80 L 25.15 66.08 V 43.22 L 27.25 42 V 37.88 l -2.59 1.49 L 5.36 28.23 V 21.85 L 33.93 5.35 H 47.19 v 6.54 l -18 10.39 v 6.18 L 52.56 15 V 8.79 Z M 19.8 65.05 L 6.4 72.79 V 54 l 13.4 -7.73 Z');"/><polygon points="51.83 32.05 51.83 23.69 46.47 26.79 46.47 33.45 54.41 47.19 54.41 47.19 50.55 49.42 48.26 45.44 48.26 50.72 48.25 50.72 48.25 54.81 60.81 47.56 51.83 32.05" style="border-bottom-color:rgb(32, 64, 86);border-left-color:rgb(32, 64, 86);border-right-color:rgb(32, 64, 86);border-top-color:rgb(32, 64, 86);color:rgb(32, 64, 86);display:inline;height:auto;min-height:0px;min-width:0px;outline-color:rgb(32, 64, 86);overflow-x:visible;overflow-y:visible;width:auto;column-rule-color:rgb(32, 64, 86);perspective-origin:0px 0px;-webkit-text-emphasis-color:rgb(32, 64, 86);-webkit-text-fill-color:rgb(32, 64, 86);-webkit-text-stroke-color:rgb(32, 64, 86);transform-origin:0px 0px;fill:rgb(255, 255, 255);"/><polygon points="73.78 40.07 64.8 24.53 64.8 16.2 59.44 19.29 59.44 25.95 67.38 39.68 63.51 41.91 61.22 37.94 61.22 44.87 61.22 44.87 61.22 47.32 73.78 40.07" style="border-bottom-color:rgb(32, 64, 86);border-left-color:rgb(32, 64, 86);border-right-color:rgb(32, 64, 86);border-top-color:rgb(32, 64, 86);color:rgb(32, 64, 86);display:inline;height:auto;min-height:0px;min-width:0px;outline-color:rgb(32, 64, 86);overflow-x:visible;overflow-y:visible;width:auto;column-rule-color:rgb(32, 64, 86);perspective-origin:0px 0px;-webkit-text-emphasis-color:rgb(32, 64, 86);-webkit-text-fill-color:rgb(32, 64, 86);-webkit-text-stroke-color:rgb(32, 64, 86);transform-origin:0px 0px;fill:rgb(255, 255, 255);"/></svg>