<?xml version="1.0" encoding="iso-8859-1"?>
<!-- Generator: Adobe Illustrator 16.0.0, SVG Export Plug-In . SVG Version: 6.00 Build 0)  -->
<!DOCTYPE svg PUBLIC "-//W3C//DTD SVG 1.1//EN" "http://www.w3.org/Graphics/SVG/1.1/DTD/svg11.dtd">
<svg version="1.1" id="Capa_1" xmlns="http://www.w3.org/2000/svg" xmlns:xlink="http://www.w3.org/1999/xlink" x="0px" y="0px"
	 width="447.677px" height="447.677px" viewBox="0 0 447.677 447.677" style="enable-background:new 0 0 447.677 447.677;"
	 xml:space="preserve">
<g>
	<path d="M39.098,297.031h100.195v29.878H39.098V297.031z M130.507,84.335c5.327,0,9.674-4.337,9.674-9.672
		s-4.342-9.666-9.674-9.666c-5.334,0-9.666,4.331-9.666,9.666S125.177,84.335,130.507,84.335z M193.235,84.335
		c5.331,0,9.667-4.337,9.667-9.672s-4.33-9.666-9.667-9.666c-5.335,0-9.666,4.331-9.666,9.666S187.907,84.335,193.235,84.335z
		 M39.098,248.359h100.195v-29.886H39.098V248.359z M251.351,193.061H139.292v9.593H23.287v61.519h116.005v17.039H23.287v61.517
		h116.005v33.523H0V23.394h251.351V193.061z M167.748,74.669c0,14.06,11.433,25.489,25.487,25.489
		c14.053,0,25.488-11.429,25.488-25.489c0-14.053-11.435-25.483-25.488-25.483C179.181,49.186,167.748,60.617,167.748,74.669z
		 M105.028,74.669c0,14.06,11.425,25.489,25.479,25.489c14.063,0,25.489-11.429,25.489-25.489c0-14.053-11.426-25.483-25.489-25.483
		C116.453,49.186,105.028,60.617,105.028,74.669z M230.699,123.009H23.287v61.519h207.412V123.009z M214.881,168.711H39.098v-29.882
		h175.783V168.711z M202.902,148.5h-24.055v8.342h24.055V148.5z M337.415,393.117v13.371c36.892,1.215,63.519,4.618,63.519,8.657
		c0,5.044-41.662,9.138-93.046,9.138c-51.394,0-93.04-4.08-93.04-9.138c0-3.623,21.482-6.736,52.585-8.218v-13.811H157.156V207.565
		h290.521v185.552H337.415z M428.589,377.213V221.879H176.229v155.333H428.589z"/>
</g>
<g>
</g>
<g>
</g>
<g>
</g>
<g>
</g>
<g>
</g>
<g>
</g>
<g>
</g>
<g>
</g>
<g>
</g>
<g>
</g>
<g>
</g>
<g>
</g>
<g>
</g>
<g>
</g>
<g>
</g>
</svg>
