<?xml version="1.0" encoding="UTF-8" standalone="no"?>
<svg width="150px" height="150px" viewBox="0 0 150 150" version="1.1" xmlns="http://www.w3.org/2000/svg" xmlns:xlink="http://www.w3.org/1999/xlink" xmlns:sketch="http://www.bohemiancoding.com/sketch/ns">
    <!-- Generator: Sketch 3.3.1 (12005) - http://www.bohemiancoding.com/sketch -->
    <title>badge</title>
    <desc>Created with Sketch.</desc>
    <defs></defs>
    <g id="36.-App" stroke="none" stroke-width="1" fill="none" fill-rule="evenodd" sketch:type="MSPage">
        <g id="badge" sketch:type="MSArtboardGroup">
            <g id="Group" sketch:type="MSLayerGroup" transform="translate(35.000000, 40.063291)">
                <g sketch:type="MSShapeGroup">
                    <g>
                        <path d="M79.6526582,6.10025316 C79.6526582,3.06734177 77.1939241,0.610632911 74.1620253,0.610632911 L6.08911392,0.610632911 C3.05721519,0.610632911 0.599493671,3.06835443 0.599493671,6.10025316 L0.599493671,41.9655696 L79.6516456,41.9655696 L79.6516456,6.10025316 L79.6526582,6.10025316 Z" id="Shape" fill="#313333"></path>
                        <circle id="Oval" fill="#EF5023" cx="40.1265823" cy="2.21670886" r="0.735189873"></circle>
                        <path d="M0.600506329,41.9665823 L0.600506329,47.4562025 C0.600506329,50.4881013 3.05822785,52.9458228 6.09012658,52.9458228 L29.5918987,52.9458228 L29.5918987,65.0308861 L22.56,65.0308861 L22.56,69.6972152 L57.6931646,69.6972152 L57.6931646,65.0308861 L50.6622785,65.0308861 L50.6622785,52.9468354 L74.163038,52.9468354 C77.1949367,52.9468354 79.6536709,50.4891139 79.6536709,47.4572152 L79.6536709,41.9675949 L0.600506329,41.9675949 L0.600506329,41.9665823 Z" id="Shape" fill="#DDDDDD"></path>
                        <circle id="Oval" fill="#313333" cx="40.1265823" cy="47.4562025" r="1.46936709"></circle>
                        <path d="M41.6972152,4.29670886 L34.355443,4.29670886 L27.9888608,4.29670886 L21.0592405,4.29670886 L3.69113924,4.29670886 L3.69113924,16.5741772 L3.69113924,21.4734177 L3.69113924,25.9746835 L3.69113924,30.9063291 L3.69113924,39.1959494 L76.563038,39.1959494 L76.563038,4.29670886 L41.6972152,4.29670886 Z" id="Shape" fill="#FFFFFF"></path>
                    </g>
                    <path d="M61.9878481,4.15189873 L47.4136709,4.15189873 L32.838481,4.15189873 L18.2643038,4.15189873 L3.69113924,4.15189873 L3.69113924,39.5848101 L18.2643038,39.5848101 L32.838481,39.5848101 L47.4136709,39.5848101 L61.9878481,39.5848101 L76.8425316,39.5848101 L76.8425316,4.15189873 L61.9878481,4.15189873 Z" id="Shape" fill="#FFEEE1"></path>
                </g>
                <g transform="translate(7.088608, 8.101266)" id="Rectangle-path" sketch:type="MSShapeGroup">
                    <rect fill="#F06358" x="0.852658228" y="0.492151899" width="24.2936709" height="1.34987342"></rect>
                    <rect fill="#FFAE00" x="0.852658228" y="5.91493671" width="12.7524051" height="1.34987342"></rect>
                    <rect fill="#FFAE00" x="47.2131646" y="5.91493671" width="18.0081013" height="1.34987342"></rect>
                    <rect fill="#4D86B8" x="0.852658228" y="10.5843038" width="9.36708861" height="1.34987342"></rect>
                    <rect fill="#4D86B8" x="13.6050633" y="10.5843038" width="42.5336709" height="1.34987342"></rect>
                    <rect fill="#F06358" x="0.852658228" y="15.2526582" width="23.0420253" height="1.34987342"></rect>
                    <rect fill="#4D86B8" x="27.28" y="15.2526582" width="25.7225316" height="1.34987342"></rect>
                    <rect fill="#B6A94A" x="0.852658228" y="19.9220253" width="9.36708861" height="1.34987342"></rect>
                    <rect fill="#4D86B8" x="13.6050633" y="19.9220253" width="23.8379747" height="1.34987342"></rect>
                    <rect fill="#4D86B8" x="0.852658228" y="24.5903797" width="19.7002532" height="1.34987342"></rect>
                    <rect fill="#4D86B8" x="23.9382278" y="24.5903797" width="24.4820253" height="1.34987342"></rect>
                    <rect fill="#4D86B8" x="16.9903797" y="5.91493671" width="26.4840506" height="1.34987342"></rect>
                    <rect fill="#4D86B8" x="59.8774684" y="10.5843038" width="5.34379747" height="1.34987342"></rect>
                    <rect fill="#F06358" x="56.7402532" y="15.2526582" width="8.48101266" height="1.34987342"></rect>
                    <rect fill="#B6A94A" x="41.1827848" y="19.9220253" width="24.038481" height="1.34987342"></rect>
                    <rect fill="#4D86B8" x="52.1579747" y="24.5903797" width="13.0632911" height="1.34987342"></rect>
                </g>
            </g>
        </g>
    </g>
</svg>