<?xml version="1.0" encoding="UTF-8" standalone="no"?>
<svg width="150px" height="150px" viewBox="0 0 150 150" version="1.1" xmlns="http://www.w3.org/2000/svg" xmlns:xlink="http://www.w3.org/1999/xlink" xmlns:sketch="http://www.bohemiancoding.com/sketch/ns">
    <!-- Generator: Sketch 3.3.3 (12072) - http://www.bohemiancoding.com/sketch -->
    <title>badge</title>
    <desc>Created with Sketch.</desc>
    <defs></defs>
    <g id="74.-Asincronismo" stroke="none" stroke-width="1" fill="none" fill-rule="evenodd" sketch:type="MSPage">
        <g id="badge" sketch:type="MSArtboardGroup">
            <path d="M36.4960932,83.8597061 C35.783162,83.8597061 35.3074252,83.3182149 35.3074252,82.5059783 C35.3074252,81.6937415 35.783162,81.1522505 36.4960932,81.1522505 L47.0993503,81.1522505 C47.8122816,81.1522505 48.2880183,81.6937414 48.2880183,82.5059783 C48.2880183,83.3182149 47.6936843,83.8597061 47.0993503,83.8597061 L36.4960932,83.8597061 Z" id="Fill-1" fill="#D36440" sketch:type="MSShapeGroup"></path>
            <path d="M36.3432612,69.351805 C35.6303299,69.351805 35.1545932,68.8103138 35.1545932,67.9980771 C35.1545932,67.1858404 35.6303299,66.6443493 36.3432612,66.6443493 L47.0993503,66.6443493 C47.8122816,66.6443493 48.2880183,67.1858405 48.2880183,67.9980771 C48.2880183,68.8103139 47.6936843,69.351805 47.0993503,69.351805 L36.3432612,69.351805 Z" id="Fill-2" fill="#D36440" sketch:type="MSShapeGroup"></path>
            <path d="M107.926196,62.515293 C107.521888,62.2445475 106.982809,62.2445475 106.5785,62.3799202 C106.174191,62.6506658 105.904652,63.0567841 105.904652,63.5982753 L105.904652,66.847222 L101.252475,66.8474085 C100.443857,66.8474085 99.9047784,67.3888996 99.9047784,68.2011363 C99.9047784,69.013373 100.443857,69.5548641 101.252475,69.5548641 L105.904652,69.5546777 L105.904652,72.397506 C105.904652,72.9389972 106.174191,73.3451157 106.5785,73.6158613 C106.71327,73.7512338 106.982809,73.7512338 107.252348,73.7512338 C107.521888,73.7512338 107.791427,73.6158613 108.060966,73.4804885 L114.529907,69.1485593 C114.934216,68.8778138 115.068985,68.4716954 115.068985,68.0655771 C114.934216,67.524086 114.664677,67.1179676 114.395138,66.847222 L107.926196,62.515293 Z M109.163308,69.8256097 L109.163308,66.1705446 L111.8587,68.0657635 L109.163308,69.8256097 L109.163308,69.8256097 Z" id="Fill-3" fill="#D36440" sketch:type="MSShapeGroup"></path>
            <path d="M107.881163,77.011134 C107.476854,76.7403884 106.937776,76.7403884 106.533467,76.8757612 C106.129158,77.1465068 105.859619,77.5526253 105.859619,78.0941162 L105.859619,81.3430631 L101.252475,81.3322962 C100.443857,81.3322962 99.9047784,81.8737874 99.9047784,82.686024 C99.9047784,83.4982608 100.443857,84.0397518 101.252475,84.0397518 L105.859619,84.0505187 L105.859619,86.8933471 C105.859619,87.4348384 106.129158,87.8409568 106.533467,88.1117022 C106.668237,88.247075 106.937776,88.247075 107.207315,88.247075 C107.476854,88.247075 107.746393,88.1117022 108.015933,87.9763293 L114.484874,83.6444005 C114.889183,83.3736549 115.023952,82.9675365 115.023952,82.5614181 C114.889183,82.1552999 114.619643,81.6138087 114.350104,81.3430631 L107.881163,77.011134 Z M108.48946,84.3104974 L108.48946,80.6554324 L111.184852,82.5506512 L108.48946,84.3104974 L108.48946,84.3104974 Z" id="Fill-4" fill="#D36440" sketch:type="MSShapeGroup"></path>
            <path d="M74.972401,102.856569 C64.4603715,102.856569 55.0264987,97.1709118 50.0400233,87.8301899 C49.6357145,87.1533259 49.9052537,86.3410893 50.5791016,85.9349708 C51.2529498,85.5288524 52.0615675,85.799598 52.4658762,86.4764621 C56.9132733,94.8695746 65.5385282,100.01374 75.1071706,100.01374 C84.1367344,100.01374 92.49245,95.1403199 97.0746167,87.4240715 C97.4789255,86.7472074 98.2875432,86.6118346 98.9613914,87.017953 C99.6352393,87.4240715 99.7700088,88.2363081 99.3657001,88.9131721 C94.2444551,97.5770302 84.9453519,102.856569 74.972401,102.856569" id="Fill-5" fill="#D36440" sketch:type="MSShapeGroup"></path>
            <path d="M50.9834106,63.5984617 C50.7138714,63.5984617 50.5791016,63.5984617 50.3095624,63.4630889 C49.6357145,63.0569706 49.3661751,62.2447339 49.7704841,61.7032428 C54.62219,52.0917752 64.3256017,46.1353728 74.972401,46.1353728 C85.2148913,46.1353728 94.7835334,51.8210296 99.7700088,60.8910061 C100.174318,61.56787 99.9047784,62.3801067 99.2309305,62.786225 C98.5570824,63.1923434 97.7484649,62.9215978 97.3441559,62.2447339 C92.8967588,53.9869942 84.271504,48.9782012 74.972401,48.9782012 C65.268989,48.9782012 56.5089646,54.3931125 52.1963371,63.0569706 C51.9267979,63.3277162 51.3877193,63.5984617 50.9834106,63.5984617" id="Fill-6" fill="#D36440" sketch:type="MSShapeGroup"></path>
            <path d="M87.7714706,61.8210171 L98.4613959,72.5574323 C97.4870118,60.3061957 87.2997771,50.6622386 74.8511083,50.6622386 C61.7582406,50.6622386 51.1451341,61.3228452 51.1451341,74.474311 C51.1451341,86.9962934 60.7744225,97.239952 72.9966785,98.1929762 L63.0843738,88.2363081 L87.7714706,61.8210171" id="Fill-7" fill="#F9E280" sketch:type="MSShapeGroup"></path>
            <path d="M98.5570824,74.474311 C98.5570824,73.8272291 98.5112607,73.1923309 98.4613959,72.5574323 L87.7714706,61.8210171 L63.0843738,88.2363081 L72.9966785,98.1929762 C73.6112278,98.2403567 74.2244295,98.2863835 74.8511083,98.2863835 C87.9439759,98.2863835 98.5570824,87.6257769 98.5570824,74.474311" id="Fill-8" fill="#E8D277" sketch:type="MSShapeGroup"></path>
            <path d="M83.5545296,63.1409017 L66.3080628,63.1409017 C66.7918857,67.5120889 69.8538511,70.9126531 72.1112422,73.3412409 L72.271618,73.5023346 C72.7554407,73.9883228 72.7554407,74.6367583 72.271618,75.121393 L72.1112422,75.2838402 C70.0155747,77.5499808 67.4360845,80.4645566 66.4697863,84.0262146 C66.3848815,84.2820691 66.3444505,84.5379237 66.3013242,84.7937783 L81.3496987,68.6911858 C82.1542733,67.4376338 82.8321646,66.0744299 83.2324302,64.5988666 C83.392806,64.1128783 83.392806,63.62689 83.5545296,63.1409017" id="Fill-10" fill="#FDF6D1" sketch:type="MSShapeGroup"></path>
            <path d="M81.3496987,68.6911858 L66.3013242,84.7937783 C66.2635888,85.0239119 66.223158,85.2540458 66.1463392,85.4841795 L83.392806,85.4841795 C82.7486073,81.1129923 79.8470177,77.7124281 77.4292508,75.121393 C76.9467758,74.6367583 76.9467758,73.9883228 77.4292508,73.5036882 L77.5909743,73.3412409 C78.8187256,72.013234 80.2122433,70.4632156 81.3496987,68.6911858" id="Fill-11" fill="#F8EFCE" sketch:type="MSShapeGroup"></path>
            <path d="M86.4561192,85.4841795 L86.1326723,85.4841795 C85.6501971,80.6270041 82.5868837,76.9028989 80.3308406,74.3132174 C82.7486073,71.7221825 85.8105729,67.9980771 86.1326723,63.1409017 L86.4561192,63.1409017 C87.2620415,63.1409017 87.7458644,62.6562672 87.7458644,61.8467379 L87.7458644,61.6842906 L86.616495,60.712314 L63.0843738,60.712314 C62.2784515,60.712314 61.7946286,61.1983023 61.7946286,62.0078315 C61.7946286,62.6562672 62.4401751,63.3033491 63.0843738,63.3033491 L63.4064732,63.3033491 C63.8902959,68.1605245 66.9522615,71.8846298 69.2096524,74.474311 C66.7918857,77.0653461 63.72992,80.7880976 63.4064732,85.645273 L63.0843738,85.645273 C62.2784515,85.645273 61.7946286,86.1312614 61.7946286,86.9407906 C61.7946286,87.5892261 62.4401751,88.2363081 63.0843738,88.2363081 L86.2943959,88.2363081 C87.1003179,88.2363081 87.5841408,87.7503198 87.5841408,86.9407906 C87.7458644,85.9701677 87.1003179,85.4841795 86.4561192,85.4841795 L86.4561192,85.4841795 L86.4561192,85.4841795 Z M66.1476869,85.4841795 C66.1476869,84.9981913 66.3080628,84.5122028 66.4697863,84.0262146 C67.4360845,80.3034632 70.0155747,77.3888871 72.1112422,75.2838402 L72.271618,75.1227468 C72.7554407,74.6367583 72.7554407,73.9883228 72.271618,73.5036882 L72.1112422,73.3412409 C69.8538511,70.9126531 66.7918857,67.5134426 66.3080628,63.1409017 L83.5545296,63.1409017 C83.5545296,63.62689 83.3941537,64.1128783 83.2324302,64.5988666 C82.2647843,68.3229718 79.6866418,71.0751006 77.5909743,73.3412409 L77.4305985,73.5036882 C76.9467758,73.9883228 76.9467758,74.6367583 77.4305985,75.1227468 L77.5909743,75.2838402 C79.8470177,77.7124281 82.9103308,81.1129923 83.392806,85.4841795 L66.1476869,85.4841795 L66.1476869,85.4841795 Z" id="Fill-12" fill="#D36440" sketch:type="MSShapeGroup"></path>
            <path d="M73.8834624,73.5036882 C73.8834624,73.8272291 74.2055618,74.1507701 74.5290089,74.1507701 C74.8511083,74.1507701 75.1732076,73.8272291 75.1732076,73.5036882 C75.1732076,72.8552527 75.495307,72.0457232 75.9791299,71.559735 C77.1071516,70.2655712 77.9130737,68.9700537 78.3968966,67.6745362 C78.3968966,67.5120889 78.3968966,67.3509952 78.2351731,67.1885479 C78.0747972,67.0274543 77.9130737,66.865007 77.7526978,66.865007 L71.1435964,66.865007 C70.9832205,66.865007 70.6597734,67.0274543 70.6597734,67.1885479 C70.4993976,67.3509952 70.4993976,67.5120889 70.4993976,67.6745362 C70.9832205,69.1325011 71.7891428,70.4266648 72.9171643,71.559735 C73.561363,72.0457232 73.8834624,72.8552527 73.8834624,73.5036882" id="Fill-13" fill="#D36440" sketch:type="MSShapeGroup"></path>
            <path d="M75.1732076,75.932276 C75.1732076,75.6073812 74.8511083,75.2838402 74.5290089,75.2838402 C74.2055618,75.2838402 73.8834624,75.6073812 73.8834624,75.932276 C73.8834624,76.7418052 73.2392636,77.7124281 72.271618,78.35951 C70.0155747,79.8174747 68.4037301,81.5976268 67.2757086,83.2166854 C67.1139851,83.3791327 67.1139851,83.7026736 67.2757086,83.8651209 C67.4360845,84.0262146 67.597808,84.1886618 67.9199074,84.1886618 L81.1367629,84.1886618 C81.2984864,84.1886618 81.6205858,84.0262146 81.7823091,83.8651209 C81.942685,83.7026736 81.942685,83.3791327 81.7823091,83.2166854 C80.65294,81.4365333 79.0410954,79.8174747 76.7850522,78.35951 C75.8174064,77.7124281 75.1732076,76.9028989 75.1732076,75.932276" id="Fill-14" fill="#D36440" sketch:type="MSShapeGroup"></path>
        </g>
    </g>
</svg>