<?xml version="1.0" encoding="UTF-8" standalone="no"?>
<svg width="150px" height="150px" viewBox="0 0 150 150" version="1.1" xmlns="http://www.w3.org/2000/svg" xmlns:xlink="http://www.w3.org/1999/xlink" xmlns:sketch="http://www.bohemiancoding.com/sketch/ns">
    <!-- Generator: Sketch 3.3.1 (12005) - http://www.bohemiancoding.com/sketch -->
    <title>badge</title>
    <desc>Created with Sketch.</desc>
    <defs></defs>
    <g id="39.-CSS-3" stroke="none" stroke-width="1" fill="none" fill-rule="evenodd" sketch:type="MSPage">
        <g id="badge" sketch:type="MSArtboardGroup">
            <g id="Group" sketch:type="MSLayerGroup" transform="translate(75.000000, 75.000000) rotate(-1.000000) translate(-75.000000, -75.000000) translate(35.000000, 44.047619)">
                <path d="M45.3266667,0.325714286 L45.327619,8.92952381 L47.2380952,8.92952381 L47.2380952,1.71809524 L45.3266667,0.325714286 L45.3266667,0.325714286 Z" id="Rectangle-1_1_" fill="#2C7FB8" sketch:type="MSShapeGroup"></path>
                <rect id="Rectangle-2_1_" fill="#216798" sketch:type="MSShapeGroup" x="48.1942857" y="4.14952381" width="2.38857143" height="4.77904762"></rect>
                <rect id="Rectangle-3_3_" fill="#216798" sketch:type="MSShapeGroup" x="50.5828571" y="4.14952381" width="3.8247619" height="1.91142857"></rect>
                <path d="M29.0752381,21.8333333 C29.0752381,21.8333333 30.3466667,16.6238095 31.6428571,13.9314286 C32.9380952,11.2390476 34.4342857,9.5647619 34.4342857,9.5647619 C34.9285714,8.95047619 35.9704762,8.45142857 36.7657143,8.45142857 L52.9009524,8.45142857 C53.6942857,8.45142857 54.8247619,8.87238095 55.3847619,9.43047619 C55.3847619,9.43047619 57.0590476,10.4980952 58.1495238,14.2257143 C59.24,17.9533333 59.6666667,21.067619 59.6666667,21.067619 L29.0752381,21.8333333 L29.0752381,21.8333333 Z" id="Path-1_1_" fill="#2C7FB8" sketch:type="MSShapeGroup"></path>
                <path d="M53.9300209,5.10590359 C53.9298492,6.42560115 54.8925109,7.49555272 56.0801861,7.49570732 C57.2678613,7.49586191 58.2308015,6.42616098 58.2309733,5.10646342 C58.2311451,3.78676586 57.2684834,2.71681429 56.0808082,2.7166597 C54.893133,2.7165051 53.9301927,3.78620603 53.9300209,5.10590359 L53.9300209,5.10590359 Z" id="Oval-3_1_" fill="#3488C1" sketch:type="MSShapeGroup"></path>
                <path d="M54.8848599,5.10573897 C54.8849177,6.02989545 55.4200908,6.77903887 56.0802026,6.77899763 C56.7403143,6.77895639 57.2753939,6.0297461 57.2753361,5.10558962 C57.2752784,4.18143314 56.7401053,3.43228972 56.0799935,3.43233096 C55.4198817,3.4323722 54.8848022,4.18158249 54.8848599,5.10573897 L54.8848599,5.10573897 Z" id="Oval-2_1_" fill="#185179" sketch:type="MSShapeGroup"></path>
                <path d="M0.920952381,29.0333333 C0.593333333,27.6695238 2.14571429,26.9838095 4.88952381,29.54 C7.20857143,31.7 9.43238095,34.232381 9.43238095,34.232381 L10.3485714,28.6647619 C10.907619,25.2761905 11.98,25.2457143 12.7438095,28.5904762 L13.3028571,31.0409524 L10.7419048,44.3742857 C10.7419048,44.3742857 8.48857143,49.6495238 7.26285714,49.9990476 C5.77142857,50.4228571 5.19333333,46.8409524 5.53809524,44.3733333 C5.80571429,42.4495238 6.77904762,40.0104762 7.62857143,39.1752381 C8.47714286,38.3419048 7.62761905,37.587619 7.62761905,37.587619 C7.62761905,37.587619 1.57428571,31.747619 0.920952381,29.0333333 L0.920952381,29.0333333 Z" id="Path-2_1_" fill="#1C689C" sketch:type="MSShapeGroup"></path>
                <path d="M9.96952381,43.8190476 L6.61333333,49.8228571 C6.61333333,49.8228571 7.22095238,50.5390476 8.14571429,49.3247619 C8.63333333,48.6857143 10.9152381,44.1504762 10.9152381,44.1504762 L9.96952381,43.8190476 L9.96952381,43.8190476 Z" id="Path-3_1_" opacity="0.4746" fill="#0C3652" sketch:type="MSShapeGroup"></path>
                <path d="M45.6380952,61.0247619 C55.2104762,61.0257143 63.9780952,58.88 70.0333333,55.0447619 C76.3409524,51.052381 79.7380952,45.2447619 79.7390476,39.0628571 C79.7390476,34.3361905 77.1209524,28.7561905 73.02,25.1742857 C66.6085714,19.5733333 57.04,18.0104762 45.1190476,18.0095238 C34.7352381,18.0095238 23.2666667,21.192381 16.7952381,25.6085714 C11.0857143,29.5047619 8.52571429,33.3838095 8.52380952,39.0619048 C8.52380952,51.18 26.0942857,61.0247619 45.6380952,61.0247619 L45.6380952,61.0247619 Z" id="Oval-1_1_" fill="#3C99D9" sketch:type="MSShapeGroup"></path>
                <path d="M66.5028571,56.9533333 C60.7885714,59.5847619 53.4838095,61.0257143 45.6380952,61.0257143 C26.0942857,61.0257143 8.52380952,51.1809524 8.52380952,39.0628571 C8.5247619,33.9790476 10.5761905,30.3390476 15.1038095,26.8361905 C13.8838095,29.0238095 13.3038095,31.4314286 13.3038095,34.2447619 C13.3038095,47.44 32.5238095,58.1580952 53.9047619,58.1590476 C58.312381,58.1571429 62.5628571,57.7438095 66.5028571,56.9533333 L66.5028571,56.9533333 Z" id="Oval-21" fill="#4C92C2" sketch:type="MSShapeGroup"></path>
                <ellipse id="Oval-5_1_" fill="#1C689C" sketch:type="MSShapeGroup" cx="36.9619048" cy="14.4247619" rx="1.1952381" ry="1.1952381"></ellipse>
                <circle id="Oval-11_1_" fill="#1C689C" sketch:type="MSShapeGroup" cx="10.6752381" cy="41.1904762" r="1.19428571"></circle>
                <ellipse id="Oval-6_1_" fill="#1C689C" sketch:type="MSShapeGroup" cx="51.3009524" cy="14.4247619" rx="1.1952381" ry="1.1952381"></ellipse>
                <path d="M9.00285714,39.02 C9.00285714,39.02 56.272381,48.2628571 79.7390476,38.0847619" id="Path-4_1_" stroke="#185179" opacity="0.2066" sketch:type="MSShapeGroup"></path>
                <path d="M18.5619048,24.727619 C18.5619048,24.727619 43.4019048,14.6952381 72.5695238,25.1790476" id="Path-5_1_" stroke="#1A5984" opacity="0.2066" sketch:type="MSShapeGroup"></path>
                <path d="M20.4733333,54.8114286 C20.4733333,54.8114286 42.5914286,65.4838095 70.18,54.9333333" id="Path-6_1_" stroke="#185179" opacity="0.2066" sketch:type="MSShapeGroup"></path>
                <path d="M29.5542857,19.9209524 C29.5542857,19.9209524 16.3219048,37.2038095 28.4780952,57.6790476" id="Path-7_1_" stroke="#1A5984" opacity="0.2066" sketch:type="MSShapeGroup"></path>
                <path d="M55.8409524,18.9657143 C55.8409524,18.9657143 66.192381,39.9638095 56.4295238,59.5914286" id="Path-8_1_" stroke="#1A5984" opacity="0.2066" sketch:type="MSShapeGroup"></path>
                <ellipse id="Oval-10_1_" fill="#1C689C" sketch:type="MSShapeGroup" cx="27.88" cy="56.4847619" rx="1.1952381" ry="1.1952381"></ellipse>
                <ellipse id="Oval-7_1_" fill="#1C689C" sketch:type="MSShapeGroup" cx="27.8819048" cy="22.5504762" rx="1.1952381" ry="1.1952381"></ellipse>
                <ellipse id="Oval-8_1_" fill="#1C689C" sketch:type="MSShapeGroup" cx="57.0371429" cy="22.5504762" rx="1.1952381" ry="1.1952381"></ellipse>
                <ellipse id="Oval-9_1_" fill="#1C689C" sketch:type="MSShapeGroup" cx="56.08" cy="57.4409524" rx="1.1952381" ry="1.1952381"></ellipse>
                <ellipse id="Oval-12_1_" fill="#1A5984" sketch:type="MSShapeGroup" cx="29.3152381" cy="39.7571429" rx="8.84190476" ry="8.84190476"></ellipse>
                <circle id="Oval-13_1_" fill="#95CAEE" sketch:type="MSShapeGroup" cx="29.5542857" cy="39.5180952" r="7.16952381"></circle>
                <path d="M34.472381,44.7333333 C33.187619,45.9447619 31.4580952,46.6866667 29.5542857,46.6866667 C25.5942857,46.6866667 22.3847619,43.4780952 22.3847619,39.5171429 C22.3838095,37.2933333 23.3980952,35.3038095 24.987619,33.9885714 C24.8485714,34.6142857 24.7742857,35.2647619 24.7742857,35.932381 C24.7742857,40.8152381 28.7333333,44.7742857 33.6171429,44.7742857 C33.9047619,44.7752381 34.1904762,44.7609524 34.472381,44.7333333 L34.472381,44.7333333 L34.472381,44.7333333 Z" id="Oval-23" fill="#A7CFEA" sketch:type="MSShapeGroup"></path>
                <ellipse id="Oval-17_1_" fill="#1A5984" sketch:type="MSShapeGroup" cx="57.992381" cy="40.712381" rx="8.84190476" ry="8.84190476"></ellipse>
                <circle id="Oval-16_1_" fill="#95CAEE" sketch:type="MSShapeGroup" cx="58.2314286" cy="40.4733333" r="7.16952381"></circle>
                <circle id="Oval-4" fill="#114467" sketch:type="MSShapeGroup" cx="7.56857143" cy="38.0838095" r="1.91142857"></circle>
                <path d="M63.0095238,45.2533333 C61.792381,46.4390476 60.1504762,47.1647619 58.3438095,47.1647619 C54.5857143,47.1647619 51.5390476,44.0238095 51.5409524,40.1495238 C51.54,37.9704762 52.5019048,36.0257143 54.012381,34.7390476 C53.8771429,35.3504762 53.807619,35.987619 53.807619,36.6409524 C53.807619,41.42 57.5647619,45.2952381 62.1990476,45.2952381 C62.4733333,45.2933333 62.7428571,45.28 63.0095238,45.2533333 L63.0095238,45.2533333 L63.0095238,45.2533333 Z" id="Oval-24" fill="#A7CFEA" sketch:type="MSShapeGroup"></path>
            </g>
        </g>
    </g>
</svg>