<?xml version="1.0" encoding="UTF-8" standalone="no"?>
<svg width="150px" height="150px" viewBox="0 0 150 150" version="1.1" xmlns="http://www.w3.org/2000/svg" xmlns:xlink="http://www.w3.org/1999/xlink" xmlns:sketch="http://www.bohemiancoding.com/sketch/ns">
    <!-- Generator: Sketch 3.3.1 (12005) - http://www.bohemiancoding.com/sketch -->
    <title>badge</title>
    <desc>Created with Sketch.</desc>
    <defs></defs>
    <g id="38.-CSS-2" stroke="none" stroke-width="1" fill="none" fill-rule="evenodd" sketch:type="MSPage">
        <g id="badge" sketch:type="MSArtboardGroup">
            <g id="Group" sketch:type="MSLayerGroup" transform="translate(55.909091, 35.000000)">
                <path d="M19.1427273,79.21 L0.735454545,23.1818182 L37.5509091,23.1818182 L19.1427273,79.21 Z" id="Shape" fill="#FFD9AB" sketch:type="MSShapeGroup"></path>
                <path d="M37.9481818,21.8036364 C37.9481818,11.4172727 29.5290909,2.99727273 19.1418182,2.99727273 C8.75545455,2.99727273 0.335454545,11.4172727 0.335454545,21.8036364 C0.335454545,24.1881818 0.78,25.6418182 1.58909091,26.4718182 C1.46272727,26.6718182 1.38909091,26.9063636 1.38909091,27.16 C1.38909091,27.88 1.97181818,28.4627273 2.69090909,28.4627273 C3.07,28.4627273 3.40636364,28.2990909 3.64454545,28.0427273 C3.82818182,28.54 4.30181818,28.8972727 4.86272727,28.8972727 C5.58272727,28.8972727 6.16727273,28.3136364 6.16727273,27.5936364 C6.16727273,27.47 6.16272727,27.3472727 6.11272727,27.24 C5.44727273,25.86 9.66818182,24.8963636 9.12545455,26.5881818 C8.70818182,27.8709091 8.42636364,29.8209091 8.42636364,30.3454545 C8.42636364,31.1445455 9.07636364,31.7927273 9.87545455,31.7927273 C10.6763636,31.7927273 11.3236364,31.1445455 11.3236364,30.3454545 C11.3236364,29.7718182 10.99,27.4954545 10.5063636,26.2509091 C9.83090909,24.5854545 13.17,24.2054545 13.1363636,25.6536364 C13.1254545,25.72 13.1163636,25.7872727 13.1163636,25.8563636 C13.1163636,26.5763636 13.7,27.16 14.42,27.16 C15.1090909,27.16 15.6672727,26.6227273 15.7136364,25.9454545 C15.9454545,26.1581818 16.2527273,26.2918182 16.5909091,26.2918182 C17.3036364,26.2918182 17.8809091,25.7190909 17.8936364,25.0090909 C17.9218182,23.4863636 23.9281818,23.9745455 23.9763636,25.4318182 C23.9818182,26.1481818 24.5627273,26.7254545 25.2781818,26.7254545 C25.3045455,26.7254545 25.3309091,26.7190909 25.3572727,26.7172727 C25.0963636,27.4136364 24.9345455,28.2081818 24.9345455,28.6081818 C24.9345455,29.4072727 25.5818182,30.0545455 26.3836364,30.0545455 C27.1827273,30.0545455 27.8309091,29.4072727 27.8309091,28.6081818 C27.8309091,28.4318182 27.7981818,28.1745455 27.7390909,27.8872727 C27.9145455,27.9745455 28.1090909,28.0290909 28.3181818,28.0290909 C28.6963636,28.0290909 29.0336364,27.8654545 29.2727273,27.6090909 C29.4545455,28.1072727 29.93,28.4636364 30.4909091,28.4636364 C31.2054545,28.4636364 31.7845455,27.8881818 31.7927273,27.1754545 C31.8490909,26.1018182 34.3727273,26.3645455 34.4254545,27.4 C34.5372727,28.0054545 35.0663636,28.4636364 35.7036364,28.4636364 C36.4218182,28.4636364 37.0063636,27.88 37.0063636,27.1609091 C37.0063636,26.8772727 36.9145455,26.6172727 36.7609091,26.4036364 C37.5272727,25.5645455 37.9481818,24.1236364 37.9481818,21.8036364 L37.9481818,21.8036364 Z M27.1218182,26.0927273 C27.14,26.0972727 27.1590909,26.1018182 27.1781818,26.1063636 C27.1681818,26.1218182 27.1609091,26.1363636 27.1536364,26.1509091 C27.1445455,26.1309091 27.1327273,26.1118182 27.1218182,26.0927273 L27.1218182,26.0927273 Z" id="Shape" fill="#F81A4B" sketch:type="MSShapeGroup"></path>
                <path d="M29.95,7.51181818 C30.3890909,7.51181818 30.7463636,7.15454545 30.7463636,6.71545455 C30.7463636,6.27636364 30.3890909,5.91818182 29.95,5.91818182 C29.93,5.91818182 29.9109091,5.92272727 29.8927273,5.92454545 C29.3472727,1.64272727 23.5809091,0.499090909 19.1436364,0.499090909 C14.8436364,0.499090909 9.96,1.47818182 9.23090909,5.53454545 C9.20272727,5.53181818 9.17454545,5.52545455 9.14545455,5.52545455 C8.70636364,5.52545455 8.35,5.88272727 8.35,6.32181818 C8.35,6.72181818 8.64545455,7.05 9.02818182,7.10727273 C8.64545455,7.16363636 8.35,7.49181818 8.35,7.89181818 C8.35,8.33090909 8.70636364,8.68818182 9.14545455,8.68818182 C9.37636364,8.68818182 9.58090909,8.58909091 9.72727273,8.43363636 C10.6072727,7.63636364 14.4827273,7.94272727 14.0736364,8.82090909 C13.7572727,9.81090909 13.5509091,11.1872727 13.5509091,11.7563636 C13.5509091,12.6927273 14.1063636,13.4509091 14.7945455,13.4509091 C15.4818182,13.4509091 16.0381818,12.6927273 16.0381818,11.7563636 C16.0381818,11.1345455 15.7918182,9.55545455 15.4254545,8.56272727 C14.7890909,6.90090909 18.4936364,7.95545455 19.9290909,7.95545455 C20.6436364,7.95545455 22.2345455,7.33 22.1018182,8.14818182 C22.0936364,8.19272727 22.0872727,8.23818182 22.0872727,8.28363636 C22.0872727,8.72363636 22.4454545,9.08090909 22.8845455,9.08090909 C23.0263636,9.08090909 23.16,9.04090909 23.2754545,8.97454545 C23.2709091,9.00636364 23.2645455,9.03636364 23.2645455,9.06909091 C23.2645455,9.50909091 23.6227273,9.86636364 24.0618182,9.86636364 C24.5027273,9.86636364 24.8590909,9.50909091 24.8590909,9.06909091 C24.8590909,8.92181818 24.8154545,8.78545455 24.7454545,8.66727273 C24.3690909,7.93090909 28.16,8.59363636 28.4336364,8.99363636 C28.5581818,9.27636364 28.8381818,9.47363636 29.1654545,9.47363636 C29.6045455,9.47363636 29.9627273,9.11636364 29.9627273,8.67636364 C29.9627273,8.42454545 29.8427273,8.20181818 29.66,8.05636364 C29.2154545,7.78363636 29.5090909,7.51454545 29.8463636,7.50090909 C29.8790909,7.50545455 29.9136364,7.51181818 29.95,7.51181818 L29.95,7.51181818 Z" id="Shape" fill="#FF547A" sketch:type="MSShapeGroup"></path>
            </g>
        </g>
    </g>
</svg>