<?xml version="1.0" encoding="UTF-8" standalone="no"?>
<svg width="150px" height="150px" viewBox="0 0 150 150" version="1.1" xmlns="http://www.w3.org/2000/svg" xmlns:xlink="http://www.w3.org/1999/xlink" xmlns:sketch="http://www.bohemiancoding.com/sketch/ns">
    <!-- Generator: Sketch 3.5.1 (25234) - http://www.bohemiancoding.com/sketch -->
    <title>badge</title>
    <desc>Created with Sketch.</desc>
    <defs>
        <path id="path-1" d="M0,0.106783898 L78.8232542,0.106783898 L78.8232542,79 L0,79 L0,0.106783898 Z"></path>
    </defs>
    <g id="115.-Animacion-CSS" stroke="none" stroke-width="1" fill="none" fill-rule="evenodd" sketch:type="MSPage">
        <g id="badge" sketch:type="MSArtboardGroup">
            <g id="Page-1-Copy" sketch:type="MSLayerGroup" transform="translate(36.000000, 36.000000)">
                <path d="M0.316033475,43.8693695 L43.3884403,78.6849373 L78.5072877,35.2372805 L35.4345462,0.421712712 L0.316033475,43.8693695 Z" id="Fill-1" fill="#83D2E5" sketch:type="MSShapeGroup"></path>
                <g id="Group-36">
                    <path d="M34.4280996,52.5348996 C34.9365784,52.7541581 35.8862521,53.4115987 37.2737733,54.532997 C38.4708242,55.5004123 39.3930487,56.1521623 40.0528326,56.4611326 C40.7126165,56.7861708 41.3800996,56.9096919 42.0586292,56.8377216 C42.7395021,56.7677597 43.3758538,56.5310945 43.9757182,56.1220352 C44.5839513,55.7079547 45.3026504,54.9952809 46.128803,53.9733021 L46.6115064,53.3761157 L43.8913623,51.1771708 C43.2369343,51.9869208 42.7612606,52.4796665 42.4596547,52.6359928 C42.1597225,52.7893064 41.8644767,52.856925 41.562536,52.8167555 C41.2759936,52.7769208 40.8826674,52.5569928 40.3889174,52.1579758 C40.0434597,51.8787979 39.2193157,51.257175 37.9121335,50.3148657 C37.0525064,49.6815267 36.310375,49.2570691 35.7014725,49.005675 C35.0865445,48.7616453 34.5000699,48.6387936 33.9166081,48.648836 C33.3532309,48.6541919 32.7590572,48.7783826 32.1407818,49.0130394 C32.2174386,48.2464716 32.2124174,47.621836 32.1073072,47.1207216 C32.0042055,46.6376835 31.7926462,46.1318826 31.4522097,45.6036538 C31.1064174,45.0670564 30.5925826,44.4762301 29.871875,43.832514 C28.6072055,42.6960521 27.738875,41.9328318 27.2575106,41.5438572 C26.7958962,41.1706157 26.5153792,40.846247 26.4085953,40.5844758 C26.3075021,40.3106538 26.3041547,40.022103 26.4032394,39.7024208 C26.4926165,39.3951242 26.8802521,38.814675 27.558447,37.9754674 L24.858053,35.7925903 L24.3753496,36.3901114 C23.5712903,37.3849758 23.0557818,38.1639292 22.8161038,38.7333318 C22.4743284,39.5752174 22.3320614,40.3213657 22.3903072,40.9560436 C22.4589301,41.6034419 22.7270614,42.2160267 23.1973792,42.8205775 C23.6653538,43.4231199 24.6233962,44.307853 26.0895826,45.492853 C26.985697,46.2172428 27.5885742,46.7535055 27.9025657,47.1173742 C28.3220021,47.5830055 28.6072055,48.037925 28.7719004,48.5055648 C28.9268877,48.9655055 28.9533326,49.3869504 28.8709852,49.7816157 C28.7812733,50.1702555 28.5225148,50.6469335 28.1171377,51.2290564 L30.8275742,53.4196326 C31.4250953,52.7561665 31.983786,52.3628403 32.5260742,52.2423318 C33.0609979,52.1157979 33.6873072,52.2095267 34.4280996,52.5348996" id="Fill-2" fill="#000000" sketch:type="MSShapeGroup"></path>
                    <path d="M46.1626458,48.8218996 L47.9642475,49.2741411 C48.2792432,48.3944292 48.4020949,47.5712894 48.3364847,46.7836326 C48.2712093,45.9963106 48.041239,45.3164419 47.6341881,44.7346538 C47.2271373,44.1321114 46.5656797,43.4713233 45.65015,42.7308657 L43.3742136,40.8914377 L40.8023619,44.0731962 L43.9841203,46.6447131 L45.2230144,45.1119123 C45.8422941,45.6287597 46.225578,46.1794165 46.3855864,46.7538403 C46.5432517,47.3259208 46.4649212,48.0134886 46.1626458,48.8218996" id="Fill-4" fill="#000000" sketch:type="MSShapeGroup"></path>
                    <path d="M31.9609564,36.9264411 L34.5328081,33.7446826 L37.7142318,36.3165343 L35.1427148,39.4982928 L31.9609564,36.9264411 Z" id="Fill-6" fill="#000000" sketch:type="MSShapeGroup"></path>
                    <path d="M55.7744686,41.6057517 C56.1249475,40.7585102 56.2749136,40.0023195 56.2159983,39.3629551 C56.1554093,38.7262686 55.8795788,38.1033068 55.4035703,37.510472 C54.9215364,36.9002305 53.9554602,36.0054551 52.4989814,34.8281542 C51.6028669,34.1040992 50.9979814,33.5701797 50.6983839,33.2136754 C50.2766042,32.7460356 49.9893924,32.2730398 49.8347398,31.8134339 C49.6743966,31.3655441 49.6379093,30.9360653 49.7276212,30.5474254 C49.8169983,30.1587856 50.0580153,29.6841161 50.4838119,29.1016585 L50.475778,29.1117008 L47.7653415,26.9211246 C47.1654771,27.5825822 46.5974136,27.972561 46.0641636,28.0967517 C45.5319178,28.2252941 44.8959008,28.1235314 44.1567822,27.8159 C43.6385958,27.5886076 42.6966212,26.9211246 41.3167992,25.8060864 C40.1220915,24.8403449 39.2055576,24.1972983 38.5497907,23.8876585 C37.8796297,23.5706542 37.2047822,23.4411076 36.5319432,23.5013619 C35.8614475,23.5632898 35.2173966,23.8099975 34.6148542,24.2167136 C34.0190068,24.6411712 33.2976297,25.3518364 32.479511,26.3637729 L31.9887737,26.9710017 L34.6891678,29.1535441 C35.3834305,28.2945864 35.8858839,27.7944763 36.1774475,27.6304508 C36.4870873,27.4644169 36.7699475,27.4075102 37.0223458,27.4687686 C37.2951636,27.5300271 37.7102483,27.7837644 38.2786466,28.2269678 C40.1103754,29.6462898 41.3238288,30.5129466 41.9163288,30.8654339 C42.7782992,31.3541627 43.6168373,31.6196161 44.3991381,31.6765229 C44.9568246,31.6986161 45.6293288,31.5730864 46.4501254,31.3099763 C46.3383203,31.9379593 46.3483627,32.5214212 46.4584941,33.0717432 C46.5515534,33.6080059 46.7848712,34.1476161 47.1269814,34.6935864 C47.4647398,35.2398915 48.0060237,35.852811 48.756189,36.5202941 C50.0114856,37.632989 50.8557144,38.380811 51.3200068,38.756061 C51.7755958,39.1363322 52.055778,39.4610356 52.154528,39.7325144 C52.253278,40.004328 52.2512695,40.3045949 52.1562017,40.6396754 C52.0487483,40.9694 51.6664686,41.5377983 51.0120407,42.3475483 L53.7321847,44.5461585 L54.2232568,43.9389297 C55.0192822,42.9541076 55.5431593,42.1697983 55.7744686,41.6057517" id="Fill-8" fill="#000000" sketch:type="MSShapeGroup"></path>
                    <mask id="mask-2" sketch:name="Clip 11" fill="white">
                        <use xlink:href="#path-1"></use>
                    </mask>
                    <g id="Clip-11"></g>
                    <path d="M67.344822,67.2454025 L11.4787669,67.2454025 L11.4787669,11.8617161 L67.344822,11.8617161 L67.344822,67.2454025 Z" id="Fill-10" fill="#49C6E8" sketch:type="MSShapeGroup" mask="url(#mask-2)"></path>
                    <path d="M11.6461398,67.0780297 L67.1774492,67.0780297 L67.1774492,12.029089 L11.6461398,12.029089 L11.6461398,67.0780297 Z M67.5118602,67.4127754 L11.3110593,67.4127754 L11.3110593,11.6943432 L67.5118602,11.6943432 L67.5118602,67.4127754 Z" id="Fill-12" fill="#231F1F" sketch:type="MSShapeGroup" mask="url(#mask-2)"></path>
                    <path d="M62.7427373,62.6429831 L16.0775042,62.6429831 L16.0775042,16.4634661 L62.7427373,16.4634661 L62.7427373,62.6429831 Z M11.4787669,67.2454025 L67.344822,67.2454025 L67.344822,11.8617161 L11.4787669,11.8617161 L11.4787669,67.2454025 Z" id="Fill-13" fill="#000000" sketch:type="MSShapeGroup" mask="url(#mask-2)"></path>
                    <path d="M26.1830436,43.8381377 C26.3323403,44.3713877 26.4180352,45.5232479 26.4180352,47.3071081 C26.4180352,48.8462691 26.4910097,49.9730233 26.6654123,50.6810106 C26.8274292,51.3983708 27.1511284,51.9948877 27.633497,52.4772564 C28.1158657,52.9629725 28.6996623,53.3087648 29.3949292,53.5183157 C30.0995691,53.7308792 31.1058148,53.8420148 32.4196919,53.8420148 L33.1875987,53.8420148 L33.1875987,50.3445911 C32.1465394,50.3445911 31.4643275,50.2840021 31.1533487,50.1477606 C30.8453826,50.0111843 30.6073784,49.8240614 30.4487089,49.5636292 C30.2994123,49.3162521 30.223425,48.8717097 30.223425,48.2370318 C30.223425,47.7928242 30.1882767,46.7611377 30.0995691,45.1520148 C30.0520352,44.0855148 29.9154589,43.2416208 29.728336,42.6096208 C29.5315055,41.9782903 29.258353,41.4450403 28.8837725,40.9974852 C28.5252597,40.5626504 28.0556114,40.178697 27.4842004,39.8452903 C28.128586,39.4231758 28.6109547,39.0265021 28.9346538,38.6298284 C29.2456326,38.245875 29.5060648,37.7635064 29.7028953,37.1666547 C29.9027386,36.5604301 30.0393148,35.7891758 30.0868487,34.8244386 C30.1755564,33.1262733 30.223425,31.9710657 30.223425,31.3521208 C30.223425,30.7586165 30.2994123,30.3365021 30.4359886,30.0887903 C30.5852852,29.8384004 30.8072216,29.6542903 31.1182004,29.5304343 C31.4134462,29.4065784 32.1087131,29.3429767 33.1875987,29.3429767 L33.1875987,25.8709936 L32.4196919,25.8709936 C31.1406284,25.8709936 30.2107047,25.9597013 29.6172004,26.1310911 C28.7475309,26.394536 28.0777047,26.7533835 27.6207767,27.1975911 C27.1605013,27.6578665 26.8528699,28.2513708 26.6781326,28.9971843 C26.5033953,29.7399852 26.4180352,31.0411419 26.4180352,32.9264301 C26.4180352,34.078625 26.3798742,34.8846928 26.2941792,35.3576886 C26.195764,35.9762987 26.0213614,36.4844428 25.7609292,36.9062225 C25.5008318,37.3159513 25.1895182,37.6014894 24.8310055,37.7855996 C24.4724928,37.9600021 23.9389081,38.0584174 23.2312555,38.1092987 L23.2312555,41.5940021 C24.1230182,41.6418708 24.7801242,41.8289936 25.2149589,42.1751208 C25.6497936,42.5115403 25.9704801,43.0575106 26.1830436,43.8381377" id="Fill-14" fill="#000000" sketch:type="MSShapeGroup" mask="url(#mask-2)"></path>
                    <path d="M36.4473195,50.6301292 L37.2279466,52.3155742 C38.1103364,52.0076081 38.8276966,51.5854936 39.3991076,51.0395233 C39.9701839,50.493553 40.3541373,49.8876631 40.5509678,49.2051165 C40.7638661,48.5098496 40.8619466,47.5799258 40.8619466,46.402625 L40.8619466,43.4762775 L36.7710186,43.4762775 L36.7710186,47.5675403 L38.7420017,47.5675403 C38.7292814,48.3736081 38.5418237,49.0179936 38.1960314,49.503375 C37.850239,49.9857436 37.2661076,50.3573114 36.4473195,50.6301292" id="Fill-15" fill="#000000" sketch:type="MSShapeGroup" mask="url(#mask-2)"></path>
                    <path d="M36.7711525,32.1074746 L40.8620805,32.1074746 L40.8620805,36.1984025 L36.7711525,36.1984025 L36.7711525,32.1074746 Z" id="Fill-16" fill="#000000" sketch:type="MSShapeGroup" mask="url(#mask-2)"></path>
                    <path d="M48.1015602,53.5690966 C48.9806025,53.3089992 49.6631492,52.9501517 50.1234246,52.5025966 C50.5803525,52.0550415 50.8913314,51.4488169 51.0533483,50.7063508 C51.2247381,49.9478169 51.3134458,48.6339398 51.3134458,46.7610373 C51.3134458,45.6091771 51.3485941,44.8031093 51.4373017,44.3458466 C51.5357169,43.723889 51.7228398,43.2033593 51.983272,42.7939653 C52.2306492,42.3875839 52.5419627,42.0893254 52.9004754,41.9145881 C53.2589881,41.7401856 53.7795178,41.62905 54.5002254,41.5942364 L54.4875051,41.5942364 L54.4875051,38.1091983 C53.5954076,38.0586517 52.9356237,37.8618212 52.5038017,37.5254017 C52.0689669,37.1919949 51.7482805,36.6333042 51.5229966,35.8653975 C51.3737,35.3194271 51.3007254,34.1672322 51.3007254,32.3930797 C51.3007254,30.8569314 51.2247381,29.7398847 51.0533483,29.0352449 C50.878611,28.314872 50.5549119,27.7086475 50.0852636,27.2229314 C49.6156153,26.7405627 49.0187636,26.3947703 48.3238314,26.181872 C47.6191915,25.9853763 46.6129458,25.8708932 45.311789,25.8708932 L44.5308271,25.8708932 L44.5308271,29.343211 C45.6354881,29.343211 46.340128,29.4191983 46.6511068,29.5430542 C46.9748059,29.6796305 47.1970771,29.8637407 47.3082127,30.0983975 C47.4317339,30.3494568 47.4953356,30.8314907 47.5080559,31.5521983 C47.5559246,33.8689737 47.6446322,35.3575881 47.7430475,36.0398 C47.9047297,37.0175924 48.2254161,37.8363805 48.6729712,38.4807661 C49.006378,38.9279864 49.5265729,39.3725288 50.2472805,39.8455246 C49.6885898,40.1531559 49.2410347,40.5277364 48.8821873,40.9595585 C48.5236746,41.3689525 48.2508568,41.8894822 48.0413059,42.4987195 C47.8287424,43.1049441 47.6921661,43.9110119 47.6446322,44.9139102 C47.5683102,46.5896475 47.5177636,47.7164017 47.5177636,48.3132534 C47.5080559,48.9067576 47.4317339,49.328872 47.282772,49.5762492 C47.1334754,49.823961 46.8988186,50.0110839 46.5781322,50.1476602 C46.2544331,50.2715161 45.5718864,50.3317703 44.5308271,50.3317703 L44.5308271,53.8291941 L45.311789,53.8291941 C46.5781322,53.8291941 47.5177636,53.7438339 48.1015602,53.5690966" id="Fill-17" fill="#000000" sketch:type="MSShapeGroup" mask="url(#mask-2)"></path>
                    <path d="M67.344822,67.2454025 L11.4787669,67.2454025 L11.4787669,11.8617161 L67.344822,11.8617161 L67.344822,67.2454025 Z" id="Fill-18" fill="#1AAEDF" sketch:type="MSShapeGroup" mask="url(#mask-2)"></path>
                    <path d="M67.344822,67.2454025 L11.4787669,67.2454025 L11.4787669,11.8617161 L67.344822,11.8617161 L67.344822,67.2454025 Z" id="Stroke-19" stroke="#231F1F" sketch:type="MSShapeGroup" mask="url(#mask-2)"></path>
                    <path d="M11.6461398,67.0780297 L67.1774492,67.0780297 L67.1774492,12.029089 L11.6461398,12.029089 L11.6461398,67.0780297 Z M67.5118602,67.4127754 L11.3110593,67.4127754 L11.3110593,11.6943432 L67.5118602,11.6943432 L67.5118602,67.4127754 Z" id="Fill-20" fill="#231F1F" sketch:type="MSShapeGroup" mask="url(#mask-2)"></path>
                    <path d="M62.7427373,62.6429831 L16.0775042,62.6429831 L16.0775042,16.4634661 L62.7427373,16.4634661 L62.7427373,62.6429831 Z M11.4787669,67.2454025 L67.344822,67.2454025 L67.344822,11.8617161 L11.4787669,11.8617161 L11.4787669,67.2454025 Z" id="Fill-21" fill="#000000" sketch:type="MSShapeGroup" mask="url(#mask-2)"></path>
                    <path d="M26.1830436,43.8381377 C26.3323403,44.3713877 26.4180352,45.5232479 26.4180352,47.3071081 C26.4180352,48.8462691 26.4910097,49.9730233 26.6654123,50.6810106 C26.8274292,51.3983708 27.1511284,51.9948877 27.633497,52.4772564 C28.1158657,52.9629725 28.6996623,53.3087648 29.3949292,53.5183157 C30.0995691,53.7308792 31.1058148,53.8420148 32.4196919,53.8420148 L33.1875987,53.8420148 L33.1875987,50.3445911 C32.1465394,50.3445911 31.4643275,50.2840021 31.1533487,50.1477606 C30.8453826,50.0111843 30.6073784,49.8240614 30.4487089,49.5636292 C30.2994123,49.3162521 30.223425,48.8717097 30.223425,48.2370318 C30.223425,47.7928242 30.1882767,46.7611377 30.0995691,45.1520148 C30.0520352,44.0855148 29.9154589,43.2416208 29.728336,42.6096208 C29.5315055,41.9782903 29.258353,41.4450403 28.8837725,40.9974852 C28.5252597,40.5626504 28.0556114,40.178697 27.4842004,39.8452903 C28.128586,39.4231758 28.6109547,39.0265021 28.9346538,38.6298284 C29.2456326,38.245875 29.5060648,37.7635064 29.7028953,37.1666547 C29.9027386,36.5604301 30.0393148,35.7891758 30.0868487,34.8244386 C30.1755564,33.1262733 30.223425,31.9710657 30.223425,31.3521208 C30.223425,30.7586165 30.2994123,30.3365021 30.4359886,30.0887903 C30.5852852,29.8384004 30.8072216,29.6542903 31.1182004,29.5304343 C31.4134462,29.4065784 32.1087131,29.3429767 33.1875987,29.3429767 L33.1875987,25.8709936 L32.4196919,25.8709936 C31.1406284,25.8709936 30.2107047,25.9597013 29.6172004,26.1310911 C28.7475309,26.394536 28.0777047,26.7533835 27.6207767,27.1975911 C27.1605013,27.6578665 26.8528699,28.2513708 26.6781326,28.9971843 C26.5033953,29.7399852 26.4180352,31.0411419 26.4180352,32.9264301 C26.4180352,34.078625 26.3798742,34.8846928 26.2941792,35.3576886 C26.195764,35.9762987 26.0213614,36.4844428 25.7609292,36.9062225 C25.5008318,37.3159513 25.1895182,37.6014894 24.8310055,37.7855996 C24.4724928,37.9600021 23.9389081,38.0584174 23.2312555,38.1092987 L23.2312555,41.5940021 C24.1230182,41.6418708 24.7801242,41.8289936 25.2149589,42.1751208 C25.6497936,42.5115403 25.9704801,43.0575106 26.1830436,43.8381377" id="Fill-22" fill="#000000" sketch:type="MSShapeGroup" mask="url(#mask-2)"></path>
                    <path d="M36.4473195,50.6301292 L37.2279466,52.3155742 C38.1103364,52.0076081 38.8276966,51.5854936 39.3991076,51.0395233 C39.9701839,50.493553 40.3541373,49.8876631 40.5509678,49.2051165 C40.7638661,48.5098496 40.8619466,47.5799258 40.8619466,46.402625 L40.8619466,43.4762775 L36.7710186,43.4762775 L36.7710186,47.5675403 L38.7420017,47.5675403 C38.7292814,48.3736081 38.5418237,49.0179936 38.1960314,49.503375 C37.850239,49.9857436 37.2661076,50.3573114 36.4473195,50.6301292" id="Fill-23" fill="#000000" sketch:type="MSShapeGroup" mask="url(#mask-2)"></path>
                    <path d="M36.7711525,32.1074746 L40.8620805,32.1074746 L40.8620805,36.1984025 L36.7711525,36.1984025 L36.7711525,32.1074746 Z" id="Fill-24" fill="#000000" sketch:type="MSShapeGroup" mask="url(#mask-2)"></path>
                    <path d="M48.1015602,53.5690966 C48.9806025,53.3089992 49.6631492,52.9501517 50.1234246,52.5025966 C50.5803525,52.0550415 50.8913314,51.4488169 51.0533483,50.7063508 C51.2247381,49.9478169 51.3134458,48.6339398 51.3134458,46.7610373 C51.3134458,45.6091771 51.3485941,44.8031093 51.4373017,44.3458466 C51.5357169,43.723889 51.7228398,43.2033593 51.983272,42.7939653 C52.2306492,42.3875839 52.5419627,42.0893254 52.9004754,41.9145881 C53.2589881,41.7401856 53.7795178,41.62905 54.5002254,41.5942364 L54.4875051,41.5942364 L54.4875051,38.1091983 C53.5954076,38.0586517 52.9356237,37.8618212 52.5038017,37.5254017 C52.0689669,37.1919949 51.7482805,36.6333042 51.5229966,35.8653975 C51.3737,35.3194271 51.3007254,34.1672322 51.3007254,32.3930797 C51.3007254,30.8569314 51.2247381,29.7398847 51.0533483,29.0352449 C50.878611,28.314872 50.5549119,27.7086475 50.0852636,27.2229314 C49.6156153,26.7405627 49.0187636,26.3947703 48.3238314,26.181872 C47.6191915,25.9853763 46.6129458,25.8708932 45.311789,25.8708932 L44.5308271,25.8708932 L44.5308271,29.343211 C45.6354881,29.343211 46.340128,29.4191983 46.6511068,29.5430542 C46.9748059,29.6796305 47.1970771,29.8637407 47.3082127,30.0983975 C47.4317339,30.3494568 47.4953356,30.8314907 47.5080559,31.5521983 C47.5559246,33.8689737 47.6446322,35.3575881 47.7430475,36.0398 C47.9047297,37.0175924 48.2254161,37.8363805 48.6729712,38.4807661 C49.006378,38.9279864 49.5265729,39.3725288 50.2472805,39.8455246 C49.6885898,40.1531559 49.2410347,40.5277364 48.8821873,40.9595585 C48.5236746,41.3689525 48.2508568,41.8894822 48.0413059,42.4987195 C47.8287424,43.1049441 47.6921661,43.9110119 47.6446322,44.9139102 C47.5683102,46.5896475 47.5177636,47.7164017 47.5177636,48.3132534 C47.5080559,48.9067576 47.4317339,49.328872 47.282772,49.5762492 C47.1334754,49.823961 46.8988186,50.0110839 46.5781322,50.1476602 C46.2544331,50.2715161 45.5718864,50.3317703 44.5308271,50.3317703 L44.5308271,53.8291941 L45.311789,53.8291941 C46.5781322,53.8291941 47.5177636,53.7438339 48.1015602,53.5690966" id="Fill-25" fill="#000000" sketch:type="MSShapeGroup" mask="url(#mask-2)"></path>
                    <path d="M11.4786331,11.8615822 L0.316200847,43.8696373" id="Fill-26" fill="#1AAEDF" sketch:type="MSShapeGroup" mask="url(#mask-2)"></path>
                    <path d="M11.5191373,12.7618475 L10.8868025,12.5415847 L11.1626331,11.75125 L11.7946331,11.9718475 L11.5191373,12.7618475 Z" id="Fill-27" fill="#231F1F" sketch:type="MSShapeGroup" mask="url(#mask-2)"></path>
                    <path d="M10.4021242,15.9648288 L9.76978941,15.7445661 L10.3284801,14.1431424 L10.9604801,14.3634051 L10.4021242,15.9648288 Z M9.28507754,19.1676763 L8.6527428,18.9474136 L9.21143347,17.3459898 L9.84376822,17.5662525 L9.28507754,19.1676763 Z M8.16803093,22.3705237 L7.53569619,22.150261 L8.09438686,20.5488373 L8.72672161,20.7691 L8.16803093,22.3705237 Z M7.05131907,25.5737059 L6.41898432,25.3531085 L6.977675,23.7516847 L7.609675,23.9719475 L7.05131907,25.5737059 Z M5.93427246,28.7762186 L5.30193771,28.5559559 L5.86062839,26.9545322 L6.49262839,27.1747949 L5.93427246,28.7762186 Z M4.81722585,31.9794008 L4.1848911,31.7591381 L4.74358178,30.1573797 L5.37558178,30.3779771 L4.81722585,31.9794008 Z M3.70017924,35.1822483 L3.06784449,34.9616508 L3.62653517,33.3605619 L4.25853517,33.5808246 L3.70017924,35.1822483 Z M2.58313263,38.3850958 L1.95079788,38.1648331 L2.50948856,36.5634093 L3.14182331,36.783672 L2.58313263,38.3850958 Z M1.46642076,41.5879432 L0.834086017,41.3676805 L1.39244195,39.7662568 L2.02477669,39.9865195 L1.46642076,41.5879432 Z" id="Fill-28" fill="#231F1F" sketch:type="MSShapeGroup" mask="url(#mask-2)"></path>
                    <path d="M0.632234322,43.9795008 L-0.000100423729,43.7592381 L0.275730085,42.9689034 L0.907730085,43.1895008 L0.632234322,43.9795008 Z" id="Fill-29" fill="#231F1F" sketch:type="MSShapeGroup" mask="url(#mask-2)"></path>
                    <path d="M11.4786331,67.2452686 L43.3886076,78.6848703" id="Fill-30" fill="#1AAEDF" sketch:type="MSShapeGroup" mask="url(#mask-2)"></path>
                    <path d="M12.9411708,68.1253487 L11.3655225,67.5606326 L11.5914758,66.9303064 L13.1671242,67.4950225 L12.9411708,68.1253487 Z M16.0924674,69.2547809 L14.5168191,68.6900648 L14.7427725,68.0600733 L16.318086,68.6244547 L16.0924674,69.2547809 Z M19.2434292,70.3845479 L17.6677809,69.8198318 L17.8937343,69.1895055 L19.4693826,69.7542216 L19.2434292,70.3845479 Z M22.3943911,71.5143148 L20.8190775,70.9495987 L21.0446962,70.3192725 L22.6203445,70.8839886 L22.3943911,71.5143148 Z M25.5456877,72.643747 L23.9700394,72.0793657 L24.1959928,71.4490394 L25.7716411,72.0134208 L25.5456877,72.643747 Z M28.6966496,73.773514 L27.1210013,73.2087979 L27.3469547,72.5784716 L28.922603,73.1431877 L28.6966496,73.773514 Z M31.8476114,74.9032809 L30.2722979,74.3385648 L30.4982513,73.7082386 L32.0735648,74.2729547 L31.8476114,74.9032809 Z M34.9989081,76.0327131 L33.4232597,75.467997 L33.6492131,74.8376708 L35.2248614,75.4023869 L34.9989081,76.0327131 Z M38.1498699,77.1624801 L36.5745564,76.597764 L36.800175,75.9674377 L38.3758233,76.5321538 L38.1498699,77.1624801 Z M41.3011665,78.2919123 L39.725853,77.7275309 L39.9511369,77.0972047 L41.5267852,77.661586 L41.3011665,78.2919123 Z M43.275497,78.9998996 L42.8764801,78.8569631 L43.1027682,78.2266369 L43.5017852,78.3699081 L43.275497,78.9998996 Z" id="Fill-31" fill="#231F1F" sketch:type="MSShapeGroup" mask="url(#mask-2)"></path>
                    <path d="M67.3446547,11.8615822 L35.4346801,0.421980508" id="Fill-32" fill="#1AAEDF" sketch:type="MSShapeGroup" mask="url(#mask-2)"></path>
                    <path d="M35.7207203,0.880013136 L35.3217034,0.737076695 L35.5476568,0.106750424 L35.9466737,0.249686864 L35.7207203,0.880013136 Z M38.8720169,2.00978008 L37.2963686,1.44472924 L37.522322,0.814737712 L39.0976356,1.37945381 L38.8720169,2.00978008 Z M42.0229788,3.13954703 L40.4473305,2.57449619 L40.6732839,1.94416992 L42.2489322,2.50922076 L42.0229788,3.13954703 Z M45.1742754,4.26897924 L43.5986271,3.70426314 L43.8242458,3.07393686 L45.3998941,3.63865297 L45.1742754,4.26897924 Z M48.3249025,5.39874619 L46.749589,4.83403008 L46.9758771,4.20370381 L48.5511907,4.76841992 L48.3249025,5.39874619 Z M51.4761992,6.52851314 L49.9005508,5.96346229 L50.126839,5.33313602 L51.7024873,5.89818686 L51.4761992,6.52851314 Z M54.6274958,7.65794534 L53.0518475,7.09322924 L53.2774661,6.46290297 L54.8531144,7.02761907 L54.6274958,7.65794534 Z M57.7781229,8.78771229 L56.2024746,8.22299619 L56.4287627,7.59266992 L58.004411,8.15738602 L57.7781229,8.78771229 Z M60.9290847,9.91747924 L59.3537712,9.35276314 L59.5800593,8.72243686 L61.1553729,9.28715297 L60.9290847,9.91747924 Z M64.0803814,11.0472462 L62.5047331,10.4821953 L62.7310212,9.85186907 L64.3066695,10.4169199 L64.0803814,11.0472462 Z M67.2313432,12.1766784 L65.6556949,11.6119623 L65.8819831,10.981636 L67.4576314,11.5463521 L67.2313432,12.1766784 Z" id="Fill-33" fill="#231F1F" sketch:type="MSShapeGroup" mask="url(#mask-2)"></path>
                    <path d="M67.3446547,67.2452686 L78.5070869,35.2372136" id="Fill-34" fill="#1AAEDF" sketch:type="MSShapeGroup" mask="url(#mask-2)"></path>
                    <path d="M78.6837322,35.7478347 L78.0513975,35.527572 L78.1909864,35.1272161 L78.8233212,35.3474788 L78.6837322,35.7478347 Z M77.5814144,38.9085042 L76.9490797,38.6882415 L77.5004059,37.1079068 L78.1327407,37.3281695 L77.5814144,38.9085042 Z M76.4790966,42.0695085 L75.8467619,41.8492458 L76.3980881,40.2685763 L77.0304229,40.488839 L76.4790966,42.0695085 Z M75.3767788,45.230178 L74.7444441,45.0099153 L75.2957703,43.4292458 L75.9281051,43.6495085 L75.3767788,45.230178 Z M74.274461,48.3911822 L73.6421263,48.1705847 L74.1934525,46.59025 L74.8257873,46.8105127 L74.274461,48.3911822 Z M73.1721432,51.5518517 L72.5398085,51.331589 L73.0911347,49.7509195 L73.7234695,49.9711822 L73.1721432,51.5518517 Z M72.0698254,54.7121864 L71.4378254,54.4919237 L71.9888169,52.911589 L72.6211517,53.1321864 L72.0698254,54.7121864 Z M70.9675076,57.8731907 L70.3355076,57.652928 L70.8864992,56.0725932 L71.5188339,56.2928559 L70.9675076,57.8731907 Z M69.8651898,61.0338602 L69.2331898,60.8135975 L69.7841814,59.2332627 L70.4165161,59.4535254 L69.8651898,61.0338602 Z M68.762872,64.1945297 L68.130872,63.9742669 L68.6818636,62.3942669 L69.3141983,62.6145297 L68.762872,64.1945297 Z M67.6605542,67.3555339 L67.0285542,67.1352712 L67.5795458,65.5549364 L68.2118805,65.7751992 L67.6605542,67.3555339 Z" id="Fill-35" fill="#231F1F" sketch:type="MSShapeGroup" mask="url(#mask-2)"></path>
                </g>
            </g>
        </g>
    </g>
</svg>