<?xml version="1.0" encoding="UTF-8" standalone="no"?>
<svg width="150px" height="150px" viewBox="0 0 150 150" version="1.1" xmlns="http://www.w3.org/2000/svg" xmlns:xlink="http://www.w3.org/1999/xlink" xmlns:sketch="http://www.bohemiancoding.com/sketch/ns">
    <!-- Generator: Sketch 3.3.1 (12005) - http://www.bohemiancoding.com/sketch -->
    <title>badge</title>
    <desc>Created with Sketch.</desc>
    <defs></defs>
    <g id="25.-CSS-1" stroke="none" stroke-width="1" fill="none" fill-rule="evenodd" sketch:type="MSPage">
        <g id="badge" sketch:type="MSArtboardGroup">
            <g id="Group" sketch:type="MSLayerGroup" transform="translate(35.000000, 41.956522)">
                <g id="Shape" fill="#DFEBF3" sketch:type="MSShapeGroup">
                    <path d="M27.76,5.75652174 L20.6304348,5.75652174 C22.166087,5.75652174 23.4086957,4.50347826 23.4086957,2.9573913 C23.4086957,1.41043478 22.166087,0.157391304 20.6304348,0.157391304 L16.16,0.157391304 L11.6895652,0.157391304 C10.1513043,0.157391304 8.90956522,1.41043478 8.90956522,2.9573913 C8.90956522,4.50347826 10.153913,5.75652174 11.6895652,5.75652174 L4.55913043,5.75652174 C2.15391304,5.75652174 0.208695652,7.7173913 0.208695652,10.1382609 L0.208695652,10.626087 C0.208695652,13.0478261 2.15565217,15.0086957 4.55913043,15.0086957 L16.16,15.0086957 L27.76,15.0086957 C30.1626087,15.0086957 32.1104348,13.0478261 32.1104348,10.626087 L32.1104348,10.1382609 C32.1104348,7.7173913 30.1643478,5.75652174 27.76,5.75652174 L27.76,5.75652174 Z"></path>
                    <path d="M74.7252174,7.30695652 L60.9878261,7.30695652 L47.2513043,7.30695652 C44.8121739,7.30695652 42.8365217,9.26869565 42.8365217,11.6895652 L42.8365217,12.1782609 C42.8365217,14.5973913 44.8121739,16.56 47.2513043,16.56 L55.7156522,16.56 C54.1565217,16.56 52.8921739,17.8121739 52.8921739,19.3591304 C52.8921739,20.906087 54.153913,22.1591304 55.7156522,22.1591304 L60.9869565,22.1591304 L66.2591304,22.1591304 C67.82,22.1591304 69.0808696,20.906087 69.0808696,19.3591304 C69.0808696,17.8121739 67.8182609,16.56 66.2591304,16.56 L74.7234783,16.56 C77.1617391,16.56 79.1373913,14.5973913 79.1373913,12.1782609 L79.1373913,11.6895652 C79.1391304,9.26956522 77.1634783,7.30695652 74.7252174,7.30695652 L74.7252174,7.30695652 Z"></path>
                </g>
                <g id="Imported-Layers_1_" transform="translate(15.652174, 3.478261)" sketch:type="MSShapeGroup">
                    <path d="M18.3017391,9.01565217 C18.3017391,9.01565217 15.5478261,32.4321739 14.7878261,36.0608696 C14.7878261,36.0608696 14.4834783,39.6886957 9.16608696,44.8304348 C9.16608696,44.8304348 -0.475652174,56.7017391 0.589565217,60.4826087 C0.589565217,60.4826087 8.05826087,58.4434783 20.6321739,59.4956522 C20.6321739,59.4956522 38.7817391,41.2226087 50.6347826,41.8278261 C50.6347826,41.8278261 42.5826087,37.473913 42.5826087,25.8313043 L40.7756522,10.2078261 C40.7756522,10.2078261 39.3695652,0.529565217 28.7695652,0.531304348 C28.7695652,0.531304348 19.7078261,0.171304348 18.3017391,9.01565217 L18.3017391,9.01565217 Z" id="Fill-1_1_" fill="#1C689C"></path>
                    <path d="M19.2095652,11.8669565 L19.2095652,21.7104348 C19.2095652,21.7104348 19.1556522,27.5843478 24.9704348,28.58 C24.9704348,28.58 26.3591304,25.0373913 29.7713043,25.3513043 L29.7713043,21.553913 L33.5104348,17.2486957 L33.5104348,15.5782609 L33.5104348,10.9069565 C33.5104348,10.9069565 32.1617391,4.6826087 25.2956522,4.93652174 C25.2956522,4.93652174 19.2095652,5.07304348 19.2095652,11.8669565 L19.2095652,11.8669565 Z" id="Fill-2_1_" fill="#A7CEEA"></path>
                    <path d="M14.2582609,42.7756522 C14.2582609,42.7756522 16.9730435,47.9 34.4469565,49.2547826 L34.0608696,23.0808696 C34.0608696,23.0808696 30.8321739,29.0226087 24.9486957,28.106087 L24.6321739,33.8373913 C24.6304348,33.8373913 15.4869565,40.0243478 14.2582609,42.7756522 L14.2582609,42.7756522 Z" id="Fill-3_1_" fill="#A7CEEA"></path>
                    <path d="M27.4408696,32.1852174 C27.4408696,32.1852174 32.0573913,33.6191304 34.1443478,28.7930435 L34.06,22.3704348 C34.06,22.3704348 30.94,28.306087 24.8182609,27.98 L24.7095652,29.526087 C24.7095652,29.526087 25.2817391,31.4947826 27.4408696,32.1852174" id="Fill-4_1_" fill="#3C99D9"></path>
                    <path d="M36.2591304,47.2817391 C36.2591304,47.2817391 43.0652174,42.0130435 50.6382609,41.8626087 C50.6382609,41.8626087 42.2321739,36.9956522 42.373913,21.3608696 C42.373913,21.3608696 42.0434783,6.56521739 37.42,3.82869565 C37.42,3.82869565 45.4530435,28.6234783 36.2591304,47.2817391 L36.2591304,47.2817391 Z" id="Fill-5_1_" fill="#1A5984"></path>
                    <path d="M25.2608696,27.9904348 C25.2608696,27.9904348 30.8947826,28.8730435 34.06,22.3695652 L34.06,10.7869565 C34.06,10.7869565 31.9052174,4.32782609 25.6930435,4.97391304 C25.6930435,4.97478261 22.5513043,21.4165217 25.2608696,27.9904348 L25.2608696,27.9904348 Z" id="Fill-6_1_" fill="#81BAE2"></path>
                    <path d="M15.9086957,40.6817391 C15.9086957,40.6817391 19.5147826,34.6982609 19.1669565,23.0808696 C19.1669565,23.0808696 20.5843478,27.9773913 25.2591304,27.9773913 L25.0530435,33.5626087 C25.0530435,33.5626087 17.686087,38.82 15.9086957,40.6817391" id="Fill-7_1_" fill="#1A5984"></path>
                    <path d="M34.0252174,12.08 C34.0252174,12.08 34.1965217,13.8991304 31.06,13.5686957 C31.06,13.5686957 27.7408696,12.9886957 27.226087,13.2547826 C27.226087,13.2547826 24.8617391,13.3391304 25.3173913,17.0043478 L26.233913,17.0295652 C26.233913,17.0295652 26.4704348,14.0652174 28.9765217,14.0904348 C28.9765217,14.0904348 30.7947826,14.0713043 31.2182609,15.5356522 L32.3504348,15.5652174 C32.3504348,15.5652174 32.1808696,14.24 33.4730435,14.2652174 C33.4730435,14.2652174 34.026087,14.5165217 34.026087,15.3565217 L34.026087,10.4773913 C34.026087,10.4773913 32.3582609,5.56086957 29.1547826,5.48086957 C29.1547826,5.48086957 31.3504348,7.48173913 30.7826087,10.4773913 C30.7826087,10.4765217 33.7878261,10.2095652 34.0252174,12.08 L34.0252174,12.08 Z" id="Fill-8_1_" fill="#3C99D9"></path>
                    <path d="M34.6086957,48.6373913 C34.6086957,48.7730435 23.7034783,56.0982609 20.7478261,59.3826087 C20.7478261,59.3826087 14.9156522,58.5826087 6.55826087,59.3747826 C6.55826087,59.3747826 8.60608696,48.5730435 14.5443478,42.88 C14.5434783,42.88 18.613913,47.8356522 34.6086957,48.6373913 L34.6086957,48.6373913 Z" id="Fill-11_1_" fill="#1A5984"></path>
                    <path id="Fill-16_1_" fill="#C07E4D" d="M25.2591304,28.0313043 L25.2591304,28.0323043 C25.2895652,28.0373043 25.3313043,28.0423043 25.3843478,28.0483043 C25.3434783,28.0413043 25.3008696,28.0383043 25.2591304,28.0313043"></path>
                    <path id="Fill-17_1_" fill="#051116" d="M25.2591304,28.0313043 C25.2591304,28.0313043 25.2751304,28.0503043 25.3051304,28.0893043 L25.3071304,28.0393043 L25.3071304,28.0383043 C25.2901304,28.0343043 25.2751304,28.0333043 25.2591304,28.0313043"></path>
                    <path d="M19.2095652,13.18 C19.2095652,13.18 19.7608696,14.1747826 21.0730435,13.4556522 C21.0730435,13.4556522 22.66,12.7913043 23.7191304,13.8913043 C23.7191304,13.8913043 24.3417391,14.7165217 24.106087,15.38 L23.8521739,15.38 C23.8521739,15.38 23.7791304,14.293913 23.0965217,13.9895652 C23.0965217,13.9895652 21.5391304,13.3495652 20.2852174,14.786087 C20.2852174,14.786087 19.7313043,15.3104348 19.2104348,14.6878261 L19.2104348,13.18" id="Fill-23_1_" fill="#3C99D9"></path>
                    <path d="M19.7582609,14.953913 C20.1052174,14.7704348 20.8069565,14.4765217 21.1982609,14.3913043 C21.1982609,14.3913043 22.8469565,13.9278261 23.0573913,14.8904348 C23.0573913,14.8904348 23.1417391,15.74 21.0617391,15.2017391 L19.8617391,15.0530435 L19.7582609,14.953913" id="Fill-24_1_" fill="#EEEECA"></path>
                    <path d="M26.9095652,15.5252174 C27.253913,15.3365217 27.96,15.0313043 28.3495652,14.9452174 C28.3495652,14.9452174 29.9982609,14.466087 30.2095652,15.4582609 C30.2095652,15.4582609 30.2947826,16.2852174 27.9765217,15.7478261 L27.0147826,15.6278261 L26.9095652,15.5252174" id="Fill-25_1_" fill="#EEEECA"></path>
                    <path d="M50.56,41.8573913 C50.56,41.8573913 40.6043478,50.44 38.3408696,61.5826087 C38.3408696,61.5826087 30.4852174,60.4773913 20.3086957,59.6252174 C20.3086957,59.6252174 38.4765217,40.4278261 50.56,41.8573913 L50.56,41.8573913 Z" id="Fill-26_1_" fill="#1C689C"></path>
                    <path d="M51.8878261,62.4504348 C51.8878261,62.4504348 45.0869565,62.5173913 37.7391304,61.5356522 C37.7391304,61.5356522 41.3243478,48.5921739 50.6286957,41.7817391 C50.6286957,41.7817391 61.0765217,53.2791304 51.8878261,62.4504348 L51.8878261,62.4504348 Z" id="Fill-27_1_" fill="#1A5984"></path>
                    <path d="M21.9591304,24.1304348 C21.9591304,24.1304348 22.6886957,23.5 23.2252174,23.6573913 C23.2252174,23.6573913 23.5669565,24.2365217 23.7591304,24.1304348 C23.7591304,24.1304348 24.0034783,24.1330435 24.3930435,23.6321739 C24.3930435,23.6321739 25.8556522,23.5930435 26.3904348,23.8878261 C26.3904348,23.8878261 26.6982609,24.0486957 27.4591304,23.6304348 C27.4591304,23.6304348 26.246087,24.6834783 24.3052174,24.7304348 C24.3052174,24.7304348 22.3478261,24.7095652 21.9591304,24.1304348" id="Fill-28_1_" fill="#3C99D9"></path>
                    <path d="M23.9573913,16.4904348 C23.9573913,16.4904348 23.9043478,19.5408696 23.0634783,20.5765217 C23.0634783,20.5765217 22.8252174,22.4965217 26.2234783,20.5765217 C26.2234783,20.5765217 25.6547826,17.3730435 26.3591304,16.9069565 L26.2234783,13.7313043 C26.2226087,13.7313043 24.6365217,14.5486957 23.9573913,16.4904348" id="Fill-29_1_" fill="#3C99D9"></path>
                    <path d="M23.3104348,25.3252174 C24.0547826,25.9208696 24.8321739,25.8269565 24.8321739,25.8269565 C26.2182609,25.4904348 25.7234783,24.7313043 25.7234783,24.7313043 C24.3973913,25.4156522 22.5095652,24.7313043 22.5095652,24.7313043 L23.3104348,25.3252174" id="Fill-30_1_" fill="#3C99D9"></path>
                    <path d="M20.8591304,14.8904348 C20.8591304,15.0217391 20.9130435,15.1426087 21.0069565,15.24 C21.5278261,15.3565217 21.9086957,15.3930435 22.1843478,15.3765217 C22.3791304,15.2652174 22.5095652,15.0886957 22.5095652,14.8895652 C22.5095652,14.6182609 22.273913,14.3652174 21.9478261,14.2826087 C21.76,14.2747826 21.5756522,14.2826087 21.4191304,14.2826087 L21.4191304,14.2826087 C21.3652174,14.2826087 21.3182609,14.3243478 21.2721739,14.3330435 C21.026087,14.4382609 20.8591304,14.6626087 20.8591304,14.8904348" id="Fill-31_1_" fill="#1A5984"></path>
                    <path d="M28.7234783,15.8330435 C29.2756522,15.9321739 29.6643478,15.9452174 29.9426087,15.9165217 C30.1034783,15.7982609 30.2104348,15.6347826 30.2104348,15.4504348 C30.2104348,15.1669565 29.9730435,14.9173913 29.6495652,14.8313043 C29.4608696,14.8243478 29.2765217,14.8469565 29.1191304,14.8469565 C29.066087,14.8469565 29.0182609,14.8747826 28.9721739,14.8826087 C28.7278261,14.993913 28.5591304,15.213913 28.5591304,15.4513043 C28.56,15.5947826 28.6226087,15.7269565 28.7234783,15.8330435 L28.7234783,15.8330435 Z" id="Fill-33_1_" fill="#1A5984"></path>
                </g>
            </g>
        </g>
    </g>
</svg>