<?xml version="1.0" encoding="UTF-8" standalone="no"?>
<svg width="150px" height="150px" viewBox="0 0 150 150" version="1.1" xmlns="http://www.w3.org/2000/svg" xmlns:xlink="http://www.w3.org/1999/xlink" xmlns:sketch="http://www.bohemiancoding.com/sketch/ns">
    <!-- Generator: Sketch 3.3.1 (12005) - http://www.bohemiancoding.com/sketch -->
    <title>badge</title>
    <desc>Created with Sketch.</desc>
    <defs></defs>
    <g id="44.-Debugging" stroke="none" stroke-width="1" fill="none" fill-rule="evenodd" sketch:type="MSPage">
        <g id="badge" sketch:type="MSArtboardGroup">
            <g id="Group" sketch:type="MSLayerGroup" transform="translate(55.689655, 35.000000)">
                <ellipse id="Oval" fill="#992C59" sketch:type="MSShapeGroup" cx="19.8556322" cy="19.3011494" rx="17.3903448" ry="17.3903448"></ellipse>
                <g sketch:type="MSShapeGroup">
                    <rect id="Rectangle-path" fill="#333333" x="17.0114943" y="37.2413793" width="5.51724138" height="5.51724138"></rect>
                    <g transform="translate(7.356322, 41.379310)">
                        <path d="M26.0487356,20.731954 C26.0487356,20.731954 24.3678161,23.8528736 19.7701149,27.6983908 L19.7701149,33.5632184 L12.4137931,33.5632184 L12.4137931,23.8933333 L26.0487356,20.731954 L26.0487356,20.731954 Z" id="Shape" fill="#F2A16F"></path>
                        <rect id="Rectangle-path" fill="#7C0A36" x="6.89655172" y="0.459770115" width="11.0344828" height="22.0689655"></rect>
                        <g transform="translate(11.954023, 0.000000)" id="Shape">
                            <path d="M13.7103448,1.94850575 C14.205977,3.2754023 13.5328736,4.75218391 12.205977,5.24781609 L3.58804598,8.9691954 C2.26206897,9.46482759 0.784367816,8.7908046 0.289655172,7.46482759 L0.289655172,7.46482759 C-0.205977011,6.13885057 0.466206897,4.66114943 1.79402299,4.16643678 L10.411954,0.445057471 C11.737931,-0.0514942529 13.2147126,0.622528736 13.7103448,1.94850575 L13.7103448,1.94850575 L13.7103448,1.94850575 Z" fill="#F2A16F"></path>
                            <path d="M0.95908046,7.30942529 C0.543448276,6.19770115 1.10712644,4.96 2.21885057,4.54528736 L3.72321839,8.57011494 C2.61149425,8.98482759 1.3737931,8.42114943 0.95908046,7.30942529 L0.95908046,7.30942529 L0.95908046,7.30942529 Z" fill="#FFE1B4"></path>
                        </g>
                        <g transform="translate(11.954023, 5.517241)" id="Shape">
                            <path d="M14.0413793,1.89057471 C14.5370115,3.21655172 13.863908,4.69333333 12.537931,5.18896552 L3.91908046,8.91126437 C2.59310345,9.40689655 1.1154023,8.73287356 0.619770115,7.40689655 L0.619770115,7.40689655 C0.125057471,6.08091954 0.79816092,4.60321839 2.12505747,4.10850575 L10.7429885,0.387126437 C12.0689655,-0.110344828 13.5457471,0.563678161 14.0413793,1.89057471 L14.0413793,1.89057471 L14.0413793,1.89057471 Z" fill="#F2A16F"></path>
                            <path d="M1.29011494,7.08505747 C0.874482759,5.97333333 1.43908046,4.73563218 2.54988506,4.32091954 L4.05425287,8.34574713 C2.94252874,8.76137931 1.70482759,8.19678161 1.29011494,7.08505747 L1.29011494,7.08505747 L1.29011494,7.08505747 Z" fill="#FFE1B4"></path>
                        </g>
                        <g transform="translate(0.000000, 5.517241)" id="Shape">
                            <path d="M17.4786207,2.51770115 L12.9636782,0.556321839 C12.3016092,0.254712644 10.3898851,0.459770115 10.0717241,0.459770115 L5.33333333,0.459770115 L3.37195402,0.459770115 C1.83816092,0.459770115 0.459770115,1.44091954 0.459770115,2.99402299 L0.459770115,4.97931034 L0.459770115,19.2036782 C0.459770115,21.7029885 2.29885057,23.7554023 5.05747126,23.9788506 L5.05747126,28.045977 L12.4137931,28.045977 L12.4137931,21.188046 L12.4137931,19.6358621 C12.4137931,10.8744828 6.95908046,5.39126437 6.95908046,5.39126437 C6.95908046,5.39126437 10.3503448,5.37011494 11.4675862,5.5016092 C12.6427586,5.63954023 15.3287356,7.1816092 15.3287356,7.1816092 C16.6170115,7.7691954 18.148046,7.20091954 18.7356322,5.91264368 C19.3241379,4.62528736 18.765977,3.10528736 17.4786207,2.51770115 L17.4786207,2.51770115 Z" fill="#FCC397"></path>
                            <path d="M18.228046,5.6137931 C17.7489655,6.66482759 16.5094253,7.12735632 15.4574713,6.64827586 L17.1926437,2.84321839 C18.2436782,3.32321839 18.7071264,4.56367816 18.228046,5.6137931 L18.228046,5.6137931 L18.228046,5.6137931 Z" fill="#FFE1B4"></path>
                        </g>
                        <rect id="Rectangle-path" fill="#7C0A36" x="3.2183908" y="32.6436782" width="17.4712644" height="5.51724138"></rect>
                        <rect id="Rectangle-path" fill="#992C59" x="12.4137931" y="32.6436782" width="8.27586207" height="5.51724138"></rect>
                        <g transform="translate(11.954023, 11.034483)" id="Shape">
                            <path d="M14.205977,1.8308046 C14.7025287,3.15678161 14.0285057,4.63448276 12.7025287,5.1291954 L4.0845977,8.85149425 C2.75862069,9.34712644 1.28091954,8.67310345 0.785287356,7.34712644 L0.785287356,7.34712644 C0.289655172,6.02114943 0.963678161,4.54344828 2.28965517,4.04873563 L10.9075862,0.327356322 C12.2344828,-0.169195402 13.7103448,0.504827586 14.205977,1.8308046 L14.205977,1.8308046 L14.205977,1.8308046 Z" fill="#F2A16F"></path>
                            <path d="M1.31678161,7.09793103 C0.914942529,6.02574713 1.46022989,4.83310345 2.53149425,4.43218391 L3.98252874,8.31356322 C2.91034483,8.71448276 1.71586207,8.17011494 1.31678161,7.09793103 L1.31678161,7.09793103 L1.31678161,7.09793103 Z" fill="#FFE1B4"></path>
                        </g>
                        <g transform="translate(11.954023, 16.551724)" id="Shape">
                            <path d="M14.0413793,1.93747126 C14.5370115,3.26344828 13.863908,4.74114943 12.537931,5.23678161 L3.91908046,8.95816092 C2.59310345,9.4537931 1.1154023,8.77977011 0.619770115,7.4537931 L0.619770115,7.4537931 C0.125057471,6.12781609 0.79816092,4.65011494 2.12505747,4.1554023 L10.7429885,0.434022989 C12.0689655,-0.0625287356 13.5457471,0.611494253 14.0413793,1.93747126 L14.0413793,1.93747126 L14.0413793,1.93747126 Z" fill="#F2A16F"></path>
                            <path d="M1.31586207,7.2045977 C0.914942529,6.13241379 1.46022989,4.93885057 2.53149425,4.53885057 L3.98252874,8.42022989 C2.90942529,8.82022989 1.71586207,8.27678161 1.31586207,7.2045977 L1.31586207,7.2045977 L1.31586207,7.2045977 Z" fill="#FFE1B4"></path>
                        </g>
                    </g>
                    <path d="M19.5806897,38.2556322 C9.1291954,38.2556322 0.626206897,29.7526437 0.626206897,19.3011494 C0.626206897,8.84965517 9.1291954,0.346666667 19.5806897,0.346666667 C30.0321839,0.346666667 38.5351724,8.84965517 38.5351724,19.3011494 C38.5351724,29.7517241 30.0321839,38.2556322 19.5806897,38.2556322 L19.5806897,38.2556322 Z M19.5806897,3.16505747 C10.6832184,3.16505747 3.44551724,10.4036782 3.44551724,19.3002299 C3.44551724,28.1967816 10.6832184,35.4354023 19.5806897,35.4354023 C28.4781609,35.4354023 35.7158621,28.1967816 35.7158621,19.3002299 C35.7158621,10.4036782 28.4781609,3.16505747 19.5806897,3.16505747 L19.5806897,3.16505747 Z" id="Shape" fill="#333333"></path>
                </g>
            </g>
        </g>
    </g>
</svg>