<?xml version="1.0" encoding="UTF-8" standalone="no"?>
<svg width="150px" height="150px" viewBox="0 0 150 150" version="1.1" xmlns="http://www.w3.org/2000/svg" xmlns:xlink="http://www.w3.org/1999/xlink" xmlns:sketch="http://www.bohemiancoding.com/sketch/ns">
    <!-- Generator: Sketch 3.3.1 (12005) - http://www.bohemiancoding.com/sketch -->
    <title>badge</title>
    <desc>Created with Sketch.</desc>
    <defs></defs>
    <g id="26.-Fundamentos-de-Programacion" stroke="none" stroke-width="1" fill="none" fill-rule="evenodd" sketch:type="MSPage">
        <g id="badge" sketch:type="MSArtboardGroup">
            <g id="Group" sketch:type="MSLayerGroup" transform="translate(35.000000, 40.000000)">
                <path d="M67.9791597,7.33714286 C69.9408403,7.33714286 71.6248739,8.02689076 73.0346218,9.40705882 C74.285042,10.6836975 74.9741176,12.2023529 75.1045378,13.9603361 C75.1919328,13.9455462 75.2934454,13.937479 75.4097479,13.937479 C76.5136134,13.937479 77.4413445,14.3233613 78.1976471,15.0910924 C78.9821849,15.8769748 79.3747899,16.8060504 79.3747899,17.8803361 C79.3747899,18.970084 78.9821849,19.8984874 78.1976471,20.6689076 C77.485042,21.3956303 76.6084034,21.7882353 75.5616807,21.8447059 L58.090084,21.8447059 C56.9418487,21.8164706 55.954958,21.387563 55.127395,20.5606723 C54.2836975,19.732437 53.8621849,18.7152941 53.8621849,17.509916 C53.8621849,16.3327731 54.2836975,15.3236975 55.127395,14.4820168 C55.954958,13.6389916 56.9707563,13.2181513 58.1761345,13.2181513 C58.4813445,13.2181513 58.7952941,13.2403361 59.112605,13.2833613 C59.2147899,12.8484034 59.4332773,12.4557983 59.7667227,12.107563 C60.2467227,11.6410084 60.8342857,11.4104202 61.5327731,11.4104202 L61.5966387,11.4104202 C61.9173109,10.6823529 62.3818487,10.0161345 62.9909244,9.40571429 C64.3697479,8.02621849 66.034958,7.33714286 67.9791597,7.33714286" id="Imported-Layers-24" fill="#EABD00" sketch:type="MSShapeGroup"></path>
                <g transform="translate(12.773109, 0.000000)" sketch:type="MSShapeGroup">
                    <g id="Path-634_13_" transform="translate(1.033613, 17.823529)" fill="#B79400">
                        <path d="M5.36789714,1.64111825 L20.1628653,29.7629972 L18.4636653,30.6569492 L3.66869714,2.53507025 L5.36789714,1.64111825 L5.36789714,1.64111825 Z" id="Rectangle-path" transform="translate(11.915781, 16.149034) rotate(-12.000000) translate(-11.915781, -16.149034) "></path>
                    </g>
                    <g id="Path-635_13_" transform="translate(28.596639, 18.495798)" fill="#B79400">
                        <path d="M14.9265589,1.16724047 L16.692851,1.92328955 L5.33730071,28.452279 L3.57100867,27.6962299 L14.9265589,1.16724047 L14.9265589,1.16724047 Z" id="Rectangle-path" transform="translate(10.131930, 14.809760) rotate(12.000000) translate(-10.131930, -14.809760) "></path>
                    </g>
                    <g id="Oval-160_25_" transform="translate(2.689076, 0.000000)" fill="#EABD00">
                        <path d="M26.3798319,0.716638655 C14.0497479,-1.09378151 2.59361345,7.38151261 0.791932773,19.6510924 C0.616470588,20.8416807 0.539831933,22.0248739 0.55394958,23.1905882 L11.2941176,23.0016807 L22.754958,21.1173109 L35.0702521,22.9263866 L45.6531092,21.7405042 C45.0910924,11.2793277 37.1959664,2.30453782 26.3798319,0.716638655 L26.3798319,0.716638655 Z" id="Shape"></path>
                    </g>
                    <g id="Oval-161_12_" fill="#B79400">
                        <path d="M7.73915966,7.46016807 C1.70554622,13.012437 0.371764706,23.3922689 0.371764706,23.3922689 C0.371764706,23.3922689 7.31294118,24.0094118 14.0067227,22.7932773 C16.1573109,10.6467227 21.4783193,5.57042017 25.8742857,0.443697479 C20.737479,0.287058824 13.7734454,1.90722689 7.73915966,7.46016807 L7.73915966,7.46016807 Z" id="Shape"></path>
                    </g>
                    <g id="Oval-162_12_" transform="translate(25.546218, 0.000000)" fill="#B79400">
                        <path d="M26.0645378,21.4433613 C26.3623529,22.8914286 17.6121008,22.4315966 12.0080672,22.8773109 C9.24436975,11.2087395 0.418823529,0.613109244 0.260168067,0.449747899 C13.1347899,0.383865546 23.3640336,8.34957983 26.0645378,21.4433613 L26.0645378,21.4433613 Z" id="Shape"></path>
                    </g>
                </g>
                <path d="M14.9747899,4.37243697 C17.0393277,4.37243697 18.8141176,5.06554622 20.2957983,6.45243697 C21.6127731,7.73647059 22.337479,9.26184874 22.4766387,11.0292437 C22.567395,11.0144538 22.674958,11.0063866 22.7986555,11.0063866 C23.9603361,11.0063866 24.9391597,11.3942857 25.7337815,12.1667227 C26.56,12.9566387 26.9734454,13.8897479 26.9734454,14.970084 C26.9734454,16.0652101 26.56,16.9996639 25.7337815,17.7727731 C24.9835294,18.5028571 24.0598319,18.897479 22.9593277,18.9552941 L4.56201681,18.9552941 C3.35260504,18.9263866 2.31394958,18.4947899 1.44201681,17.6645378 C0.55394958,16.8315966 0.110252101,15.8104202 0.110252101,14.5983193 C0.110252101,13.4157983 0.55394958,12.4013445 1.44201681,11.554958 C2.31394958,10.7078992 3.38352941,10.2843697 4.65210084,10.2843697 C4.97411765,10.2843697 5.30285714,10.3065546 5.63966387,10.3502521 C5.74453782,9.91193277 5.97445378,9.51798319 6.32605042,9.16773109 C6.83159664,8.69915966 7.4507563,8.46722689 8.18554622,8.46722689 L8.25277311,8.46722689 C8.59092437,7.73647059 9.08033613,7.06554622 9.72235294,6.45243697 C11.1744538,5.06554622 12.9270588,4.37243697 14.9747899,4.37243697" id="Imported-Layers-30" fill="#EABD00" sketch:type="MSShapeGroup"></path>
                <path d="M44.6445312,68.5798319 L39,68.5798319 L39,46.8220194 L32.2617188,48.9118632 L32.2617188,44.3220194 L44.0390625,40.1032694 L44.6445312,40.1032694 L44.6445312,68.5798319 Z" id="1" fill="#776101" sketch:type="MSShapeGroup" transform="translate(38.453125, 54.341551) rotate(-5.000000) translate(-38.453125, -54.341551) "></path>
            </g>
        </g>
    </g>
</svg>