<?xml version="1.0" encoding="UTF-8" standalone="no"?>
<svg width="150px" height="150px" viewBox="0 0 150 150" version="1.1" xmlns="http://www.w3.org/2000/svg" xmlns:xlink="http://www.w3.org/1999/xlink" xmlns:sketch="http://www.bohemiancoding.com/sketch/ns">
    <!-- Generator: Sketch 3.5.1 (25234) - http://www.bohemiancoding.com/sketch -->
    <title>badge</title>
    <desc>Created with Sketch.</desc>
    <defs>
        <path id="path-1" d="M0,0.0645517241 L80.9298482,0.0645517241 L80.9298482,52 L0,52"></path>
        <path id="path-3" d="M0,0.0645517241 L80.9298482,0.0645517241 L80.9298482,52 L0,52 L0,0.0645517241 Z"></path>
    </defs>
    <g id="128.-Docker" stroke="none" stroke-width="1" fill="none" fill-rule="evenodd" sketch:type="MSPage">
        <g id="badge" sketch:type="MSArtboardGroup">
            <g id="Page-1" sketch:type="MSLayerGroup" transform="translate(35.000000, 51.000000)">
                <g id="Group-3">
                    <mask id="mask-2" sketch:name="Clip 2" fill="white">
                        <use xlink:href="#path-1"></use>
                    </mask>
                    <g id="Clip-2"></g>
                    <path d="M42.0313339,16.4651724 L50.2998429,16.4651724 L50.2998429,24.847931 L54.4807446,24.847931 C56.4113652,24.847931 58.39695,24.5068828 60.2255973,23.8922069 C61.1238295,23.5902483 62.1323518,23.1695862 63.0186509,22.6409793 C61.851383,21.1297517 61.2554545,19.2211724 61.080075,17.3402069 C60.8417759,14.7818069 61.3621286,11.4516552 63.1083295,9.44911724 L63.9772714,8.45215172 L65.0129143,9.27769655 C67.620825,11.3555448 69.8139723,14.2585793 70.2005304,17.5682897 C73.3403652,16.6523724 77.0265884,16.8689793 79.7943295,18.4533655 L80.9297759,19.1028276 L80.3320393,20.2597379 C77.9913563,24.7901931 73.0980884,26.1934759 68.3140259,25.9453103 C61.1552893,43.6281793 45.5696598,52.0001793 26.6724321,52.0001793 C16.9094009,52.0001793 7.95203036,48.3806207 2.8512,39.7902207 L2.76766875,39.65 L2.02456607,38.1502483 C0.300423214,34.3689517 -0.2723625,30.2265241 0.116365179,26.0876828 L0.232802679,24.847931 L7.30330714,24.847931 L7.30330714,16.4651724 L15.5714545,16.4651724 L15.5714545,8.26495172 L32.1088339,8.26495172 L32.1088339,0.0647310345 L42.0313339,0.0647310345 L42.0313339,16.4651724" id="Fill-1" fill="#364548" sketch:type="MSShapeGroup" mask="url(#mask-2)"></path>
                </g>
                <path d="M68.8201313,19.5662372 C69.374475,15.2932717 66.1500241,11.9365821 64.1503366,10.3432303 C61.8458143,12.985189 61.4878232,19.9101545 65.1031714,22.8257407 C63.0854036,24.6030648 58.8339884,26.213989 54.4806,26.213989 L1.48888125,26.213989 C1.06543929,30.7211338 1.86350625,34.8710924 3.68564464,38.423589 L4.28844375,39.5170234 C4.66993929,40.1593131 5.08687232,40.7793683 5.53779643,41.3764717 L5.53779643,41.3764717 C7.71647946,41.5148993 9.72520714,41.5629545 11.5628946,41.522789 L11.5636179,41.522789 C15.1749884,41.4435338 18.121725,41.02072 20.3550107,40.2532717 C20.6873277,40.1385131 21.049658,40.31352 21.1646491,40.6430924 C21.2796402,40.9723062 21.1038991,41.3320028 20.7715821,41.4464028 C20.4747027,41.548251 20.165167,41.6436441 19.8455063,41.7343752 C19.8451446,41.7343752 19.844783,41.7343752 19.8440598,41.7347338 C18.0859259,42.2324993 16.2001446,42.5678097 13.7672518,42.7166372 C13.911533,42.718789 13.6168232,42.7381545 13.6161,42.7381545 C13.533292,42.7431752 13.4291491,42.7550097 13.3459795,42.7596717 C12.3884438,42.8127476 11.3549705,42.8238648 10.2983545,42.8238648 C9.14265804,42.8238648 8.00468036,42.8023476 6.73218482,42.7381545 L6.69964018,42.7596717 C11.1148634,47.6813821 18.018667,50.633189 26.6722875,50.633189 C44.9873277,50.633189 60.5219705,42.5814372 67.4008232,24.5048028 C72.2814348,25.0014924 76.9718411,23.76712 79.1053232,19.6368855 C75.7069393,17.6917269 71.3365554,18.3117821 68.8201313,19.5662372" id="Fill-4" fill="#22A0C8" sketch:type="MSShapeGroup"></path>
                <path d="M68.8201313,19.5662372 C69.374475,15.2932717 66.1500241,11.9365821 64.1503366,10.3432303 C61.8458143,12.985189 61.4878232,19.9101545 65.1031714,22.8257407 C63.0854036,24.6030648 58.8339884,26.213989 54.4806,26.213989 L4.62690804,26.213989 C4.41066696,33.1163614 6.99326518,38.355451 11.5628946,41.522789 L11.5636179,41.522789 C15.1749884,41.4435338 18.121725,41.02072 20.3550107,40.2532717 C20.6873277,40.1385131 21.049658,40.31352 21.1646491,40.6430924 C21.2796402,40.9723062 21.1038991,41.3320028 20.7715821,41.4464028 C20.4747027,41.548251 20.165167,41.6436441 19.8455063,41.7343752 C19.8451446,41.7343752 19.844783,41.7343752 19.8440598,41.7347338 C18.0859259,42.2324993 16.0381446,42.6108441 13.6052518,42.7596717 C13.6045286,42.7596717 13.5463098,42.7037269 13.5455866,42.7037269 C19.7782473,45.874651 28.8162563,45.8631752 39.1781089,41.9158372 C50.796908,37.4893821 61.6082384,29.0556993 69.151725,19.4098786 C69.0381804,19.4608028 68.927167,19.5131614 68.8201313,19.5662372" id="Fill-6" fill="#37B1D9" sketch:type="MSShapeGroup"></path>
                <path d="M1.58810625,31.6899476 C1.91753036,34.1041821 2.62953482,36.3645683 3.68542768,38.4234097 L4.28822679,39.5168441 C4.67008393,40.1594924 5.08701696,40.7795476 5.53794107,41.3762924 C7.71662411,41.5150786 9.72571339,41.5631338 11.5634009,41.5226097 C15.175133,41.4433545 18.121508,41.0208993 20.3547937,40.253451 C20.6874723,40.1386924 21.0498027,40.3136993 21.1647937,40.6429131 C21.2797848,40.9724855 21.1036821,41.3318234 20.7717268,41.4462234 C20.4748473,41.5480717 20.1653116,41.6438234 19.8452893,41.7341959 C19.8449277,41.7345545 19.8445661,41.7345545 19.8442045,41.7349131 C18.0857089,42.2326786 16.0491375,42.5891476 13.615883,42.7383338 C13.5323518,42.7433545 13.3869857,42.7440717 13.3027313,42.7487338 C12.3455571,42.8021683 11.3225705,42.8348028 10.2659545,42.8348028 C9.11025804,42.8348028 7.9288875,42.8129269 6.65675357,42.7487338 C11.0719768,47.6704441 18.0188116,50.6330097 26.6724321,50.6330097 C42.3517179,50.6330097 55.9929857,44.7308303 63.9103741,31.6899476 L1.58810625,31.6899476" id="Fill-8" fill="#1B81A5" sketch:type="MSShapeGroup"></path>
                <path d="M5.10386786,31.6899476 C6.04115357,35.9284855 8.29360446,39.2564855 11.5636179,41.5226097 C15.1749884,41.4433545 18.121725,41.0208993 20.3550107,40.253451 C20.6873277,40.1386924 21.049658,40.3136993 21.1646491,40.6429131 C21.2796402,40.9724855 21.1038991,41.3318234 20.7715821,41.4462234 C20.4747027,41.5480717 20.165167,41.6438234 19.8455062,41.7341959 C19.8451446,41.7345545 19.844783,41.7345545 19.8440598,41.7349131 C18.0859259,42.2326786 16.0059616,42.5891476 13.5727071,42.7383338 C19.8053679,45.9085407 28.8169795,45.8629959 39.1781089,41.9160166 C45.4462071,39.5276028 51.4788991,35.9718786 56.8910732,31.6899476 L5.10386786,31.6899476" id="Fill-10" fill="#1D91B4" sketch:type="MSShapeGroup"></path>
                <mask id="mask-4" sketch:name="Clip 13" fill="white">
                    <use xlink:href="#path-3"></use>
                </mask>
                <g id="Clip-13"></g>
                <path d="M8.68146429,17.8316966 L15.847433,17.8316966 L15.847433,24.9388414 L8.68146429,24.9388414 L8.68146429,17.8316966 Z" id="Fill-12" fill="#37B1D9" sketch:type="MSShapeGroup" mask="url(#mask-4)"></path>
                <path d="M16.9496116,9.63147586 L24.1163036,9.63147586 L24.1163036,16.7382621 L16.9496116,16.7382621 L16.9496116,9.63147586 Z" id="Fill-14" fill="#23A3C2" sketch:type="MSShapeGroup" mask="url(#mask-4)"></path>
                <path d="M16.9496116,17.8316966 L24.1163036,17.8316966 L24.1163036,24.9388414 L16.9496116,24.9388414 L16.9496116,17.8316966 Z" id="Fill-15" fill="#34BBDE" sketch:type="MSShapeGroup" mask="url(#mask-4)"></path>
                <path d="M25.2184821,17.8316966 L32.3848125,17.8316966 L32.3848125,24.9388414 L25.2184821,24.9388414 L25.2184821,17.8316966 Z" id="Fill-16" fill="#23A3C2" sketch:type="MSShapeGroup" mask="url(#mask-4)"></path>
                <path d="M25.2184821,9.63147586 L32.3848125,9.63147586 L32.3848125,16.7382621 L25.2184821,16.7382621 L25.2184821,9.63147586 Z" id="Fill-17" fill="#34BBDE" sketch:type="MSShapeGroup" mask="url(#mask-4)"></path>
                <path d="M33.4869911,17.8316966 L40.6533214,17.8316966 L40.6533214,24.9388414 L33.4869911,24.9388414 L33.4869911,17.8316966 Z" id="Fill-18" fill="#34BBDE" sketch:type="MSShapeGroup" mask="url(#mask-4)"></path>
                <path d="M33.4869911,9.63147586 L40.6533214,9.63147586 L40.6533214,16.7382621 L33.4869911,16.7382621 L33.4869911,9.63147586 Z" id="Fill-19" fill="#23A3C2" sketch:type="MSShapeGroup" mask="url(#mask-4)"></path>
                <path d="M33.4869911,1.43125517 L40.6533214,1.43125517 L40.6533214,8.5384 L33.4869911,8.5384 L33.4869911,1.43125517 Z" id="Fill-20" fill="#34BBDE" sketch:type="MSShapeGroup" mask="url(#mask-4)"></path>
                <path d="M41.7555,17.8316966 L48.9218304,17.8316966 L48.9218304,24.9388414 L41.7555,24.9388414 L41.7555,17.8316966 Z" id="Fill-21" fill="#23A3C2" sketch:type="MSShapeGroup" mask="url(#mask-4)"></path>
                <path d="M23.6675491,36.4615752 C24.7592411,36.4615752 25.6444554,37.3398372 25.6444554,38.4225131 C25.6444554,39.505189 24.7592411,40.3827338 23.6675491,40.3827338 C22.5754955,40.3827338 21.6902813,39.505189 21.6902813,38.4225131 C21.6902813,37.3398372 22.5754955,36.4615752 23.6675491,36.4615752" id="Fill-22" fill="#D3ECEC" sketch:type="MSShapeGroup" mask="url(#mask-4)"></path>
                <path d="M23.6675491,37.0177959 C23.8483527,37.0177959 24.0208393,37.0515062 24.180308,37.1128303 C24.0074598,37.2118097 23.8906607,37.3972166 23.8906607,37.6091614 C23.8906607,37.9258234 24.1495714,38.1818786 24.4688705,38.1818786 C24.6872813,38.1818786 24.8774866,38.0613821 24.9754821,37.8835062 C25.0449107,38.0495476 25.0836027,38.2313683 25.0836027,38.4225131 C25.0836027,39.197851 24.4497054,39.8265131 23.6675491,39.8265131 C22.8857545,39.8265131 22.2514955,39.197851 22.2514955,38.4225131 C22.2514955,37.6464579 22.8857545,37.0177959 23.6675491,37.0177959" id="Fill-23" fill="#364548" sketch:type="MSShapeGroup" mask="url(#mask-4)"></path>
                <path d="M28.9230027,50.5906207 C24.026842,48.2864828 21.3393777,45.1542897 19.8441321,41.7348414 C18.0256098,42.2494621 15.839333,42.5786759 13.2994045,42.7199724 C12.342592,42.7730483 11.3358777,42.8003034 10.2796232,42.8003034 C9.06173036,42.8003034 7.77838661,42.7648 6.4314,42.6937931 C10.9214759,47.1439172 16.445025,50.5705379 26.6723598,50.6329379 C27.4273955,50.6329379 28.1773687,50.6185931 28.9230027,50.5906207" id="Fill-24" fill="#BDD9D7" sketch:type="MSShapeGroup" mask="url(#mask-4)"></path>
                <path d="M21.6629076,44.8899503 C20.9856174,43.9779779 20.3282156,42.8318262 19.8454701,41.7344469 C18.0265862,42.2494262 15.8399478,42.57864 13.299296,42.7199366 C15.0444121,43.6595228 17.5398629,44.5298952 21.6629076,44.8899503" id="Fill-25" fill="#D3ECEC" sketch:type="MSShapeGroup" mask="url(#mask-4)"></path>
                <path d="M14.6845045,18.4241379 L15.2504196,18.4241379 L15.2504196,24.3471172 L14.6845045,24.3471172 L14.6845045,18.4241379 Z M13.5989598,18.4241379 L14.1872946,18.4241379 L14.1872946,24.3471172 L13.5989598,24.3471172 L13.5989598,18.4241379 Z M12.5130536,18.4241379 L13.1013884,18.4241379 L13.1013884,24.3471172 L12.5130536,24.3471172 L12.5130536,18.4241379 Z M11.4271473,18.4241379 L12.0154821,18.4241379 L12.0154821,24.3471172 L11.4271473,24.3471172 L11.4271473,18.4241379 Z M10.3416027,18.4241379 L10.9299375,18.4241379 L10.9299375,24.3471172 L10.3416027,24.3471172 L10.3416027,18.4241379 Z M9.27811607,18.4241379 L9.84366964,18.4241379 L9.84366964,24.3471172 L9.27811607,24.3471172 L9.27811607,18.4241379 Z" id="Fill-26" fill="#364548" sketch:type="MSShapeGroup" mask="url(#mask-4)"></path>
                <path d="M22.9866429,18.4241379 L23.552558,18.4241379 L23.552558,24.3471172 L22.9866429,24.3471172 L22.9866429,18.4241379 Z M21.9007366,18.4241379 L22.4890714,18.4241379 L22.4890714,24.3471172 L21.9007366,24.3471172 L21.9007366,18.4241379 Z M20.8148304,18.4241379 L21.4031652,18.4241379 L21.4031652,24.3471172 L20.8148304,24.3471172 L20.8148304,18.4241379 Z M19.7289241,18.4241379 L20.3172589,18.4241379 L20.3172589,24.3471172 L19.7289241,24.3471172 L19.7289241,18.4241379 Z M18.6433795,18.4241379 L19.2317143,18.4241379 L19.2317143,24.3471172 L18.6433795,24.3471172 L18.6433795,18.4241379 Z M17.5802545,18.4241379 L18.145808,18.4241379 L18.145808,24.3471172 L17.5802545,24.3471172 L17.5802545,18.4241379 Z" id="Fill-27" fill="#364548" sketch:type="MSShapeGroup" mask="url(#mask-4)"></path>
                <path d="M22.9866429,10.2952828 L23.552558,10.2952828 L23.552558,16.2182621 L22.9866429,16.2182621 L22.9866429,10.2952828 Z M21.9007366,10.2952828 L22.4890714,10.2952828 L22.4890714,16.2182621 L21.9007366,16.2182621 L21.9007366,10.2952828 Z M20.8148304,10.2952828 L21.4031652,10.2952828 L21.4031652,16.2182621 L20.8148304,16.2182621 L20.8148304,10.2952828 Z M19.7289241,10.2952828 L20.3172589,10.2952828 L20.3172589,16.2182621 L19.7289241,16.2182621 L19.7289241,10.2952828 Z M18.6433795,10.2952828 L19.2317143,10.2952828 L19.2317143,16.2182621 L18.6433795,16.2182621 L18.6433795,10.2952828 Z M17.5802545,10.2952828 L18.145808,10.2952828 L18.145808,16.2182621 L17.5802545,16.2182621 L17.5802545,10.2952828 Z" id="Fill-28" fill="#364548" sketch:type="MSShapeGroup" mask="url(#mask-4)"></path>
                <path d="M31.2132054,10.2952828 L31.7791205,10.2952828 L31.7791205,16.2182621 L31.2132054,16.2182621 L31.2132054,10.2952828 Z M30.1272991,10.2952828 L30.7156339,10.2952828 L30.7156339,16.2182621 L30.1272991,16.2182621 L30.1272991,10.2952828 Z M29.0413929,10.2952828 L29.6297277,10.2952828 L29.6297277,16.2182621 L29.0413929,16.2182621 L29.0413929,10.2952828 Z M27.9554866,10.2952828 L28.5438214,10.2952828 L28.5438214,16.2182621 L27.9554866,16.2182621 L27.9554866,10.2952828 Z M26.869942,10.2952828 L27.4582768,10.2952828 L27.4582768,16.2182621 L26.869942,16.2182621 L26.869942,10.2952828 Z M25.806817,10.2952828 L26.3723705,10.2952828 L26.3723705,16.2182621 L25.806817,16.2182621 L25.806817,10.2952828 Z" id="Fill-29" fill="#364548" sketch:type="MSShapeGroup" mask="url(#mask-4)"></path>
                <path d="M39.5301696,10.2952828 L40.0960848,10.2952828 L40.0960848,16.2182621 L39.5301696,16.2182621 L39.5301696,10.2952828 Z M38.4442634,10.2952828 L39.0325982,10.2952828 L39.0325982,16.2182621 L38.4442634,16.2182621 L38.4442634,10.2952828 Z M37.3583571,10.2952828 L37.946692,10.2952828 L37.946692,16.2182621 L37.3583571,16.2182621 L37.3583571,10.2952828 Z M36.2724509,10.2952828 L36.8607857,10.2952828 L36.8607857,16.2182621 L36.2724509,16.2182621 L36.2724509,10.2952828 Z M35.1869062,10.2952828 L35.7752411,10.2952828 L35.7752411,16.2182621 L35.1869062,16.2182621 L35.1869062,10.2952828 Z M34.1237813,10.2952828 L34.6893348,10.2952828 L34.6893348,16.2182621 L34.1237813,16.2182621 L34.1237813,10.2952828 Z" id="Fill-30" fill="#364548" sketch:type="MSShapeGroup" mask="url(#mask-4)"></path>
                <path d="M31.2132054,18.4241379 L31.7791205,18.4241379 L31.7791205,24.3471172 L31.2132054,24.3471172 L31.2132054,18.4241379 Z M30.1272991,18.4241379 L30.7156339,18.4241379 L30.7156339,24.3471172 L30.1272991,24.3471172 L30.1272991,18.4241379 Z M29.0413929,18.4241379 L29.6297277,18.4241379 L29.6297277,24.3471172 L29.0413929,24.3471172 L29.0413929,18.4241379 Z M27.9554866,18.4241379 L28.5438214,18.4241379 L28.5438214,24.3471172 L27.9554866,24.3471172 L27.9554866,18.4241379 Z M26.869942,18.4241379 L27.4582768,18.4241379 L27.4582768,24.3471172 L26.869942,24.3471172 L26.869942,18.4241379 Z M25.806817,18.4241379 L26.3723705,18.4241379 L26.3723705,24.3471172 L25.806817,24.3471172 L25.806817,18.4241379 Z" id="Fill-31" fill="#364548" sketch:type="MSShapeGroup" mask="url(#mask-4)"></path>
                <path d="M39.5301696,18.4241379 L40.0960848,18.4241379 L40.0960848,24.3471172 L39.5301696,24.3471172 L39.5301696,18.4241379 Z M38.4442634,18.4241379 L39.0325982,18.4241379 L39.0325982,24.3471172 L38.4442634,24.3471172 L38.4442634,18.4241379 Z M37.3583571,18.4241379 L37.946692,18.4241379 L37.946692,24.3471172 L37.3583571,24.3471172 L37.3583571,18.4241379 Z M36.2724509,18.4241379 L36.8607857,18.4241379 L36.8607857,24.3471172 L36.2724509,24.3471172 L36.2724509,18.4241379 Z M35.1869062,18.4241379 L35.7752411,18.4241379 L35.7752411,24.3471172 L35.1869062,24.3471172 L35.1869062,18.4241379 Z M34.1237813,18.4241379 L34.6893348,18.4241379 L34.6893348,24.3471172 L34.1237813,24.3471172 L34.1237813,18.4241379 Z" id="Fill-32" fill="#364548" sketch:type="MSShapeGroup" mask="url(#mask-4)"></path>
                <path d="M47.7567321,18.4241379 L48.3226473,18.4241379 L48.3226473,24.3471172 L47.7567321,24.3471172 L47.7567321,18.4241379 Z M46.6708259,18.4241379 L47.2591607,18.4241379 L47.2591607,24.3471172 L46.6708259,24.3471172 L46.6708259,18.4241379 Z M45.5849196,18.4241379 L46.1732545,18.4241379 L46.1732545,24.3471172 L45.5849196,24.3471172 L45.5849196,18.4241379 Z M44.4990134,18.4241379 L45.0873482,18.4241379 L45.0873482,24.3471172 L44.4990134,24.3471172 L44.4990134,18.4241379 Z M43.4134688,18.4241379 L44.0018036,18.4241379 L44.0018036,24.3471172 L43.4134688,24.3471172 L43.4134688,18.4241379 Z M42.3503438,18.4241379 L42.9158973,18.4241379 L42.9158973,24.3471172 L42.3503438,24.3471172 L42.3503438,18.4241379 Z" id="Fill-33" fill="#364548" sketch:type="MSShapeGroup" mask="url(#mask-4)"></path>
                <path d="M39.5301696,2.07677241 L40.0960848,2.07677241 L40.0960848,7.99975172 L39.5301696,7.99975172 L39.5301696,2.07677241 Z M38.4442634,2.07677241 L39.0325982,2.07677241 L39.0325982,7.99975172 L38.4442634,7.99975172 L38.4442634,2.07677241 Z M37.3583571,2.07677241 L37.946692,2.07677241 L37.946692,7.99975172 L37.3583571,7.99975172 L37.3583571,2.07677241 Z M36.2724509,2.07677241 L36.8607857,2.07677241 L36.8607857,7.99975172 L36.2724509,7.99975172 L36.2724509,2.07677241 Z M35.1869062,2.07677241 L35.7752411,2.07677241 L35.7752411,7.99975172 L35.1869062,7.99975172 L35.1869062,2.07677241 Z M34.1237813,2.07677241 L34.6893348,2.07677241 L34.6893348,7.99975172 L34.1237813,7.99975172 L34.1237813,2.07677241 Z" id="Fill-34" fill="#364548" sketch:type="MSShapeGroup" mask="url(#mask-4)"></path>
            </g>
        </g>
    </g>
</svg>