<?xml version="1.0" encoding="UTF-8" standalone="no"?>
<svg width="150px" height="150px" viewBox="0 0 150 150" version="1.1" xmlns="http://www.w3.org/2000/svg" xmlns:xlink="http://www.w3.org/1999/xlink" xmlns:sketch="http://www.bohemiancoding.com/sketch/ns">
    <!-- Generator: Sketch 3.5.1 (25234) - http://www.bohemiancoding.com/sketch -->
    <title>badge</title>
    <desc>Created with Sketch.</desc>
    <defs>
        <path id="path-1" d="M0,0.0237881041 L75.9827538,0.0237881041 L75.9827538,79 L0,79 L0,0.0237881041 Z"></path>
        <path id="path-3" d="M0,0.0237881041 L75.9827538,0.0237881041 L75.9827538,79 L0,79 L0,0.0237881041 Z"></path>
    </defs>
    <g id="testing-copy-2" stroke="none" stroke-width="1" fill="none" fill-rule="evenodd" sketch:type="MSPage">
        <g id="badge" sketch:type="MSArtboardGroup">
            <g id="Page-1" sketch:type="MSLayerGroup" transform="translate(37.000000, 36.000000)">
                <path d="M37.0999554,37.9837286 L0.968678462,50.976145 C-0.255506154,51.4181338 -0.340567692,53.1244164 0.834801538,53.6838773 L14.7226323,60.2919777 C15.5574631,60.6887398 16.31074,61.2232379 16.9596631,61.8640483 L40.22034,38.7534647 C39.4781708,37.948487 38.3001708,37.5520186 37.0999554,37.9837286" id="Fill-1" fill="#C9B343" sketch:type="MSShapeGroup"></path>
                <path d="M26.27016,66.2876078 C25.7150677,66.2876078 25.2666677,65.8350465 25.2666677,65.2791097 C25.2666677,64.7214108 25.7150677,64.2688494 26.27016,64.2688494 C26.8258369,64.2688494 27.2739446,64.7214108 27.2739446,65.2791097 C27.2739446,65.8350465 26.8258369,66.2876078 26.27016,66.2876078 L26.27016,66.2876078 Z M26.27016,71.0986784 C25.7150677,71.0986784 25.2666677,70.6484665 25.2666677,70.0907677 C25.2666677,69.5342435 25.7150677,69.0822695 26.27016,69.0822695 C26.8258369,69.0822695 27.2739446,69.5342435 27.2739446,70.0907677 C27.2739446,70.6484665 26.8258369,71.0986784 26.27016,71.0986784 L26.27016,71.0986784 Z M16.9595754,61.8639015 C17.6409446,62.5370167 18.20656,63.3273104 18.6219292,64.2077639 L25.19856,78.1605149 C25.7542369,79.3411097 27.4540062,79.2577045 27.8921754,78.0274777 L40.8238677,41.7250688 C41.2240369,40.6037974 40.9106831,39.5022026 40.2202523,38.7536115 L16.9595754,61.8639015 Z" id="Fill-3" fill="#B29C3F" sketch:type="MSShapeGroup"></path>
                <path d="M26.27016,64.2687907 C25.7150677,64.2687907 25.2666677,64.721352 25.2666677,65.2790509 C25.2666677,65.8349877 25.7150677,66.2875491 26.27016,66.2875491 C26.8258369,66.2875491 27.2739446,65.8349877 27.2739446,65.2790509 C27.2739446,64.721352 26.8258369,64.2687907 26.27016,64.2687907" id="Fill-5" fill="#3A382D" sketch:type="MSShapeGroup"></path>
                <path d="M26.27016,69.0821227 C25.7150677,69.0821227 25.2666677,69.5340967 25.2666677,70.0906208 C25.2666677,70.6483197 25.7150677,71.0988253 26.27016,71.0988253 C26.8258369,71.0988253 27.2739446,70.6483197 27.2739446,70.0906208 C27.2739446,69.5340967 26.8258369,69.0821227 26.27016,69.0821227" id="Fill-7" fill="#3A382D" sketch:type="MSShapeGroup"></path>
                <path d="M18.8674385,55.7289788 L21.4745308,53.1096442 L22.1190692,53.7572093 L20.2126385,55.6728859 L21.2675769,56.7327781 L22.9170692,55.0755401 L23.5382231,55.6996108 L21.8887308,57.3571424 L23.0608846,58.5345067 L25.0675769,56.5183914 L25.7238077,57.1779974 L23.0167462,59.8977706 L18.8674385,55.7289788 Z" id="Fill-9" fill="#3A382D" sketch:type="MSShapeGroup"></path>
                <path d="M19.0741,55.7290375 L23.0167462,59.6901974 L25.5171462,57.1780561 L25.0675769,56.7260822 L23.0608846,58.7421974 L21.6820692,57.3569074 L23.3315615,55.6996695 L22.9167769,55.2832309 L21.2675769,56.9404688 L20.0059769,55.6729446 L21.9124077,53.757268 L21.4745308,53.3173349 L19.0741,55.7290375 Z M23.0167462,60.1054613 L18.6607769,55.7290375 L21.4745308,52.902071 L22.3257308,53.757268 L20.4193,55.6729446 L21.2675769,56.5252048 L22.9167769,54.8679669 L23.7448846,55.6996695 L22.0953923,57.3569074 L23.0608846,58.3269335 L25.0675769,56.3108182 L25.9304692,57.1780561 L23.0167462,60.1054613 Z" id="Fill-11" fill="#3A382D" sketch:type="MSShapeGroup"></path>
                <path d="M25.1645938,51.1451286 C24.9889169,51.1175227 24.7992092,51.1374929 24.5954708,51.204452 C24.3920246,51.2717048 24.2216092,51.3741993 24.0845169,51.5119353 C24.0029631,51.5938721 23.9322246,51.6866751 23.8720092,51.7900506 C23.8120862,51.8937197 23.7711631,52.0015004 23.7495323,52.1136862 C23.7276092,52.2258721 23.7314092,52.3395264 23.7612246,52.4549428 C23.79104,52.5706528 23.8565169,52.6793145 23.9579477,52.7812216 C24.0517785,52.8754929 24.1505785,52.9374595 24.2540554,52.9668275 C24.3575323,52.9964892 24.4651015,53.0020691 24.5767631,52.983861 C24.6884246,52.9659465 24.8082708,52.9280617 24.9360092,52.8702067 C25.0637477,52.8126454 25.2011323,52.7453926 25.3472862,52.6690357 C25.51624,52.5859242 25.6957169,52.5036937 25.8857169,52.4226379 C26.0757169,52.3415822 26.2721477,52.2896007 26.4750092,52.2661063 C26.6778708,52.2429056 26.8839477,52.2637569 27.0929477,52.3286602 C27.3019477,52.3932699 27.5080246,52.5277755 27.7111785,52.7318833 C27.9339169,52.9556677 28.0894246,53.1900245 28.1777015,53.4349539 C28.2659785,53.680177 28.2998862,53.9227569 28.2794246,54.1629874 C28.2592554,54.4032178 28.1893938,54.6381621 28.06984,54.8681138 C27.9502862,55.0980654 27.7941938,55.3098089 27.6015631,55.5036379 C27.3457938,55.7603145 27.0458862,55.9617792 26.7015477,56.1074446 C26.3575015,56.25311 26.0099477,56.3059725 25.6588862,56.266032 L25.6667785,55.2686937 C25.90384,55.3133331 26.1438246,55.2957123 26.3873169,55.2161249 C26.6305169,55.1365375 26.8298708,55.0187717 26.9856708,54.8622401 C27.0669323,54.780597 27.1397169,54.686032 27.20344,54.578545 C27.2671631,54.4713517 27.3077938,54.3579911 27.3256246,54.2378758 C27.3434554,54.1180543 27.3355631,53.9985264 27.3019477,53.8789985 C27.2683323,53.7597643 27.1949631,53.6431732 27.0815477,53.5292253 C26.9722246,53.4193888 26.8573477,53.3524297 26.7369169,53.3280543 C26.6164862,53.3039725 26.48904,53.3063219 26.3548708,53.3351026 C26.2204092,53.3638833 26.0783477,53.41469 25.9281015,53.487229 C25.7778554,53.5594743 25.6200092,53.6355375 25.4548554,53.7151249 C25.2970092,53.7952996 25.1315631,53.8672513 24.9582246,53.9312736 C24.7848862,53.9955896 24.6062862,54.0299502 24.42184,54.0346491 C24.2373938,54.039348 24.0503169,54.0058684 23.8600246,53.933623 C23.6697323,53.8619651 23.4771015,53.7277532 23.28184,53.5315747 C23.0707938,53.3195375 22.9307785,53.0951658 22.8617938,52.8581658 C22.7928092,52.6214595 22.7761477,52.3850468 22.8118092,52.1489279 C22.8474708,51.9128089 22.9269785,51.6837383 23.0503323,51.461716 C23.1739785,51.2394 23.3245169,51.0388164 23.5025323,50.8602587 C23.7024708,50.6590877 23.9427477,50.492571 24.2224862,50.3604149 C24.5025169,50.2285524 24.7924862,50.1607123 25.0929785,50.1571881 L25.1645938,51.1451286 Z" id="Fill-13" fill="#3A382D" sketch:type="MSShapeGroup"></path>
                <path d="M25.8060338,56.1302636 C26.0881108,56.1414234 26.3687262,56.0891483 26.6446646,55.9719699 C26.9700031,55.8342338 27.2573415,55.6415796 27.4982031,55.399587 C27.6791415,55.2177989 27.8279262,55.0160405 27.9401723,54.8001855 C28.0503723,54.5887357 28.1152646,54.3702375 28.1339723,54.1505647 C28.1520954,53.9329476 28.1208185,53.7088695 28.0404338,53.4850851 C27.9597569,53.2615944 27.8141877,53.0430963 27.6078185,52.835758 C27.4227877,52.6495647 27.2351262,52.526219 27.0498031,52.4689513 C26.8612646,52.4105089 26.6733108,52.3920071 26.4917877,52.4119773 C26.3035415,52.4337097 26.1188031,52.4827543 25.9428338,52.5576428 C25.7554646,52.6375238 25.5783262,52.7188732 25.4114185,52.8011037 C25.2658492,52.8771669 25.1261262,52.9455944 24.9960492,53.0040368 C24.8569108,53.0671781 24.7236185,53.1091743 24.5999723,53.1288509 C24.4675569,53.1505833 24.33748,53.1435349 24.2138338,53.1079996 C24.0872646,53.071877 23.9662492,52.9969885 23.8545877,52.8850963 C23.7347415,52.7646874 23.6561108,52.6322375 23.6198646,52.4915647 C23.5847877,52.3555907 23.5801108,52.2190294 23.6058338,52.0856985 C23.6312646,51.9573602 23.6780338,51.8331335 23.7455569,51.7162487 C23.8127877,51.6014197 23.8917108,51.4980442 23.9811569,51.4081781 C24.1337415,51.2545833 24.3254954,51.1391669 24.5499877,51.0648658 C24.7081262,51.0128844 24.8610031,50.9867468 25.0065723,50.9864532 L24.9577569,50.3106948 C24.7271262,50.3300777 24.5011723,50.3911632 24.2848646,50.4933639 C24.0212031,50.6178844 23.7926185,50.7761781 23.6058338,50.9641335 C23.4380492,51.1324123 23.2942338,51.3238918 23.1781877,51.5332859 C23.0636031,51.7391558 22.9887723,51.9538361 22.9563262,52.1708658 C22.92388,52.3840777 22.93908,52.6014011 23.0019262,52.8169625 C23.0638954,53.0289996 23.1928031,53.2345758 23.3851415,53.4275238 C23.5649108,53.6081372 23.7420492,53.7320703 23.9115877,53.7963862 C24.0825877,53.8612896 24.2521262,53.891245 24.4181569,53.8877208 C24.5856492,53.8836093 24.7502185,53.8518918 24.9077723,53.7934494 C25.07468,53.7317766 25.2366185,53.661587 25.3889108,53.5843491 L25.8644954,53.3546911 C26.0252646,53.2774532 26.1796031,53.2225349 26.3242954,53.1914048 C26.4774646,53.1585126 26.6256646,53.1558695 26.7653877,53.1840628 C26.9147569,53.2140182 27.0556492,53.2953677 27.1851415,53.425468 C27.3155108,53.5567431 27.4023262,53.6956539 27.4429569,53.8389699 C27.4815415,53.978468 27.4911877,54.1197283 27.4701415,54.2592264 C27.4493877,54.3987245 27.4017415,54.531468 27.3286646,54.6542264 C27.2599723,54.7702301 27.1790031,54.8753677 27.0889723,54.9661149 C26.91768,55.1382115 26.6966954,55.2694866 26.4327415,55.3558286 C26.2246185,55.4236688 26.0176646,55.4498063 25.8115877,55.435416 L25.8060338,56.1302636 Z M25.8837877,56.4254123 C25.8031108,56.4254123 25.7227262,56.4210071 25.6420492,56.4116093 L25.5113877,56.3969253 L25.5219108,55.0921037 L25.6934954,55.1244086 C25.9045415,55.1640554 26.1231877,55.1481967 26.3421262,55.0765387 C26.5619415,55.004587 26.7437569,54.8976874 26.8823108,54.7584829 C26.9553877,54.6850628 27.0208646,54.5993082 27.0778646,54.5032747 C27.1313569,54.4137022 27.1661415,54.3170814 27.1813415,54.2160554 C27.1959569,54.1176725 27.1889415,54.0178212 27.1614646,53.9188509 C27.1348646,53.8245796 27.0731877,53.7282524 26.97848,53.6331 C26.8904954,53.5447022 26.7992954,53.4903714 26.7080954,53.4718695 C26.6075415,53.4518993 26.4988031,53.4545424 26.3853877,53.4786242 C26.2634954,53.5050554 26.1307877,53.5523379 25.9910646,53.6195907 L25.5181108,53.8477803 C25.3582185,53.9288361 25.1860492,54.0037245 25.0086185,54.0692152 C24.8212492,54.1388175 24.6251108,54.1764086 24.4254646,54.1814011 C24.2190954,54.1863937 24.0150646,54.14939 23.8084031,54.0709773 C23.5999877,53.992271 23.3880646,53.8457245 23.17848,53.6351558 C22.9507723,53.4069662 22.7973108,53.1593937 22.7216031,52.8994866 C22.64648,52.6425164 22.6283569,52.3826093 22.6675262,52.1265201 C22.7052338,51.8748361 22.7911723,51.6269699 22.9230031,51.3899699 C23.0519108,51.1570814 23.2123877,50.9441632 23.3991723,50.7565015 C23.6099262,50.5444643 23.8659877,50.3664941 24.1603415,50.2275833 C24.4579108,50.0872041 24.7709723,50.0143714 25.0913415,50.0105535 L25.2287262,50.0087914 L25.3237262,51.3186056 L25.1422031,51.2904123 C24.99108,51.2666242 24.8221262,51.2845387 24.64148,51.3441558 C24.4602492,51.4037729 24.3079569,51.4951074 24.1878185,51.61581 C24.1162031,51.6877617 24.0521877,51.7714606 23.9981108,51.8642636 C23.9472492,51.9526613 23.9115877,52.0460517 23.8925877,52.1417914 C23.8753415,52.2328323 23.8782646,52.3235796 23.9028185,52.4181446 C23.9256185,52.5074234 23.9791108,52.5946465 24.0612492,52.6774643 C24.1369569,52.7532338 24.2152954,52.8031595 24.2936338,52.8254792 C24.3772338,52.8492673 24.4617108,52.8536725 24.5537877,52.8389885 C24.6520031,52.8231297 24.7604492,52.7887691 24.8762031,52.7362004 C25.0016031,52.6795201 25.1363569,52.6137357 25.27988,52.5388472 C25.4543877,52.4530926 25.6362031,52.3693937 25.8285415,52.2874569 C26.0308185,52.2014086 26.2424492,52.1453156 26.4584646,52.1203528 C26.6803262,52.09539 26.9083262,52.1177097 27.1360338,52.1881929 C27.3672492,52.2598509 27.5955415,52.4078658 27.81448,52.628126 C28.0515415,52.8663007 28.2199108,53.1209216 28.3149108,53.3852338 C28.4099108,53.6492524 28.4470338,53.9150331 28.4251108,54.1752338 C28.40348,54.4339662 28.3271877,54.6900554 28.1994492,54.9361595 C28.0731723,55.1784457 27.9068492,55.4042859 27.7048646,55.607219 C27.4371108,55.8765238 27.1184954,56.0900294 26.7583723,56.2427431 C26.4707415,56.3643268 26.1775569,56.4254123 25.8837877,56.4254123 L25.8837877,56.4254123 Z" id="Fill-15" fill="#3A382D" sketch:type="MSShapeGroup"></path>
                <path d="M28.7130631,51.5604513 C28.8223862,51.6702877 28.9436938,51.7569234 29.0764015,51.8194773 C29.2094015,51.8823249 29.3462015,51.9175665 29.4870938,51.9249086 C29.6282785,51.9325442 29.76654,51.9113993 29.9021708,51.8614736 C30.0378015,51.8118416 30.1629092,51.7290238 30.2777862,51.6136074 C30.50374,51.3862989 30.6113092,51.1275665 30.5996169,50.8365294 C30.5882169,50.5460796 30.4596015,50.2767747 30.2131862,50.0294959 C30.0959708,49.9117301 29.9699862,49.8206892 29.8352323,49.7557859 C29.7004785,49.6911762 29.5645554,49.6568156 29.4274631,49.6532914 C29.2903708,49.6497673 29.1559092,49.672968 29.0240785,49.7228937 C28.8922477,49.7728193 28.77094,49.8535814 28.6595708,49.9654736 C28.5484938,50.0770721 28.4651862,50.2001242 28.4096477,50.3343361 C28.3544015,50.468548 28.3283862,50.606284 28.3321862,50.7478379 C28.3359862,50.8893918 28.3698938,51.029771 28.4344938,51.1689755 C28.4990938,51.3084736 28.5920477,51.4388677 28.7130631,51.5604513 L28.7130631,51.5604513 Z M27.38774,47.1684625 L27.9171092,49.7220126 L27.9285092,49.7223063 C27.9571554,49.6468305 28.0050938,49.5631316 28.0732015,49.4712097 C28.1410169,49.3792877 28.20854,49.2999941 28.2751862,49.2327413 C28.4494015,49.0580015 28.6467092,48.9284885 28.8668169,48.8444959 C29.0872169,48.7605033 29.31434,48.7208565 29.5484785,48.724968 C29.7826169,48.7293732 30.0132477,48.7804736 30.2400785,48.8779755 C30.4669092,48.975771 30.6744477,49.1187933 30.8618169,49.3073361 C31.0807554,49.5273026 31.2429862,49.7645963 31.3485092,50.0195108 C31.4540323,50.274719 31.5066477,50.5302208 31.5054785,50.78631 C31.5048938,51.0423993 31.4505246,51.2932022 31.3429554,51.538719 C31.2350938,51.7842357 31.08134,52.0074327 30.8811092,52.2086037 C30.6735708,52.4171167 30.4464477,52.5724736 30.2000323,52.6746743 C29.9536169,52.7771688 29.7010631,52.8288565 29.4426631,52.8294439 C29.1839708,52.8303249 28.9314169,52.7798119 28.6852938,52.6776112 C28.4391708,52.5757041 28.2164323,52.4244587 28.0173708,52.2241688 C27.9001554,52.106403 27.7990169,51.9862877 27.7139554,51.8635294 C27.6288938,51.7410647 27.5561092,51.6139011 27.4956015,51.4823323 C27.4350938,51.3507636 27.3810169,51.2106781 27.3333708,51.0623695 C27.2857246,50.914061 27.2407092,50.7551799 27.1983246,50.5857264 L26.5762938,47.9840126 L27.38774,47.1684625 Z" id="Fill-17" fill="#3A382D" sketch:type="MSShapeGroup"></path>
                <path d="M29.40022,49.7998086 C29.2908969,49.7998086 29.1818662,49.8200725 29.0760508,49.8603067 C28.9640969,49.9025967 28.8585738,49.9727862 28.7629892,50.0691134 C28.6662354,50.1663216 28.5928662,50.2743959 28.5446354,50.3906933 C28.4972815,50.5052286 28.4750662,50.6241691 28.4782815,50.7439907 C28.4814969,50.8646933 28.5116046,50.987158 28.5668508,51.1069796 C28.6238508,51.2297379 28.7077431,51.3475037 28.8164815,51.4567528 C28.9135277,51.5545483 29.0219738,51.6317862 29.1383123,51.6864108 C29.2537738,51.7410353 29.3733277,51.7718717 29.4949277,51.7783327 C29.6127277,51.7842063 29.7352046,51.7662918 29.8515431,51.7237082 C29.96642,51.6814182 30.0751585,51.6094665 30.1742508,51.5096152 C30.3721431,51.3110874 30.4636354,51.0925892 30.4536969,50.8423736 C30.4434662,50.5874591 30.33122,50.3557454 30.1099431,50.133723 C30.0052969,50.0282918 29.8918815,49.9457677 29.7720354,49.8885 C29.6562815,49.8329944 29.5390662,49.8033327 29.4233123,49.8001022 C29.4157123,49.7998086 29.40782,49.7998086 29.40022,49.7998086 L29.40022,49.7998086 Z M29.5425738,52.0731877 C29.5215277,52.0731877 29.5004815,52.0726004 29.4794354,52.0717193 C29.3201277,52.0632026 29.1631585,52.0229684 29.0140815,51.9521914 C28.8673431,51.8831766 28.7311277,51.7862621 28.60982,51.6643848 C28.47682,51.5307602 28.3730508,51.3848011 28.30202,51.2309126 C28.2295277,51.074381 28.1903585,50.9134442 28.1859738,50.7519201 C28.1815892,50.5903959 28.2116969,50.4309275 28.2745431,50.2779201 C28.3376815,50.1257937 28.4323892,49.9857082 28.5563277,49.8614814 C28.6814354,49.7357862 28.8217431,49.6426896 28.9725738,49.5854219 C29.1216508,49.5290353 29.2765738,49.5014294 29.4309123,49.5064219 C29.5881738,49.5108271 29.7451431,49.5498866 29.89802,49.6233067 C30.0479738,49.6952584 30.1885738,49.7971654 30.3166046,49.9260911 C30.5884508,50.1986264 30.7331431,50.5031729 30.7460046,50.8309201 C30.7585738,51.1630725 30.6360969,51.461158 30.3809123,51.7172472 C30.2517123,51.8476413 30.1073123,51.9425 29.9523892,51.999474 C29.8193892,52.0485186 29.6817123,52.0731877 29.5425738,52.0731877 L29.5425738,52.0731877 Z M26.7375892,48.0297974 L27.3403277,50.5516301 C27.3818354,50.7160911 27.4256815,50.8717416 27.4724508,51.0171134 C27.5186354,51.159842 27.5706662,51.295816 27.6282508,51.4206301 C27.6849585,51.5436822 27.7539431,51.6646784 27.8340354,51.7795074 C27.9126662,51.8934554 28.0088354,52.0079907 28.1204969,52.1201766 C28.30582,52.3060762 28.5145277,52.4479238 28.7410662,52.5416078 C28.9664354,52.6352918 29.1999892,52.6825743 29.4361738,52.6825743 L29.44202,52.6825743 C29.6802508,52.681987 29.9167277,52.6338234 30.1441431,52.5392584 C30.3718508,52.4443996 30.5852354,52.2984405 30.7778662,52.1046115 C30.9643585,51.9175372 31.1093431,51.7072621 31.2087277,51.4793662 C31.3081123,51.2532323 31.3586815,51.0197565 31.3595585,50.7856933 C31.3604354,50.5507491 31.3113277,50.311987 31.2134046,50.075868 C31.1157738,49.8397491 30.9626046,49.6162584 30.7582815,49.4112695 C30.5852354,49.2371171 30.3914354,49.1031989 30.1824354,49.013039 C29.9743123,48.9234665 29.7597585,48.8758903 29.5454969,48.8717788 C29.3321123,48.8708978 29.1207738,48.9049647 28.9187892,48.9819089 C28.7188508,49.0579721 28.5373277,49.1775 28.3786046,49.3366747 C28.31722,49.3983476 28.2537892,49.4729424 28.1903585,49.558697 C28.1307277,49.6394591 28.0889277,49.7119981 28.0655431,49.7739647 L28.0290046,49.8717602 L27.8094815,49.8661803 L27.7744046,49.7519387 L27.2996969,47.4644628 L26.7375892,48.0297974 Z M29.4358815,52.9762546 C29.1616969,52.9762546 28.8901431,52.9213364 28.6294046,52.8132621 C28.3674969,52.7046004 28.1266354,52.5413141 27.9138354,52.3281022 C27.7898969,52.2032881 27.6823277,52.0752435 27.5937585,51.9471989 C27.5046046,51.8185669 27.4268508,51.6825929 27.3628354,51.5436822 C27.3005738,51.4082955 27.2438662,51.2614554 27.1944662,51.1072732 C27.1459431,50.9563216 27.0997585,50.79421 27.0564969,50.6218197 L26.4148815,47.9381691 L27.4756662,46.872697 L27.9874969,49.3413736 C28.0491738,49.2614926 28.1111431,49.1901283 28.1719431,49.1290428 C28.3598969,48.9402063 28.5764969,48.7983587 28.81502,48.7073178 C29.0526662,48.6168643 29.3081431,48.5760428 29.5510508,48.5780985 C29.8033123,48.5830911 30.0544046,48.638303 30.2976046,48.7431468 C30.5408046,48.8479907 30.7655892,49.0030539 30.9652354,49.2036375 C31.1964508,49.435645 31.3706662,49.6914405 31.4834969,49.9633885 C31.5963277,50.2353364 31.6527431,50.5125706 31.6518662,50.7865743 C31.6509892,51.0614591 31.5919431,51.3345818 31.4767738,51.598013 C31.3621892,51.8588011 31.1967431,52.0993253 30.9845277,52.3122435 C30.76442,52.5336784 30.5191738,52.7010762 30.2560969,52.8103253 C29.9927277,52.919868 29.71942,52.9756673 29.4428969,52.9762546 L29.4358815,52.9762546 Z" id="Fill-19" fill="#3A382D" sketch:type="MSShapeGroup"></path>
                <path d="M36.3688062,47.3353316 C35.5111754,48.1969896 34.2244369,46.6457703 33.4524523,45.8698669 L33.2808677,45.6977703 C32.4232369,44.8358186 30.9646215,43.5433316 31.8228369,42.7674283 L64.0854215,9.87523494 C64.9430523,9.01357695 66.2297908,9.01357695 67.0017754,9.87523494 L67.17336,10.0476253 C67.9456369,10.9092833 67.9456369,12.2020639 67.17336,12.9776736 L36.3688062,47.3353316 Z" id="Fill-21" fill="#000000" sketch:type="MSShapeGroup"></path>
                <path d="M37.3981385,46.3011658 C36.5405077,47.1628238 35.2537692,45.6116045 34.4817846,44.8357011 L34.3102,44.6636045 C33.4525692,43.8016528 31.9939538,42.5091658 32.8521692,41.7332625 L65.1147538,8.84106914 C65.9723846,7.97941115 67.2591231,7.97941115 68.0308154,8.84106914 L68.2026923,9.01375316 C68.9749692,9.87511747 68.9749692,11.1681918 68.2026923,11.9435078 L37.3981385,46.3011658 Z" id="Fill-23" fill="#3A382D" sketch:type="MSShapeGroup"></path>
                <g id="Group-27">
                    <mask id="mask-2" sketch:name="Clip 26" fill="white">
                        <use xlink:href="#path-1"></use>
                    </mask>
                    <g id="Clip-26"></g>
                    <path d="M69.8325123,11.7714112 C69.06082,12.6330691 67.6881431,12.6330691 66.9161585,11.7714112 L65.2006046,10.0475078 C64.3423892,9.18555613 64.3423892,7.89306914 65.2006046,7.11745948 L72.2346969,2.03297249 C73.2639123,1.34341115 74.2071892,0.912582156 75.1507585,2.03297249 L75.3226354,2.20477546 C77.2951277,4.27375316 74.2931277,4.53189814 73.5208508,5.39355613 L69.8325123,11.7714112 Z" id="Fill-25" fill="#3A382D" sketch:type="MSShapeGroup" mask="url(#mask-2)"></path>
                </g>
                <g id="Group-30">
                    <mask id="mask-4" sketch:name="Clip 29" fill="white">
                        <use xlink:href="#path-3"></use>
                    </mask>
                    <g id="Clip-29"></g>
                    <path d="M70.8616985,1.42948885 C70.60476,1.60217286 70.17536,1.60217286 70.0040677,1.25709851 C69.8324831,0.998659851 69.8324831,0.567537175 70.17536,0.39544052 L70.5188215,0.136708178 C70.7760523,-0.0353884758 71.20516,-0.0353884758 71.3764523,0.309098513 C71.5480369,0.567537175 71.5480369,0.998659851 71.20516,1.17075651 L70.8616985,1.42948885 Z" id="Fill-28" fill="#FFFFFF" sketch:type="MSShapeGroup" mask="url(#mask-4)"></path>
                </g>
                <path d="M68.8031508,2.72194647 C68.5462123,2.8943368 68.1168123,2.8943368 67.94552,2.54984981 C67.7739354,2.29111747 67.7739354,1.86028848 68.1168123,1.68789814 L68.4602738,1.42945948 C68.7172123,1.25706914 69.1460277,1.25706914 69.3179046,1.60214349 C69.4894892,1.86028848 69.4894892,2.29111747 69.1460277,2.46380149 L68.8031508,2.72194647 Z" id="Fill-31" fill="#FFFFFF" sketch:type="MSShapeGroup"></path>
                <path d="M66.8303662,4.18744052 C66.5728431,4.35953717 66.1440277,4.35953717 65.9724431,4.01505019 C65.8011508,3.75661152 65.8011508,3.32548885 66.1440277,3.15339219 L66.4869046,2.89436617 C66.74472,2.72197584 67.1732431,2.72197584 67.34512,3.06705019 C67.51612,3.32548885 67.51612,3.75661152 67.1732431,3.92870818 L66.8303662,4.18744052 Z" id="Fill-33" fill="#FFFFFF" sketch:type="MSShapeGroup"></path>
                <path d="M64.8572015,5.65237658 C64.6002631,5.82476691 64.1711554,5.82476691 63.9995708,5.47998625 C63.8279862,5.22154758 63.8279862,4.79071859 64.1711554,4.61832825 L64.4283862,4.35930223 C64.6859092,4.18749926 65.1147246,4.18749926 65.2866015,4.53198625 C65.4576015,4.79071859 65.4576015,5.22154758 65.1147246,5.39364424 L64.8572015,5.65237658 Z" id="Fill-35" fill="#FFFFFF" sketch:type="MSShapeGroup"></path>
                <path d="M67.8880815,12.5534818 C67.7442662,12.6979725 67.6007431,12.6979725 67.4578046,12.5534818 L64.4432354,9.52563792 C64.2997123,9.38144089 64.2997123,9.23695019 64.4432354,9.09275316 C64.5870508,8.94826245 64.7308662,8.94826245 64.8735123,9.09275316 L67.8880815,12.1211844 L67.8880815,12.5534818 Z" id="Fill-37" fill="#E0C74C" sketch:type="MSShapeGroup"></path>
                <path d="M63.82784,14.1683123 C63.6565477,14.3407026 63.4849631,14.3407026 63.3130862,14.1683123 C63.1420862,13.9962156 63.1420862,13.8238253 63.3130862,13.6511413 C63.4849631,13.4793383 63.6565477,13.4793383 63.82784,13.6511413 C63.9137785,13.8238253 63.9137785,13.9962156 63.82784,14.1683123" id="Fill-39" fill="#DDD3C3" sketch:type="MSShapeGroup"></path>
                <path d="M60.4828754,17.529542 C60.3112908,17.7019323 60.1394138,17.7019323 59.9681215,17.529542 C59.7965369,17.356858 59.7965369,17.185055 59.9681215,17.012371 C60.1394138,16.8399807 60.3112908,16.8399807 60.4828754,17.012371 C60.5682292,17.185055 60.5682292,17.356858 60.4828754,17.529542" id="Fill-41" fill="#DDD3C3" sketch:type="MSShapeGroup"></path>
                <path d="M54.5347062,23.8286026 C54.3631215,24.0009929 54.1912446,24.0009929 54.0193677,23.8286026 C53.8483677,23.6559186 53.8483677,23.4841156 54.0193677,23.3114316 C54.1912446,23.1387476 54.3631215,23.1387476 54.5347062,23.3114316 C54.62006,23.4841156 54.62006,23.6559186 54.5347062,23.8286026" id="Fill-43" fill="#DDD3C3" sketch:type="MSShapeGroup"></path>
                <path d="M57.0861431,20.201181 C56.9148508,20.3735714 56.7432662,20.3735714 56.5716815,20.201181 C56.4003892,20.028497 56.4003892,19.8566941 56.5716815,19.68401 C56.7432662,19.511326 56.9148508,19.511326 57.0861431,19.68401 C57.1720815,19.8566941 57.1720815,20.114839 57.0861431,20.201181" id="Fill-45" fill="#DDD3C3" sketch:type="MSShapeGroup"></path>
                <path d="M58.1160308,21.2352294 C57.9444462,21.4076197 57.7725692,21.4076197 57.6006923,21.2352294 C57.4296923,21.062839 57.4296923,20.8907424 57.6006923,20.7180584 C57.7725692,20.545668 57.9444462,20.545668 58.1160308,20.7180584 C58.2013846,20.8907424 58.2013846,21.062839 58.1160308,21.2352294" id="Fill-47" fill="#DDD3C3" sketch:type="MSShapeGroup"></path>
                <path d="M51.9373769,26.8017926 C51.7660846,26.9741829 51.5945,26.9741829 51.4226231,26.8017926 C51.2516231,26.6296959 51.2516231,26.4573056 51.4226231,26.2846216 C51.5945,26.1128186 51.7660846,26.1128186 51.9373769,26.2846216 C52.0233154,26.4573056 52.0233154,26.6296959 51.9373769,26.8017926" id="Fill-49" fill="#DDD3C3" sketch:type="MSShapeGroup"></path>
                <path d="M48.88472,30.1630223 C48.7131354,30.3354126 48.5412585,30.3354126 48.3699662,30.1630223 C48.1983815,29.9903383 48.1983815,29.8185353 48.3699662,29.6458513 C48.5412585,29.473461 48.7131354,29.473461 48.88472,29.6458513 C48.9700738,29.8185353 48.9700738,29.9903383 48.88472,30.1630223" id="Fill-51" fill="#DDD3C3" sketch:type="MSShapeGroup"></path>
                <path d="M42.2289323,37.1437149 C42.0573477,37.3161052 41.8854708,37.3161052 41.7135938,37.1437149 C41.5425938,36.9710309 41.5425938,36.7992279 41.7135938,36.6265439 C41.8854708,36.4538599 42.0573477,36.4538599 42.2289323,36.6265439 C42.3142862,36.7992279 42.3142862,36.9710309 42.2289323,37.1437149" id="Fill-53" fill="#DDD3C3" sketch:type="MSShapeGroup"></path>
            </g>
        </g>
    </g>
</svg>