<?xml version="1.0" encoding="UTF-8" standalone="no"?>
<svg width="150px" height="150px" viewBox="0 0 150 150" version="1.1" xmlns="http://www.w3.org/2000/svg" xmlns:xlink="http://www.w3.org/1999/xlink" xmlns:sketch="http://www.bohemiancoding.com/sketch/ns">
    <!-- Generator: Sketch 3.3.1 (12005) - http://www.bohemiancoding.com/sketch -->
    <title>badge</title>
    <desc>Created with Sketch.</desc>
    <defs></defs>
    <g id="34.-Programacion-3" stroke="none" stroke-width="1" fill="none" fill-rule="evenodd" sketch:type="MSPage">
        <g id="badge" sketch:type="MSArtboardGroup">
            <g id="Group" sketch:type="MSLayerGroup" transform="translate(35.000000, 38.000000)">
                <g id="duck_4_" transform="translate(0.000000, 11.684211)" sketch:type="MSShapeGroup">
                    <path d="M27.4087805,22.2408947 L16.1678049,33.8598684 L13.5082927,31.2971316 L24.1756098,20.2740526 C24.7892683,21.4337105 26.0058537,22.2272632 27.4087805,22.2408947 L27.4087805,22.2408947 Z M31.1356098,18.3909474 L45.6887805,3.3485 L43.0312195,0.785763158 L29.0536585,15.2323158 C30.2419512,15.8067895 31.075122,16.9985789 31.1356098,18.3909474 L31.1356098,18.3909474 Z" id="Rectangle-161_4_" fill="#BBBBBB"></path>
                    <ellipse id="Oval-15_4_" fill="#BBBBBB" cx="9.58243902" cy="39.4527105" rx="9.23902439" ry="9.22078947"></ellipse>
                    <path d="M57.4243902,32.0760789 C56.404878,32.0760789 55.7131707,32.8959211 55.88,33.8997895 L60.1629268,59.7588947 C60.3307317,60.7656842 61.2946341,61.5826053 62.3121951,61.5826053 L73.0858537,61.5826053 C74.1053659,61.5826053 75.0556098,60.7627632 75.2068293,59.7588947 L79.0897561,33.8997895 C79.2390244,32.8920263 78.5307317,32.0760789 77.5160976,32.0760789 L57.4243902,32.0760789 L57.4243902,32.0760789 Z" id="Rectangle-167_5_" fill-opacity="0.5473" fill="#FFFFFF"></path>
                </g>
                <g sketch:type="MSShapeGroup">
                    <ellipse id="Oval-10_1_" fill="#D99E69" cx="47.6341463" cy="8.26073684" rx="7.34634146" ry="7.33184211"></ellipse>
                    <path d="M5.88878049,59.6362105 C10.5697561,61.6186316 15.8897561,59.6381579 17.7726829,55.2127632 C19.6556098,50.7863947 13.2721951,54.2799737 8.59121951,52.2975526 C3.9102439,50.3131842 2.70439024,43.6045 0.821463415,48.0308684 C-1.06146341,52.4572368 1.20780488,57.6537895 5.88878049,59.6362105 L5.88878049,59.6362105 Z" id="Oval-14_1_" fill="#C6DDEE"></path>
                    <path d="M50.0195122,7.00176316 C49.4770732,6.35036842 48.5287805,6.28123684 47.8965854,6.84889474 L45.8819512,8.66384211 C45.2526829,9.23052632 45.284878,10.1156053 45.9453659,10.6345789 L59.5482927,21.3285526 C60.2126829,21.8514211 61.2263415,21.7852105 61.8136585,21.1776316 L60.7639024,22.2642632 C61.3512195,21.6566842 61.3863415,20.6372368 60.8429268,19.9868158 L50.0195122,7.00176316 L50.0195122,7.00176316 Z" id="Rectangle-160_1_" fill="#D99E69"></path>
                    <path d="M51.7697561,11.1574474 C51.3229268,10.6472368 50.9258537,10.7728421 50.8829268,11.4485789 L50.822439,12.3852632 C50.7795122,13.0571053 51.155122,13.9675 51.6536585,14.4124737 L59.982439,21.8377895 C60.484878,22.2866579 61.2731707,22.2555 61.3765854,22.1483947 L60.8917073,22.6498421 C61.1590244,22.3733158 61.0185366,21.7394474 60.5678049,21.2233947 L51.7697561,11.1574474 L51.7697561,11.1574474 Z" id="Rectangle-163_1_" fill-opacity="0.1349" fill="#8B572A"></path>
                    <ellipse id="Oval-13_1_" opacity="0.9" fill="#C79C58" cx="52.5326829" cy="8.26073684" rx="1.83609756" ry="1.83247368"></ellipse>
                    <path d="M52.8565854,9.48271053 C54.0497561,9.48271053 54.5678049,8.59860526 54.2995122,8.32597368 C54.0321951,8.05431579 53.9541463,8.42042105 52.76,8.42042105 C51.5678049,8.42042105 50.6965854,6.21405263 50.6965854,7.37663158 C50.6965854,8.53921053 51.662439,9.48271053 52.8565854,9.48271053 L52.8565854,9.48271053 Z" id="Oval-17_4_" opacity="0.9" fill="#96733B"></path>
                    <ellipse id="Oval-11_2_" fill="#6A4B19" cx="52.2253659" cy="7.3445" rx="0.91804878" ry="0.916236842"></ellipse>
                    <path d="M47.3609756,15.5925789 C50.9297561,15.5925789 51.92,12.7163158 51.92,11.1077895 C51.92,9.49926316 50.7092683,11.6520789 47.1404878,11.6520789 C43.5717073,11.6520789 40.9004878,5.05244737 40.9004878,8.80307895 C40.8995122,12.5517632 43.7921951,15.5925789 47.3609756,15.5925789 L47.3609756,15.5925789 Z" id="Oval-16_1_" fill-opacity="0.1608" fill="#8B572A"></path>
                    <path d="M29.2136585,33.5706842 C30.7073171,32.893 31.7473171,31.3925526 31.7473171,29.6496579 C31.7473171,27.2719211 29.8165854,25.3469474 27.4360976,25.3469474 C25.0546341,25.3469474 23.1239024,27.2719211 23.1239024,29.6496579 C23.1239024,31.3516579 24.1141463,32.8209474 25.5492683,33.5200526 L21.8926829,51.2849211 L27.1736585,67.1472105 L29.2839024,67.1472105 L23.9697561,51.2849211 L29.2136585,33.5706842 L29.2136585,33.5706842 Z" id="Oval-17_3_" fill="#D99E69"></path>
                    <path d="M29.76,65.9174474 L38.5209756,71.4499211 L12.6517073,71.4499211 L27.5882927,65.9602895 L29.76,65.9174474 L29.76,65.9174474 Z" id="Path-114_1_" fill="#C88F5C"></path>
                    <rect id="Rectangle-164_1_" fill="#D99E69" x="12.6526829" y="71.4499211" width="25.8692683" height="1.22976316"></rect>
                    <path d="M27.435122,31.4938158 C28.4546341,31.4938158 29.2839024,30.6671579 29.2839024,29.6496579 C29.2839024,28.6321579 28.4546341,27.8055 27.435122,27.8055 C26.4136585,27.8055 25.5863415,28.6321579 25.5863415,29.6496579 C25.5863415,30.6671579 26.4136585,31.4938158 27.435122,31.4938158 L27.435122,31.4938158 Z" id="Oval-18_2_" fill="#73461E"></path>
                </g>
            </g>
        </g>
    </g>
</svg>