<?xml version="1.0" encoding="UTF-8" standalone="no"?>
<svg width="150px" height="150px" viewBox="0 0 150 150" version="1.1" xmlns="http://www.w3.org/2000/svg" xmlns:xlink="http://www.w3.org/1999/xlink" xmlns:sketch="http://www.bohemiancoding.com/sketch/ns">
    <!-- Generator: Sketch 3.3.1 (12005) - http://www.bohemiancoding.com/sketch -->
    <title>badge</title>
    <desc>Created with Sketch.</desc>
    <defs></defs>
    <g id="29.-Git" stroke="none" stroke-width="1" fill="none" fill-rule="evenodd" sketch:type="MSPage">
        <g id="badge" sketch:type="MSArtboardGroup" fill="#DE4C36">
            <path d="M113.491108,71.4362421 L78.5618926,36.5096596 C76.5517927,34.4978042 73.289111,34.4978042 71.2763778,36.5096596 L64.0233405,43.7626968 L73.2241558,52.9635121 C75.3624105,52.241105 77.8140301,52.7256356 79.518665,54.4302705 C81.2311999,56.1454387 81.7122194,58.6181249 80.9722569,60.7634018 L89.8395184,69.6306633 C91.9847953,68.8915786 94.4601148,69.3699648 96.1735275,71.0860108 C98.5680919,73.4796974 98.5680919,77.3594535 96.1735275,79.7548956 C93.7780853,82.1503378 89.8983292,82.1503378 87.5020093,79.7548956 C85.7008193,77.9519502 85.2557885,75.3063427 86.1677945,73.0873329 L77.8982963,64.8178347 L77.8974185,86.5795797 C78.4811375,86.8692448 79.0323788,87.254587 79.518665,87.7391177 C81.9132294,90.1328043 81.9132294,94.0125604 79.518665,96.4097581 C77.1232229,98.8043225 73.2417112,98.8043225 70.8497801,96.4097581 C68.4552158,94.0125604 68.4552158,90.1328043 70.8497801,87.7391177 C71.4413991,87.1483765 72.1260619,86.7015901 72.8563689,86.4013918 L72.8563689,64.4368813 C72.1260619,64.1384385 71.4422768,63.6942854 70.8497801,63.0991554 C69.0354236,61.2874322 68.5991705,58.6251471 69.528732,56.3973595 L60.4595827,47.3264547 L36.5095499,71.2747319 C34.4968167,73.2883429 34.4968167,76.5510247 36.5095499,78.5628801 L71.4387657,113.49034 C73.4497434,115.502196 76.7115474,115.502196 78.7251583,113.49034 L113.491108,78.7252681 C115.502964,76.7125349 115.502964,73.4480976 113.491108,71.4362421" id="Fill-5" sketch:type="MSShapeGroup"></path>
        </g>
    </g>
</svg>