<?xml version="1.0" encoding="UTF-8" standalone="no"?>
<svg width="150px" height="150px" viewBox="0 0 150 150" version="1.1" xmlns="http://www.w3.org/2000/svg" xmlns:xlink="http://www.w3.org/1999/xlink" xmlns:sketch="http://www.bohemiancoding.com/sketch/ns">
    <!-- Generator: Sketch 3.5.1 (25234) - http://www.bohemiancoding.com/sketch -->
    <title>badge</title>
    <desc>Created with Sketch.</desc>
    <defs>
        <path id="path-1" d="M0,0.0641811024 L43.9986202,0.0641811024 L43.9986202,78 L0,78"></path>
        <path id="path-3" d="M0,0.0641811024 L43.9986202,0.0641811024 L43.9986202,78 L0,78 L0,0.0641811024 Z"></path>
    </defs>
    <g id="Gulp" stroke="none" stroke-width="1" fill="none" fill-rule="evenodd" sketch:type="MSPage">
        <g id="badge" sketch:type="MSArtboardGroup">
            <g id="Page-1" sketch:type="MSLayerGroup" transform="translate(52.000000, 37.000000)">
                <g id="Group-3">
                    <mask id="mask-2" sketch:name="Clip 2" fill="white">
                        <use xlink:href="#path-1"></use>
                    </mask>
                    <g id="Clip-2"></g>
                    <path d="M43.9985742,73.5638728 C43.9985742,76.0138098 34.1491666,78.0000461 21.9993408,78.0000461 C9.84936167,78.0000461 -4.59930314e-05,76.0138098 -4.59930314e-05,73.5638728 C-4.59930314e-05,71.1139358 9.84936167,69.1276996 21.9993408,69.1276996 C34.1491666,69.1276996 43.9985742,71.1139358 43.9985742,73.5638728" id="Fill-1" fill="#BA3F3F" sketch:type="MSShapeGroup" mask="url(#mask-2)"></path>
                </g>
                <path id="Fill-4" fill="#993030" sketch:type="MSShapeGroup" d="M27.6704655,19.3039713 L27.8265352,19.3967114 C27.8250021,19.3624713 27.7676641,19.3305343 27.6704655,19.3039713"></path>
                <path id="Fill-6" fill="#993030" sketch:type="MSShapeGroup" d="M27.6704655,19.3039713 L27.6448627,19.2887705 L27.6407233,19.2953728 C27.6517617,19.2981366 27.6601937,19.3012075 27.6704655,19.3039713"></path>
                <path d="M11.5585547,60.5174976 L12.3381366,72.0622654 C12.3381366,73.2701906 16.2202551,74.2542496 21.080492,74.3009268 L21.080492,58.648722 C13.6950843,58.6209307 9.35487526,56.8504228 9.35487526,56.8504228 L11.5585547,60.5174976 Z" id="Fill-8" fill="#872D2D" sketch:type="MSShapeGroup"></path>
                <path d="M21.441246,74.3032299 C26.4685909,74.3032299 30.5441868,73.299978 30.5441868,72.0622654 L31.2563122,60.1781669 L33.2226676,56.8164898 C33.2226676,56.8164898 28.7473923,58.6501039 21.2549742,58.6501039 C21.1959498,58.6501039 21.1389185,58.6490291 21.0805073,58.648722 L21.0805073,74.3009268 C21.2002425,74.3021551 21.3202843,74.3032299 21.441246,74.3032299" id="Fill-10" fill="#993030" sketch:type="MSShapeGroup"></path>
                <path d="M28.2979178,16.5652346 L27.581653,19.2513213 L27.6448167,19.2887858 L27.7841756,19.0704472 C27.9773463,19.1304827 28.1459875,19.2465614 28.1455275,19.4473961 C28.1436878,19.7887228 27.7099735,19.8406205 27.4284962,19.8790063 C27.4284962,19.8790063 27.1047052,19.9516323 26.1524962,19.9556244 C25.1999805,19.9596165 24.5237296,19.9494827 24.2543638,19.7038134 C24.1818481,19.6377898 24.1422941,19.5068173 24.1426007,19.4180693 C24.1433672,19.2491717 24.2631024,19.1496756 24.415646,19.087337 L24.5597575,19.3139669 L25.3896251,16.4256638 C24.1321756,16.3831323 22.8198411,16.3604079 21.4697923,16.3604079 C21.3396321,16.3604079 21.2099317,16.3605614 21.0803847,16.361022 C12.0309491,16.3901953 4.7583777,17.4321402 4.7583777,18.7129984 C4.7583777,19.9940102 12.0309491,21.0358016 21.0803847,21.0649748 C21.2099317,21.0654354 21.3396321,21.065589 21.4697923,21.065589 C30.6989073,21.065589 38.180747,20.0122819 38.180747,18.7129984 C38.180747,17.7562701 34.1229352,16.9328173 28.2979178,16.5652346" id="Fill-12" fill="#872D2D" sketch:type="MSShapeGroup"></path>
                <path d="M21.1748697,57.8338217 C30.6667582,57.8338217 33.9344098,55.3792783 33.9344098,55.3792783 L35.4064934,42.1249594 C34.2020892,43.2995657 30.3901868,45.3854516 30.1461171,43.0342429 C29.9498801,41.1439713 34.2744516,38.4061406 33.1646397,38.3186209 C30.7754551,38.455428 29.5863819,41.1227823 28.3842774,43.9163492 C27.9438174,44.9403295 26.4364725,49.3063335 25.4479289,48.7687783 C24.4595387,48.2315303 26.7291415,44.6413807 27.3653784,42.5091248 C26.6313296,43.0482154 23.9393575,45.1430067 23.2456293,43.1813374 C22.6796084,43.6626957 21.7871902,44.0313531 21.0804307,43.952739 L21.0804307,57.833361 C21.1121659,57.8335146 21.1431345,57.8338217 21.1748697,57.8338217" id="Fill-14" fill="#FFFFFF" sketch:type="MSShapeGroup"></path>
                <path d="M22.5315415,36.9503657 C23.4133812,37.3320744 20.3318481,41.7218776 21.4839735,42.5930823 C21.7163916,42.7688894 22.6672209,42.4846807 23.2456599,41.8579169 C23.6198899,41.4524091 23.4911094,40.5544878 24.7385937,37.5749799 C25.986078,34.5956256 27.0978829,30.8852516 27.9535066,31.1679248 C28.808977,31.4504445 28.1039038,33.3548421 27.796977,34.0646728 C26.3566286,37.3967161 23.8661059,42.9013972 25.0406146,42.4846807 C26.2152767,42.0679642 26.8268307,42.0435508 27.9769631,40.6955941 C29.1270955,39.3476374 29.0740502,37.1274012 29.8406007,37.174539 C30.6074578,37.2218303 30.4788307,37.9338106 30.2928655,38.4758185 C31.0473045,37.6110626 33.8692836,35.7898854 34.5505937,37.5937122 C35.3576181,39.729039 30.5131721,42.8135705 31.7209491,42.6563421 C32.8986774,42.5029524 34.8066216,41.292724 35.6211582,40.1922791 L37.8634718,20.0031768 C37.8634718,20.0031768 35.607207,21.8731807 21.2526286,21.8731807 C21.194524,21.8731807 21.1382592,21.8728736 21.0804613,21.8728736 L21.0804613,38.5105193 C21.5313463,37.5960154 22.061646,36.7469209 22.5315415,36.9503657" id="Fill-16" fill="#FFFFFF" sketch:type="MSShapeGroup"></path>
                <path d="M6.78418676,38.4699531 C7.79741324,35.5857957 10.2036153,29.7517642 13.996354,29.9476854 C15.7215526,30.0367406 18.0247303,33.3638705 16.0519359,33.4765713 C15.2168557,33.5241697 15.1320753,31.8158469 14.1432251,31.5649571 C13.4295666,31.3839295 12.4361171,31.9649374 11.7940544,32.594465 C10.5136084,33.8493744 7.75985226,38.8011461 8.12365714,41.2698154 C8.5872669,44.4171461 12.4601868,40.1761264 13.1154341,38.9170713 C13.5768976,38.0300516 13.8887303,35.4023114 14.898124,35.6779217 C15.9075178,35.9536854 14.8099707,38.6655673 14.0783749,41.0632996 C13.2563261,43.7556815 12.8242983,46.595772 11.7940544,46.2690319 C10.7638105,45.9425988 12.4420962,42.466839 12.3812321,41.8578862 C11.4129254,42.7527366 9.62885575,45.0181146 7.34652822,43.8967878 L8.53207526,55.3403705 C8.53207526,55.3403705 11.6626676,57.8168705 21.0805073,57.8334531 L21.0805073,43.9526776 C20.3945979,43.8763665 19.883462,43.3791933 20.0157686,42.1519217 C19.4224585,43.2046146 18.090807,44.6741776 16.4922425,44.0635358 C14.3929672,43.2617327 17.7086049,36.5644807 18.5331066,36.9024295 C19.3576084,37.2402248 18.3666118,38.7658311 18.1072111,39.3582012 C17.5362843,40.6619374 16.8768976,42.3010122 17.3175108,42.6365043 C18.0721031,43.2113705 20.125692,40.462024 20.1713784,40.401528 C20.3507512,40.16415 20.6851206,39.3121382 21.0805073,38.5104886 L21.0805073,21.8728429 C6.8833784,21.8581028 4.87516934,20.0419925 4.87516934,20.0419925 L6.78418676,38.4699531 Z" id="Fill-18" fill="#EFEFEF" sketch:type="MSShapeGroup"></path>
                <g id="Group-22">
                    <mask id="mask-4" sketch:name="Clip 21" fill="white">
                        <use xlink:href="#path-3"></use>
                    </mask>
                    <g id="Clip-21"></g>
                    <path d="M35.8883624,0.064165748 L27.1251568,9.35629961 L25.3895331,16.4257406 L24.5598188,19.3140437 C24.497115,19.3356933 24.4612404,19.361335 24.4610871,19.3886657 C24.4606272,19.5168744 25.4350662,19.6047012 26.1803066,19.5951815 L26.8580906,16.4962169 L28.2979791,9.91197283 L36.9684321,0.985579134 L35.8883624,0.064165748 Z" id="Fill-20" fill="#EFEFEF" sketch:type="MSShapeGroup" mask="url(#mask-4)"></path>
                </g>
                <path d="M36.9684934,0.985548425 L28.2978871,9.91194213 L26.8579986,16.4961862 L26.1803679,19.5951508 C26.9257617,19.5859382 27.8264585,19.5245209 27.8272251,19.3981547 C27.8272251,19.3975406 27.8266118,19.3970799 27.8266118,19.3966193 L27.6705422,19.3040327 C27.6602704,19.3011154 27.6518383,19.2980445 27.6406467,19.2954343 L27.6449394,19.2888319 L27.5817756,19.2512138 L28.2978871,16.5652807 L29.7926606,10.6481823 L38.0700265,1.92523346 L36.9684934,0.985548425 Z" id="Fill-23" fill="#FFFFFF" sketch:type="MSShapeGroup"></path>
            </g>
        </g>
    </g>
</svg>