<?xml version="1.0" encoding="UTF-8" standalone="no"?>
<svg width="150px" height="150px" viewBox="0 0 150 150" version="1.1" xmlns="http://www.w3.org/2000/svg" xmlns:xlink="http://www.w3.org/1999/xlink" xmlns:sketch="http://www.bohemiancoding.com/sketch/ns">
    <!-- Generator: Sketch 3.3.1 (12005) - http://www.bohemiancoding.com/sketch -->
    <title>badge</title>
    <desc>Created with Sketch.</desc>
    <defs></defs>
    <g id="30.-Heroku" stroke="none" stroke-width="1" fill="none" fill-rule="evenodd" sketch:type="MSPage">
        <g id="badge" sketch:type="MSArtboardGroup">
            <g sketch:type="MSLayerGroup" transform="translate(35.000000, 37.000000)">
                <path d="M15.728172,14.8459091 C17.8356989,14.8459091 19.648172,15.5566818 21.1630108,16.9799545 C22.5066667,18.2952727 23.248172,19.8601818 23.3901075,21.6729545 C23.4821505,21.6574091 23.5913978,21.6496364 23.7178495,21.6496364 C24.9049462,21.6496364 25.9036559,22.0477727 26.7148387,22.8388636 C27.5587097,23.6489545 27.9827957,24.6058636 27.9827957,25.7147727 C27.9827957,26.8375 27.5595699,27.7944091 26.7148387,28.5880909 C25.9492473,29.3368636 25.0064516,29.7419091 23.8812903,29.7997727 L5.09075269,29.7997727 C3.85548387,29.7704091 2.79483871,29.3282273 1.90451613,28.4766818 C0.997849462,27.6225455 0.545376344,26.5749545 0.545376344,25.3321818 C0.545376344,24.1196364 0.997849462,23.0798182 1.90451613,22.211 C2.79483871,21.3421818 3.88817204,20.9086364 5.18365591,20.9086364 C5.51225806,20.9086364 5.84774194,20.9310909 6.19096774,20.976 C6.30021505,20.5269091 6.53419355,20.1235909 6.89376344,19.7643182 C7.40903226,19.2841364 8.04129032,19.0466364 8.79139785,19.0466364 L8.86107527,19.0466364 C9.20516129,18.2961364 9.70580645,17.6086818 10.3604301,16.9808182 C11.8460215,15.5575455 13.6352688,14.8459091 15.728172,14.8459091" id="Imported-Layers-30_8_" fill="#FFFFFF" sketch:type="MSShapeGroup"></path>
                <g id="Group" transform="translate(16.344086, 0.000000)" sketch:type="MSShapeGroup">
                    <path d="M15.6911828,50.8828636 C12.4352688,44.4263182 10.0068817,37.5232727 8.40258065,30.1754545 C7.43311828,25.7976818 7.34107527,21.5503182 8.11870968,17.4376818 C11.2326882,6.24063636 16.7741935,0.452545455 24.7466667,0.0665 L25.4202151,0.0665 C21.0331183,0.232318182 17.9888172,6.02386364 16.2933333,17.4376818 C15.8898925,21.5503182 15.9380645,25.7976818 16.431828,30.1754545 C17.3066667,37.5232727 18.615914,44.4254545 20.3604301,50.8828636 L15.6911828,50.8828636 L15.6911828,50.8828636 Z M30.9875269,50.8828636 L25.4210753,50.8828636 L25.4924731,3.65663636 L25.4924731,0.0665 L25.8537634,0.0665 C30.3139785,0.329045455 33.3978495,6.12059091 35.1070968,17.4376818 C35.5423656,21.5503182 35.4950538,25.7976818 34.9651613,30.1754545 C34.0954839,37.5232727 32.7698925,44.4263182 30.9875269,50.8828636 L30.9875269,50.8828636 L30.9875269,50.8828636 Z M50.3664516,17.4376818 C51.4486022,21.5503182 51.3083871,25.7976818 49.944086,30.1754545 C47.6610753,37.5232727 44.2047312,44.4254545 39.5716129,50.8828636 L35.3049462,50.8828636 C38.5496774,44.4263182 40.9711828,37.5232727 42.5686022,30.1754545 C43.5354839,25.7976818 43.6301075,21.5503182 42.8541935,17.4376818 C39.7505376,6.21559091 34.1763441,0.424045455 26.1333333,0.0665 C37.796129,0.329045455 45.8769892,6.12059091 50.3664516,17.4376818 L50.3664516,17.4376818 Z" id="Fill-1_3_" fill="#77779A"></path>
                    <path d="M25.4210753,0.0665 L25.9380645,0.0665 C34.3432258,0.430090909 40.1694624,6.30281818 43.4133333,17.6829545 C44.2245161,21.8525909 44.1255914,26.1604091 43.1148387,30.6003636 C41.4451613,38.0509545 38.9144086,45.0507273 35.5225806,51.5988182 L30.6572043,51.5988182 C32.4748387,45.0507273 33.8270968,38.0509545 34.7131183,30.6003636 C35.2550538,26.1604091 35.3023656,21.8534545 34.8593548,17.6829545 C33.1156989,6.20609091 29.9698925,0.333363636 25.4210753,0.0665 L25.4210753,0.0665 L25.4210753,0.0665 Z M8.74752688,17.6829545 C7.96731183,21.8525909 8.06107527,26.1604091 9.03225806,30.6003636 C10.64,38.0509545 13.0752688,45.0507273 16.3389247,51.5988182 L12.0473118,51.5988182 C7.41075269,45.0507273 3.93204301,38.0509545 1.61634409,30.6003636 C0.24344086,26.1604091 0.104086022,21.8534545 1.19139785,17.6829545 C5.70666667,6.20609091 13.784086,0.333363636 25.4210753,0.0665 C17.4270968,0.456863636 11.8701075,6.32786364 8.74752688,17.6829545 L8.74752688,17.6829545 Z M26.7630108,51.5988182 L20.6090323,51.5988182 C18.5316129,44.9185909 16.9703226,37.7780455 15.9286022,30.1754545 C15.3402151,25.6465455 15.2834409,21.2515 15.7634409,16.9972273 C17.7849462,5.18959091 21.1191398,0.238363636 26.3458065,0.0665 L26.848172,0.0665 L26.848172,2.74031818 L26.7630108,51.5988182 L26.7630108,51.5988182 Z" id="Fill-2_3_" fill="#29294C"></path>
                    <path d="M31.2172043,50.1677727 L40.3913978,50.1677727 C37.3694624,54.2622727 33.8529032,58.1676364 29.84,61.8838636 L29.8021505,61.9201364 L29.476129,61.9201364 L29.476129,72.3554545 L29.04,72.3554545 L29.04,61.8838636 L26.9367742,61.8838636 L26.9367742,64.2605909 L27.4443011,64.2605909 L27.4443011,65.4325455 L26.4283871,65.4325455 L26.4283871,68.0225909 L24.6546237,68.0225909 L24.6546237,65.4325455 L23.7453763,65.4325455 L23.7453763,64.2605909 L24.2537634,64.2605909 L24.2537634,61.8838636 L22.1496774,61.8838636 L22.1496774,72.3554545 L21.7135484,72.3554545 L21.7135484,61.8838636 C17.7023656,58.1676364 14.184086,54.2622727 11.1621505,50.1677727 L31.2172043,50.1677727 L31.2172043,50.1677727 Z M25.4210753,64.4816818 L26.6348387,64.4816818 L26.6348387,61.6187273 L25.4210753,61.6187273 L25.4210753,64.4816818 L25.4210753,64.4816818 Z" id="Fill-3_3_" fill="#29294C"></path>
                    <path d="M20.911828,70.2075909 L21.9965591,75.9326364 L29.2645161,75.9326364 L30.1221505,70.2075909 L20.911828,70.2075909 L20.911828,70.2075909 Z" id="Rectangle-394_3_" fill="#33336D"></path>
                    <rect id="Rectangle-396_3_" fill="#77779A" x="20.4301075" y="70.2075909" width="9.98107527" height="1.43104545"></rect>
                </g>
                <path d="M72.1797849,41.2084091 C71.3264516,38.4309545 68.6847312,36.4048636 65.556129,36.4048636 C61.735914,36.4048636 58.64,39.4215455 58.64,43.1429545 C58.64,43.4745909 58.6649462,43.8010455 58.7131183,44.1197273 C58.5307527,44.099 58.3449462,44.0843182 58.1565591,44.0843182 C55.5578495,44.0843182 53.4537634,46.1354545 53.4537634,48.6650455 C53.4537634,51.1955 55.5578495,53.2466364 58.1565591,53.2466364 L73.231828,53.2466364 C76.6683871,53.2466364 79.4546237,50.5322273 79.4546237,47.1839091 C79.4546237,43.8355909 76.6683871,41.1220455 73.231828,41.1220455 C72.8731183,41.1220455 72.5221505,41.1531364 72.1797849,41.2084091 Z" id="Shape_6_" fill="#FFFFFF" sketch:type="MSShapeGroup"></path>
            </g>
        </g>
    </g>
</svg>