<?xml version="1.0" encoding="UTF-8" standalone="no"?>
<svg width="150px" height="150px" viewBox="0 0 150 150" version="1.1" xmlns="http://www.w3.org/2000/svg" xmlns:xlink="http://www.w3.org/1999/xlink" xmlns:sketch="http://www.bohemiancoding.com/sketch/ns">
    <!-- Generator: Sketch 3.3.1 (12005) - http://www.bohemiancoding.com/sketch -->
    <title>badge</title>
    <desc>Created with Sketch.</desc>
    <defs></defs>
    <g id="32.-HTML-5" stroke="none" stroke-width="1" fill="none" fill-rule="evenodd" sketch:type="MSPage">
        <g id="badge" sketch:type="MSArtboardGroup" fill="#FFE1D7">
            <path d="M38.4022486,34.8276515 C36.2966843,34.8276515 34.7846663,36.5226601 35.0251346,38.6153212 L42.6251075,104.36406 C42.8679218,106.455548 44.7283257,108.516538 46.7811043,108.968149 L73.6326213,114.857864 C75.6853999,115.309475 79.0050361,115.269593 81.0484306,114.771061 L104.437203,109.056125 C106.480598,108.557593 108.302292,106.44851 108.508743,104.365233 L114.981447,38.6164942 C115.187898,36.5250061 113.647728,34.8288245 111.539817,34.8288245 L38.4022486,34.8288245 L38.4022486,34.8276515 Z M55.5482284,52.3689378 L95.9691984,52.3689378 L95.2196409,60.5753601 L64.5288415,60.5753601 L64.8291337,68.7817824 L94.1733104,68.7817824 L92.3774224,93.9089653 L75.7581269,98.1306511 L59.1411775,93.8761208 L58.242647,81.0925888 L66.3259025,81.0925888 L66.6261947,87.3447659 L75.7581269,89.6849335 L84.741086,87.2638278 L85.7909356,76.7758887 L76.0724953,76.8638649 L57.7922087,77.0316063 L55.5482284,52.3689378 L55.5482284,52.3689378 Z" id="Rectangle-25_1_" sketch:type="MSShapeGroup"></path>
        </g>
    </g>
</svg>