<?xml version="1.0" encoding="UTF-8" standalone="no"?>
<svg width="150px" height="150px" viewBox="0 0 150 150" version="1.1" xmlns="http://www.w3.org/2000/svg" xmlns:xlink="http://www.w3.org/1999/xlink" xmlns:sketch="http://www.bohemiancoding.com/sketch/ns">
    <!-- Generator: Sketch 3.3.1 (12005) - http://www.bohemiancoding.com/sketch -->
    <title>badge</title>
    <desc>Created with Sketch.</desc>
    <defs></defs>
    <g id="27.-Intro-al-desarrollo-de-apps" stroke="none" stroke-width="1" fill="none" fill-rule="evenodd" sketch:type="MSPage">
        <g id="badge" sketch:type="MSArtboardGroup" fill="#FF5B45">
            <path d="M107.518659,87.9583883 L107.518659,58.0591177 C110.118861,57.209934 111.998887,54.770198 111.998887,51.8914206 C111.998887,48.3057312 109.08813,45.4002779 105.498383,45.4002779 C103.233225,45.4002779 101.241889,46.5573463 100.077586,48.3101771 L81.3151728,42.0913512 C81.3329824,41.8912817 81.3652623,41.6945467 81.3652623,41.4911428 C81.3652623,37.9054533 78.4533927,35 74.8636453,35 C71.2727847,35 68.3631413,37.9054533 68.3631413,41.4911428 C68.3631413,41.7001042 68.3753854,41.9090656 68.3943081,42.1135811 L49.912396,48.2946162 C48.7469803,46.5484543 46.7578707,45.3980549 44.5005039,45.3980549 C40.9096434,45.3980549 38,48.3046197 38,51.8891976 C38,55.0058354 40.2005987,57.605627 43.132504,58.2336228 L43.132504,87.7805488 C40.1994856,88.4085446 38,91.0083362 38,94.1249739 C38,97.7095519 40.9096434,100.616117 44.5005039,100.616117 C47.2075631,100.616117 49.5294896,98.9622091 50.5056783,96.6102813 L69.2135497,105.301077 C68.6736962,106.245849 68.3642544,107.341785 68.3642544,108.508857 C68.3642544,112.094547 71.2738978,115 74.8647584,115 C78.4545058,115 81.3663754,112.094547 81.3663754,108.508857 C81.3663754,107.347343 81.0480288,106.264745 80.5115146,105.321084 L99.4854169,96.5869399 C100.45604,98.9499826 102.782419,100.616117 105.499496,100.616117 C109.089244,100.616117 112,97.7106634 112,94.1249739 C111.998887,91.2450851 110.118861,88.8075721 107.518659,87.9583883 L107.518659,87.9583883 Z M46.5218935,87.9583883 L46.5218935,58.0591177 C47.6828568,57.6789858 48.6857598,56.9698506 49.4571381,56.0606461 L68.5100705,64.9103856 C68.4143439,65.3505384 68.3631413,65.8073637 68.3631413,66.2753039 C68.3631413,69.3908301 70.5626269,71.9917332 73.4945323,72.6197291 L73.4945323,76.9034387 L73.4945323,80.4746787 L48.3340202,88.8887114 C47.7874882,88.4907954 47.1786225,88.1729073 46.5218935,87.9583883 L46.5218935,87.9583883 Z M50.5212617,91.7263633 L73.4956454,84.0448072 L73.4956454,102.164432 C72.9023631,102.292254 72.3424738,102.502327 71.8204299,102.77909 L50.9164122,93.0668288 C50.8373821,92.5988885 50.6937922,92.1554012 50.5212617,91.7263633 L50.5212617,91.7263633 Z M76.8850348,102.342272 L76.8850348,84.2548802 L99.4587025,91.7363668 C99.2939637,92.1520667 99.1659572,92.588885 99.0902664,93.0423758 L77.9179916,102.790205 C77.588514,102.614588 77.2445661,102.458979 76.8850348,102.342272 L76.8850348,102.342272 Z M76.8850348,80.6891976 L76.8850348,76.4921848 L76.8850348,72.4418895 C79.4852364,71.5915943 81.3652623,69.1529698 81.3652623,66.2741924 C81.3652623,65.8129212 81.3140597,65.3638763 81.2216724,64.929281 L100.511695,56.0484196 C101.42555,57.1365752 102.687806,57.9257381 104.130383,58.2347343 L104.130383,87.7805488 C103.219867,87.9761723 102.379477,88.3629733 101.650396,88.8953803 L76.8850348,80.6891976 L76.8850348,80.6891976 Z M99.0156887,51.5246266 C99.0090101,51.6468913 98.9978791,51.7680445 98.9978791,51.8914206 C98.9978791,52.2615491 99.030159,52.6238972 99.0891533,52.9773532 L79.6711241,61.9182355 C78.9220078,61.0935047 77.9691942,60.4599514 76.8839217,60.1064953 L76.8839217,47.6599514 C78.2096238,47.2264675 79.3427596,46.3772838 80.1408523,45.2702327 L99.0156887,51.5246266 L99.0156887,51.5246266 Z M69.5931168,45.2835707 C70.519216,46.5617923 71.8961207,47.4932268 73.4956454,47.8355679 L73.4956454,59.9308788 C72.1499075,60.217645 70.9655691,60.9245571 70.0706367,61.9004515 L50.9041681,52.9962487 C50.9653886,52.6361237 51.0021209,52.2682181 51.0021209,51.8891976 C51.0021209,51.760264 50.9898768,51.6335533 50.980972,51.5057312 L69.5931168,45.2835707 L69.5931168,45.2835707 Z" id="Shape" sketch:type="MSShapeGroup"></path>
        </g>
    </g>
</svg>