<?xml version="1.0" encoding="UTF-8" standalone="no"?>
<svg width="150px" height="150px" viewBox="0 0 150 150" version="1.1" xmlns="http://www.w3.org/2000/svg" xmlns:xlink="http://www.w3.org/1999/xlink" xmlns:sketch="http://www.bohemiancoding.com/sketch/ns">
    <!-- Generator: Sketch 3.3.1 (12005) - http://www.bohemiancoding.com/sketch -->
    <title>badge</title>
    <desc>Created with Sketch.</desc>
    <defs></defs>
    <g id="37.-jQuery" stroke="none" stroke-width="1" fill="none" fill-rule="evenodd" sketch:type="MSPage">
        <g id="badge" sketch:type="MSArtboardGroup" fill="#78CEF5">
            <g id="Group_1_" sketch:type="MSLayerGroup" transform="translate(39.000000, 35.500000)">
                <path d="M16.4318644,66.5145763 L12.6555932,74.7830508 L14.1538983,75.9911864 L21.4013559,70.2976271 L16.4318644,66.5145763 L16.4318644,66.5145763 Z" id="Path-4_1_" sketch:type="MSShapeGroup"></path>
                <path d="M4.80067797,26.2501695 C-1.47050847,35.2630508 -0.690847458,46.9918644 4.09830508,56.5674576 C4.21084746,56.7979661 4.33288136,57.0230508 4.45084746,57.2494915 C4.52542373,57.3932203 4.5959322,57.5383051 4.67457627,57.680678 C4.7179661,57.7674576 4.76542373,57.8488136 4.81423729,57.9301695 C4.89830508,58.0833898 4.97966102,58.2271186 5.06508475,58.3762712 C5.21288136,58.639322 5.36745763,58.899661 5.51932203,59.16 C5.61016949,59.3037288 5.69423729,59.4488136 5.78237288,59.5911864 C5.95322034,59.8705085 6.13491525,60.1457627 6.31525424,60.419661 C6.38983051,60.5389831 6.46033898,60.6569492 6.54169492,60.7694915 C6.79254237,61.1423729 7.04338983,61.5138983 7.30779661,61.88 C7.31457627,61.8881356 7.3240678,61.900339 7.33084746,61.9084746 C7.37288136,61.9694915 7.41762712,62.0264407 7.45830508,62.0833898 C7.68881356,62.3966102 7.92338983,62.7084746 8.16067797,63.0135593 C8.24745763,63.1261017 8.33830508,63.2386441 8.42508475,63.3498305 C8.63932203,63.6183051 8.85355932,63.8827119 9.07322034,64.1457627 C9.1559322,64.2447458 9.23728814,64.3437288 9.32135593,64.4427119 C9.61559322,64.7898305 9.9179661,65.1342373 10.2230508,65.4718644 C10.2271186,65.4772881 10.2352542,65.4854237 10.240678,65.4922034 C10.2555932,65.5071186 10.2650847,65.5152542 10.2745763,65.5301695 C10.5742373,65.8583051 10.880678,66.1769492 11.1938983,66.4969492 C11.2874576,66.5945763 11.3877966,66.6949153 11.4854237,66.7925424 C11.7294915,67.0352542 11.9722034,67.2725424 12.220339,67.5125424 C12.319322,67.6074576 12.4183051,67.7037288 12.5172881,67.7959322 C12.8467797,68.1050847 13.1816949,68.4128814 13.520678,68.7098305 C13.5274576,68.7125424 13.5328814,68.7179661 13.5410169,68.719322 C13.5952542,68.7708475 13.6562712,68.8210169 13.7132203,68.8698305 C14.0115254,69.1274576 14.3166102,69.3850847 14.6230508,69.6386441 C14.7491525,69.740339 14.8779661,69.839322 15.0013559,69.9410169 C15.2522034,70.140339 15.5044068,70.3383051 15.759322,70.5349153 C15.8962712,70.6379661 16.0318644,70.7410169 16.1674576,70.8454237 C16.4481356,71.0515254 16.7328814,71.2549153 17.0189831,71.4555932 C17.1247458,71.5301695 17.2277966,71.6033898 17.3294915,71.6766102 C17.359322,71.6969492 17.3850847,71.7172881 17.4122034,71.7376271 C17.6847458,71.9233898 17.9667797,72.1050847 18.2420339,72.2840678 C18.3613559,72.3640678 18.4820339,72.4467797 18.6013559,72.5227119 C19.0257627,72.7911864 19.459661,73.059661 19.8976271,73.3172881 C20.0169492,73.3837288 20.1376271,73.4515254 20.2555932,73.519322 C20.5769492,73.7037288 20.9023729,73.8854237 21.2291525,74.0630508 C21.4067797,74.160678 21.5884746,74.2488136 21.7661017,74.3423729 C22.0020339,74.4616949 22.2284746,74.5850847 22.4644068,74.7030508 C22.5186441,74.7301695 22.5742373,74.7545763 22.6284746,74.7844068 C22.719322,74.8277966 22.8155932,74.8711864 22.9077966,74.9213559 C23.2752542,75.0935593 23.6413559,75.2657627 24.0128814,75.4325424 C24.0915254,75.4650847 24.1674576,75.500339 24.2461017,75.5355932 C24.6718644,75.7213559 25.1016949,75.900339 25.5301695,76.0698305 C25.6372881,76.1132203 25.740339,76.1538983 25.8447458,76.1959322 C26.2461017,76.3477966 26.6515254,76.5010169 27.059661,76.6433898 C27.1111864,76.6623729 27.16,76.6772881 27.2115254,76.6976271 C27.6562712,76.8535593 28.1077966,76.9986441 28.5647458,77.1410169 C28.6732203,77.1722034 28.7816949,77.2061017 28.8915254,77.24 C29.3566102,77.3783051 29.8108475,77.5450847 30.2894915,77.6318644 C60.6189831,83.1640678 69.4325424,59.4067797 69.4325424,59.4067797 C62.0291525,69.0461017 48.8942373,71.5911864 36.4535593,68.7572881 C35.9789831,68.6515254 35.5233898,68.5064407 35.0637288,68.3667797 C34.9457627,68.3342373 34.8318644,68.2989831 34.7166102,68.2623729 C34.2664407,68.1254237 33.8230508,67.9816949 33.3823729,67.8298305 C33.3186441,67.8054237 33.2576271,67.7850847 33.1966102,67.7620339 C32.7979661,67.6237288 32.4074576,67.4772881 32.0155932,67.3254237 C31.9084746,67.2820339 31.7945763,67.2413559 31.6861017,67.1979661 C31.2576271,67.0284746 30.8318644,66.8522034 30.4128814,66.6677966 C30.3288136,66.6311864 30.2433898,66.5905085 30.160678,66.5538983 C29.7972881,66.3911864 29.4433898,66.2271186 29.0840678,66.0549153 C28.9810169,66.0061017 28.8766102,65.9559322 28.7735593,65.9044068 C28.4955932,65.7701695 28.2176271,65.6237288 27.9437288,65.4827119 C27.759322,65.3837288 27.5694915,65.2942373 27.3891525,65.1925424 C27.0515254,65.0135593 26.7261017,64.8250847 26.3952542,64.6366102 C26.2840678,64.5728814 26.1701695,64.5132203 26.0562712,64.4481356 C25.6210169,64.1905085 25.1884746,63.9220339 24.7613559,63.6549153 C24.6447458,63.5789831 24.5281356,63.4976271 24.4115254,63.4189831 C24.1010169,63.2210169 23.7932203,63.0189831 23.4867797,62.8061017 C23.3891525,62.739661 23.2888136,62.6650847 23.1898305,62.5972881 C22.8969492,62.3911864 22.6054237,62.1810169 22.3179661,61.9694915 C22.1864407,61.8732203 22.060339,61.7728814 21.9328814,61.6766102 C21.6684746,61.4745763 21.4040678,61.2711864 21.1450847,61.059661 C21.0271186,60.9674576 20.9077966,60.8738983 20.7938983,60.7789831 C20.4630508,60.5064407 20.1376271,60.2325424 19.8122034,59.9518644 C19.779661,59.9233898 19.7416949,59.8935593 19.7050847,59.8637288 C19.3579661,59.5559322 19.0162712,59.2427119 18.6732203,58.9281356 C18.5769492,58.8332203 18.479322,58.739661 18.3844068,58.6474576 C18.1335593,58.4088136 17.8867797,58.1674576 17.6440678,57.9220339 C17.5477966,57.8230508 17.4488136,57.7281356 17.3525424,57.6332203 C17.0433898,57.3159322 16.7423729,56.9945763 16.4454237,56.6718644 C16.4291525,56.6555932 16.4169492,56.639322 16.4020339,56.6230508 C16.0874576,56.2813559 15.779661,55.9301695 15.48,55.5762712 C15.3959322,55.4772881 15.32,55.3823729 15.2359322,55.2874576 C15.0122034,55.0176271 14.7925424,54.7450847 14.5742373,54.4684746 C14.4915254,54.3694915 14.4128814,54.2691525 14.3301695,54.1661017 C14.0698305,53.8271186 13.8135593,53.4881356 13.5654237,53.1450847 C6.65559322,43.72 4.17288136,30.7220339 9.69559322,20.0494915" id="Fill-1_1_" sketch:type="MSShapeGroup"></path>
                <path d="M24.2664407,18.6555932 C19.7308475,25.180339 19.9776271,33.9166102 23.5166102,40.8223729 C24.1105085,41.980339 24.7762712,43.1016949 25.520678,44.1688136 C26.2013559,45.1450847 26.9566102,46.3030508 27.859661,47.0867797 C28.1850847,47.4461017 28.5267797,47.7986441 28.8725424,48.1416949 C28.9633898,48.2311864 29.0515254,48.3166102 29.1450847,48.4088136 C29.48,48.7355932 29.8257627,49.0583051 30.1837288,49.3742373 C30.1986441,49.3837288 30.2108475,49.3986441 30.2244068,49.4108475 C30.2311864,49.4122034 30.2311864,49.4149153 30.2352542,49.4189831 C30.6311864,49.7633898 31.0352542,50.0969492 31.4515254,50.4237288 C31.5423729,50.4942373 31.6305085,50.5674576 31.7227119,50.639322 C32.140339,50.9566102 32.559322,51.2698305 32.9972881,51.5667797 C33.0067797,51.5762712 33.0189831,51.5871186 33.0284746,51.5952542 C33.2237288,51.7281356 33.4162712,51.8501695 33.6101695,51.9762712 C33.7037288,52.0386441 33.7918644,52.1023729 33.8827119,52.1579661 C34.1945763,52.3559322 34.5105085,52.5498305 34.8264407,52.7355932 C34.8698305,52.7627119 34.9159322,52.7871186 34.959322,52.8115254 C35.2332203,52.9701695 35.5111864,53.1247458 35.7918644,53.2779661 C35.8867797,53.3308475 35.9871186,53.3810169 36.0861017,53.4298305 C36.28,53.5315254 36.4711864,53.6332203 36.6705085,53.7335593 C36.6989831,53.7484746 36.7315254,53.7620339 36.7572881,53.7728814 C37.1559322,53.9708475 37.5586441,54.159322 37.9735593,54.3369492 C38.0589831,54.3789831 38.1511864,54.4142373 38.240678,54.4494915 C38.5661017,54.5905085 38.9010169,54.7261017 39.2332203,54.8535593 C39.3742373,54.9077966 39.5179661,54.959322 39.6576271,55.0108475 C39.9640678,55.1233898 40.2677966,55.2250847 40.5742373,55.3308475 C40.7125424,55.3742373 40.8508475,55.4162712 40.9877966,55.4610169 C41.4244068,55.5979661 41.8555932,55.7674576 42.3111864,55.8447458 C65.7294915,59.7227119 71.1342373,41.6928814 71.1342373,41.6928814 C66.2583051,48.7111864 56.8237288,52.060339 46.7532203,49.4461017 C46.3057627,49.3308475 45.8637288,49.200678 45.4257627,49.0623729 C45.2915254,49.0244068 45.1627119,48.9783051 45.0284746,48.9349153 C44.7179661,48.8332203 44.4074576,48.7274576 44.0969492,48.6149153 C43.9572881,48.5633898 43.820339,48.5118644 43.680678,48.460339 C43.3430508,48.3301695 43.0108475,48.1959322 42.6827119,48.0562712 C42.5932203,48.019661 42.5010169,47.9816949 42.4155932,47.9437288 C42.000678,47.7647458 41.5966102,47.5722034 41.1911864,47.3742373 C40.9864407,47.2752542 40.7830508,47.1681356 40.5810169,47.0637288 C40.4616949,47.0040678 40.3437288,46.9416949 40.2257627,46.8820339 C39.9667797,46.7410169 39.7064407,46.5945763 39.4528814,46.4440678 C39.3891525,46.4101695 39.3281356,46.3735593 39.2644068,46.3383051 C38.9471186,46.1552542 38.6338983,45.9613559 38.3274576,45.7647458 C38.2298305,45.7050847 38.1389831,45.6386441 38.0440678,45.5776271 C37.8433898,45.4433898 37.6372881,45.3091525 37.4338983,45.1762712 C37.0054237,44.8766102 36.5850847,44.5661017 36.1728814,44.2474576 C36.0766102,44.1742373 35.9776271,44.099661 35.8840678,44.0223729 C31.4772881,40.5416949 27.9816949,35.7850847 26.319322,30.3925424 C24.579661,24.799322 24.9538983,18.52 27.9722034,13.4244068" id="Fill-2_1_" sketch:type="MSShapeGroup"></path>
                <path d="M54.6949153,17.4 C54.6949153,17.4 54.3640678,18.6637288 55.6318644,19.6576271 C56.9050847,20.6515254 58.0508475,20.0237288 58.0508475,20.0237288 L69.1301695,5.84338983 C69.1301695,5.84338983 67.6725424,5.30915254 67.16,4.90779661 C66.5525424,4.4359322 65.7742373,3.22101695 65.7742373,3.22101695 L54.6949153,17.4 L54.6949153,17.4 Z" id="Rectangle-2_1_" sketch:type="MSShapeGroup"></path>
                <path d="M68.6063452,8.78734782 C69.5882023,7.40554859 68.232706,4.68602381 65.5787593,2.71311923 C62.9248127,0.74021464 59.9774114,0.261029069 58.9955543,1.6428283 C58.0136971,3.02462753 59.3691935,5.7441523 62.0231401,7.71705689 C64.6770868,9.68996148 67.6244881,10.169147 68.6063452,8.78734782 L68.6063452,8.78734782 Z" id="Oval-2_1_" sketch:type="MSShapeGroup"></path>
                <path d="M63.6846545,11.9035593 C62.9162182,12.6346441 61.0612364,12.2744576 59.3803636,11.0238475 C57.6641455,9.74913559 56.7517091,8.01247458 57.2622545,7.04974576 L59.0151273,1.6509661 C59.0151273,1.6509661 57.8474182,3.5469661 62.2106182,6.92522034 C66.5712,10.3034746 68.3502545,9.02608475 68.3502545,9.02608475 L63.6846545,11.9035593 L63.6846545,11.9035593 Z" id="Oval-3_1_" sketch:type="MSShapeGroup"></path>
                <path d="M38.8904727,12.4686102 C36.3115636,16.353 36.0589091,21.1773559 37.8497455,25.4714746 C39.7361455,30.0266949 43.6097455,33.5977627 48.1261091,35.2915763 C48.3146182,35.3652203 48.4978909,35.4254746 48.6890182,35.4910847 C48.7701818,35.5178644 48.8539636,35.548661 48.9364364,35.5727627 C49.2008727,35.6584576 49.4666182,35.7588814 49.7389091,35.8111017 C62.2224,38.2761695 65.6116364,29.2581186 66.5109818,27.9285085 C63.5445818,32.2976102 58.5595636,33.3460339 52.4434909,31.8276271 C51.9617455,31.7071186 51.4302545,31.5290339 50.9642182,31.3589831 C50.3672727,31.1407288 49.7781818,30.8930169 49.2048,30.6145085 C48.1195636,30.0815932 47.0866909,29.4308475 46.1245091,28.6917288 C40.6525091,24.4444746 37.2541091,16.3396102 40.824,9.73976271" id="Fill-3_1_" sketch:type="MSShapeGroup"></path>
            </g>
        </g>
    </g>
</svg>