<?xml version="1.0" encoding="UTF-8" standalone="no"?>
<svg width="150px" height="150px" viewBox="0 0 150 150" version="1.1" xmlns="http://www.w3.org/2000/svg" xmlns:xlink="http://www.w3.org/1999/xlink" xmlns:sketch="http://www.bohemiancoding.com/sketch/ns">
    <!-- Generator: Sketch 3.3.1 (12005) - http://www.bohemiancoding.com/sketch -->
    <title>badge</title>
    <desc>Created with Sketch.</desc>
    <defs></defs>
    <g id="43.-MongoDB" stroke="none" stroke-width="1" fill="none" fill-rule="evenodd" sketch:type="MSPage">
        <g id="badge" sketch:type="MSArtboardGroup">
            <g id="bonsai" sketch:type="MSLayerGroup" transform="translate(35.000000, 44.438202)">
                <g id="Imported-Layers-52" transform="translate(71.103419, 32.994507) rotate(63.000000) translate(-71.103419, -32.994507) translate(68.406789, 27.601249)" sketch:type="MSShapeGroup">
                    <path d="M4.46921348,1.06067416 C4.46921348,1.06067416 4.38022472,1.37617978 3.88134831,1.50202247 C3.88134831,1.50202247 1.69078652,2.0611236 0.532134831,4.70921348 C0.532134831,4.70921348 -0.443146067,6.74606742 0.924044944,9.04089888 C0.924044944,9.04089888 1.15325843,8.95460674 1.55505618,8.01258427 C1.55505618,8.01258427 1.19640449,9.21707865 1.51011236,9.1658427 C1.51011236,9.1658427 3.65483146,8.85752809 4.69573034,6.34337079 C4.69573034,6.34337079 5.61258427,4.30831461 4.53573034,1.84719101 C4.53393258,1.84629213 4.43235955,1.25483146 4.46921348,1.06067416" id="Fill-1" fill="#43A435"></path>
                    <path d="M0.735280899,10.0683146 L0.964494382,10.247191 C0.964494382,10.247191 1.38337079,9.21168539 1.76539326,9.16224719 C1.76539326,9.16224719 1.61707865,9.12629213 1.81752809,8.08539326 C1.81752809,8.08539326 1.38606742,8.77662921 1.09752809,9.04449438 C1.09662921,9.04449438 1.08404494,9.38876404 0.735280899,10.0683146" id="Fill-2" fill="#B0AF90"></path>
                    <path d="M4.45303371,0.519550562 C4.45303371,0.519550562 3.39685393,3.82202247 1.45438202,7.93348315 C1.45438202,7.93348315 1.08494382,9.2188764 1.40764045,9.16494382 C1.40764045,9.16494382 3.61438202,8.83505618 4.68404494,6.15370787 C4.68404494,6.15370787 5.62606742,3.98382022 4.51955056,1.35730337 C4.52044944,1.35730337 4.41438202,0.727191011 4.45303371,0.519550562" id="Fill-3" fill="#439A35"></path>
                </g>
                <g id="Imported-Layers-53" transform="translate(73.741363, 37.695040) rotate(100.000000) translate(-73.741363, -37.695040) translate(71.044733, 32.301781)" sketch:type="MSShapeGroup">
                    <path d="M4.6058427,0.888089888 C4.6058427,0.888089888 4.51775281,1.20269663 4.0188764,1.32853933 C4.0188764,1.32853933 1.82741573,1.88853933 0.668764045,4.53573034 C0.668764045,4.53573034 -0.306516854,6.57348315 1.06157303,8.86741573 C1.06157303,8.86741573 1.28988764,8.7811236 1.69258427,7.83910112 C1.69258427,7.83910112 1.33303371,9.04449438 1.64764045,8.99235955 C1.64764045,8.99235955 3.79235955,8.68404494 4.83325843,6.16988764 C4.83325843,6.16988764 5.75011236,4.13573034 4.67325843,1.67370787 C4.67146067,1.67280899 4.56988764,1.08134831 4.6058427,0.888089888" id="Fill-1_1_" fill="#43A435"></path>
                    <path d="M0.871910112,9.89573034 L1.1011236,10.0746067 C1.1011236,10.0746067 1.52,9.03910112 1.9011236,8.98966292 C1.9011236,8.98966292 1.75191011,8.95460674 1.95325843,7.91370787 C1.95325843,7.91370787 1.52179775,8.60404494 1.23235955,8.87191011 C1.23325843,8.87191011 1.22067416,9.21617978 0.871910112,9.89573034" id="Fill-2_1_" fill="#B0AF90"></path>
                    <path d="M4.58966292,0.347865169 C4.58966292,0.347865169 3.53348315,3.64853933 1.59191011,7.76089888 C1.59191011,7.76089888 1.22247191,9.04629213 1.54516854,8.99146067 C1.54516854,8.99146067 3.75101124,8.66247191 4.82157303,5.98022472 C4.82157303,5.98022472 5.76449438,3.81033708 4.65707865,1.18561798 C4.65617978,1.18561798 4.55191011,0.554606742 4.58966292,0.347865169" id="Fill-3_1_" fill="#439A35"></path>
                </g>
                <path d="M55.6746067,41.7132584 C55.6746067,41.7132584 52.9573034,38.3649438 50.5465169,38.3649438 C48.1348315,38.3649438 43.8957303,36.872809 43.8957303,36.872809 L43.5478652,35.8310112 L43.0741573,34.7074157 L41.0831461,33.8849438 L36.4844944,31.4957303 L35.1955056,30.552809 L33.7788764,29.7393258 L32.371236,28.9249438 L32.2435955,27.7096629 L30.5267416,28.9617978 L28.5896629,30.7191011 L27.338427,31.8804494 L25.9595506,33.7824719 L23.7213483,35.6296629 L23.2017978,36.8 L21.868764,37.3213483 L21.047191,38.1438202 L23.0202247,38.6552809 L24.4359551,39.4786517 L23.4867416,40.1564045 L21.3842697,39.854382 L20.0961798,39.854382 L18.7622472,40.028764 L16.4503371,39.7725843 L14.7244944,39.9451685 C14.7244944,39.9451685 12.6067416,39.9874157 12.6067416,40.8503371 C12.6067416,41.7132584 11.5289888,41.8301124 11.5289888,41.8301124 L10.3694382,41.5730337 L9.50202247,42.5240449 L8.64359551,43.127191 L6.88808989,42.0116854 L5.42651685,40.7586517 L4.82426966,39.8903371 L3.91910112,39.1137079 L3.83640449,37.905618 L4.35685393,36.5617978 L5.65303371,36.5617978 L7.06067416,38.538427 L7.70876404,37.2026966 L6.89617978,35.127191 L7.37078652,34.0853933 L9.12539326,34.6435955 L9.63775281,35.7231461 L11.4373034,35.8516854 L13.7492135,34.9914607 L15.6404494,34.4782022 L17.6503371,35.127191 L19.9253933,34.8260674 L21.4696629,34.2678652 L24.2489888,33.7555056 L26.0206742,31.9901124 L27.7294382,30.1051685 L29.0175281,29.1173034 L27.5110112,28.7694382 L26.0035955,29.5388764 L25.0157303,30.6175281 L23.6746067,31.6970787 L21.9038202,32.6013483 L20.2229213,32.6013483 L17.3537079,32.6013483 L15.9829213,31.3950562 L14.0179775,31.2665169 L12.647191,31.2665169 L10.6364045,30.5797753 L9.6952809,30.0593258 L10.8089888,29.1910112 L13.4148315,28.1204494 L14.6570787,27.1325843 L16.1276404,26.4458427 L16.1276404,24.5896629 L16.4746067,22.6516854 L15.185618,21.6179775 L14.327191,20.712809 L13.3402247,19.9820225 L14.6660674,18.3991011 L15.6979775,19.3411236 L17.4238202,19.8624719 C17.4238202,19.8624719 17.8049438,19.7339326 19.0148315,19.7339326 L21.7096629,19.7339326 L23.8939326,20.5114607 L24.5797753,21.8004494 L26.545618,22.2310112 L28.4278652,22.2310112 L29.2413483,23.3105618 L30.8683146,22.88 L31.8561798,23.3105618 L32.4134831,21.7195506 L33.701573,20.1357303 L35.9235955,20.007191 C35.9235955,20.007191 36.6534831,20.2633708 37.5505618,20.2633708 C38.4476404,20.2633708 39.9451685,20.4368539 39.9451685,20.4368539 L41.745618,20.3083146 L43.4175281,20.9573034 L43.2889888,19.4939326 L42.3011236,17.352809 L41.2773034,15.1038202 L39.861573,14.545618 L38.0080899,15.2764045 L36.3361798,15.7519101 L34.3253933,16.5294382 L33.3303371,17.3519101 L30.9734831,17.9919101 L28.9546067,18.3388764 L27.5289888,19.4633708 L26.4152809,18.9510112 L24.7883146,18.6489888 L23.4175281,18.0907865 L22.0008989,17.4876404 L19.6080899,17.0570787 L18.6579775,16.0611236 L20.3289888,14.4242697 L22.4674157,14.552809 L24.2310112,14.9824719 C24.2310112,14.9824719 24.0206742,14.6355056 25.2179775,14.6355056 C26.4152809,14.6355056 28.8925843,14.5069663 28.8925843,14.5069663 L30.4826966,14.16 L29.1496629,13.1649438 L27.651236,12.6894382 L25.4220225,11.9955056 L24.0053933,11.9955056 L23.5757303,10.6975281 C23.5757303,10.6975281 24.9824719,10.0035955 26.3173034,10.0035955 L28.3730337,10.0035955 L29.352809,10.0035955 L26.9033708,8.64 L25.2386517,8.2094382 L24.4710112,7.25842697 L25.1110112,6.09617978 L26.6552809,5.28269663 L28.4098876,4.50516854 L29.8166292,5.23595506 L31.1424719,6.09617978 L31.9550562,7.38606742 L33.454382,8.46561798 L34.6148315,6.95640449 L33.7186517,5.14516854 L33.1155056,4.2858427 L31.2620225,2.85932584 L33.1092135,2.6858427 L33.8849438,3.50831461 L35.3833708,4.75235955 L36.7083146,5.6952809 L38.4179775,5.6952809 L39.9164045,4.6247191 L41.6710112,4.11235955 L42.785618,2.0458427 C43.3096629,1.86426966 45.8741573,0.975280899 45.8741573,0.975280899 C45.8741573,0.975280899 45.032809,2.49977528 43.9092135,3.30606742 C42.785618,4.11235955 44.1644944,5.29078652 44.1644944,5.29078652 L45.6638202,5.11730337 L47.1164045,3.52539326 L48.8710112,2.79460674 L50.6265169,2.23640449 L48.5330337,5.2 L50.4152809,5.62966292 L52.261573,4.55910112 L54.1896629,4.55910112 L54.5366292,5.68359551 L54.5366292,6.80808989 L52.7829213,7.75011236 L50.2067416,8.43685393 L49.3474157,9.59820225 L52.1725843,9.38786517 L54.3110112,8.82966292 L55.7725843,8.95820225 L57.1433708,9.43370787 L57.7833708,10.3847191 L55.2970787,11.3725843 L56.4566292,12.451236 L58.6417978,12.7083146 L60.5249438,12.7083146 L62.378427,13.0094382 L63.4939326,13.6961798 L64.0970787,15.0768539 L65.5496629,16.0647191 L66.3253933,16.7586517 L64.4791011,18.3047191 L67.047191,19.2548315 L68.3361798,20.5447191 L68.9393258,21.7060674 L70.3550562,21.8346067 L67.4489888,22.6489888 L64.4764045,22.0907865 L62.5474157,22.7316854 L60.8377528,22.4755056 L60.1078652,21.185618 L59.0840449,20.4907865 L58.1797753,19.374382 L56.378427,19.0723596 L54.5339326,17.1424719 L52.0934831,16.1546067 L49.4714607,16.1546067 L47.1226966,16.8413483 L46.0907865,17.5352809 L46.3910112,19.52 L47.2503371,20.727191 L47.8534831,22.1078652 L46.7847191,23.6170787 L43.6674157,23.6170787 L40.4593258,23.6170787 L37.9820225,23.745618 L35.7968539,25.3824719 L36.5734831,26.2876404 L37.5973034,27.2386517 L39.534382,28.7469663 L41.1244944,28.8755056 L42.8413483,29.6898876 L45.0633708,31.6206742 L47.4211236,33.0391011 L49.861573,33.3402247 L51.9622472,32.9564045 L54.6966292,31.8849438 L57.091236,30.5132584 L59.2746067,30.3847191 L61.4588764,29.6979775 L63.7707865,29.6979775 L65.9550562,30.3847191 L67.3258427,32.2786517 L69.0435955,32.9644944 L72.0782022,33.2206742 L74.9024719,33.651236 L75.9802247,34.8206742 C75.9802247,34.8206742 77.9155056,33.4238202 77.9155056,35.9820225 C77.9155056,38.5402247 78.3910112,37.3626966 78.3910112,37.3626966 L77.5325843,38.908764 L74.8359551,39.4211236 L70.988764,39.2925843 L69.5802247,37.738427 L67.825618,36.7505618 L65.1757303,35.6260674 L62.7352809,34.4647191 L61.6206742,33.5137079 L60.0305618,32.8269663 L57.9667416,32.2238202 L56.1204494,32.6094382 L53.891236,34.0269663 L52.1276404,34.8035955 L55.811236,36.9537079 L58.6732584,38.1986517 L59.9523596,41.5388764 L61.0301124,43.3411236 L61.7977528,44.8952809 L62.5653933,46.1474157 L63.9820225,46.705618 L64.8853933,48.0404494 L67.2062921,49.1191011 L43.1361798,49.0444944 L43.9946067,47.0310112 L44.9447191,46.1707865 L46.6534831,44.6166292 L48.1231461,44.1860674 L48.6813483,43.0247191 L51.505618,42.851236 L52.8386517,42.0368539 L54.4737079,41.7806742 L55.6746067,41.7132584 L55.6746067,41.7132584 Z" id="Path-241" opacity="0.8404" fill="#43A435" sketch:type="MSShapeGroup"></path>
                <path d="M55.5110112,41.7734831 C55.5110112,41.7734831 52.814382,38.4530337 50.4206742,38.4530337 C48.0278652,38.4530337 43.818427,36.9725843 43.818427,36.9725843 L43.4741573,35.9397753 L43.0031461,34.8251685 L41.0283146,34.0089888 L36.4629213,31.6386517 L35.1847191,30.7029213 L33.7788764,29.8966292 L32.3811236,29.0885393 L32.2534831,27.8831461 L30.5492135,29.1253933 L28.6265169,30.8683146 L27.3851685,32.0197753 L26.0161798,33.9065169 L24.3191011,33.8813483 L26.0773034,32.1303371 L27.774382,30.2606742 L29.0525843,29.28 C29.0525843,29.28 30.0323596,28.821573 31.3114607,25.5739326 C32.5896629,22.327191 32.3811236,21.6575281 32.3811236,21.6575281 L33.6701124,20.0683146 L35.8804494,19.941573 C35.8804494,19.941573 37.1883146,20.2426966 38.0773034,20.2426966 C38.967191,20.2426966 40.4044944,20.3883146 40.4044944,20.3883146 L41.8040449,20.2426966 L43.3941573,20.8764045 L43.2170787,19.7348315 L41.6844944,15.2826966 L45.9955056,17.7914607 L46.2948315,19.76 L47.1469663,20.9564045 L47.745618,22.3262921 L46.6831461,23.8229213 L43.5901124,23.8229213 L40.4053933,23.8229213 L37.9469663,23.9496629 L36.0053933,25.4175281 L36.7406742,26.4161798 L37.7878652,27.3132584 L39.3824719,28.2930337 L41.0292135,28.9105618 L42.7703371,29.8453933 L45.6368539,31.6368539 L47.3141573,33.1667416 L49.5110112,33.1667416 L52.691236,32.6597753 L56.211236,31.0310112 L56.0305618,32.6597753 L54.145618,33.8795506 L52.0853933,34.8233708 L55.5119101,36.5842697 L58.6660674,38.1303371 L59.8948315,41.1901124 L61.2251685,42.9006742 L61.8957303,44.6516854 L62.5824719,46.094382 L64.1195506,46.654382 L65.0382022,47.818427 L66.952809,49.1164045 L43.061573,49.0426966 L43.912809,47.0453933 L44.8557303,46.1923596 L46.552809,44.6516854 L48.0116854,44.2247191 L48.5644944,43.0723596 L51.3680899,42.8997753 L52.691236,42.0916854 L54.3155056,41.8373034 L55.5110112,41.7734831 L55.5110112,41.7734831 Z" id="Path-242" fill="#8B572A" sketch:type="MSShapeGroup"></path>
                <path d="M38.3514607,51.7393258 L39.665618,55.4579775 C40.3101124,57.2835955 42.4089888,58.7649438 44.348764,58.7649438 L64.9635955,58.7649438 C66.9042697,58.7649438 68.8602247,57.2413483 69.3303371,55.3555056 L70.2346067,51.7402247 L38.3514607,51.7402247 L38.3514607,51.7393258 Z" id="Rectangle-391" fill="#646464" sketch:type="MSShapeGroup"></path>
                <path d="M39.9730337,49.0373034 L68.6130337,49.0373034 C71.5973034,49.0373034 74.0170787,50.0053933 74.0170787,51.1991011 L74.0170787,51.1991011 C74.0170787,52.392809 71.5982022,53.3608989 68.6130337,53.3608989 L39.9730337,53.3608989 C36.988764,53.3608989 34.5689888,52.392809 34.5689888,51.1991011 L34.5689888,51.1991011 C34.5689888,50.0053933 36.988764,49.0373034 39.9730337,49.0373034 L39.9730337,49.0373034 Z" id="Rectangle-390" fill="#827F7F" sketch:type="MSShapeGroup"></path>
                <g id="Imported-Layers" transform="translate(22.901934, 38.051519) rotate(192.000000) translate(-22.901934, -38.051519) translate(19.755867, 33.107699)" sketch:type="MSShapeGroup">
                    <path d="M5.09033708,0.516853933 C5.09033708,0.516853933 5.00314607,0.831460674 4.50337079,0.957303371 C4.50337079,0.957303371 2.31191011,1.51640449 1.1541573,4.16449438 C1.1541573,4.16449438 0.177977528,6.20134831 1.54516854,8.4952809 C1.54516854,8.4952809 1.77438202,8.40898876 2.1752809,7.46786517 C2.1752809,7.46786517 1.81662921,8.67235955 2.1294382,8.62202247 C2.1294382,8.62202247 4.27505618,8.31370787 5.31505618,5.79955056 C5.31505618,5.79955056 6.23191011,3.76449438 5.15505618,1.30247191 C5.15595506,1.30157303 5.05438202,0.71011236 5.09033708,0.516853933" id="Fill-1_2_" fill="#43A435"></path>
                    <path d="M1.35730337,9.52449438 L1.58651685,9.70337079 C1.58651685,9.70337079 2.00449438,8.66786517 2.38741573,8.61842697 C2.38741573,8.61842697 2.23820225,8.58247191 2.43865169,7.54157303 C2.43865169,7.54157303 2.00629213,8.23280899 1.71775281,8.50067416 C1.71775281,8.50067416 1.70516854,8.8458427 1.35730337,9.52449438" id="Fill-2_2_" fill="#B0AF90"></path>
                    <path d="M5.61438202,0.516853933 C5.61438202,0.516853933 4.55910112,3.81842697 2.61573034,7.93078652 C2.61573034,7.93078652 2.24629213,9.21617978 2.56988764,9.16224719 C2.56988764,9.16224719 4.77573034,8.83235955 5.84539326,6.15101124 C5.84539326,6.15101124 6.78921348,3.98022472 5.68179775,1.35460674 C5.68269663,1.35370787 5.57662921,0.723595506 5.61438202,0.516853933" id="Fill-3_2_" fill="#439A35"></path>
                </g>
                <g id="Imported-Layers-3" transform="translate(7.182357, 56.535061) rotate(256.000000) translate(-7.182357, -56.535061) translate(4.935166, 50.242926)" sketch:type="MSShapeGroup">
                    <path d="M3.60898876,1.08044944 C3.60898876,1.08044944 3.55235955,1.45258427 3.22966292,1.60089888 C3.22966292,1.60089888 1.81752809,2.26157303 1.06966292,5.39235955 C1.06966292,5.39235955 0.440449438,7.80044944 1.32224719,10.5123596 C1.32224719,10.5123596 1.4705618,10.4107865 1.7294382,9.29707865 C1.7294382,9.29707865 1.49752809,10.7217978 1.69977528,10.661573 C1.69977528,10.661573 3.08224719,10.2966292 3.75370787,7.32404494 C3.75370787,7.32404494 4.34426966,4.91955056 3.65033708,2.00808989 C3.65033708,2.00808989 3.58561798,1.30876404 3.60898876,1.08044944" id="Fill-1_3_" fill="#43A435"></path>
                    <path d="M1.20089888,11.7294382 L1.34831461,11.9406742 C1.34831461,11.9406742 1.61797753,10.7173034 1.86426966,10.6579775 C1.86426966,10.6579775 1.76808989,10.6157303 1.89752809,9.38516854 C1.89752809,9.38516854 1.6188764,10.2022472 1.43280899,10.5186517 C1.43370787,10.5186517 1.42561798,10.9258427 1.20089888,11.7294382" id="Fill-2_3_" fill="#B0AF90"></path>
                    <path d="M3.59820225,0.441348315 C3.59820225,0.441348315 2.91685393,4.34426966 1.6647191,9.20539326 C1.6647191,9.20539326 1.42651685,10.7253933 1.63505618,10.6606742 C1.63505618,10.6606742 3.05797753,10.2714607 3.74831461,7.1011236 C3.74831461,7.1011236 4.35685393,4.53483146 3.64224719,1.43101124 C3.64134831,1.43101124 3.57303371,0.68494382 3.59820225,0.441348315" id="Fill-3_3_" fill="#439A35"></path>
                </g>
                <g id="Imported-Layers-14" transform="translate(13.360723, 53.846094) rotate(-75.000000) translate(-13.360723, -53.846094) translate(12.012408, 49.801150)" sketch:type="MSShapeGroup">
                    <path d="M2.01168539,1.24404494 C2.01168539,1.24404494 1.97213483,1.46876404 1.74651685,1.55865169 C1.74651685,1.55865169 0.756853933,1.95955056 0.233707865,3.85348315 C0.233707865,3.85348315 -0.207640449,5.3105618 0.40988764,6.95101124 C0.40988764,6.95101124 0.513258427,6.89078652 0.694831461,6.21573034 C0.694831461,6.21573034 0.533033708,7.07775281 0.67505618,7.04179775 C0.67505618,7.04179775 1.64404494,6.82067416 2.11325843,5.02292135 C2.11325843,5.02292135 2.52674157,3.56674157 2.04134831,1.8058427 C2.04134831,1.80494382 1.99550562,1.38157303 2.01168539,1.24404494" id="Fill-1_4_" fill="#43A435"></path>
                    <path id="Fill-2_4_" fill="#B0AF90" d="M0.325393258,7.68719101 L0.428764045,7.81483146 C0.428764045,7.81483146 0.61752809,7.0741573 0.79011236,7.03820225 C0.79011236,7.03820225 0.722696629,7.01393258 0.813483146,6.26876404 C0.813483146,6.26876404 0.618426966,6.76404494 0.488089888,6.95460674 C0.488089888,6.95460674 0.482696629,7.20089888 0.325393258,7.68719101"></path>
                    <path d="M2.00449438,0.856629213 C2.00449438,0.856629213 1.52719101,3.21797753 0.64988764,6.16 C0.64988764,6.16 0.483595506,7.07955056 0.629213483,7.04089888 C0.629213483,7.04089888 1.62516854,6.80449438 2.10876404,4.88719101 C2.10876404,4.88719101 2.53483146,3.33573034 2.03505618,1.45617978 C2.03505618,1.45617978 1.98651685,1.00404494 2.00449438,0.856629213" id="Fill-3_4_" fill="#439A35"></path>
                </g>
                <g id="Imported-Layers-12" transform="translate(23.828964, 22.695351) rotate(-90.000000) translate(-23.828964, -22.695351) translate(20.682896, 17.302093)" sketch:type="MSShapeGroup">
                    <path d="M4.99146067,0.737977528 C4.99146067,0.737977528 4.90337079,1.05258427 4.40449438,1.17842697 C4.40449438,1.17842697 2.21303371,1.73842697 1.05438202,4.3847191 C1.05438202,4.3847191 0.0791011236,6.42157303 1.44629213,8.71550562 C1.44629213,8.71550562 1.67460674,8.62921348 2.07640449,7.68629213 C2.07640449,7.68629213 1.71775281,8.89258427 2.03146067,8.84044944 C2.03146067,8.84044944 4.17617978,8.53213483 5.21617978,6.01797753 C5.21617978,6.01797753 6.13303371,3.98292135 5.05617978,1.52179775 C5.05617978,1.52359551 4.95460674,0.930337079 4.99146067,0.737977528" id="Fill-1_5_" fill="#43A435"></path>
                    <path d="M1.25752809,9.7447191 L1.4858427,9.92359551 C1.4858427,9.92359551 1.9047191,8.88898876 2.2858427,8.83865169 C2.2858427,8.83865169 2.13662921,8.80359551 2.33797753,7.76269663 C2.33797753,7.76269663 1.90651685,8.45483146 1.61797753,8.72179775 C1.61797753,8.72179775 1.60539326,9.06606742 1.25752809,9.7447191" id="Fill-2_5_" fill="#B0AF90"></path>
                    <path d="M5.51460674,0.737977528 C5.51460674,0.737977528 4.45932584,4.03955056 2.51685393,8.15101124 C2.51685393,8.15101124 2.14741573,9.43730337 2.47011236,9.38247191 C2.47011236,9.38247191 4.67685393,9.05258427 5.74651685,6.37123596 C5.74651685,6.37123596 6.6894382,4.20044944 5.58202247,1.57393258 C5.58202247,1.57393258 5.47685393,0.943820225 5.51460674,0.737977528" id="Fill-3_5_" fill="#439A35"></path>
                </g>
                <g id="Imported-Layers-13" transform="translate(21.478906, 26.644163) rotate(233.000000) translate(-21.478906, -26.644163) translate(19.231715, 22.599219)" sketch:type="MSShapeGroup">
                    <path d="M3.47595506,0.401797753 C3.47595506,0.401797753 3.40764045,0.645393258 3.02022472,0.743370787 C3.02022472,0.743370787 1.32224719,1.17752809 0.425168539,3.22696629 C0.425168539,3.22696629 -0.330786517,4.80539326 0.728089888,6.58247191 C0.728089888,6.58247191 0.905168539,6.51595506 1.21617978,5.78606742 C1.21617978,5.78606742 0.93752809,6.71910112 1.18202247,6.67865169 C1.18202247,6.67865169 2.84314607,6.43955056 3.6494382,4.49168539 C3.6494382,4.49168539 4.35955056,2.91595506 3.52539326,1.00853933 C3.52629213,1.01033708 3.44719101,0.551910112 3.47595506,0.401797753" id="Fill-1_6_" fill="#43A435"></path>
                    <path d="M0.58247191,7.38067416 L0.759550562,7.51910112 C0.759550562,7.51910112 1.08404494,6.71730337 1.37977528,6.67865169 C1.37977528,6.67865169 1.2647191,6.65078652 1.41932584,5.84449438 C1.41932584,5.84449438 1.08494382,6.38022472 0.862022472,6.58876404 C0.862022472,6.58786517 0.852134831,6.85393258 0.58247191,7.38067416" id="Fill-2_6_" fill="#B0AF90"></path>
                    <path d="M3.88044944,0.402696629 C3.88044944,0.402696629 3.06337079,2.96 1.55865169,6.14561798 C1.55865169,6.14561798 1.27280899,7.14157303 1.52269663,7.09932584 C1.52269663,7.09932584 3.23146067,6.84404494 4.06022472,4.76674157 C4.06022472,4.76674157 4.79011236,3.0858427 3.93258427,1.05078652 C3.93258427,1.05078652 3.85258427,0.561797753 3.88044944,0.402696629" id="Fill-3_6_" fill="#439A35"></path>
                </g>
                <g id="Imported-Layers-8" transform="translate(9.134948, 42.028229) rotate(203.000000) translate(-9.134948, -42.028229) translate(5.988881, 37.084409)" sketch:type="MSShapeGroup">
                    <path d="M5.01393258,0.0350561798 C5.01393258,0.0350561798 4.92494382,0.349662921 4.42606742,0.476404494 C4.42606742,0.476404494 2.23460674,1.03640449 1.07685393,3.68359551 C1.07685393,3.68359551 0.101573034,5.72044944 1.46876404,8.01438202 C1.46876404,8.01438202 1.69707865,7.92898876 2.09977528,6.98696629 C2.09977528,6.98696629 1.74022472,8.19146067 2.05483146,8.14022472 C2.05483146,8.14022472 4.19955056,7.83101124 5.24044944,5.31775281 C5.24044944,5.31775281 6.15730337,3.28359551 5.07955056,0.821573034 C5.07775281,0.819775281 4.97617978,0.228314607 5.01393258,0.0350561798" id="Fill-1_7_" fill="#43A435"></path>
                    <path d="M1.27910112,9.04269663 L1.50831461,9.22247191 C1.50831461,9.22247191 1.92719101,8.18696629 2.30831461,8.13752809 C2.30831461,8.13752809 2.16,8.10157303 2.36044944,7.06067416 C2.36044944,7.06067416 1.92898876,7.75191011 1.64044944,8.01977528 C1.63955056,8.01977528 1.62786517,8.36404494 1.27910112,9.04269663" id="Fill-2_7_" fill="#B0AF90"></path>
                    <path d="M5.08314607,0.0350561798 C5.08314607,0.0350561798 4.17797753,3.13078652 2.51325843,6.98516854 C2.51325843,6.98516854 2.19685393,8.18966292 2.47280899,8.13932584 C2.47280899,8.13932584 4.36404494,7.83101124 5.28179775,5.31685393 C5.28179775,5.31685393 6.08988764,3.28269663 5.14067416,0.819775281 C5.14067416,0.819775281 5.05078652,0.228314607 5.08314607,0.0350561798" id="Fill-3_7_" fill="#439A35"></path>
                </g>
                <g id="Imported-Layers-4" transform="translate(18.698970, 36.733034) rotate(231.000000) translate(-18.698970, -36.733034) translate(16.901217, 33.586966)" sketch:type="MSShapeGroup">
                    <path d="M2.5941573,0.687640449 C2.5941573,0.687640449 2.54741573,0.852134831 2.28764045,0.917752809 C2.28764045,0.917752809 1.14516854,1.20988764 0.540224719,2.5905618 C0.540224719,2.5905618 0.0314606742,3.65123596 0.745168539,4.8494382 C0.745168539,4.8494382 0.864719101,4.80449438 1.0741573,4.31280899 C1.0741573,4.31280899 0.886292135,4.94202247 1.05078652,4.91505618 C1.05078652,4.91505618 2.16898876,4.7541573 2.71101124,3.44269663 C2.71101124,3.44269663 3.18921348,2.38202247 2.62741573,1.09752809 C2.62741573,1.09752809 2.5752809,0.788314607 2.5941573,0.687640449" id="Fill-1_8_" fill="#43A435"></path>
                    <path d="M0.646292135,5.38606742 L0.765842697,5.47955056 C0.765842697,5.47955056 0.984269663,4.94022472 1.18292135,4.9141573 C1.18292135,4.9141573 1.10561798,4.8952809 1.20988764,4.35235955 C1.20988764,4.35235955 0.984269663,4.71280899 0.834157303,4.85303371 C0.834157303,4.85303371 0.827865169,5.03191011 0.646292135,5.38606742" id="Fill-2_8_" fill="#B0AF90"></path>
                    <path d="M2.86651685,0.688539326 C2.86651685,0.688539326 2.31640449,2.40988764 1.30337079,4.55550562 C1.30337079,4.55550562 1.11011236,5.22606742 1.27910112,5.19730337 C1.27910112,5.19730337 2.42966292,5.02561798 2.98786517,3.62696629 C2.98786517,3.62696629 3.47865169,2.4952809 2.90247191,1.12539326 C2.90247191,1.12449438 2.84764045,0.795505618 2.86651685,0.688539326" id="Fill-3_8_" fill="#439A35"></path>
                </g>
                <g id="Imported-Layers-5" transform="translate(15.238828, 36.437847) rotate(233.000000) translate(-15.238828, -36.437847) translate(13.441075, 33.741217)" sketch:type="MSShapeGroup">
                    <path d="M2.75505618,0.419775281 C2.75505618,0.419775281 2.70921348,0.584269663 2.44853933,0.64988764 C2.44853933,0.64988764 1.30606742,0.941123596 0.702022472,2.32179775 C0.702022472,2.32179775 0.193258427,3.38426966 0.906966292,4.58067416 C0.906966292,4.58067416 1.02651685,4.53573034 1.23595506,4.04494382 C1.23595506,4.04494382 1.04808989,4.67325843 1.21258427,4.64629213 C1.21258427,4.64629213 2.33168539,4.48629213 2.87370787,3.17483146 C2.87370787,3.17483146 3.35191011,2.1141573 2.79101124,0.829662921 C2.79011236,0.828764045 2.73617978,0.520449438 2.75505618,0.419775281" id="Fill-1_9_" fill="#43A435"></path>
                    <path d="M0.808089888,5.11820225 L0.926741573,5.21078652 C0.926741573,5.21078652 1.14516854,4.6705618 1.3447191,4.64449438 C1.3447191,4.64449438 1.26741573,4.62561798 1.37168539,4.08359551 C1.37168539,4.08359551 1.14696629,4.44404494 0.995955056,4.58337079 C0.995955056,4.58426966 0.988764045,4.76404494 0.808089888,5.11820225" id="Fill-2_9_" fill="#B0AF90"></path>
                    <path d="M3.07146067,0.269662921 C3.07146067,0.269662921 2.52134831,1.99191011 1.50741573,4.13662921 C1.50741573,4.13662921 1.3141573,4.80808989 1.48314607,4.77932584 C1.48314607,4.77932584 2.63370787,4.60674157 3.19101124,3.20898876 C3.19101124,3.20898876 3.68359551,2.07730337 3.10651685,0.70741573 C3.10741573,0.706516854 3.05168539,0.378426966 3.07146067,0.269662921" id="Fill-3_9_" fill="#439A35"></path>
                </g>
                <g id="Imported-Layers-6" transform="translate(14.742270, 39.453814) rotate(229.000000) translate(-14.742270, -39.453814) translate(12.495079, 35.858309)" sketch:type="MSShapeGroup">
                    <path d="M3.56224719,0.27505618 C3.56224719,0.27505618 3.49932584,0.501573034 3.13797753,0.594157303 C3.13797753,0.594157303 1.55595506,0.996853933 0.718202247,2.90966292 C0.718202247,2.90966292 0.0143820225,4.3811236 1.00134831,6.03775281 C1.00134831,6.03775281 1.16674157,5.97573034 1.45707865,5.2952809 C1.45707865,5.2952809 1.19730337,6.16539326 1.4247191,6.12853933 C1.4247191,6.12853933 2.97438202,5.9047191 3.72494382,4.08988764 C3.72494382,4.08988764 4.38741573,2.62022472 3.60988764,0.842247191 C3.60988764,0.841348315 3.53617978,0.414382022 3.56224719,0.27505618" id="Fill-1_10_" fill="#43A435"></path>
                    <path d="M0.865617978,6.77932584 L1.03101124,6.90876404 C1.03101124,6.90876404 1.33303371,6.16089888 1.60898876,6.12494382 C1.60898876,6.12494382 1.5011236,6.09977528 1.6458427,5.34741573 C1.6458427,5.34741573 1.33393258,5.84629213 1.12629213,6.04044944 C1.12629213,6.04134831 1.11820225,6.2894382 0.865617978,6.77932584" id="Fill-2_10_" fill="#B0AF90"></path>
                    <path d="M3.5505618,0.08 C3.5505618,0.08 2.78831461,2.4647191 1.38606742,5.43370787 C1.38606742,5.43370787 1.11910112,6.36224719 1.35191011,6.32269663 C1.35191011,6.32269663 2.94561798,6.08449438 3.71775281,4.14831461 C3.71775281,4.14831461 4.39820225,2.58067416 3.59910112,0.68494382 C3.59910112,0.684044944 3.52269663,0.228314607 3.5505618,0.08" id="Fill-3_10_" fill="#439A35"></path>
                </g>
                <g id="Imported-Layers-5_1_" transform="translate(17.430655, 33.988508) rotate(-73.000000) translate(-17.430655, -33.988508) translate(15.632902, 31.291879)" sketch:type="MSShapeGroup">
                    <path d="M3.02651685,0.544719101 C3.02651685,0.544719101 2.97977528,0.708314607 2.71910112,0.773932584 C2.71910112,0.773932584 1.57662921,1.06606742 0.97258427,2.44764045 C0.97258427,2.44764045 0.463820225,3.50921348 1.17752809,4.70561798 C1.17752809,4.70561798 1.29617978,4.66067416 1.50651685,4.16988764 C1.50651685,4.16988764 1.31865169,4.79820225 1.48314607,4.77213483 C1.48314607,4.77213483 2.60134831,4.61033708 3.14426966,3.29977528 C3.14426966,3.29977528 3.62157303,2.23820225 3.06067416,0.954606742 C3.05977528,0.953707865 3.00674157,0.646292135 3.02651685,0.544719101" id="Fill-1_11_" fill="#43A435"></path>
                    <path d="M1.07865169,5.24224719 L1.19730337,5.33573034 C1.19730337,5.33573034 1.41573034,4.79640449 1.61438202,4.77033708 C1.61438202,4.77033708 1.53707865,4.75146067 1.64134831,4.2094382 C1.64134831,4.2094382 1.41573034,4.56898876 1.26561798,4.70921348 C1.26561798,4.70831461 1.26022472,4.88808989 1.07865169,5.24224719" id="Fill-2_11_" fill="#B0AF90"></path>
                    <path d="M3.01752809,0.826067416 C3.01752809,0.826067416 2.46651685,2.54741573 1.45348315,4.69303371 C1.45348315,4.69303371 1.2611236,5.36359551 1.42921348,5.33483146 C1.42921348,5.33483146 2.57977528,5.16314607 3.13707865,3.76449438 C3.13707865,3.76449438 3.62966292,2.63280899 3.05168539,1.26292135 C3.05168539,1.26292135 2.99685393,0.933932584 3.01752809,0.826067416" id="Fill-3_11_" fill="#439A35"></path>
                </g>
                <g id="Imported-Layers-7" transform="translate(11.154883, 37.658010) rotate(261.000000) translate(-11.154883, -37.658010) translate(9.806569, 34.961381)" sketch:type="MSShapeGroup">
                    <path d="M2.38292135,0.373932584 C2.38292135,0.373932584 2.33707865,0.538426966 2.07640449,0.60494382 C2.07640449,0.60494382 0.933932584,0.896179775 0.32988764,2.27595506 C0.32988764,2.27595506 -0.178876404,3.33842697 0.533932584,4.53483146 C0.533932584,4.53483146 0.65258427,4.49078652 0.862921348,3.99910112 C0.862921348,3.99910112 0.67505618,4.62741573 0.839550562,4.60044944 C0.839550562,4.60044944 1.95865169,4.43865169 2.50067416,3.12808989 C2.50067416,3.12808989 2.9788764,2.06831461 2.41797753,0.782921348 C2.41797753,0.782921348 2.36404494,0.474606742 2.38292135,0.373932584" id="Fill-1_12_" fill="#43A435"></path>
                    <path d="M0.435955056,5.07235955 L0.554606742,5.1658427 C0.554606742,5.1658427 0.773932584,4.62561798 0.971685393,4.59955056 C0.971685393,4.59955056 0.894382022,4.58067416 0.998651685,4.03775281 C0.998651685,4.03775281 0.773932584,4.39820225 0.623820225,4.53842697 C0.623820225,4.53842697 0.61752809,4.71730337 0.435955056,5.07235955" id="Fill-2_12_" fill="#B0AF90"></path>
                    <path d="M2.37393258,0.0925842697 C2.37393258,0.0925842697 1.82382022,1.81393258 0.810786517,3.95865169 C0.810786517,3.95865169 0.618426966,4.62831461 0.786516854,4.60044944 C0.786516854,4.60044944 1.93707865,4.42876404 2.4952809,3.03011236 C2.4952809,3.03011236 2.98696629,1.89752809 2.40988764,0.528539326 C2.40988764,0.528539326 2.35505618,0.198651685 2.37393258,0.0925842697" id="Fill-3_12_" fill="#439A35"></path>
                </g>
                <g id="Imported-Layers-9" transform="translate(7.926223, 38.208686) rotate(-90.000000) translate(-7.926223, -38.208686) translate(6.128470, 35.512057)" sketch:type="MSShapeGroup">
                    <path d="M2.65168539,0.600449438 C2.65168539,0.600449438 2.6058427,0.764044944 2.34516854,0.829662921 C2.34516854,0.829662921 1.20269663,1.12179775 0.598651685,2.50247191 C0.598651685,2.50247191 0.0898876404,3.56494382 0.802696629,4.76134831 C0.802696629,4.76134831 0.922247191,4.71640449 1.13168539,4.2247191 C1.13168539,4.2247191 0.944719101,4.85303371 1.10831461,4.82696629 C1.10831461,4.82696629 2.22741573,4.66516854 2.7694382,3.35460674 C2.7694382,3.35460674 3.24764045,2.29303371 2.6858427,1.0094382 C2.6858427,1.01033708 2.63280899,0.702022472 2.65168539,0.600449438" id="Fill-1_13_" fill="#43A435"></path>
                    <path d="M0.703820225,5.29797753 L0.823370787,5.39146067 C0.823370787,5.39146067 1.04179775,4.85123596 1.24044944,4.82516854 C1.24044944,4.82516854 1.16314607,4.80719101 1.26741573,4.26337079 C1.26741573,4.26337079 1.04179775,4.6247191 0.891685393,4.76404494 C0.89258427,4.76404494 0.885393258,4.94382022 0.703820225,5.29797753" id="Fill-2_13_" fill="#B0AF90"></path>
                    <path d="M2.64269663,0.319101124 C2.64269663,0.319101124 2.09258427,2.04044944 1.07955056,4.18516854 C1.07955056,4.18516854 0.886292135,4.85573034 1.0552809,4.82786517 C1.0552809,4.82786517 2.2058427,4.65617978 2.76404494,3.25752809 C2.76404494,3.25752809 3.25573034,2.12494382 2.67775281,0.755955056 C2.67775281,0.75505618 2.62292135,0.426067416 2.64269663,0.319101124" id="Fill-3_13_" fill="#439A35"></path>
                </g>
                <g id="Imported-Layers-10" transform="translate(29.948695, 23.377225) rotate(-90.000000) translate(-29.948695, -23.377225) translate(28.150942, 20.231158)" sketch:type="MSShapeGroup">
                    <path d="M2.68044944,0.642696629 C2.68044944,0.642696629 2.63460674,0.807191011 2.37393258,0.872808989 C2.37393258,0.872808989 1.23146067,1.16404494 0.62741573,2.5447191 C0.62741573,2.5447191 0.118651685,3.60719101 0.831460674,4.80359551 C0.831460674,4.80359551 0.951011236,4.75865169 1.16044944,4.26696629 C1.16044944,4.26696629 0.973483146,4.8952809 1.13707865,4.86921348 C1.13707865,4.86921348 2.25617978,4.70741573 2.79820225,3.39685393 C2.79820225,3.39685393 3.27640449,2.3352809 2.71460674,1.05258427 C2.71460674,1.05258427 2.66157303,0.744269663 2.68044944,0.642696629" id="Fill-1_14_" fill="#43A435"></path>
                    <path d="M0.733483146,5.3411236 L0.852134831,5.43460674 C0.852134831,5.43460674 1.0705618,4.89438202 1.26921348,4.86921348 C1.26921348,4.86921348 1.19191011,4.85033708 1.29617978,4.30651685 C1.29617978,4.30651685 1.07146067,4.66786517 0.920449438,4.80719101 C0.921348315,4.80629213 0.914157303,4.98606742 0.733483146,5.3411236" id="Fill-2_14_" fill="#B0AF90"></path>
                    <path d="M2.67146067,0.361348315 C2.67146067,0.361348315 2.12134831,2.08269663 1.10831461,4.22741573 C1.10831461,4.22741573 0.915955056,4.89797753 1.08404494,4.87011236 C1.08404494,4.87011236 2.23460674,4.69842697 2.79280899,3.30067416 C2.79280899,3.30067416 3.28449438,2.16719101 2.70651685,0.798202247 C2.70651685,0.797303371 2.65258427,0.469213483 2.67146067,0.361348315" id="Fill-3_14_" fill="#439A35"></path>
                </g>
                <g id="Imported-Layers-15" transform="translate(19.162178, 23.377225) rotate(-90.000000) translate(-19.162178, -23.377225) translate(17.364425, 20.231158)" sketch:type="MSShapeGroup">
                    <path d="M2.68044944,1.16134831 C2.68044944,1.16134831 2.63460674,1.3258427 2.37393258,1.39146067 C2.37393258,1.39146067 1.23146067,1.68269663 0.62741573,3.06337079 C0.62741573,3.06337079 0.118651685,4.12674157 0.831460674,5.32314607 C0.831460674,5.32314607 0.951011236,5.27820225 1.16044944,4.78651685 C1.16044944,4.78651685 0.973483146,5.41483146 1.13707865,5.38876404 C1.13707865,5.38876404 2.25617978,5.22696629 2.79820225,3.91640449 C2.79820225,3.91640449 3.27640449,2.85393258 2.71460674,1.57123596 C2.71460674,1.57213483 2.66157303,1.26382022 2.68044944,1.16134831" id="Fill-1_15_" fill="#43A435"></path>
                    <path d="M0.733483146,5.85977528 L0.852134831,5.95325843 C0.852134831,5.95325843 1.0705618,5.41303371 1.26921348,5.38696629 C1.26921348,5.38696629 1.19191011,5.36808989 1.29617978,4.82516854 C1.29617978,4.82516854 1.07146067,5.18561798 0.920449438,5.3258427 C0.921348315,5.3258427 0.914157303,5.50561798 0.733483146,5.85977528" id="Fill-2_15_" fill="#B0AF90"></path>
                    <path d="M2.67146067,0.880898876 C2.67146067,0.880898876 2.12134831,2.60224719 1.10831461,4.74696629 C1.10831461,4.74696629 0.915955056,5.41752809 1.08404494,5.38966292 C1.08404494,5.38966292 2.23460674,5.21797753 2.79280899,3.81932584 C2.79280899,3.81932584 3.28449438,2.68674157 2.70651685,1.31775281 C2.70651685,1.31685393 2.65258427,0.987865169 2.67146067,0.880898876" id="Fill-3_15_" fill="#439A35"></path>
                </g>
                <g id="Imported-Layers-16" transform="translate(17.852107, 21.010641) rotate(-77.000000) translate(-17.852107, -21.010641) translate(16.054354, 18.314011)" sketch:type="MSShapeGroup">
                    <path d="M3.10022472,0.418876404 C3.10022472,0.418876404 3.05438202,0.583370787 2.79370787,0.648988764 C2.79370787,0.648988764 1.65123596,0.940224719 1.04719101,2.32179775 C1.04719101,2.32179775 0.538426966,3.38426966 1.25123596,4.57977528 C1.25123596,4.57977528 1.37078652,4.53483146 1.58022472,4.04404494 C1.58022472,4.04404494 1.39325843,4.67146067 1.55595506,4.64539326 C1.55595506,4.64539326 2.67505618,4.48539326 3.21707865,3.17393258 C3.21707865,3.17393258 3.6952809,2.11235955 3.13348315,0.828764045 C3.13438202,0.827865169 3.08134831,0.519550562 3.10022472,0.418876404" id="Fill-1_16_" fill="#43A435"></path>
                    <path d="M1.15235955,5.11640449 L1.27191011,5.21078652 C1.27191011,5.21078652 1.49033708,4.6705618 1.68898876,4.64449438 C1.68898876,4.64449438 1.61168539,4.62651685 1.71595506,4.08359551 C1.71595506,4.08359551 1.49123596,4.44314607 1.34022472,4.58337079 C1.3411236,4.58337079 1.33483146,4.76314607 1.15235955,5.11640449" id="Fill-2_16_" fill="#B0AF90"></path>
                    <path d="M3.09213483,0.136629213 C3.09213483,0.136629213 2.5411236,1.8588764 1.52808989,4.00359551 C1.52808989,4.00359551 1.33573034,4.6741573 1.50382022,4.64629213 C1.50382022,4.64629213 2.65438202,4.47370787 3.21258427,3.07505618 C3.21258427,3.07505618 3.70426966,1.94337079 3.12719101,0.574382022 C3.12719101,0.573483146 3.07235955,0.244494382 3.09213483,0.136629213" id="Fill-3_16_" fill="#439A35"></path>
                </g>
                <g id="Imported-Layers-17" transform="translate(17.099176, 25.703188) rotate(231.000000) translate(-17.099176, -25.703188) translate(15.301423, 22.557121)" sketch:type="MSShapeGroup">
                    <path d="M2.55640449,1.11730337 C2.55640449,1.11730337 2.5105618,1.28179775 2.24988764,1.34741573 C2.24988764,1.34741573 1.10741573,1.63865169 0.50247191,3.0211236 C0.50247191,3.0211236 -0.00539325843,4.08269663 0.706516854,5.28 C0.706516854,5.28 0.826067416,5.2341573 1.03550562,4.74337079 C1.03550562,4.74337079 0.848539326,5.37258427 1.01213483,5.3447191 C1.01213483,5.3447191 2.13033708,5.18382022 2.67325843,3.87325843 C2.67325843,3.87325843 3.15146067,2.81258427 2.58966292,1.52808989 C2.5905618,1.52719101 2.53752809,1.21797753 2.55640449,1.11730337" id="Fill-1_17_" fill="#43A435"></path>
                    <path d="M0.608539326,5.81573034 L0.728089888,5.90831461 C0.728089888,5.90831461 0.945617978,5.36898876 1.14606742,5.34292135 C1.14606742,5.34292135 1.06786517,5.32494382 1.17303371,4.7811236 C1.17303371,4.7811236 0.948314607,5.14157303 0.797303371,5.28179775 C0.797303371,5.28179775 0.791011236,5.46157303 0.608539326,5.81573034" id="Fill-2_17_" fill="#B0AF90"></path>
                    <path d="M2.54831461,0.83505618 C2.54831461,0.83505618 1.99730337,2.55730337 0.984269663,4.70202247 C0.984269663,4.70202247 0.791910112,5.37258427 0.96,5.34382022 C0.96,5.34382022 2.1105618,5.17213483 2.66876404,3.77258427 C2.66876404,3.77258427 3.16044944,2.64089888 2.58247191,1.27101124 C2.58247191,1.27191011 2.52764045,0.942921348 2.54831461,0.83505618" id="Fill-3_17_" fill="#439A35"></path>
                </g>
                <g id="Imported-Layers-18" transform="translate(17.914527, 28.941482) rotate(231.000000) translate(-17.914527, -28.941482) translate(16.116774, 26.244852)" sketch:type="MSShapeGroup">
                    <path d="M2.68404494,0.417078652 C2.68404494,0.417078652 2.63730337,0.581573034 2.37842697,0.647191011 C2.37842697,0.647191011 1.23505618,0.939325843 0.631011236,2.32 C0.631011236,2.32 0.122247191,3.38247191 0.83505618,4.57797753 C0.83505618,4.57797753 0.954606742,4.53393258 1.16404494,4.04224719 C1.16404494,4.04224719 0.977078652,4.66966292 1.14067416,4.64359551 C1.14067416,4.64359551 2.2588764,4.48269663 2.80179775,3.17213483 C2.80179775,3.17213483 3.28,2.11146067 2.71820225,0.826966292 C2.71820225,0.826966292 2.66516854,0.517752809 2.68404494,0.417078652" id="Fill-1_18_" fill="#43A435"></path>
                    <path d="M0.737078652,5.11550562 L0.856629213,5.20898876 C0.856629213,5.20898876 1.07505618,4.66876404 1.27370787,4.64359551 C1.27370787,4.64359551 1.19640449,4.6247191 1.30067416,4.08269663 C1.30067416,4.08269663 1.07595506,4.44314607 0.92494382,4.58247191 C0.92494382,4.58247191 0.917752809,4.76224719 0.737078652,5.11550562" id="Fill-2_18_" fill="#B0AF90"></path>
                    <path d="M2.67595506,0.135730337 C2.67595506,0.135730337 2.12494382,1.85707865 1.11191011,4.00179775 C1.11191011,4.00179775 0.918651685,4.67235955 1.08674157,4.64449438 C1.08674157,4.64449438 2.23820225,4.47191011 2.79550562,3.07325843 C2.79550562,3.07325843 3.28719101,1.94157303 2.70921348,0.571685393 C2.71011236,0.57258427 2.6552809,0.243595506 2.67595506,0.135730337" id="Fill-3_18_" fill="#439A35"></path>
                </g>
                <g id="Imported-Layers-19" transform="translate(15.250066, 28.125752) rotate(231.000000) translate(-15.250066, -28.125752) translate(13.452313, 25.429123)" sketch:type="MSShapeGroup">
                    <path d="M2.84314607,0.497977528 C2.84314607,0.497977528 2.79640449,0.66247191 2.53662921,0.728089888 C2.53662921,0.728089888 1.3941573,1.02022472 0.789213483,2.40089888 C0.789213483,2.40089888 0.280449438,3.46337079 0.993258427,4.6588764 C0.993258427,4.6588764 1.11280899,4.61483146 1.32224719,4.12314607 C1.32224719,4.12314607 1.1352809,4.75146067 1.2988764,4.72449438 C1.2988764,4.72449438 2.41707865,4.56359551 2.96,3.25303371 C2.96,3.25303371 3.43820225,2.19235955 2.87640449,0.907865169 C2.87730337,0.907865169 2.82426966,0.598651685 2.84314607,0.497977528" id="Fill-1_19_" fill="#43A435"></path>
                    <path d="M0.896179775,5.19640449 L1.01573034,5.28988764 C1.01573034,5.28988764 1.2341573,4.74966292 1.43280899,4.72449438 C1.43280899,4.72449438 1.35550562,4.70561798 1.45977528,4.16359551 C1.45977528,4.16359551 1.23505618,4.52404494 1.08404494,4.66337079 C1.08404494,4.66337079 1.07685393,4.84224719 0.896179775,5.19640449" id="Fill-2_19_" fill="#B0AF90"></path>
                    <path d="M2.83505618,0.216629213 C2.83505618,0.216629213 2.28404494,1.9388764 1.27101124,4.08269663 C1.27101124,4.08269663 1.07775281,4.75325843 1.24674157,4.72449438 C1.24674157,4.72449438 2.39730337,4.55280899 2.95460674,3.1541573 C2.95460674,3.1541573 3.44629213,2.02247191 2.86831461,0.65258427 C2.86921348,0.653483146 2.81438202,0.324494382 2.83505618,0.216629213" id="Fill-3_19_" fill="#439A35"></path>
                </g>
                <g id="Imported-Layers-11" transform="translate(26.515146, 27.723809) rotate(219.000000) translate(-26.515146, -27.723809) translate(23.369079, 21.881112)" sketch:type="MSShapeGroup">
                    <path d="M5.20719101,1.14067416 C5.20719101,1.14067416 5.10921348,1.49123596 4.55370787,1.63146067 C4.55370787,1.63146067 2.11685393,2.25348315 0.828764045,5.19820225 C0.828764045,5.19820225 -0.256179775,7.46337079 1.26382022,10.0152809 C1.26382022,10.0152809 1.51820225,9.92 1.96494382,8.87101124 C1.96494382,8.87101124 1.56494382,10.2130337 1.91370787,10.1555056 C1.91370787,10.1555056 4.3011236,9.81123596 5.45797753,7.01483146 C5.45797753,7.01483146 6.47730337,4.75235955 5.28,2.01348315 C5.27910112,2.01438202 5.1658427,1.35640449 5.20719101,1.14067416" id="Fill-1_20_" fill="#43A435"></path>
                    <path d="M1.05348315,11.1613483 L1.30786517,11.36 C1.30786517,11.36 1.77348315,10.2085393 2.19775281,10.1537079 C2.19775281,10.1537079 2.03235955,10.1141573 2.2552809,8.95640449 C2.2552809,8.95640449 1.7752809,9.72494382 1.4552809,10.0224719 C1.4552809,10.0224719 1.44089888,10.4053933 1.05348315,11.1613483" id="Fill-2_20_" fill="#B0AF90"></path>
                    <path d="M5.18831461,0.841348315 C5.18831461,0.841348315 4.01438202,4.51325843 1.85348315,9.08764045 C1.85348315,9.08764045 1.44359551,10.5168539 1.80134831,10.4566292 C1.80134831,10.4566292 4.25617978,10.0898876 5.44629213,7.10741573 C5.44629213,7.10741573 6.4952809,4.69393258 5.26382022,1.77258427 C5.26292135,1.77168539 5.14606742,1.0705618 5.18831461,0.841348315" id="Fill-3_20_" fill="#439A35"></path>
                </g>
                <g id="Imported-Layers-21" transform="translate(13.305126, 23.399822) rotate(260.000000) translate(-13.305126, -23.399822) translate(9.709621, 17.557126)" sketch:type="MSShapeGroup">
                    <path d="M5.6458427,0.823370787 C5.6458427,0.823370787 5.54786517,1.17213483 4.99235955,1.31325843 C4.99235955,1.31325843 2.55550562,1.9352809 1.26651685,4.88 C1.26651685,4.88 0.181573034,7.14516854 1.70247191,9.69707865 C1.70247191,9.69707865 1.95775281,9.60089888 2.40359551,8.55370787 C2.40359551,8.55370787 2.00449438,9.89393258 2.35325843,9.83820225 C2.35325843,9.83820225 4.73977528,9.49393258 5.89662921,6.69752809 C5.89662921,6.69752809 6.91685393,4.4341573 5.71865169,1.6952809 C5.71865169,1.6952809 5.60539326,1.03820225 5.6458427,0.823370787" id="Fill-1_21_" fill="#43A435"></path>
                    <path d="M1.49213483,10.8422472 L1.74651685,11.0408989 C1.74651685,11.0408989 2.21213483,9.8894382 2.63640449,9.83370787 C2.63640449,9.83370787 2.47101124,9.79505618 2.69393258,8.63640449 C2.69393258,8.63640449 2.21393258,9.4058427 1.89303371,9.70426966 C1.89393258,9.70516854 1.87955056,10.087191 1.49213483,10.8422472" id="Fill-2_21_" fill="#B0AF90"></path>
                    <path d="M5.62696629,0.522247191 C5.62696629,0.522247191 4.45303371,4.1941573 2.29303371,8.76853933 C2.29303371,8.76853933 1.88224719,10.1977528 2.24089888,10.138427 C2.24089888,10.138427 4.69573034,9.77168539 5.88494382,6.78921348 C5.88494382,6.78921348 6.93393258,4.37483146 5.70247191,1.45348315 C5.70157303,1.45348315 5.58561798,0.752359551 5.62696629,0.522247191" id="Fill-3_21_" fill="#439A35"></path>
                </g>
                <g id="Imported-Layers-29" transform="translate(35.963795, 11.908834) rotate(-90.000000) translate(-35.963795, -11.908834) translate(32.817728, 6.965014)" sketch:type="MSShapeGroup">
                    <path d="M5.01213483,0.58247191 C5.01213483,0.58247191 4.92404494,0.897078652 4.42516854,1.02292135 C4.42516854,1.02292135 2.23370787,1.58292135 1.07505618,4.22921348 C1.07505618,4.22921348 0.0997752809,6.26606742 1.46696629,8.55910112 C1.46696629,8.55910112 1.6952809,8.47370787 2.09707865,7.53168539 C2.09707865,7.53168539 1.73842697,8.73617978 2.05213483,8.68494382 C2.05213483,8.68494382 4.19685393,8.37573034 5.23685393,5.86157303 C5.23685393,5.86157303 6.15370787,3.82651685 5.07685393,1.36539326 C5.07775281,1.36719101 4.97617978,0.775730337 5.01213483,0.58247191" id="Fill-1_22_" fill="#43A435"></path>
                    <path d="M1.27910112,9.59011236 L1.50741573,9.76808989 C1.50741573,9.76808989 1.92629213,8.73348315 2.30741573,8.68314607 C2.30741573,8.68314607 2.15820225,8.64808989 2.35955056,7.60719101 C2.35955056,7.60719101 1.92808989,8.29842697 1.63955056,8.56629213 C1.63955056,8.56719101 1.62696629,8.9105618 1.27910112,9.59011236" id="Fill-2_22_" fill="#B0AF90"></path>
                    <path d="M5.53617978,0.58247191 C5.53617978,0.58247191 4.48089888,3.88404494 2.53842697,7.99550562 C2.53842697,7.99550562 2.16898876,9.28179775 2.49168539,9.22696629 C2.49168539,9.22696629 4.69752809,8.89707865 5.76808989,6.21573034 C5.76808989,6.21573034 6.71101124,4.0458427 5.60359551,1.41932584 C5.60359551,1.41932584 5.49842697,0.788314607 5.53617978,0.58247191" id="Fill-3_22_" fill="#439A35"></path>
                </g>
                <g id="Imported-Layers-28" transform="translate(34.079525, 15.875997) rotate(233.000000) translate(-34.079525, -15.875997) translate(31.832334, 11.831053)" sketch:type="MSShapeGroup">
                    <path d="M3.61078652,0.288539326 C3.61078652,0.288539326 3.54247191,0.533033708 3.15595506,0.63011236 C3.15595506,0.63011236 1.45797753,1.06337079 0.56,3.11460674 C0.56,3.11460674 -0.19505618,4.69213483 0.863820225,6.46921348 C0.863820225,6.46921348 1.04089888,6.40269663 1.35280899,5.67280899 C1.35280899,5.67280899 1.07505618,6.60674157 1.31775281,6.56629213 C1.31775281,6.56629213 2.9788764,6.32808989 3.78516854,4.38022472 C3.78516854,4.38022472 4.4952809,2.80449438 3.6611236,0.897078652 C3.6611236,0.897078652 3.58202247,0.438651685 3.61078652,0.288539326" id="Fill-1_23_" fill="#43A435"></path>
                    <path d="M0.717303371,7.26741573 L0.894382022,7.4058427 C0.894382022,7.4058427 1.2188764,6.60404494 1.51460674,6.56539326 C1.51460674,6.56539326 1.39955056,6.53752809 1.55505618,5.73213483 C1.55505618,5.73213483 1.22067416,6.26696629 0.997752809,6.47460674 C0.997752809,6.47370787 0.987865169,6.74067416 0.717303371,7.26741573" id="Fill-2_23_" fill="#B0AF90"></path>
                    <path d="M4.01617978,0.289438202 C4.01617978,0.289438202 3.19910112,2.8458427 1.69348315,6.03235955 C1.69348315,6.03235955 1.40764045,7.02831461 1.65752809,6.98606742 C1.65752809,6.98606742 3.36629213,6.73078652 4.19595506,4.65348315 C4.19595506,4.65348315 4.92674157,2.97168539 4.06831461,0.93752809 C4.06831461,0.93752809 3.98741573,0.448539326 4.01617978,0.289438202" id="Fill-3_23_" fill="#439A35"></path>
                </g>
                <g id="Imported-Layers-27" transform="translate(42.083526, 12.590708) rotate(-90.000000) translate(-42.083526, -12.590708) translate(40.285773, 9.894079)" sketch:type="MSShapeGroup">
                    <path d="M2.7011236,0.487191011 C2.7011236,0.487191011 2.6552809,0.650786517 2.39460674,0.717303371 C2.39460674,0.717303371 1.25213483,1.00853933 0.648089888,2.38921348 C0.648089888,2.38921348 0.139325843,3.45258427 0.853033708,4.64808989 C0.853033708,4.64808989 0.97258427,4.60314607 1.18202247,4.11146067 C1.18202247,4.11146067 0.99505618,4.74067416 1.15865169,4.71370787 C1.15865169,4.71370787 2.27775281,4.55280899 2.82067416,3.24134831 C2.82067416,3.24134831 3.2988764,2.1788764 2.73707865,0.896179775 C2.73617978,0.897078652 2.68224719,0.588764045 2.7011236,0.487191011" id="Fill-1_24_" fill="#43A435"></path>
                    <path d="M0.754157303,5.18561798 L0.873707865,5.27910112 C0.873707865,5.27910112 1.09213483,4.7388764 1.29078652,4.71370787 C1.29078652,4.71370787 1.21348315,4.69483146 1.31775281,4.15101124 C1.31775281,4.15101124 1.09303371,4.51146067 0.942022472,4.65168539 C0.942022472,4.65078652 0.936629213,4.83146067 0.754157303,5.18561798" id="Fill-2_24_" fill="#B0AF90"></path>
                    <path d="M2.69303371,0.205842697 C2.69303371,0.205842697 2.14292135,1.92719101 1.12898876,4.07191011 C1.12898876,4.07191011 0.936629213,4.74247191 1.1047191,4.71460674 C1.1047191,4.71460674 2.2552809,4.54382022 2.81348315,3.14426966 C2.81348315,3.14426966 3.30516854,2.01168539 2.72808989,0.642696629 C2.72808989,0.641797753 2.67325843,0.313707865 2.69303371,0.205842697" id="Fill-3_24_" fill="#439A35"></path>
                </g>
                <g id="Imported-Layers-26" transform="translate(31.746448, 12.590708) rotate(-90.000000) translate(-31.746448, -12.590708) translate(29.948695, 9.444641)" sketch:type="MSShapeGroup">
                    <path d="M2.7011236,1.00764045 C2.7011236,1.00764045 2.6552809,1.17123596 2.39460674,1.23685393 C2.39460674,1.23685393 1.25213483,1.52898876 0.648089888,2.90876404 C0.648089888,2.90876404 0.139325843,3.97213483 0.853033708,5.16853933 C0.853033708,5.16853933 0.97258427,5.12359551 1.18202247,4.63101124 C1.18202247,4.63101124 0.99505618,5.26022472 1.15865169,5.23325843 C1.15865169,5.23325843 2.27775281,5.07235955 2.82067416,3.76179775 C2.82067416,3.76179775 3.2988764,2.69932584 2.73707865,1.41662921 C2.73617978,1.41662921 2.68224719,1.10741573 2.7011236,1.00764045" id="Fill-1_25_" fill="#43A435"></path>
                    <path d="M0.754157303,5.70426966 L0.873707865,5.79775281 C0.873707865,5.79775281 1.09213483,5.25662921 1.29078652,5.23146067 C1.29078652,5.23146067 1.21348315,5.21258427 1.31775281,4.66966292 C1.31775281,4.66966292 1.09303371,5.03011236 0.942022472,5.17033708 C0.942022472,5.17033708 0.936629213,5.35101124 0.754157303,5.70426966" id="Fill-2_25_" fill="#B0AF90"></path>
                    <path d="M2.69303371,0.724494382 C2.69303371,0.724494382 2.14292135,2.44674157 1.12898876,4.59146067 C1.12898876,4.59146067 0.936629213,5.26202247 1.1047191,5.23325843 C1.1047191,5.23325843 2.2552809,5.06247191 2.81348315,3.66382022 C2.81348315,3.66382022 3.30516854,2.53123596 2.72808989,1.16224719 C2.72808989,1.16134831 2.67325843,0.832359551 2.69303371,0.724494382" id="Fill-3_25_" fill="#439A35"></path>
                </g>
                <g id="Imported-Layers-25" transform="translate(30.474466, 9.938154) rotate(-77.000000) translate(-30.474466, -9.938154) translate(29.126152, 7.241524)" sketch:type="MSShapeGroup">
                    <path d="M2.34966292,0.289438202 C2.34966292,0.289438202 2.30382022,0.453932584 2.04314607,0.519550562 C2.04314607,0.519550562 0.900674157,0.811685393 0.296629213,2.19235955 C0.296629213,2.19235955 -0.212134831,3.25483146 0.500674157,4.45123596 C0.500674157,4.45123596 0.620224719,4.40539326 0.829662921,3.91370787 C0.829662921,3.91370787 0.642696629,4.54202247 0.806292135,4.51505618 C0.806292135,4.51505618 1.92539326,4.3541573 2.46741573,3.04359551 C2.46741573,3.04359551 2.94561798,1.98202247 2.38382022,0.698426966 C2.38292135,0.698426966 2.32988764,0.39011236 2.34966292,0.289438202" id="Fill-1_26_" fill="#43A435"></path>
                    <path d="M0.401797753,4.98786517 L0.521348315,5.08224719 C0.521348315,5.08224719 0.739775281,4.5411236 0.938426966,4.51595506 C0.938426966,4.51595506 0.860224719,4.49707865 0.965393258,3.9541573 C0.965393258,3.9541573 0.739775281,4.31460674 0.590561798,4.45483146 C0.590561798,4.45393258 0.583370787,4.63460674 0.401797753,4.98786517" id="Fill-2_26_" fill="#B0AF90"></path>
                    <path d="M2.34067416,0.00808988764 C2.34067416,0.00808988764 1.78966292,1.7294382 0.776629213,3.8741573 C0.776629213,3.8741573 0.584269663,4.5447191 0.753258427,4.51685393 C0.753258427,4.51685393 1.90382022,4.34516854 2.46202247,2.94561798 C2.46202247,2.94561798 2.95370787,1.81393258 2.37662921,0.44494382 C2.37573034,0.44494382 2.32089888,0.115955056 2.34067416,0.00808988764" id="Fill-3_26_" fill="#439A35"></path>
                </g>
                <g id="Imported-Layers-20" transform="translate(27.541525, 16.936399) rotate(231.000000) translate(-27.541525, -16.936399) translate(25.743772, 14.239770)" sketch:type="MSShapeGroup">
                    <path d="M2.4611236,0.36494382 C2.4611236,0.36494382 2.4152809,0.528539326 2.15460674,0.594157303 C2.15460674,0.594157303 1.01123596,0.886292135 0.407191011,2.26696629 C0.407191011,2.26696629 -0.101573034,3.3294382 0.612134831,4.5258427 C0.612134831,4.5258427 0.731685393,4.48089888 0.940224719,3.99011236 C0.940224719,3.99011236 0.753258427,4.61842697 0.916853933,4.59146067 C0.916853933,4.59146067 2.03505618,4.42966292 2.57797753,3.11910112 C2.57797753,3.11910112 3.05617978,2.05752809 2.4952809,0.773932584 C2.49438202,0.773932584 2.44134831,0.465617978 2.4611236,0.36494382" id="Fill-1_27_" fill="#43A435"></path>
                    <path d="M0.512359551,5.06247191 L0.631910112,5.15595506 C0.631910112,5.15595506 0.850337079,4.61573034 1.04898876,4.5905618 C1.04898876,4.5905618 0.971685393,4.57168539 1.07595506,4.02876404 C1.07595506,4.02876404 0.850337079,4.38921348 0.700224719,4.5294382 C0.700224719,4.5294382 0.694831461,4.70831461 0.512359551,5.06247191" id="Fill-2_27_" fill="#B0AF90"></path>
                    <path d="M2.45213483,0.0826966292 C2.45213483,0.0826966292 1.90202247,1.80404494 0.888089888,3.94876404 C0.888089888,3.94876404 0.694831461,4.61932584 0.862921348,4.59146067 C0.862921348,4.59146067 2.01438202,4.4188764 2.57168539,3.0211236 C2.57168539,3.0211236 3.06337079,1.88853933 2.48539326,0.519550562 C2.48629213,0.519550562 2.43235955,0.190561798 2.45213483,0.0826966292" id="Fill-3_27_" fill="#439A35"></path>
                </g>
                <g id="Imported-Layers-22" transform="translate(25.699042, 12.815154) rotate(260.000000) translate(-25.699042, -12.815154) translate(22.552975, 7.421895)" sketch:type="MSShapeGroup">
                    <path d="M5.41033708,0.446741573 C5.41033708,0.446741573 5.31235955,0.796404494 4.75685393,0.93752809 C4.75685393,0.93752809 2.32,1.55955056 1.03101124,4.50426966 C1.03101124,4.50426966 -0.0539325843,6.7694382 1.46696629,9.32134831 C1.46696629,9.32134831 1.72224719,9.22516854 2.16808989,8.17797753 C2.16808989,8.17797753 1.76898876,9.51820225 2.11775281,9.46247191 C2.11775281,9.46247191 4.50426966,9.11820225 5.6611236,6.32179775 C5.6611236,6.32179775 6.68134831,4.05842697 5.48314607,1.31955056 C5.48314607,1.31955056 5.36988764,0.66247191 5.41033708,0.446741573" id="Fill-1_28_" fill="#43A435"></path>
                    <path d="M1.25662921,10.4665169 L1.51101124,10.6651685 C1.51101124,10.6651685 1.97662921,9.51370787 2.40089888,9.45797753 C2.40089888,9.45797753 2.23550562,9.41932584 2.45842697,8.26067416 C2.45842697,8.26067416 1.97842697,9.03011236 1.65752809,9.32853933 C1.65842697,9.32853933 1.64404494,9.7105618 1.25662921,10.4665169" id="Fill-2_28_" fill="#B0AF90"></path>
                    <path d="M5.39146067,0.146516854 C5.39146067,0.146516854 4.21752809,3.81842697 2.05662921,8.39280899 C2.05662921,8.39280899 1.6458427,9.82292135 2.00539326,9.76269663 C2.00539326,9.76269663 4.45932584,9.39595506 5.6494382,6.41258427 C5.6494382,6.41258427 6.69842697,3.99910112 5.46696629,1.07775281 C5.46606742,1.07775281 5.35011236,0.374831461 5.39146067,0.146516854" id="Fill-3_28_" fill="#439A35"></path>
                </g>
                <g id="Imported-Layers-38" transform="translate(48.842281, 17.592355) rotate(130.000000) translate(-48.842281, -17.592355) translate(46.145652, 13.547411)" sketch:type="MSShapeGroup">
                    <path d="M3.67370787,0.109662921 C3.67370787,0.109662921 3.60539326,0.353258427 3.2188764,0.451235955 C3.2188764,0.451235955 1.52179775,0.884494382 0.622921348,2.93573034 C0.622921348,2.93573034 -0.132134831,4.51325843 0.926741573,6.29033708 C0.926741573,6.29033708 1.1047191,6.2247191 1.41573034,5.49393258 C1.41573034,5.49393258 1.13797753,6.42786517 1.38067416,6.38741573 C1.38067416,6.38741573 3.04269663,6.14831461 3.84898876,4.20134831 C3.84898876,4.20134831 4.55910112,2.6247191 3.72404494,0.717303371 C3.72404494,0.717303371 3.64494382,0.259775281 3.67370787,0.109662921" id="Fill-1_29_" fill="#43A435"></path>
                    <path d="M0.780224719,7.08764045 L0.958202247,7.22606742 C0.958202247,7.22606742 1.28269663,6.42426966 1.57842697,6.38561798 C1.57842697,6.38561798 1.46247191,6.35775281 1.61797753,5.55146067 C1.61797753,5.55146067 1.28359551,6.08719101 1.06067416,6.29483146 C1.06067416,6.29483146 1.05078652,6.56179775 0.780224719,7.08764045" id="Fill-2_29_" fill="#B0AF90"></path>
                    <path d="M4.07910112,0.109662921 C4.07910112,0.109662921 3.2611236,2.66696629 1.75640449,5.85258427 C1.75640449,5.85258427 1.4705618,6.8494382 1.72044944,6.80629213 C1.72044944,6.80629213 3.43011236,6.55101124 4.2588764,4.47370787 C4.2588764,4.47370787 4.98966292,2.79280899 4.13123596,0.757752809 C4.13123596,0.757752809 4.0494382,0.269662921 4.07910112,0.109662921" id="Fill-3_29_" fill="#439A35"></path>
                </g>
                <g id="Imported-Layers-36" transform="translate(47.027347, 12.590708) rotate(-90.000000) translate(-47.027347, -12.590708) translate(45.229594, 9.444641)" sketch:type="MSShapeGroup">
                    <path d="M2.7011236,0.856629213 C2.7011236,0.856629213 2.6552809,1.0211236 2.39460674,1.08674157 C2.39460674,1.08674157 1.25213483,1.37797753 0.648089888,2.75865169 C0.648089888,2.75865169 0.139325843,3.82202247 0.853033708,5.01842697 C0.853033708,5.01842697 0.97258427,4.97348315 1.18202247,4.48089888 C1.18202247,4.48089888 0.99505618,5.11011236 1.15865169,5.08314607 C1.15865169,5.08314607 2.27775281,4.92224719 2.82067416,3.61168539 C2.82067416,3.61168539 3.2988764,2.54921348 2.73707865,1.26651685 C2.73617978,1.26651685 2.68224719,0.957303371 2.7011236,0.856629213" id="Fill-1_30_" fill="#43A435"></path>
                    <path d="M0.754157303,5.5541573 L0.873707865,5.64764045 C0.873707865,5.64764045 1.09213483,5.10831461 1.29078652,5.08224719 C1.29078652,5.08224719 1.21348315,5.06337079 1.31775281,4.52044944 C1.31775281,4.52044944 1.09303371,4.88089888 0.942022472,5.0211236 C0.942022472,5.02022472 0.936629213,5.20089888 0.754157303,5.5541573" id="Fill-2_30_" fill="#B0AF90"></path>
                    <path d="M2.69303371,0.575280899 C2.69303371,0.575280899 2.14292135,2.29573034 1.12898876,4.44134831 C1.12898876,4.44134831 0.936629213,5.11191011 1.1047191,5.08314607 C1.1047191,5.08314607 2.2552809,4.91235955 2.81348315,3.51370787 C2.81348315,3.51370787 3.30516854,2.3811236 2.72808989,1.01213483 C2.72808989,1.01123596 2.67325843,0.682247191 2.69303371,0.575280899" id="Fill-3_30_" fill="#439A35"></path>
                </g>
                <g id="Imported-Layers-35" transform="translate(45.503277, 9.903514) rotate(-77.000000) translate(-45.503277, -9.903514) translate(43.705524, 7.206885)" sketch:type="MSShapeGroup">
                    <path d="M2.78831461,0.396404494 C2.78831461,0.396404494 2.74247191,0.560898876 2.48179775,0.626516854 C2.48179775,0.626516854 1.33932584,0.917752809 0.735280899,2.29932584 C0.735280899,2.29932584 0.226516854,3.36179775 0.939325843,4.55730337 C0.939325843,4.55730337 1.0588764,4.51235955 1.26831461,4.02067416 C1.26831461,4.02067416 1.08134831,4.64988764 1.24494382,4.62292135 C1.24494382,4.62292135 2.36404494,4.46292135 2.90606742,3.15146067 C2.90606742,3.15146067 3.38426966,2.08988764 2.82247191,0.806292135 C2.82157303,0.806292135 2.76853933,0.497977528 2.78831461,0.396404494" id="Fill-1_31_" fill="#43A435"></path>
                    <path d="M0.840449438,5.09483146 L0.96,5.18831461 C0.96,5.18831461 1.17842697,4.64808989 1.37707865,4.62202247 C1.37707865,4.62202247 1.29977528,4.60404494 1.40404494,4.0611236 C1.40404494,4.0611236 1.17842697,4.42157303 1.02831461,4.56089888 C1.02921348,4.56089888 1.02202247,4.74157303 0.840449438,5.09483146" id="Fill-2_31_" fill="#B0AF90"></path>
                    <path d="M2.77932584,0.11505618 C2.77932584,0.11505618 2.22831461,1.83640449 1.2152809,3.9811236 C1.2152809,3.9811236 1.02292135,4.65168539 1.19191011,4.62382022 C1.19191011,4.62382022 2.34247191,4.45213483 2.90067416,3.05258427 C2.90067416,3.05258427 3.39235955,1.92089888 2.8152809,0.551910112 C2.81438202,0.551910112 2.75955056,0.222022472 2.77932584,0.11505618" id="Fill-3_31_" fill="#439A35"></path>
                </g>
                <g id="Imported-Layers-34" transform="translate(45.227343, 15.130777) rotate(231.000000) translate(-45.227343, -15.130777) translate(43.429590, 12.434148)" sketch:type="MSShapeGroup">
                    <path d="M3.09752809,0.373932584 C3.09752809,0.373932584 3.05078652,0.538426966 2.79101124,0.604044944 C2.79101124,0.604044944 1.64853933,0.896179775 1.04269663,2.27775281 C1.04269663,2.27775281 0.533932584,3.33842697 1.24674157,4.53573034 C1.24674157,4.53573034 1.36719101,4.49078652 1.57573034,3.99910112 C1.57573034,3.99910112 1.38876404,4.62741573 1.55235955,4.60044944 C1.55235955,4.60044944 2.6705618,4.43955056 3.21348315,3.12808989 C3.21348315,3.12808989 3.69168539,2.06741573 3.12988764,0.783820225 C3.13168539,0.783820225 3.07865169,0.475505618 3.09752809,0.373932584" id="Fill-1_32_" fill="#43A435"></path>
                    <path d="M1.14966292,5.07235955 L1.26831461,5.1658427 C1.26831461,5.1658427 1.48674157,4.62651685 1.68539326,4.60044944 C1.68539326,4.60044944 1.60808989,4.58157303 1.71235955,4.03955056 C1.71235955,4.03955056 1.48764045,4.4 1.33752809,4.54022472 C1.33842697,4.53842697 1.33123596,4.71820225 1.14966292,5.07235955" id="Fill-2_32_" fill="#B0AF90"></path>
                    <path d="M3.08853933,0.0916853933 C3.08853933,0.0916853933 2.53752809,1.81393258 1.52449438,3.95865169 C1.52449438,3.95865169 1.33213483,4.62831461 1.50022472,4.60044944 C1.50022472,4.60044944 2.65168539,4.42786517 3.20898876,3.03011236 C3.20898876,3.03011236 3.70067416,1.89842697 3.12269663,0.528539326 C3.12359551,0.529438202 3.06876404,0.200449438 3.08853933,0.0916853933" id="Fill-3_32_" fill="#439A35"></path>
                </g>
                <g id="Imported-Layers-31" transform="translate(52.729865, 17.300824) rotate(117.000000) translate(-52.729865, -17.300824) translate(49.583798, 11.907566)" sketch:type="MSShapeGroup">
                    <path d="M5.26022472,0.309213483 C5.26022472,0.309213483 5.16224719,0.658876404 4.6058427,0.799101124 C4.6058427,0.799101124 2.16898876,1.4211236 0.879101124,4.3658427 C0.879101124,4.3658427 -0.20494382,6.63191011 1.31595506,9.18382022 C1.31595506,9.18382022 1.57033708,9.08853933 2.01707865,8.04044944 C2.01707865,8.04044944 1.61707865,9.38067416 1.96674157,9.32404494 C1.96674157,9.32404494 4.35235955,8.98067416 5.50921348,6.18426966 C5.50921348,6.18426966 6.52853933,3.92089888 5.33123596,1.18202247 C5.33213483,1.18202247 5.2188764,0.524044944 5.26022472,0.309213483" id="Fill-1_33_" fill="#43A435"></path>
                    <path d="M1.10651685,10.3289888 L1.36089888,10.5276404 C1.36089888,10.5276404 1.82651685,9.37617978 2.25168539,9.32134831 C2.25168539,9.32134831 2.08629213,9.28179775 2.30921348,8.12404494 C2.30921348,8.12404494 1.82921348,8.89258427 1.50831461,9.19101124 C1.50741573,9.19011236 1.49393258,9.57393258 1.10651685,10.3289888" id="Fill-2_33_" fill="#B0AF90"></path>
                    <path d="M5.24134831,0.00808988764 C5.24134831,0.00808988764 4.06651685,3.68 1.90651685,8.25438202 C1.90651685,8.25438202 1.49573034,9.68449438 1.8552809,9.62426966 C1.8552809,9.62426966 4.30831461,9.25752809 5.49932584,6.27505618 C5.49932584,6.27505618 6.54741573,3.85977528 5.31595506,0.939325843 C5.31595506,0.939325843 5.19910112,0.238202247 5.24134831,0.00808988764" id="Fill-3_33_" fill="#439A35"></path>
                </g>
                <g id="Imported-Layers-50" transform="translate(58.974271, 15.902929) rotate(88.000000) translate(-58.974271, -15.902929) translate(55.828203, 10.509670)" sketch:type="MSShapeGroup">
                    <path d="M5.31955056,0.676853933 C5.31955056,0.676853933 5.22157303,1.02651685 4.66606742,1.1658427 C4.66606742,1.1658427 2.22921348,1.78876404 0.940224719,4.73348315 C0.940224719,4.73348315 -0.144719101,6.99865169 1.37617978,9.5505618 C1.37617978,9.5505618 1.6305618,9.4552809 2.07730337,8.40719101 C2.07730337,8.40719101 1.67820225,9.74741573 2.02696629,9.69078652 C2.02696629,9.69078652 4.41348315,9.34741573 5.57033708,6.55101124 C5.57033708,6.55101124 6.58966292,4.28853933 5.39235955,1.5505618 C5.39235955,1.54966292 5.27910112,0.890786517 5.31955056,0.676853933" id="Fill-1_34_" fill="#43A435"></path>
                    <path d="M5.30067416,0.375730337 C5.30067416,0.375730337 4.1258427,4.04853933 1.9658427,8.62202247 C1.9658427,8.62202247 1.55505618,10.051236 1.91370787,9.99101124 C1.91370787,9.99101124 4.36764045,9.62516854 5.55775281,6.64179775 C5.55775281,6.64179775 6.60674157,4.22831461 5.37438202,1.30696629 C5.3752809,1.30696629 5.25932584,0.60494382 5.30067416,0.375730337" id="Fill-3_34_" fill="#439A35"></path>
                </g>
                <g id="Imported-Layers-49" transform="translate(52.100797, 9.103153) rotate(17.000000) translate(-52.100797, -9.103153) translate(49.404168, 4.159332)" sketch:type="MSShapeGroup">
                    <path d="M4.76494382,1.37617978 C4.76494382,1.37617978 4.67775281,1.69078652 4.17707865,1.81662921 C4.17707865,1.81662921 1.98651685,2.37573034 0.827865169,5.02382022 C0.827865169,5.02382022 -0.14741573,7.06067416 1.21977528,9.35460674 C1.21977528,9.35460674 1.44898876,9.26831461 1.84988764,8.32629213 C1.84988764,8.32629213 1.49123596,9.53168539 1.80494382,9.48044944 C1.80494382,9.48044944 3.94966292,9.17213483 4.9905618,6.65797753 C4.9905618,6.65797753 5.90651685,4.62292135 4.82966292,2.16179775 C4.82966292,2.16179775 4.72808989,1.5694382 4.76494382,1.37617978" id="Fill-1_35_" fill="#43A435"></path>
                    <path d="M4.74786517,0.835955056 C4.74786517,0.835955056 3.69168539,4.13752809 1.74921348,8.24898876 C1.74921348,8.24898876 1.38067416,9.53438202 1.70337079,9.47955056 C1.70337079,9.47955056 3.90921348,9.1505618 4.97977528,6.46831461 C4.97977528,6.46831461 5.92269663,4.29842697 4.8152809,1.67191011 C4.8152809,1.67280899 4.71011236,1.04269663 4.74786517,0.835955056" id="Fill-3_35_" fill="#439A35"></path>
                </g>
                <g id="Imported-Layers-42" transform="translate(63.506946, 35.256373) rotate(130.000000) translate(-63.506946, -35.256373) translate(60.810317, 31.211429)" sketch:type="MSShapeGroup">
                    <path d="M4.19775281,0.471910112 C4.19775281,0.471910112 4.1294382,0.715505618 3.74292135,0.813483146 C3.74292135,0.813483146 2.0458427,1.24674157 1.14786517,3.29707865 C1.14786517,3.29707865 0.391910112,4.87550562 1.45168539,6.65258427 C1.45168539,6.65258427 1.62876404,6.58606742 1.93977528,5.8552809 C1.93977528,5.8552809 1.66202247,6.79011236 1.9047191,6.74966292 C1.9047191,6.74966292 3.5658427,6.5105618 4.37213483,4.56359551 C4.37213483,4.56359551 5.08224719,2.98696629 4.24808989,1.07955056 C4.24808989,1.07955056 4.16988764,0.621123596 4.19775281,0.471910112" id="Fill-1_36_" fill="#43A435"></path>
                    <path d="M1.30516854,7.45078652 L1.48224719,7.58921348 C1.48224719,7.58921348 1.80674157,6.78741573 2.10247191,6.74876404 C2.10247191,6.74876404 1.98741573,6.72179775 2.14202247,5.91460674 C2.14202247,5.91460674 1.80853933,6.45033708 1.5847191,6.65797753 C1.5847191,6.65707865 1.57483146,6.92404494 1.30516854,7.45078652" id="Fill-2_34_" fill="#B0AF90"></path>
                    <path d="M4.60314607,0.471910112 C4.60314607,0.471910112 3.78516854,3.02921348 2.28134831,6.21573034 C2.28134831,6.21573034 1.99460674,7.21078652 2.24539326,7.16853933 C2.24539326,7.16853933 3.95505618,6.91325843 4.78292135,4.83595506 C4.78292135,4.83595506 5.51370787,3.15505618 4.65617978,1.12 C4.6552809,1.12 4.57438202,0.631910112 4.60314607,0.471910112" id="Fill-3_36_" fill="#439A35"></path>
                </g>
                <g id="Imported-Layers-41" transform="translate(60.959931, 30.568236) rotate(-90.000000) translate(-60.959931, -30.568236) translate(59.162178, 27.871607)" sketch:type="MSShapeGroup">
                    <path d="M2.8458427,0.524044944 C2.8458427,0.524044944 2.8,0.687640449 2.54022472,0.754157303 C2.54022472,0.754157303 1.39775281,1.04539326 0.792808989,2.42606742 C0.792808989,2.42606742 0.284044944,3.4894382 0.997752809,4.68494382 C0.997752809,4.68494382 1.11730337,4.64 1.32674157,4.14831461 C1.32674157,4.14831461 1.13977528,4.77752809 1.30337079,4.7505618 C1.30337079,4.7505618 2.42157303,4.58966292 2.96449438,3.27820225 C2.96449438,3.27820225 3.44269663,2.21662921 2.88089888,0.933932584 C2.88089888,0.934831461 2.82696629,0.625617978 2.8458427,0.524044944" id="Fill-1_37_" fill="#43A435"></path>
                    <path d="M0.898876404,5.22247191 L1.01842697,5.31595506 C1.01842697,5.31595506 1.23685393,4.77573034 1.43550562,4.7505618 C1.43550562,4.7505618 1.35820225,4.73168539 1.46247191,4.18876404 C1.46247191,4.18876404 1.23775281,4.54921348 1.08764045,4.6894382 C1.08764045,4.68853933 1.08044944,4.86831461 0.898876404,5.22247191" id="Fill-2_35_" fill="#B0AF90"></path>
                    <path d="M2.83775281,0.242696629 C2.83775281,0.242696629 2.28764045,1.96404494 1.27460674,4.10876404 C1.27460674,4.10876404 1.08134831,4.78022472 1.25033708,4.75146067 C1.25033708,4.75146067 2.40089888,4.58067416 2.95820225,3.1811236 C2.95820225,3.1811236 3.44988764,2.04853933 2.87280899,0.679550562 C2.87280899,0.678651685 2.81797753,0.350561798 2.83775281,0.242696629" id="Fill-3_37_" fill="#439A35"></path>
                </g>
                <g id="Imported-Layers-39" transform="translate(58.981548, 32.918209) rotate(231.000000) translate(-58.981548, -32.918209) translate(57.183795, 30.221580)" sketch:type="MSShapeGroup">
                    <path d="M2.87640449,0.575280899 C2.87640449,0.575280899 2.82966292,0.739775281 2.56988764,0.805393258 C2.56988764,0.805393258 1.42651685,1.09752809 0.82247191,2.47820225 C0.82247191,2.47820225 0.313707865,3.54067416 1.02741573,4.73707865 C1.02741573,4.73707865 1.14696629,4.69213483 1.35550562,4.20044944 C1.35550562,4.20044944 1.16853933,4.82876404 1.33213483,4.80179775 C1.33213483,4.80179775 2.45033708,4.64089888 2.99325843,3.33033708 C2.99325843,3.33033708 3.47146067,2.26966292 2.90966292,0.985168539 C2.90966292,0.985168539 2.85662921,0.675955056 2.87640449,0.575280899" id="Fill-1_38_" fill="#43A435"></path>
                    <path d="M0.928539326,5.27370787 L1.04808989,5.36719101 C1.04808989,5.36719101 1.26651685,4.82696629 1.46516854,4.80179775 C1.46516854,4.80179775 1.38696629,4.78292135 1.49213483,4.24089888 C1.49213483,4.24089888 1.26651685,4.60044944 1.11640449,4.74067416 C1.11640449,4.74067416 1.11011236,4.92044944 0.928539326,5.27370787" id="Fill-2_36_" fill="#B0AF90"></path>
                    <path d="M2.86741573,0.293033708 C2.86741573,0.293033708 2.31730337,2.0152809 1.30426966,4.16 C1.30426966,4.16 1.11191011,4.8305618 1.27910112,4.80269663 C1.27910112,4.80269663 2.42966292,4.63011236 2.98786517,3.23146067 C2.98786517,3.23146067 3.48044944,2.09977528 2.90247191,0.730786517 C2.90247191,0.730786517 2.84674157,0.401797753 2.86741573,0.293033708" id="Fill-3_38_" fill="#439A35"></path>
                </g>
                <g id="Imported-Layers-32" transform="translate(66.943650, 35.236192) rotate(117.000000) translate(-66.943650, -35.236192) translate(63.797583, 29.842934)" sketch:type="MSShapeGroup">
                    <path d="M5.24314607,0.501573034 C5.24314607,0.501573034 5.14516854,0.851235955 4.58966292,0.991460674 C4.58966292,0.991460674 2.15280899,1.61348315 0.863820225,4.55910112 C0.863820225,4.55910112 -0.221123596,6.82516854 1.29977528,9.37617978 C1.29977528,9.37617978 1.5541573,9.28089888 2.00089888,8.23280899 C2.00089888,8.23280899 1.60179775,9.57303371 1.9505618,9.51640449 C1.9505618,9.51640449 4.33617978,9.17303371 5.49393258,6.37573034 C5.49393258,6.37573034 6.51325843,4.11235955 5.31595506,1.3752809 C5.31595506,1.3752809 5.20179775,0.716404494 5.24314607,0.501573034" id="Fill-1_39_" fill="#43A435"></path>
                    <path d="M1.0894382,10.5213483 L1.34292135,10.72 C1.34292135,10.72 1.8094382,9.56853933 2.23370787,9.51370787 C2.23370787,9.51370787 2.06831461,9.47505618 2.29123596,8.31640449 C2.29123596,8.31640449 1.81123596,9.08494382 1.49033708,9.38337079 C1.49123596,9.38247191 1.47685393,9.76629213 1.0894382,10.5213483" id="Fill-2_37_" fill="#B0AF90"></path>
                    <path d="M5.22426966,0.200449438 C5.22426966,0.200449438 4.05033708,3.87235955 1.88853933,8.44674157 C1.88853933,8.44674157 1.47865169,9.87775281 1.83730337,9.81662921 C1.83730337,9.81662921 4.29123596,9.44988764 5.48134831,6.46741573 C5.48134831,6.46741573 6.53033708,4.05303371 5.29797753,1.13168539 C5.29797753,1.13168539 5.18292135,0.430561798 5.22426966,0.200449438" id="Fill-3_39_" fill="#439A35"></path>
                </g>
                <g id="Imported-Layers-46" transform="translate(39.386897, 5.399697) rotate(-90.000000) translate(-39.386897, -5.399697) translate(37.589144, 2.703068)" sketch:type="MSShapeGroup">
                    <path d="M3.07595506,0.482696629 C3.07595506,0.482696629 3.03011236,0.646292135 2.7694382,0.712808989 C2.7694382,0.712808989 1.62696629,1.00404494 1.02202247,2.3847191 C1.02202247,2.3847191 0.513258427,3.44719101 1.22606742,4.64359551 C1.22606742,4.64359551 1.34561798,4.59865169 1.55505618,4.10696629 C1.55505618,4.10696629 1.36808989,4.73617978 1.53168539,4.70921348 C1.53168539,4.70921348 2.65078652,4.54831461 3.19370787,3.23685393 C3.19370787,3.23685393 3.67191011,2.17438202 3.11011236,0.891685393 C3.11011236,0.891685393 3.05707865,0.583370787 3.07595506,0.482696629" id="Fill-1_40_" fill="#43A435"></path>
                    <path d="M1.12898876,5.18022472 L1.24764045,5.27370787 C1.24764045,5.27370787 1.46606742,4.73348315 1.66561798,4.70831461 C1.66561798,4.70831461 1.58831461,4.6894382 1.69258427,4.14561798 C1.69258427,4.14561798 1.46786517,4.50606742 1.31775281,4.64629213 C1.31685393,4.64539326 1.30966292,4.82606742 1.12898876,5.18022472" id="Fill-2_38_" fill="#B0AF90"></path>
                    <path d="M3.06696629,0.200449438 C3.06696629,0.200449438 2.51685393,1.92179775 1.50292135,4.06651685 C1.50292135,4.06651685 1.3105618,4.73707865 1.47865169,4.70921348 C1.47865169,4.70921348 2.62921348,4.53842697 3.18741573,3.1388764 C3.18741573,3.1388764 3.67910112,2.00629213 3.10202247,0.637303371 C3.10202247,0.636404494 3.04719101,0.308314607 3.06696629,0.200449438" id="Fill-3_40_" fill="#439A35"></path>
                </g>
                <g id="Imported-Layers-44" transform="translate(37.234962, 7.502853) rotate(231.000000) translate(-37.234962, -7.502853) translate(35.886647, 4.356785)" sketch:type="MSShapeGroup">
                    <path d="M2.32988764,1.11550562 C2.32988764,1.11550562 2.28404494,1.27910112 2.02426966,1.34561798 C2.02426966,1.34561798 0.880898876,1.63775281 0.276853933,3.01842697 C0.276853933,3.01842697 -0.231910112,4.08 0.480898876,5.27640449 C0.480898876,5.27640449 0.600449438,5.23146067 0.80988764,4.73977528 C0.80988764,4.73977528 0.622921348,5.36898876 0.786516854,5.34202247 C0.786516854,5.34202247 1.9047191,5.1811236 2.44764045,3.86966292 C2.44764045,3.86966292 2.9258427,2.80808989 2.36494382,1.52449438 C2.36494382,1.52539326 2.31191011,1.21707865 2.32988764,1.11550562" id="Fill-1_41_" fill="#43A435"></path>
                    <path d="M0.382921348,5.81393258 L0.50247191,5.90741573 C0.50247191,5.90741573 0.720898876,5.36719101 0.919550562,5.3411236 C0.919550562,5.3411236 0.842247191,5.32224719 0.94741573,4.77932584 C0.94741573,4.77932584 0.721797753,5.13977528 0.571685393,5.28 C0.570786517,5.28089888 0.564494382,5.45977528 0.382921348,5.81393258" id="Fill-2_39_" fill="#B0AF90"></path>
                    <path d="M2.32179775,0.834157303 C2.32179775,0.834157303 1.77168539,2.55640449 0.757752809,4.70022472 C0.757752809,4.70022472 0.565393258,5.37078652 0.733483146,5.34292135 C0.733483146,5.34292135 1.88404494,5.17123596 2.44224719,3.77258427 C2.44224719,3.77258427 2.93393258,2.64 2.35595506,1.27101124 C2.35595506,1.27101124 2.30202247,0.941123596 2.32179775,0.834157303" id="Fill-3_41_" fill="#439A35"></path>
                </g>
                <g id="Imported-Layers-40" transform="translate(33.153732, 4.786339) rotate(260.000000) translate(-33.153732, -4.786339) translate(30.007665, -1.056357)" sketch:type="MSShapeGroup">
                    <path d="M4.93393258,0.92494382 C4.93393258,0.92494382 4.83595506,1.27460674 4.28044944,1.41483146 C4.28044944,1.41483146 1.84359551,2.03685393 0.554606742,4.98247191 C0.554606742,4.98247191 -0.530337079,7.24764045 0.990561798,9.79955056 C0.990561798,9.79955056 1.24494382,9.70426966 1.69168539,8.65617978 C1.69168539,8.65617978 1.29258427,9.99550562 1.64134831,9.93977528 C1.64134831,9.93977528 4.02786517,9.59550562 5.1847191,6.79910112 C5.1847191,6.79910112 6.20494382,4.53662921 5.00674157,1.79775281 C5.00674157,1.79775281 4.89348315,1.13977528 4.93393258,0.92494382" id="Fill-1_42_" fill="#43A435"></path>
                    <path d="M0.781123596,10.9447191 L1.03550562,11.1433708 C1.03550562,11.1433708 1.5011236,9.99101124 1.92539326,9.93617978 C1.92539326,9.93617978 1.76,9.89662921 1.98292135,8.7388764 C1.98292135,8.7388764 1.50292135,9.50741573 1.18202247,9.8058427 C1.18202247,9.8058427 1.16853933,10.188764 0.781123596,10.9447191" id="Fill-2_40_" fill="#B0AF90"></path>
                    <path d="M4.91595506,0.623820225 C4.91595506,0.623820225 3.7411236,4.29662921 1.5811236,8.87011236 C1.5811236,8.87011236 1.17033708,10.3002247 1.52988764,10.24 C1.52988764,10.24 3.98382022,9.8741573 5.17393258,6.89078652 C5.17393258,6.89078652 6.22292135,4.47640449 4.99146067,1.55595506 C4.9905618,1.55595506 4.87370787,0.853932584 4.91595506,0.623820225" id="Fill-3_42_" fill="#439A35"></path>
                </g>
                <g id="Imported-Layers-51" transform="translate(42.650504, 6.050025) rotate(-12.000000) translate(-42.650504, -6.050025) translate(39.953874, 1.555643)" sketch:type="MSShapeGroup">
                    <path d="M4.39820225,0.754157303 C4.39820225,0.754157303 4.31011236,1.06876404 3.81123596,1.19460674 C3.81123596,1.19460674 1.61977528,1.75370787 0.461123596,4.40179775 C0.461123596,4.40179775 -0.514157303,6.43865169 0.853932584,8.73258427 C0.853932584,8.73258427 1.08314607,8.64629213 1.48404494,7.70426966 C1.48404494,7.70426966 1.12449438,8.90966292 1.43910112,8.85842697 C1.43910112,8.85842697 3.58382022,8.54921348 4.6247191,6.03595506 C4.6247191,6.03595506 5.54067416,4.00179775 4.4647191,1.53977528 C4.46382022,1.5388764 4.36134831,0.94741573 4.39820225,0.754157303" id="Fill-1_43_" fill="#43A435"></path>
                    <path d="M4.38202247,0.213932584 C4.38202247,0.213932584 3.3258427,3.51550562 1.38247191,7.62696629 C1.38247191,7.62696629 1.01303371,8.91235955 1.33662921,8.85752809 C1.33662921,8.85752809 3.54247191,8.52853933 4.61303371,5.84629213 C4.61303371,5.84629213 5.55505618,3.67640449 4.44853933,1.05078652 C4.44853933,1.05168539 4.34337079,0.420674157 4.38202247,0.213932584" id="Fill-3_43_" fill="#439A35"></path>
                </g>
                <path d="M32.2301124,27.8660674 C32.2301124,27.8660674 33.3788764,28.0934831 33.5406742,28.1977528 C34.2669663,28.6696629 35.7204494,29.614382 35.7204494,29.614382 L39.9496629,32.2831461 L42.9123596,33.4148315 L44.6426966,35.6853933 L49.3357303,37.2161798 L53.2521348,37.9793258 L55.5514607,40.2435955 L57.0606742,42.3433708 L53.3653933,43.2889888 L51.0948315,44.2283146 L48.8665169,45.0840449 L47.5640449,46.48 L46.4548315,48.9986517 L43.5631461,49.0337079 L44.2319101,47.0975281 L46.4961798,44.7496629 L48.2337079,44.4152809 L48.7676404,43.1002247 L51.5298876,42.8296629 L53.308764,42.0611236 L55.6862921,41.7914607 L52.8107865,39.2575281 L51.308764,38.6238202 L48.8314607,38.225618 L45.6925843,37.7564045 L43.8633708,36.7523596 L43.0525843,34.9096629 L40.945618,33.9766292 L38.4404494,32.6741573 L36.0692135,31.3779775 L34.4611236,30.2040449 L32.3667416,29.1262921 L32.2301124,27.8660674 L32.2301124,27.8660674 Z" id="Path-384" fill="#825023" sketch:type="MSShapeGroup"></path>
                <path d="M33.9505618,20.4053933 L32.4835955,21.8858427 L31.9847191,24.1033708 L31.1658427,25.9370787 L30.5294382,27.04 L31.3626966,27.04 L32.0988764,27.3393258 L32.6498876,26.4602247 L33.1496629,24 L33.3492135,22.2840449 L34.3631461,21.4337079 L35.8121348,20.2840449 L33.9505618,20.4053933 L33.9505618,20.4053933 Z" id="Path-385" fill="#824E21" sketch:type="MSShapeGroup"></path>
            </g>
        </g>
    </g>
</svg>