<?xml version="1.0" encoding="UTF-8" standalone="no"?>
<svg width="150px" height="150px" viewBox="0 0 150 150" version="1.1" xmlns="http://www.w3.org/2000/svg" xmlns:xlink="http://www.w3.org/1999/xlink" xmlns:sketch="http://www.bohemiancoding.com/sketch/ns">
    <!-- Generator: Sketch 3.3.1 (12005) - http://www.bohemiancoding.com/sketch -->
    <title>badge</title>
    <desc>Created with Sketch.</desc>
    <defs></defs>
    <g id="41.-Node.js" stroke="none" stroke-width="1" fill="none" fill-rule="evenodd" sketch:type="MSPage">
        <g id="badge" sketch:type="MSArtboardGroup">
            <g id="Group" sketch:type="MSLayerGroup" transform="translate(35.000000, 36.846154)">
                <rect id="Rectangle-319_1_" opacity="0.2357" fill="#F2F2F2" sketch:type="MSShapeGroup" x="5.54830769" y="4.05784615" width="68.9083077" height="69.3513846"></rect>
                <rect id="Rectangle-317_1_" fill="#46483E" sketch:type="MSShapeGroup" x="72.6633846" y="1.01907692" width="7.13353846" height="74.5735385"></rect>
                <rect id="Rectangle-315_1_" fill="#46483E" sketch:type="MSShapeGroup" x="0.0369230769" y="1.01907692" width="7.13230769" height="74.5735385"></rect>
                <g transform="translate(20.923077, 17.230769)" id="Shape" fill="#FFFFFF" sketch:type="MSShapeGroup">
                    <path d="M19.2332308,41.6578462 C18.6806154,41.6578462 18.1292308,41.5138462 17.6443077,41.2332308 L12.5870769,38.24 C11.8313846,37.8178462 12.1993846,37.6664615 12.4492308,37.5815385 C13.456,37.232 13.6603077,37.1507692 14.736,36.5390769 C14.848,36.4763077 14.9969231,36.5021538 15.1126154,36.5698462 L18.9981538,38.8763077 C19.1384615,38.9538462 19.3378462,38.9538462 19.4670769,38.8763077 L34.6203077,30.1292308 C34.7618462,30.0492308 34.8516923,29.888 34.8516923,29.7193846 L34.8516923,12.2363077 C34.8516923,12.064 34.7618462,11.9052308 34.6166154,11.8178462 L19.4695385,3.07938462 C19.3304615,2.99692308 19.1433846,2.99692308 19.0030769,3.07938462 L3.86215385,11.8203077 C3.71446154,11.9052308 3.62092308,12.0701538 3.62092308,12.2363077 L3.62092308,29.7206154 C3.62092308,29.8892308 3.71446154,30.048 3.85969231,30.1255385 L8.00984615,32.5230769 C10.2633846,33.6516923 11.6418462,32.3249231 11.6418462,30.9907692 L11.6418462,13.728 C11.6418462,13.4830769 11.8375385,13.2910769 12.0824615,13.2910769 L14.0024615,13.2910769 C14.2424615,13.2910769 14.4418462,13.4843077 14.4418462,13.728 L14.4418462,30.9907692 C14.4418462,33.9975385 12.8049231,35.7218462 9.95569231,35.7218462 C9.07815385,35.7218462 8.38892308,35.7218462 6.464,34.7729231 L2.49107692,32.4861538 C1.51015385,31.9175385 0.900923077,30.8578462 0.900923077,29.7206154 L0.900923077,12.2363077 C0.900923077,11.0990769 1.51015385,10.0393846 2.49107692,9.47323077 L17.6430769,0.718769231 C18.6006154,0.177230769 19.8756923,0.177230769 20.8270769,0.718769231 L35.9778462,9.47323077 C36.96,10.0406154 37.5692308,11.0990769 37.5692308,12.2363077 L37.5692308,29.7206154 C37.5692308,30.8578462 36.96,31.9150769 35.9778462,32.4861538 L20.8270769,41.2332308 C20.3458462,41.5138462 19.7956923,41.6578462 19.2332308,41.6578462 L19.2332308,41.6578462 Z"></path>
                    <path d="M23.9138462,29.6135385 C17.2836923,29.6135385 15.8929231,26.5673846 15.8929231,24.016 C15.8929231,23.7723077 16.0886154,23.5790769 16.3310769,23.5790769 L18.2904615,23.5790769 C18.5095385,23.5790769 18.6916923,23.7366154 18.7261538,23.9507692 C19.0215385,25.9446154 19.904,26.9513846 23.9138462,26.9513846 C27.1052308,26.9513846 28.464,26.2301538 28.464,24.5366154 C28.464,23.5606154 28.08,22.8356923 23.1187692,22.3495385 C18.9735385,21.9396923 16.4086154,21.024 16.4086154,17.7083077 C16.4086154,14.6510769 18.9870769,12.8283077 23.3058462,12.8283077 C28.16,12.8283077 30.5624615,14.5132308 30.8676923,18.128 C30.8787692,18.2535385 30.8344615,18.3716923 30.7507692,18.4652308 C30.6670769,18.5526154 30.5513846,18.6055385 30.4307692,18.6055385 L28.4627692,18.6055385 C28.2596923,18.6055385 28.0787692,18.4603077 28.0369231,18.2633846 C27.5667692,16.1636923 26.4196923,15.4941538 23.3046154,15.4941538 C19.8203077,15.4941538 19.4153846,16.7076923 19.4153846,17.6184615 C19.4153846,18.7212308 19.8941538,19.0412308 24.5981538,19.664 C29.2541538,20.2793846 31.4670769,21.1507692 31.4670769,24.4221538 C31.4683077,27.7206154 28.7150769,29.6135385 23.9138462,29.6135385 L23.9138462,29.6135385 Z"></path>
                </g>
            </g>
        </g>
    </g>
</svg>