<?xml version="1.0" encoding="UTF-8" standalone="no"?>
<svg width="150px" height="150px" viewBox="0 0 150 150" version="1.1" xmlns="http://www.w3.org/2000/svg" xmlns:xlink="http://www.w3.org/1999/xlink" xmlns:sketch="http://www.bohemiancoding.com/sketch/ns">
    <!-- Generator: Sketch 3.3.3 (12072) - http://www.bohemiancoding.com/sketch -->
    <title>badge</title>
    <desc>Created with Sketch.</desc>
    <defs></defs>
    <g id="62.-Photoshop-Esencial" stroke="none" stroke-width="1" fill="none" fill-rule="evenodd" sketch:type="MSPage">
        <g id="badge" sketch:type="MSArtboardGroup">
            <g id="Imported-Layers" sketch:type="MSLayerGroup" transform="translate(35.000000, 36.000000)">
                <path d="M0.607346939,0.18525 L79.9387755,0.18525 L79.9387755,77.3280625 L0.607346939,77.3280625 L0.607346939,0.18525 Z" id="Fill-1" fill="#6EB5E5" sketch:type="MSShapeGroup"></path>
                <path d="M6.99673469,6.462625 L73.5493878,6.462625 L73.5493878,71.2164375 L6.99673469,71.2164375 L6.99673469,6.462625 Z" id="Fill-2" fill="#222362" sketch:type="MSShapeGroup"></path>
                <path d="M21.7322449,21.682375 C23.8734694,21.2948125 26.8408163,21.0039375 30.8791837,21.0039375 C35.2579592,21.0039375 38.4685714,21.9236875 40.5608163,23.6673125 C42.5069388,25.2646875 43.7722449,27.8321875 43.7722449,30.8823125 C43.7722449,33.982 42.8,36.5486875 40.9502041,38.2915 C38.5665306,40.6648125 34.8204082,41.7779375 30.5877551,41.7779375 C29.4685714,41.7779375 28.4465306,41.73 27.6677551,41.5845625 L27.6677551,53.8841875 L21.7322449,53.8841875 L21.7322449,21.682375 L21.7322449,21.682375 Z M27.6677551,36.8875 C28.3983673,37.080875 29.3714286,37.129625 30.5877551,37.129625 C35.0628571,37.129625 37.7885714,34.9505 37.7885714,31.1244375 C37.7885714,27.4925625 35.2579592,25.5555625 31.122449,25.5555625 C29.4685714,25.5555625 28.3012245,25.701 27.6677551,25.8464375 L27.6677551,36.8875 L27.6677551,36.8875 Z" id="Fill-3" fill="#6EB5E5" sketch:type="MSShapeGroup"></path>
                <path d="M45.6187755,48.4128125 C46.9812245,49.2366875 49.56,50.1076875 51.7004082,50.1076875 C54.3289796,50.1076875 55.4955102,49.0425 55.4955102,47.4930625 C55.4955102,45.894875 54.522449,45.071 51.6040816,44.05375 C46.9812245,42.456375 45.035102,39.9384375 45.0832653,37.178375 C45.0832653,33.0143125 48.5387755,29.768375 54.0367347,29.768375 C56.6628571,29.768375 58.9502041,30.4468125 60.3118367,31.1731875 L59.1453061,35.386 C58.122449,34.80425 56.2253061,34.03075 54.1338776,34.03075 C51.9926531,34.03075 50.8253061,35.0471875 50.8253061,36.4999375 C50.8253061,38.0014375 51.9436735,38.727 54.9608163,39.793 C59.242449,41.3424375 61.2359184,43.5215625 61.2857143,47.008 C61.2857143,51.2695625 57.9289796,54.418 51.6522449,54.418 C48.7812245,54.418 46.202449,53.6908125 44.4522449,52.723125 L45.6187755,48.4128125" id="Fill-4" fill="#6EB5E5" sketch:type="MSShapeGroup"></path>
            </g>
        </g>
    </g>
</svg>