<?xml version="1.0" encoding="UTF-8" standalone="no"?>
<svg width="150px" height="150px" viewBox="0 0 150 150" version="1.1" xmlns="http://www.w3.org/2000/svg" xmlns:xlink="http://www.w3.org/1999/xlink" xmlns:sketch="http://www.bohemiancoding.com/sketch/ns">
    <!-- Generator: Sketch 3.3.1 (12005) - http://www.bohemiancoding.com/sketch -->
    <title>badge</title>
    <desc>Created with Sketch.</desc>
    <defs></defs>
    <g id="35.-Programacion-4" stroke="none" stroke-width="1" fill="none" fill-rule="evenodd" sketch:type="MSPage">
        <g id="badge" sketch:type="MSArtboardGroup">
            <g id="graphic-oop_1_" sketch:type="MSLayerGroup" transform="translate(35.000000, 46.717172)">
                <circle id="Oval" fill="#8C8C8C" sketch:type="MSShapeGroup" cx="5.17818182" cy="27.9006061" r="3.56929293"></circle>
                <rect id="Rectangle-path" fill="#8C8C8C" sketch:type="MSShapeGroup" x="31.7070707" y="1.40888889" width="0.507474747" height="29.570101"></rect>
                <ellipse id="Oval" fill="#8C8C8C" sketch:type="MSShapeGroup" cx="31.7070707" cy="34.5482828" rx="3.56929293" ry="3.56929293"></ellipse>
                <path d="M35.24,33.8040404 C35.2626263,33.9769697 35.2739394,34.1523232 35.2739394,34.3309091 C35.2739394,36.4214141 33.6763636,38.1167677 31.7070707,38.1167677 C29.7353535,38.1167677 28.1377778,36.4214141 28.1377778,34.3309091 C28.1377778,34.0553535 28.1644444,33.7870707 28.2169697,33.5276768 C29.0210101,34.7252525 30.339798,35.5058586 31.829899,35.5058586 C33.2020202,35.5058586 34.4278788,34.8432323 35.24,33.8040404 L35.24,33.8040404 L35.24,33.8040404 Z" id="Shape" fill="#383838" sketch:type="MSShapeGroup"></path>
                <circle id="Oval" fill="#8C8C8C" sketch:type="MSShapeGroup" cx="39.8456566" cy="34.5482828" r="3.56929293"></circle>
                <path d="M43.380202,33.8040404 C43.4036364,33.9769697 43.4157576,34.1523232 43.4157576,34.3309091 C43.4157576,36.4214141 41.8165657,38.1167677 39.8456566,38.1167677 C37.8755556,38.1167677 36.2787879,36.4214141 36.2787879,34.3309091 C36.2787879,34.0553535 36.3054545,33.7870707 36.3579798,33.5276768 C37.1612121,34.7252525 38.4808081,35.5058586 39.970101,35.5058586 C41.3422222,35.5058586 42.5688889,34.8432323 43.380202,33.8040404 L43.380202,33.8040404 L43.380202,33.8040404 Z" id="Shape" fill="#383838" sketch:type="MSShapeGroup"></path>
                <circle id="Oval" fill="#8C8C8C" sketch:type="MSShapeGroup" cx="47.9850505" cy="34.5482828" r="3.56929293"></circle>
                <path d="M51.5187879,33.8040404 C51.5414141,33.9769697 51.5543434,34.1523232 51.5543434,34.3309091 C51.5543434,36.4214141 49.9551515,38.1167677 47.9850505,38.1167677 C46.0149495,38.1167677 44.4173737,36.4214141 44.4173737,34.3309091 C44.4173737,34.0553535 44.4440404,33.7870707 44.4965657,33.5276768 C45.2989899,34.7252525 46.6169697,35.5058586 48.1086869,35.5058586 C49.4808081,35.5058586 50.7074747,34.8432323 51.5187879,33.8040404 L51.5187879,33.8040404 L51.5187879,33.8040404 Z" id="Shape" fill="#383838" sketch:type="MSShapeGroup"></path>
                <ellipse id="Oval" fill="#8C8C8C" sketch:type="MSShapeGroup" cx="56.1236364" cy="34.5482828" rx="3.56929293" ry="3.56929293"></ellipse>
                <path d="M59.6921212,34.3309091 C59.6921212,36.4214141 58.0929293,38.1167677 56.1236364,38.1167677 C54.1535354,38.1167677 52.5551515,36.4214141 52.5551515,34.3309091 C52.5551515,34.0553535 52.5826263,33.7870707 52.6351515,33.5276768 C53.4375758,34.7252525 54.7563636,35.5058586 56.2464646,35.5058586 C57.620202,35.5058586 58.8460606,34.8440404 59.6589899,33.8040404 C59.6791919,33.9769697 59.6921212,34.1515152 59.6921212,34.3309091 L59.6921212,34.3309091 Z" id="Shape" fill="#383838" sketch:type="MSShapeGroup"></path>
                <path d="M6.68305471,25.3852076 L6.28323943,25.0713429 L24.5417788,1.81277277 L24.9415941,2.12663741 L6.68305471,25.3852076 L6.68305471,25.3852076 Z" id="Rectangle-path" fill="#8C8C8C" sketch:type="MSShapeGroup"></path>
                <path d="M6.96242424,24.7329293 C8.02262626,25.3284848 8.74666667,26.5236364 8.74666667,27.899798 C8.74666667,29.8707071 7.2630303,31.4690909 5.43353535,31.4690909 C4.94464646,31.4690909 4.48,31.3551515 4.06222222,31.1507071 C5.90464646,30.4290909 7.2169697,28.5608081 7.2169697,26.3709091 C7.21777778,25.7987879 7.12808081,25.2476768 6.96242424,24.7329293 L6.96242424,24.7329293 L6.96242424,24.7329293 Z" id="Shape" fill="#383838" sketch:type="MSShapeGroup"></path>
                <rect id="Rectangle-path" fill="#8C8C8C" sketch:type="MSShapeGroup" x="39.3357576" y="1.40888889" width="0.50989899" height="29.570101"></rect>
                <rect id="Rectangle-path" fill="#8C8C8C" sketch:type="MSShapeGroup" x="47.9850505" y="1.40888889" width="0.510707071" height="29.570101"></rect>
                <rect id="Rectangle-path" fill="#8C8C8C" sketch:type="MSShapeGroup" x="56.1236364" y="1.40888889" width="0.50989899" height="29.570101"></rect>
                <path d="M61.769697,53.6468687 L19.9644444,53.6468687 C16.7305051,53.6468687 14.1010101,51.0165657 14.1010101,47.7842424 L14.1010101,6.48808081 C14.1010101,3.25575758 16.7305051,0.624646465 19.9644444,0.624646465 L61.769697,0.624646465 C65.0036364,0.624646465 67.6323232,3.25494949 67.6323232,6.48808081 L67.6323232,47.7842424 C67.6323232,51.0165657 65.0036364,53.6468687 61.769697,53.6468687 L61.769697,53.6468687 Z M19.9636364,2.15434343 C17.5741414,2.15434343 15.629899,4.09858586 15.629899,6.48808081 L15.629899,47.7842424 C15.629899,50.1737374 17.5741414,52.1179798 19.9636364,52.1179798 L61.7688889,52.1179798 C64.1591919,52.1179798 66.1010101,50.1737374 66.1010101,47.7842424 L66.1010101,6.48808081 C66.1010101,4.09858586 64.1591919,2.15434343 61.7688889,2.15434343 L19.9636364,2.15434343 L19.9636364,2.15434343 Z" id="Shape" fill="#999595" sketch:type="MSShapeGroup"></path>
                <path d="M8.23757576,44.7248485 L71.9652525,44.7248485 C73.9369697,44.7248485 75.5345455,46.3224242 75.5345455,48.2941414 L75.5345455,51.3535354 C75.5345455,53.3244444 73.9369697,54.9220202 71.9652525,54.9220202 L8.23757576,54.9220202 C6.26747475,54.9220202 4.66909091,53.3244444 4.66909091,51.3535354 L4.66909091,48.2941414 C4.66909091,46.3224242 6.26666667,44.7248485 8.23757576,44.7248485 L8.23757576,44.7248485 Z" id="Shape" fill="#C88F5C" sketch:type="MSShapeGroup"></path>
                <rect id="Rectangle-path" fill="#D99E69" sketch:type="MSShapeGroup" x="0.58989899" y="48.2933333" width="79.0230303" height="7.64767677"></rect>
            </g>
        </g>
    </g>
</svg>