<?xml version="1.0" encoding="UTF-8" standalone="no"?>
<svg width="150px" height="150px" viewBox="0 0 150 150" version="1.1" xmlns="http://www.w3.org/2000/svg" xmlns:xlink="http://www.w3.org/1999/xlink" xmlns:sketch="http://www.bohemiancoding.com/sketch/ns">
    <!-- Generator: Sketch 3.5.1 (25234) - http://www.bohemiancoding.com/sketch -->
    <title>badge</title>
    <desc>Created with Sketch.</desc>
    <defs></defs>
    <g id="React" stroke="none" stroke-width="1" fill="none" fill-rule="evenodd" sketch:type="MSPage">
        <g id="badge" sketch:type="MSArtboardGroup">
            <g id="react" sketch:type="MSLayerGroup" transform="translate(35.000000, 39.000000)">
                <g id="Background" fill="#000000" sketch:type="MSShapeGroup" fill-opacity="0">
                    <rect id="Rectangle-path" x="0" y="0" width="80" height="72"></rect>
                </g>
                <g id="Layer_1" transform="translate(0.421053, 0.705882)" fill="#00D8FF" sketch:type="MSShapeGroup">
                    <path d="M39.5128421,22.5357176 C48.6100438,22.5357176 57.2518543,23.825838 63.8217311,26.1009102 C71.1183248,28.6275967 75.5691228,32.3632519 75.5691228,35.2416 C75.5691228,38.3076027 70.7623722,42.2880077 62.9575886,44.8891723 C56.7441014,46.9599685 48.4308068,48.0886588 39.5128421,48.0886588 C30.1442958,48.0886588 21.7372298,46.9819619 15.5958291,44.8704023 C11.7510196,43.5485111 8.57587372,41.8305968 6.39954141,39.955868 C4.44389796,38.2712443 3.4565614,36.5986806 3.4565614,35.2416 C3.4565614,32.3535702 7.73705899,28.6698029 14.8762889,26.1660801 C21.4489139,23.8612391 30.3022384,22.5357176 39.5128421,22.5357176 L39.5128421,22.5357176 Z M39.5128421,19.1474824 C29.9444066,19.1474824 20.7202775,20.5285207 13.7673975,22.9667068 C5.41940186,25.8943429 0.0881403509,30.4823905 0.0881403509,35.2416 C0.0881403509,40.1570067 5.81134548,45.0870705 14.5063632,48.0765211 C21.0421045,50.3236644 29.8026592,51.4768941 39.5128421,51.4768941 C48.7670431,51.4768941 57.4300695,50.300721 64.0170024,48.1054648 C73.0563053,45.0928618 78.9375439,40.2226879 78.9375439,35.2416 C78.9375439,30.4651873 73.4342962,25.8461873 64.9181911,22.8972048 C57.9736987,20.4924075 48.9647808,19.1474824 39.5128421,19.1474824 L39.5128421,19.1474824 Z" id="Shape"></path>
                    <path d="M28.5096496,28.9294434 C33.0543024,21.0025738 38.4825982,14.1168675 43.7240371,9.5285813 C49.5452327,4.43286544 54.985895,2.42079554 57.4647425,3.85868575 C60.1052289,5.39032173 61.131917,11.5673994 59.4729565,19.6675358 C58.152184,26.1163123 54.9711351,33.9241263 50.5160283,41.6949442 C45.8357699,49.8584283 40.6828154,56.6310771 35.7961419,60.9276827 C32.7369562,63.6175716 29.6712835,65.5260501 26.9695209,66.4858498 C24.5417408,67.3483173 22.6080497,67.3730699 21.4392511,66.6950988 C18.9521079,65.2522891 17.9180837,59.6821899 19.328472,52.2105187 C20.6268561,45.3320915 23.9081356,36.9555603 28.5096527,28.9294379 L28.5096496,28.9294434 Z M25.5916806,27.2367739 C20.811396,35.5747088 17.3926784,44.3020953 16.0191762,51.5784744 C14.3700011,60.3151418 15.6578582,67.2525921 19.756485,69.630235 C23.9898321,72.0858223 31.0947369,69.5618089 38.0130045,63.4786965 C43.2134405,58.9062152 48.5830684,51.8487875 53.4340044,43.3876012 C58.0570794,35.3238048 61.371946,27.1875384 62.7720951,20.3511989 C64.6934713,10.969777 63.4372755,3.41186429 59.1474618,0.92352239 C55.034008,-1.46254409 48.306865,1.02529307 41.512745,6.97268045 C35.9724357,11.8225938 30.3135503,19.0007993 25.5916838,27.2367684 L25.5916806,27.2367739 Z" id="Shape"></path>
                    <path d="M28.5201782,41.713388 C23.9624125,33.7941054 20.7427209,25.6247198 19.408519,18.7655704 C17.9267091,11.1477972 18.910891,5.40154133 21.3873727,3.95948469 C24.0253257,2.4233111 29.8584035,4.61352284 36.0063794,10.104592 C40.9011408,14.476149 46.0372281,21.1475029 50.5053687,28.9109938 C55.1991895,37.0665466 58.4590815,44.9395579 59.7193535,51.3439177 C60.5083529,55.3532531 60.6210804,58.9779931 60.0984469,61.8117972 C59.6288142,64.3582221 58.6844133,66.0556861 57.5167544,66.7356289 C55.0319011,68.182605 49.7178883,66.3019359 43.9869774,61.341337 C38.7111255,56.7746478 33.1350933,49.7317298 28.5201673,41.713369 L28.5201782,41.713388 Z M25.6050257,43.4109604 C30.3992275,51.74081 36.2087964,59.0787012 41.7898671,63.9095827 C48.4910738,69.7100566 55.1096045,72.0524043 59.2043746,69.6679439 C63.4335845,67.2052207 64.8079734,59.7530597 63.0236618,50.6860003 C61.6824696,43.8704261 58.2855084,35.6663771 53.4205233,27.2134249 C48.783927,19.1572385 43.4317679,12.2052252 38.2428547,7.57095854 C31.1224101,1.21132818 23.9853696,-1.46849716 19.6997474,1.02717265 C15.5902109,3.42015803 14.3733057,10.5251946 16.1027811,19.4161803 C17.5130576,26.6664303 20.8695213,35.1828505 25.6050147,43.4109414 L25.6050257,43.4109604 Z" id="Shape"></path>
                </g>
                <circle id="Oval-1" fill="#00D8FF" sketch:type="MSShapeGroup" cx="40" cy="36" r="7"></circle>
            </g>
        </g>
    </g>
</svg>