<?xml version="1.0" encoding="UTF-8" standalone="no"?>
<svg width="150px" height="150px" viewBox="0 0 150 150" version="1.1" xmlns="http://www.w3.org/2000/svg" xmlns:xlink="http://www.w3.org/1999/xlink" xmlns:sketch="http://www.bohemiancoding.com/sketch/ns">
    <!-- Generator: Sketch 3.5.1 (25234) - http://www.bohemiancoding.com/sketch -->
    <title>badge</title>
    <desc>Created with Sketch.</desc>
    <defs></defs>
    <g id="SaSs" stroke="none" stroke-width="1" fill="none" fill-rule="evenodd" sketch:type="MSPage">
        <g id="badge" sketch:type="MSArtboardGroup" fill="#FFFFFF">
            <g id="logo-b6e1ef6e-copy" sketch:type="MSLayerGroup" transform="translate(36.000000, 48.000000)">
                <path d="M60.7411499,34.9375474 C60.0017486,33.5017126 59.2623472,32.2472464 59.1391137,31.3101753 C59.0004759,30.2219636 58.8310298,29.5569454 59.0004759,28.257137 C59.1699221,26.9573287 59.9401318,25.1134145 59.9401318,24.962274 C59.9247276,24.8262475 59.7706856,24.1612293 58.1840537,24.1461153 C56.5974217,24.1310012 55.2264484,24.4483963 55.0724065,24.8564756 C54.9183645,25.264555 54.6102807,26.2016262 54.4100261,27.1689254 C54.1327507,28.5896462 51.2367622,33.622625 49.5885134,36.2675839 C49.0493666,35.2398284 48.5872408,34.3329854 48.4948157,33.607511 C48.3561779,32.5192993 48.1867318,31.8542811 48.3561779,30.5544727 C48.525624,29.2546644 49.2958337,27.4107502 49.2958337,27.2596097 C49.2804296,27.1235832 49.1263876,26.458565 47.5397556,26.443451 C45.9531237,26.4283369 44.5821504,26.745732 44.4281084,27.1538113 C44.2740665,27.5618907 44.1046204,28.52919 43.7657281,29.4662611 C43.44224,30.4033322 39.5911915,38.8067444 38.5899189,40.9982817 C38.0815805,42.1167215 37.6348589,43.0084505 37.3113708,43.6130125 C36.9878828,44.2326886 36.8338408,44.5198555 36.8338408,44.5198555 C36.6181821,44.9128208 36.3871192,45.2755581 36.2792898,45.2755581 C36.2022689,45.2755581 36.0482269,44.2629167 36.3100982,42.872424 C36.8800534,39.9554122 38.2664309,35.406083 38.2510267,35.2398284 C38.2510267,35.1642582 38.512898,34.3632135 37.3575834,33.9551341 C36.2330773,33.5470548 35.8325682,34.227187 35.740143,34.227187 C35.6477179,34.227187 35.5706969,34.4690119 35.5706969,34.4690119 C35.5706969,34.4690119 36.8184366,29.3453487 33.1830468,29.3453487 C30.9032261,29.3453487 27.7607706,31.7787108 26.204947,34.0004763 C25.2190786,34.5294681 23.1241082,35.6479078 20.9059042,36.8419178 C20.0586736,37.2953393 19.1806345,37.7789889 18.348808,38.2172964 L18.1793619,38.0359278 C13.7737624,33.4261424 5.62494382,30.1615074 5.96383609,23.9647467 C6.08706964,21.7127531 6.88808773,15.7729312 21.6144972,8.5786431 C33.6759811,2.68416335 43.3344107,4.30136677 45.0134678,7.89851082 C47.4011179,13.037288 39.8530628,22.589368 27.3140489,23.9647467 C22.5387488,24.4937384 20.0278652,22.6800524 19.3962932,21.9999201 C18.7339129,21.2895597 18.6414877,21.2593316 18.3950206,21.395358 C17.9945116,21.6069548 18.2409787,22.2417449 18.3950206,22.6195961 C18.7647213,23.5717813 20.3051407,25.264555 22.9238537,26.1109418 C25.2190786,26.8515303 30.8262052,27.2596097 37.6040505,24.6902211 C45.1983181,21.8034374 51.1289328,13.7929906 49.3882589,7.09746614 C47.6167766,0.281029298 36.0944395,-1.9558502 25.2036744,1.83777651 C18.7185087,4.10488411 11.6941962,7.64157196 6.64162062,12.2815855 C0.633984973,17.7830999 -0.321075053,22.589368 0.0794339901,24.5844227 C1.48121564,31.7031406 11.4785375,36.3431541 15.483628,39.7740436 C15.2833734,39.879842 15.0985231,39.9856403 14.929077,40.0763246 C12.9265318,41.0436239 5.30145575,44.958163 3.39133569,49.0994129 C1.23474854,53.7847686 3.73022796,57.1552019 5.39388091,57.6086234 C10.5388817,59.0142301 15.807116,56.4901836 18.6568919,52.3338197 C21.4912636,48.1774558 21.1523713,42.7817397 19.8430149,40.3181495 L21.3680301,39.3206221 C22.3847069,38.7311741 23.3859795,38.1870683 24.2640185,37.7185327 C23.7710843,39.0334551 23.4167879,40.5902024 23.2319375,42.85731 C23.0162788,45.5173829 24.1253808,48.9633864 25.5887792,50.323651 C26.2357554,50.913099 27.0059651,50.928213 27.4834951,50.928213 C29.1779564,50.928213 29.9481661,49.5528344 30.7953968,47.9054029 C31.842882,45.8952341 32.7671336,43.5676703 32.7671336,43.5676703 C32.7671336,43.5676703 31.6118191,49.8702295 34.7696788,49.8702295 C35.9249934,49.8702295 37.0803079,48.4041665 37.6040505,47.648464 C37.8197092,47.331069 37.881326,47.2252706 37.881326,47.2252706 C38.3434518,46.4091119 39.3755328,44.6105398 40.9159522,41.6330719 C42.9030932,37.794103 44.8132133,32.9878349 44.8132133,32.9878349 C44.8132133,32.9878349 44.9980636,34.1667308 45.5680188,36.1013293 C45.9069111,37.2499972 46.6463124,38.5044634 47.2162676,39.7287015 C46.7541417,40.3634916 46.4768662,40.7262288 46.4768662,40.7262288 C46.1225698,41.2249925 45.7066565,41.7388702 45.2753391,42.2527479 C43.7041113,44.0966621 41.8247997,46.1975152 41.5783326,46.8020772 C41.2856529,47.5124376 41.3472697,48.0414293 41.9172248,48.4646228 C42.3331381,48.7669038 43.0725394,48.82736 43.8581533,48.7669038 C45.2753391,48.6762195 46.2612075,48.3285963 46.7541417,48.1169996 C47.5243514,47.8449467 48.4023905,47.4368673 49.2496212,46.8323053 C50.7900406,45.7138655 51.7296964,44.1268902 51.6372712,42.0109231 C51.5910586,40.8471412 51.2059538,39.6984734 50.7284238,38.6102617 C50.8670615,38.4137791 51.0056993,38.2172964 51.144337,38.0056997 C53.5781997,34.514354 55.4575113,30.6753851 55.4575113,30.6753851 C55.4575113,30.6753851 55.6423617,31.8542811 56.2123168,33.7888796 C56.5049965,34.7712929 57.0903559,35.8443905 57.6140985,36.902374 C55.3342778,38.7311741 53.9016877,40.8471412 53.4087535,42.2376339 C52.4999061,44.8070225 53.208499,45.9708044 54.5486639,46.2428573 C55.1494275,46.3637697 56.0120623,46.0917168 56.6590385,45.8196639 C57.4600566,45.562725 58.4305208,45.1244176 59.323964,44.4745134 C60.8643834,43.3560736 62.343186,41.7993264 62.2661651,39.6984734 C62.2199525,38.7311741 61.9580812,37.7789889 61.6037847,36.8721459 C63.5447132,36.0862153 66.0555968,35.6327938 69.2442649,36.010645 C76.0991313,36.7965757 77.4547003,40.9982817 77.192829,42.7515116 C76.9309577,44.5047415 75.4983677,45.4720407 75.0208377,45.7743217 C74.5433077,46.0614887 74.3892657,46.1672871 74.4354783,46.3788838 C74.4970951,46.6962788 74.7127538,46.6811648 75.128667,46.6207086 C75.6986222,46.5300243 78.7332484,45.1848738 78.856482,41.9504669 C79.0413323,37.794103 75.0208377,33.2598878 67.8886959,33.30523 C65.1313452,33.320344 62.7436951,33.9702482 60.7411499,34.9375474 Z M15.0215021,50.7921865 C12.7570856,53.2255487 9.56841748,54.1475058 8.21284841,53.3615752 C6.74944998,52.5303024 7.31940516,48.9482724 10.1075643,46.3637697 C11.8020256,44.7919084 14.0048253,43.3409596 15.4528196,42.4492306 C15.7763077,42.2527479 16.2692419,41.965581 16.8546012,41.6179578 C16.9470264,41.5575016 17.0086432,41.5272735 17.0086432,41.5272735 C17.1164725,41.4668173 17.2397061,41.391247 17.3629396,41.3156768 C18.3950206,45.0035052 17.4091522,48.237912 15.0215021,50.7921865 L15.0215021,50.7921865 Z M31.5810107,39.7438155 C30.7953968,41.6330719 29.1317438,46.4846821 28.1304712,46.2126292 C27.2678364,45.9859184 26.7440938,42.3132041 27.9610251,38.685832 C28.5771928,36.8570319 29.8865493,34.6806086 30.656759,33.8342217 C31.9044987,32.4739572 33.2600678,32.0205356 33.5989601,32.5797555 C33.9994691,33.30523 32.0739449,38.5649196 31.5810107,39.7438155 L31.5810107,39.7438155 Z M45.2445307,46.152173 C44.9056385,46.3184276 44.5975546,46.43934 44.4589168,46.3486557 C44.3510875,46.2881995 44.5975546,46.0614887 44.5975546,46.0614887 C44.5975546,46.0614887 46.3074201,44.2629167 46.9852046,43.4316439 C47.3703095,42.9479943 47.8324353,42.3887744 48.3253695,41.7539843 L48.3253695,41.9353529 C48.3253695,44.1117762 46.1995908,45.562725 45.2445307,46.152173 L45.2445307,46.152173 Z M55.7809994,43.7943811 C55.5345323,43.6130125 55.5653407,43.0537926 56.3971672,41.3005627 C56.7206552,40.6053164 57.4600566,39.4415345 58.7386047,38.3382088 C58.8926466,38.7916303 58.9850718,39.2299378 58.9696676,39.6380172 C58.9542634,42.3585463 56.9825265,43.3711877 55.7809994,43.7943811 L55.7809994,43.7943811 Z" id="Shape" sketch:type="MSShapeGroup"></path>
            </g>
        </g>
    </g>
</svg>