<?xml version="1.0" encoding="UTF-8" standalone="no"?>
<svg width="150px" height="150px" viewBox="0 0 150 150" version="1.1" xmlns="http://www.w3.org/2000/svg" xmlns:xlink="http://www.w3.org/1999/xlink" xmlns:sketch="http://www.bohemiancoding.com/sketch/ns">
    <!-- Generator: Sketch 3.4.3 (16044) - http://www.bohemiancoding.com/sketch -->
    <title>badge</title>
    <desc>Created with Sketch.</desc>
    <defs>
        <path d="M3.68014706,19.5285923 L13.5323731,7.28301889 L25.1733063,2.29032258 L38.6415441,2.29032308 L38.6415441,66.7056452 L3.68014706,19.5285923 Z M73.6029412,19.5285923 L63.7507152,7.28301889 L52.1097819,2.29032258 L38.6415441,2.29032308 L38.6415441,66.7056452 L73.6029412,19.5285923 Z" id="path-1"></path>
    </defs>
    <g id="Wordpress" stroke="none" stroke-width="1" fill="none" fill-rule="evenodd" sketch:type="MSPage">
        <g id="badge" sketch:type="MSArtboardGroup">
            <g id="3-copy" sketch:type="MSLayerGroup" transform="translate(36.000000, 41.000000)">
                <g id="Group">
                    <path d="M0,19.0004039 L10.8494149,5.50306082 L23.6685803,0 L38.5,5.48805482e-07 L38.5,71 L0,19.0004039 Z M77,19.0004039 L66.1505851,5.50306082 L53.3314197,0 L38.5,5.48805482e-07 L38.5,71 L77,19.0004039 Z" id="Mask-Copy" fill="#F56423" sketch:type="MSShapeGroup"></path>
                    <mask id="mask-2" sketch:name="Mask" fill="white">
                        <use xlink:href="#path-1"></use>
                    </mask>
                    <use id="Mask" fill="#051524" sketch:type="MSShapeGroup" xlink:href="#path-1"></use>
                </g>
                <path d="M13.1257288,7.15222562 L23.9665707,13.2196793 L53.3687872,13.2196793 L64.6331356,6.79184649" id="Path-230" stroke="#F56423" stroke-width="3" sketch:type="MSShapeGroup"></path>
                <path d="M53.2568036,13.2171631 L63.7183515,26.7846404 L75.6124806,18.2099097" id="Path-230" stroke="#F56423" stroke-width="3" sketch:type="MSShapeGroup"></path>
                <path d="M1.7347448,13.2171631 L12.1962927,26.7846404 L24.0904218,18.2099097" id="Path-230-Copy" stroke="#F56423" stroke-width="3" sketch:type="MSShapeGroup" transform="translate(12.912583, 20.000902) scale(-1, 1) translate(-12.912583, -20.000902) "></path>
                <path d="M63.848561,26.6230429 L38.1171951,67.8969761" id="Path-230" stroke="#F56423" stroke-width="3" sketch:type="MSShapeGroup"></path>
                <path d="M39.2198845,26.6230429 L13.4885186,67.8969761" id="Path-230-Copy-2" stroke="#F56423" stroke-width="3" sketch:type="MSShapeGroup" transform="translate(26.354202, 47.260010) scale(-1, 1) translate(-26.354202, -47.260010) "></path>
                <path d="M13.9282729,26.7681452 L63.596306,26.7681452" id="Path-229" stroke="#F56423" stroke-width="3" sketch:type="MSShapeGroup"></path>
            </g>
        </g>
    </g>
</svg>