<?xml version="1.0" encoding="UTF-8" standalone="no"?>
<svg width="150px" height="150px" viewBox="0 0 150 150" version="1.1" xmlns="http://www.w3.org/2000/svg" xmlns:xlink="http://www.w3.org/1999/xlink" xmlns:sketch="http://www.bohemiancoding.com/sketch/ns">
    <!-- Generator: Sketch 3.4.3 (16044) - http://www.bohemiancoding.com/sketch -->
    <title>badge</title>
    <desc>Created with Sketch.</desc>
    <defs></defs>
    <g id="Wordpress" stroke="none" stroke-width="1" fill="none" fill-rule="evenodd" sketch:type="MSPage">
        <g id="badge" sketch:type="MSArtboardGroup" fill="#FFFFFF">
            <g id="Page-1" sketch:type="MSLayerGroup" transform="translate(35.000000, 35.000000)">
                <g id="Group-3" sketch:type="MSShapeGroup">
                    <path d="M42.0841311,73.4407789 C24.103235,75.2350302 6.72671833,59.9927282 6.21677322,41.9362847 C4.87580645,27.317249 14.5084076,12.811839 28.296117,7.97649925 C47.6371714,0.232583694 71.3596717,14.5305429 73.361983,35.2689199 C76.4783142,53.9300475 60.9904831,72.89306 42.0841311,73.4407789 M79.4246638,38.876614 C79.2357952,25.6363188 71.8129562,12.7740653 60.4427643,5.97449252 C51.4145426,0.402565398 40.1010112,-1.12726993 29.8640307,1.49800304 C14.4328602,5.33233942 2.19356829,19.3092221 0.625959245,35.1555988 C-1.31938691,50.1523716 6.25454693,65.7724107 19.2301216,73.5163263 C31.9604717,81.4868841 49.2047804,81.1658076 61.67041,72.7797389 C72.8709248,65.5079948 79.8401746,52.2488127 79.4246638,38.876614" id="Fill-1"></path>
                    <path d="M30.1766704,37.6820114 C38.8460419,30.5991358 47.3265449,23.2707311 56.1847849,16.3956109 C51.5386184,23.5351471 46.7599392,30.580249 42.113468,37.7197851 C38.1283414,37.738672 34.1429102,37.738672 30.1766704,37.6820114" id="Fill-4"></path>
                    <path d="M37.5461998,41.6796277 C41.5502132,41.6796277 45.5356444,41.6796277 49.520771,41.7362883 C40.794739,48.7813902 32.3520098,56.1664555 23.4748828,63.0226888 C28.121354,55.8831526 32.8997286,48.8191639 37.5461998,41.6796277" id="Fill-6"></path>
                </g>
            </g>
        </g>
    </g>
</svg>