<?xml version="1.0" encoding="UTF-8" standalone="no"?>
<svg width="150px" height="150px" viewBox="0 0 150 150" version="1.1" xmlns="http://www.w3.org/2000/svg" xmlns:xlink="http://www.w3.org/1999/xlink" xmlns:sketch="http://www.bohemiancoding.com/sketch/ns">
    <!-- Generator: Sketch 3.3.1 (12005) - http://www.bohemiancoding.com/sketch -->
    <title>badge</title>
    <desc>Created with Sketch.</desc>
    <defs></defs>
    <g id="57.-SVG" stroke="none" stroke-width="1" fill="none" fill-rule="evenodd" sketch:type="MSPage">
        <g id="badge" sketch:type="MSArtboardGroup" fill="#FFB13B">
            <g id="svg-logo" sketch:type="MSLayerGroup" transform="translate(40.000000, 39.000000)">
                <g id="Group" stroke-width="10.8154553" stroke="#000000" sketch:type="MSShapeGroup">
                    <g id="svgstar">
                        <path d="M11.055248,31.419784 C8.56415087,28.9242987 4.52528913,28.9243015 2.0341955,31.4197903 C-0.456898119,33.9152791 -0.456898119,37.9612641 2.0341955,40.4567529 C4.52528913,42.9522417 8.56415087,42.9522446 11.055248,40.4567592 L58.944752,40.4567592 C61.4358491,42.9522446 65.4747109,42.9522417 67.9658045,40.4567529 C70.4568981,37.9612641 70.4568981,33.9152791 67.9658045,31.4197903 C65.4747109,28.9243015 61.4358491,28.9242987 58.944752,31.419784 L11.055248,31.419784 Z" id="svgbar"></path>
                        <g id="svgbar-link" transform="translate(35.000000, 35.938272) rotate(45.000000) translate(-35.000000, -35.938272) translate(0.000000, 29.382013)">
                            <path d="M11.055248,2.03777055 C8.56415087,-0.457714796 4.52528913,-0.457711975 2.0341955,2.03777685 C-0.456898119,4.53326568 -0.456898119,8.57925063 2.0341955,11.0747395 C4.52528913,13.5702283 8.56415087,13.5702311 11.055248,11.0747458 L58.944752,11.0747458 C61.4358491,13.5702311 65.4747109,13.5702283 67.9658045,11.0747395 C70.4568981,8.57925063 70.4568981,4.53326568 67.9658045,2.03777685 C65.4747109,-0.457711975 61.4358491,-0.457714796 58.944752,2.03777055 L11.055248,2.03777055 Z" id="svgbar"></path>
                        </g>
                        <g id="svgbar-link" transform="translate(35.000000, 35.938272) rotate(90.000000) translate(-35.000000, -35.938272) translate(0.000000, 29.382013)">
                            <path d="M11.055248,2.03777055 C8.56415087,-0.457714796 4.52528913,-0.457711975 2.0341955,2.03777685 C-0.456898119,4.53326568 -0.456898119,8.57925063 2.0341955,11.0747395 C4.52528913,13.5702283 8.56415087,13.5702311 11.055248,11.0747458 L58.944752,11.0747458 C61.4358491,13.5702311 65.4747109,13.5702283 67.9658045,11.0747395 C70.4568981,8.57925063 70.4568981,4.53326568 67.9658045,2.03777685 C65.4747109,-0.457711975 61.4358491,-0.457714796 58.944752,2.03777055 L11.055248,2.03777055 Z" id="svgbar"></path>
                        </g>
                        <g id="svgbar-link" transform="translate(34.987424, 35.925674) rotate(135.000000) translate(-34.987424, -35.925674) translate(-0.012576, 29.351600)">
                            <path d="M11.055248,2.03777055 C8.56415087,-0.457714796 4.52528913,-0.457711975 2.0341955,2.03777685 C-0.456898119,4.53326568 -0.456898119,8.57925063 2.0341955,11.0747395 C4.52528913,13.5702283 8.56415087,13.5702311 11.055248,11.0747458 L58.944752,11.0747458 C61.4358491,13.5702311 65.4747109,13.5702283 67.9658045,11.0747395 C70.4568981,8.57925063 70.4568981,4.53326568 67.9658045,2.03777685 C65.4747109,-0.457711975 61.4358491,-0.457714796 58.944752,2.03777055 L11.055248,2.03777055 Z" id="svgbar"></path>
                        </g>
                    </g>
                </g>
                <g id="svgstar" transform="translate(0.000000, 0.876543)" sketch:type="MSShapeGroup">
                    <path d="M11.055248,30.5432408 C8.56415087,28.0477554 4.52528913,28.0477583 2.0341955,30.5432471 C-0.456898119,33.0387359 -0.456898119,37.0847209 2.0341955,39.5802097 C4.52528913,42.0756985 8.56415087,42.0757013 11.055248,39.580216 L58.944752,39.580216 C61.4358491,42.0757013 65.4747109,42.0756985 67.9658045,39.5802097 C70.4568981,37.0847209 70.4568981,33.0387359 67.9658045,30.5432471 C65.4747109,28.0477583 61.4358491,28.0477554 58.944752,30.5432408 L11.055248,30.5432408 Z" id="svgbar"></path>
                    <g id="svgbar-link" transform="translate(35.000000, 35.061728) rotate(45.000000) translate(-35.000000, -35.061728) translate(0.000000, 28.505470)">
                        <path d="M11.055248,2.03777055 C8.56415087,-0.457714796 4.52528913,-0.457711975 2.0341955,2.03777685 C-0.456898119,4.53326568 -0.456898119,8.57925063 2.0341955,11.0747395 C4.52528913,13.5702283 8.56415087,13.5702311 11.055248,11.0747458 L58.944752,11.0747458 C61.4358491,13.5702311 65.4747109,13.5702283 67.9658045,11.0747395 C70.4568981,8.57925063 70.4568981,4.53326568 67.9658045,2.03777685 C65.4747109,-0.457711975 61.4358491,-0.457714796 58.944752,2.03777055 L11.055248,2.03777055 Z" id="svgbar"></path>
                    </g>
                    <g id="svgbar-link" transform="translate(35.000000, 35.061728) rotate(90.000000) translate(-35.000000, -35.061728) translate(0.000000, 28.505470)">
                        <path d="M11.055248,2.03777055 C8.56415087,-0.457714796 4.52528913,-0.457711975 2.0341955,2.03777685 C-0.456898119,4.53326568 -0.456898119,8.57925063 2.0341955,11.0747395 C4.52528913,13.5702283 8.56415087,13.5702311 11.055248,11.0747458 L58.944752,11.0747458 C61.4358491,13.5702311 65.4747109,13.5702283 67.9658045,11.0747395 C70.4568981,8.57925063 70.4568981,4.53326568 67.9658045,2.03777685 C65.4747109,-0.457711975 61.4358491,-0.457714796 58.944752,2.03777055 L11.055248,2.03777055 Z" id="svgbar"></path>
                    </g>
                    <g id="svgbar-link" transform="translate(35.000000, 35.061728) rotate(135.000000) translate(-35.000000, -35.061728) translate(0.000000, 28.505470)">
                        <path d="M11.055248,2.03777055 C8.56415087,-0.457714796 4.52528913,-0.457711975 2.0341955,2.03777685 C-0.456898119,4.53326568 -0.456898119,8.57925063 2.0341955,11.0747395 C4.52528913,13.5702283 8.56415087,13.5702311 11.055248,11.0747458 L58.944752,11.0747458 C61.4358491,13.5702311 65.4747109,13.5702283 67.9658045,11.0747395 C70.4568981,8.57925063 70.4568981,4.53326568 67.9658045,2.03777685 C65.4747109,-0.457711975 61.4358491,-0.457714796 58.944752,2.03777055 L11.055248,2.03777055 Z" id="svgbar"></path>
                    </g>
                </g>
            </g>
        </g>
    </g>
</svg>