<svg id="Layer_1" data-name="Layer 1" xmlns="http://www.w3.org/2000/svg" viewBox="0 0 262.73 30.75"><defs><style>.cls-1{fill:#006400;}</style></defs><title>freecodecamp</title><g id="Page-1"><g id="freeCodeCamp_logo" data-name="freeCodeCamp logo"><g id="freeCodeCamp"><path id="path5" class="cls-1" d="M3.62,9.59H1.34C.53,9.59.12,9.24.12,8.53S.53,7.47,1.34,7.47H3.62v-2C3.62,1.89,5.4.15,9,.15A7.67,7.67,0,0,1,12.59,1,3.67,3.67,0,0,1,14.44,4.2c0,.93-.34,1.33-1,1.33a1.23,1.23,0,0,1-1.09-.81A5.69,5.69,0,0,0,11.55,3,3.17,3.17,0,0,0,9,2.24c-2.19,0-3.21,1.11-3.21,3.24v2H10c.92,0,1.39.34,1.39,1.06S10.91,9.56,10,9.56H5.81v13.3c0,.81-.34,1.23-1,1.23s-1-.42-1-1.23V9.59Z" transform="translate(-0.12 -0.02)"/><path id="path7" class="cls-1" d="M22.27,21.73V9.59H19.15c-.85,0-1.26-.34-1.26-1.06s.41-1.06,1.26-1.06h4.13c.68,0,1.09.64,1.09,1.79a5.58,5.58,0,0,1,4.08-2.14,3.57,3.57,0,0,1,2.82,1.11,4.24,4.24,0,0,1,1,2.9c0,.81-.34,1.23-1,1.23-.41,0-.68-.29-.85-.81A15.09,15.09,0,0,0,29.92,10a1.73,1.73,0,0,0-1.6-.81,3.45,3.45,0,0,0-2.24.86,11.27,11.27,0,0,0-1.73,1.87v9.68h3.91c.85,0,1.26.34,1.26,1s-.41,1.11-1.26,1.11H19.13c-.85,0-1.26-.34-1.26-1.06s.41-1.06,1.26-1.06h3.16l0,.17Z" transform="translate(-0.12 -0.02)"/><path id="path9" class="cls-1" d="M37.94,16v2.31c0,2.51,1.73,3.71,5.23,3.71a9.35,9.35,0,0,0,3.11-.42,8.25,8.25,0,0,0,2.11-1.23,3.06,3.06,0,0,1,1.26-.86c.58,0,.85.29.85.93a2.71,2.71,0,0,1-1.26,2c-1.39,1.11-3.45,1.67-6.2,1.67-4.81,0-7.24-1.92-7.24-5.75v-5.8a4.57,4.57,0,0,1,1.48-3.42c1.31-1.28,3.28-1.87,5.91-1.87,4.72,0,7,2.38,7,7.08,0,1.16-.46,1.75-1.31,1.75h-11l0-.07Zm0-2.09H48.22c0-3.15-1.73-4.69-5.23-4.69a7.12,7.12,0,0,0-3.45.86,3.27,3.27,0,0,0-1.6,2.61v1.23Z" transform="translate(-0.12 -0.02)"/><path id="path11" class="cls-1" d="M56,16v2.31C56,20.84,57.68,22,61.18,22a9.35,9.35,0,0,0,3.11-.42,8.25,8.25,0,0,0,2.11-1.23,3.06,3.06,0,0,1,1.26-.86c.58,0,.85.29.85.93a2.71,2.71,0,0,1-1.26,2c-1.39,1.11-3.45,1.67-6.2,1.67-4.81,0-7.24-1.92-7.24-5.75v-5.8A4.57,4.57,0,0,1,55.3,9.14c1.31-1.28,3.28-1.87,5.91-1.87,4.72,0,7,2.38,7,7.08,0,1.16-.46,1.75-1.31,1.75h-11L56,16Zm0-2.09H66.24c0-3.15-1.73-4.69-5.23-4.69a7.12,7.12,0,0,0-3.45.86A3.15,3.15,0,0,0,56,12.71v1.23Z" transform="translate(-0.12 -0.02)"/><path id="path13" class="cls-1" d="M72.09,17.38v-9c0-4.77,2.48-7.08,7.46-7.08a8.46,8.46,0,0,1,4.89,1.33,5.33,5.33,0,0,1,2.11,4.47c0,.86-.34,1.33-1.09,1.33-.51,0-.85-.42-1.09-1.28a6.05,6.05,0,0,0-.8-2c-.63-1.16-2-1.67-4.18-1.67a5,5,0,0,0-4,1.4,6.14,6.14,0,0,0-1.14,4.13v7.55A6.08,6.08,0,0,0,75.5,20.7a5.19,5.19,0,0,0,4,1.45q4.23,0,4.81-2.95A10.44,10.44,0,0,0,84.54,18a.9.9,0,0,1,.85-.64c.68,0,1.09.47,1.09,1.33A5.1,5.1,0,0,1,84.25,23a8.25,8.25,0,0,1-4.72,1.23,8.1,8.1,0,0,1-5.4-1.62,6.78,6.78,0,0,1-2-5.26Z" transform="translate(-0.12 -0.02)"/><path id="path15" class="cls-1" d="M89.89,18.66v-6c0-3.66,2.41-5.46,7.24-5.46s7.24,1.79,7.24,5.46v6c0,3.66-2.36,5.46-7.12,5.46-5,0-7.36-1.82-7.36-5.46Zm12.35,0v-6c0-2.26-1.73-3.42-5.23-3.42-3.33,0-5.06,1.16-5.06,3.42v6c0,2.26,1.73,3.42,5.18,3.37s5.1-1.11,5.1-3.37Z" transform="translate(-0.12 -0.02)"/><path id="path17" class="cls-1" d="M120.15,22.12a9.72,9.72,0,0,1-2.58,1.5,8.45,8.45,0,0,1-2.92.47,8.31,8.31,0,0,1-4.72-1.23,4.71,4.71,0,0,1-2.07-4.23v-6.1a4.75,4.75,0,0,1,2-4.13,7.78,7.78,0,0,1,4.55-1.23,7.45,7.45,0,0,1,5.61,2V1.67c0-1,.34-1.5,1-1.5s1.09.52,1.09,1.5V23c0,.76-.34,1.11-1,1.11a.78.78,0,0,1-.8-.69,3.21,3.21,0,0,1-.19-1.28ZM120,19.69V11.33a11,11,0,0,0-2.48-1.5,7.39,7.39,0,0,0-2.82-.52,5.71,5.71,0,0,0-3.21.76A3,3,0,0,0,110,12.81v5.75a3,3,0,0,0,1.6,2.78,6.76,6.76,0,0,0,3.28.76,7.3,7.3,0,0,0,2.87-.52A19.12,19.12,0,0,0,120,19.69Z" transform="translate(-0.12 -0.02)"/><path id="path19" class="cls-1" d="M128,16v2.31c0,2.51,1.73,3.71,5.23,3.71a9.35,9.35,0,0,0,3.11-.42,8.25,8.25,0,0,0,2.11-1.23,3.06,3.06,0,0,1,1.26-.86c.58,0,.85.29.85.93a2.71,2.71,0,0,1-1.26,2c-1.39,1.11-3.45,1.67-6.2,1.67-4.81,0-7.24-1.92-7.24-5.75v-5.8a4.57,4.57,0,0,1,1.48-3.42c1.31-1.28,3.28-1.87,5.91-1.87,4.72,0,7,2.38,7,7.08,0,1.16-.46,1.75-1.31,1.75h-11V16Zm0-2.09h10.28c0-3.15-1.73-4.69-5.23-4.69a7.12,7.12,0,0,0-3.45.86,3.15,3.15,0,0,0-1.6,2.61v1.23Z" transform="translate(-0.12 -0.02)"/><path id="path21" class="cls-1" d="M144.09,17.38v-9c0-4.77,2.48-7.08,7.46-7.08a8.46,8.46,0,0,1,4.89,1.33,5.33,5.33,0,0,1,2.11,4.47c0,.86-.34,1.33-1.09,1.33-.51,0-.85-.42-1.09-1.28a6.05,6.05,0,0,0-.8-2c-.63-1.16-2-1.67-4.18-1.67a5,5,0,0,0-4,1.4,6.14,6.14,0,0,0-1.14,4.13v7.55a6.08,6.08,0,0,0,1.22,4.23,5.19,5.19,0,0,0,4,1.45q4.23,0,4.81-2.95a10.44,10.44,0,0,0,.22-1.16.9.9,0,0,1,.85-.64c.68,0,1.09.47,1.09,1.33a5.1,5.1,0,0,1-2.24,4.3,8.25,8.25,0,0,1-4.72,1.23,8.1,8.1,0,0,1-5.4-1.62,7,7,0,0,1-2-5.26Z" transform="translate(-0.12 -0.02)"/><path id="path23" class="cls-1" d="M173.48,22.12a12.86,12.86,0,0,1-2.41,1.5,7.6,7.6,0,0,1-2.82.47A7.32,7.32,0,0,1,164,23a4.37,4.37,0,0,1-1.94-3.83,4.6,4.6,0,0,1,2-4,7.14,7.14,0,0,1,4.35-1.28,15.2,15.2,0,0,1,4.89,1V12.34a2.67,2.67,0,0,0-1.73-2.61,7.39,7.39,0,0,0-2.92-.52c-2.7,0-4.13.76-4.42,2.26-.12.69-.22,1.06-.22,1.11a.89.89,0,0,1-.85.52c-.75,0-1.14-.42-1.14-1.23a4.36,4.36,0,0,1,1.26-3c1-1.16,2.92-1.75,5.57-1.75a8.4,8.4,0,0,1,4.72,1.06,5,5,0,0,1,1.85,4.35v7.42a2.29,2.29,0,0,0,.51,1.75,7.6,7.6,0,0,0,1,.47,1,1,0,0,1,.51,1c0,.59-.29.86-.92.86a2.85,2.85,0,0,1-.92-.22l-1.43-.52a1.43,1.43,0,0,1-.66-1.13Zm-.12-2.19V16.86a15.18,15.18,0,0,0-4.55-.81c-3.11,0-4.64,1-4.64,3a2.39,2.39,0,0,0,1.39,2.31,5.64,5.64,0,0,0,2.82.64,5.8,5.8,0,0,0,2.7-.59,9,9,0,0,0,2.28-1.5Z" transform="translate(-0.12 -0.02)"/><path id="path25" class="cls-1" d="M181.5,8.95a5.05,5.05,0,0,1,1.31-1.28,3.23,3.23,0,0,1,1.77-.47,3.66,3.66,0,0,1,3,1.79,5.84,5.84,0,0,1,1.56-1.4,4.1,4.1,0,0,1,2-.42c2.48,0,3.74,1.23,3.74,3.66V22.61c0,1-.34,1.45-1.09,1.45s-1-.47-1-1.45V11.55c0-1.5-.63-2.31-1.85-2.31a3.48,3.48,0,0,0-2.65,1.67V22.64c0,1-.34,1.45-1,1.45s-1-.47-1-1.45V11.8c0-1.67-.68-2.51-2-2.51-.85,0-1.65.59-2.53,1.67V22.64c0,1-.34,1.45-1.09,1.45s-1-.47-1-1.45V8.23c0-.69.29-1.06.85-1.06a.88.88,0,0,1,.75.64,1.56,1.56,0,0,1,.41,1.13Z" transform="translate(-0.12 -0.02)"/><path id="path27" class="cls-1" d="M200.17,8.95a9.38,9.38,0,0,1,5.57-1.75c4.35,0,6.54,1.87,6.54,5.51v6a4.92,4.92,0,0,1-1.85,4.06A7,7,0,0,1,206,24.14a9.61,9.61,0,0,1-5.81-1.79V29.2c0,1.06-.34,1.57-1,1.57s-1-.52-1-1.57V8.77c0-1.06.29-1.57.85-1.57.29,0,.58.22.8.64a10.68,10.68,0,0,1,.46,1.11Zm0,11a8,8,0,0,0,5.44,2,5.54,5.54,0,0,0,3.16-.76,2.81,2.81,0,0,0,1.43-2.56v-6a2.87,2.87,0,0,0-1.56-2.73,7,7,0,0,0-3.21-.64,6.91,6.91,0,0,0-2.92.52,8.5,8.5,0,0,0-2.36,1.87V20Z" transform="translate(-0.12 -0.02)"/><path id="path29" class="cls-1" d="M219.39,14.23A17.94,17.94,0,0,1,224.11,2c1.14-1.33,2.07-2,2.7-2a.87.87,0,0,1,.63.22.81.81,0,0,1,.29.59c0,.34-.41.86-1.22,1.67a15.86,15.86,0,0,0-4.93,11.85,16.83,16.83,0,0,0,5.1,12.71c.68.64,1,1.16,1,1.57a1,1,0,0,1-.29.64,1,1,0,0,1-.63.29c-.8,0-1.9-.93-3.33-2.78a19.32,19.32,0,0,1-4.08-12.56Z" transform="translate(-0.12 -0.02)"/><path id="path31" class="cls-1" d="M262.85,15.39a17.94,17.94,0,0,1-4.72,12.24c-1.14,1.33-2.07,2-2.7,2a.87.87,0,0,1-.63-.22,1,1,0,0,1-.29-.64c0-.34.41-.86,1.22-1.62a15.86,15.86,0,0,0,4.93-11.85,16.83,16.83,0,0,0-5.1-12.71c-.68-.64-1-1.16-1-1.57a1,1,0,0,1,.29-.64,1,1,0,0,1,.63-.29c.75,0,1.9.93,3.33,2.78a20,20,0,0,1,4.08,12.56Z" transform="translate(-0.12 -0.02)"/><path id="path37" class="cls-1" d="M251,28.6H231.13a1.23,1.23,0,0,1-1.22-1.23,1.19,1.19,0,0,1,1.22-1.23H251a1.23,1.23,0,0,1,1.22,1.23A1.16,1.16,0,0,1,251,28.6Z" transform="translate(-0.12 -0.02)"/><path id="Shape" class="cls-1" d="M236.92,2.51a4.21,4.21,0,0,1,1.65,3.24c0,3.61-4.86,7.64-4.86,11.38a7.88,7.88,0,0,0,6,7.5c.41.1.61-.39.07-.52-1.19-.29-2.55-1.89-2.55-4.4,0-2.31,2.19-3.17,3.09-4.3a2.42,2.42,0,0,0,.17-3c-.53-.42-.17-1,.78-.32a3.18,3.18,0,0,1,1.46,3.12c-.36,1.52.12,2.41.9,2.51s1.65-.29,1.58-1-.53-1.52-.27-1.52c.56,0,1.75,1.4,1.75,3.61s-1.82,3.76-2.36,4.35c-.34.34.1.81.56.59a8.52,8.52,0,0,0,1-.61,8.3,8.3,0,0,0,3.67-7,9.1,9.1,0,0,0-3.06-7.37c-1.53-1.52-1.92-1.13-1.48-.39,1.31,2.26.51,3-.44,3-1.12,0-1.19-2.56-1.63-4.52a6.47,6.47,0,0,0-5.59-5.14c-.7,0-1.36.47-.49.84Z" transform="translate(-0.12 -0.02)"/></g></g></g></svg>