<svg id="Layer_1" data-name="Layer 1" xmlns="http://www.w3.org/2000/svg" viewBox="0 0 176.9 31"><defs><style>.cls-1{fill:#02b3e4;}</style></defs><title>udacity</title><path id="wordmark" class="cls-1" d="M58,17.6c0,2.6-2.1,4.5-5,4.5s-5-1.9-5-4.5V8H46v9.7c0,3.4,2.9,6.3,7,6.3s7-3,7-6.3V8H58ZM74.4,8H69V24h5.4c4.5,0,7.6-3.1,7.6-8S78.9,8,74.4,8Zm-.2,14H71V10h3.2c3.4,0,5.8,2.3,5.8,6C80,20,77.5,21.9,74.2,22Zm43.8.3c-3.6,0-6-2.7-6-6.3a5.88,5.88,0,0,1,6-6.2,7,7,0,0,1,4.5,1.6l.8-1.4a7.78,7.78,0,0,0-5.5-1.9A7.59,7.59,0,0,0,110,16a7.8,7.8,0,0,0,8,8.1,7.29,7.29,0,0,0,5.7-2.6l-1.1-1.2A6.87,6.87,0,0,1,118,22.3ZM133,8h2V24h-2Zm11,2h5V24h2V10h5V8H144Zm30.8-2L170,15.3,165.1,8H163l6,8.9V24h2V16.9L176.9,8ZM94.9,8,88.7,24h2l1.7-4.6L98.9,18l2.2,6h2L97,8ZM93,17.5l3-7.4h.1l2.5,6.3Z"/><path id="mark" class="cls-1" d="M29,.1,20,4.8V19.7a6.15,6.15,0,0,1-.2,1.9,8.45,8.45,0,0,1-.5,1.7c-.1.1-.1.3-.2.4a11.83,11.83,0,0,1-3.5-1.4,10.59,10.59,0,0,1-1.2-1,10.59,10.59,0,0,1-1-1.2,6.38,6.38,0,0,1-.8-1.4,7.49,7.49,0,0,1-.5-1.6,8.6,8.6,0,0,1-.1-1.6V1.2L10,0,0,5.9V19.6A11.37,11.37,0,0,0,11.3,31,11,11,0,0,0,17,29.5l8.4-4.8A10.34,10.34,0,0,0,31,15.6V1.3ZM17.9,26.2a9.11,9.11,0,0,1-2.6,1.9c-.6.2-1.3.5-1.9.7a11,11,0,0,1-1.8.2,16.35,16.35,0,0,1-2.2-.2,8.45,8.45,0,0,1-1.7-.5,6.47,6.47,0,0,1-1.6-.9,9.76,9.76,0,0,1-2.5-2.5c-.3-.5-.6-1-.9-1.6a10.93,10.93,0,0,1-.5-1.7,7.14,7.14,0,0,1-.2-2V7.1l8-4.7V15.5a10.48,10.48,0,0,0,8.4,10.1C18.2,25.8,18.1,26,17.9,26.2Zm11-9a8.8,8.8,0,0,1-.5,1.5,7.54,7.54,0,0,1-1,1.7,9.63,9.63,0,0,1-2.7,2.1,13,13,0,0,1-3.1,1.1,10,10,0,0,0,.5-3.9L22,6l7-3.7V15.6A8.6,8.6,0,0,1,28.9,17.2Z"/></svg>